G04 #@! TF.GenerationSoftware,KiCad,Pcbnew,5.1.2-f72e74a~84~ubuntu18.04.1*
G04 #@! TF.CreationDate,2019-06-06T15:51:32+08:00*
G04 #@! TF.ProjectId,stm32_aux_keyboard,73746d33-325f-4617-9578-5f6b6579626f,rev?*
G04 #@! TF.SameCoordinates,Original*
G04 #@! TF.FileFunction,Paste,Top*
G04 #@! TF.FilePolarity,Positive*
%FSLAX46Y46*%
G04 Gerber Fmt 4.6, Leading zero omitted, Abs format (unit mm)*
G04 Created by KiCad (PCBNEW 5.1.2-f72e74a~84~ubuntu18.04.1) date 2019-06-06 15:51:32*
%MOMM*%
%LPD*%
G04 APERTURE LIST*
%ADD10R,1.900000X1.300000*%
%ADD11R,2.500000X2.500000*%
%ADD12R,1.200000X1.400000*%
%ADD13R,1.998980X5.499100*%
%ADD14R,1.500000X1.900000*%
%ADD15R,0.400000X1.350000*%
%ADD16R,1.300000X0.250000*%
%ADD17R,0.250000X1.300000*%
%ADD18R,1.000000X0.800000*%
%ADD19R,1.560000X0.650000*%
%ADD20R,1.500000X1.000000*%
%ADD21C,0.100000*%
%ADD22C,0.875000*%
%ADD23C,0.950000*%
%ADD24R,0.400000X0.900000*%
%ADD25C,0.300000*%
%ADD26R,1.500000X1.500000*%
%ADD27C,1.600000*%
%ADD28R,0.900000X0.400000*%
G04 APERTURE END LIST*
D10*
X101100000Y-85250000D03*
X101100000Y-90750000D03*
X97900000Y-90750000D03*
X97900000Y-85250000D03*
D11*
X85000000Y-110500000D03*
X78000000Y-110500000D03*
X78000000Y-103500000D03*
X85000000Y-103500000D03*
D12*
X88942500Y-89227000D03*
X88942500Y-87027000D03*
X87242500Y-89227000D03*
X87242500Y-87027000D03*
D13*
X91500000Y-92749800D03*
X91500000Y-83250200D03*
D14*
X86460000Y-21612500D03*
D15*
X85460000Y-24312500D03*
X84810000Y-24312500D03*
X84160000Y-24312500D03*
X86760000Y-24312500D03*
X86110000Y-24312500D03*
D14*
X84460000Y-21612500D03*
X76000000Y-21612500D03*
D15*
X75000000Y-24312500D03*
X74350000Y-24312500D03*
X73700000Y-24312500D03*
X76300000Y-24312500D03*
X75650000Y-24312500D03*
D14*
X74000000Y-21612500D03*
D16*
X96800000Y-42060000D03*
X96800000Y-42560000D03*
X96800000Y-43060000D03*
X96800000Y-43560000D03*
X96800000Y-44060000D03*
X96800000Y-44560000D03*
X96800000Y-45060000D03*
X96800000Y-45560000D03*
X96800000Y-46060000D03*
X96800000Y-46560000D03*
X96800000Y-47060000D03*
X96800000Y-47560000D03*
D17*
X98400000Y-49160000D03*
X98900000Y-49160000D03*
X99400000Y-49160000D03*
X99900000Y-49160000D03*
X100400000Y-49160000D03*
X100900000Y-49160000D03*
X101400000Y-49160000D03*
X101900000Y-49160000D03*
X102400000Y-49160000D03*
X102900000Y-49160000D03*
X103400000Y-49160000D03*
X103900000Y-49160000D03*
D16*
X105500000Y-47560000D03*
X105500000Y-47060000D03*
X105500000Y-46560000D03*
X105500000Y-46060000D03*
X105500000Y-45560000D03*
X105500000Y-45060000D03*
X105500000Y-44560000D03*
X105500000Y-44060000D03*
X105500000Y-43560000D03*
X105500000Y-43060000D03*
X105500000Y-42560000D03*
X105500000Y-42060000D03*
D17*
X103900000Y-40460000D03*
X103400000Y-40460000D03*
X102900000Y-40460000D03*
X102400000Y-40460000D03*
X101900000Y-40460000D03*
X101400000Y-40460000D03*
X100900000Y-40460000D03*
X100400000Y-40460000D03*
X99900000Y-40460000D03*
X99400000Y-40460000D03*
X98900000Y-40460000D03*
X98400000Y-40460000D03*
D18*
X83360000Y-29150000D03*
X83360000Y-27050000D03*
X83360000Y-28100000D03*
X81240000Y-27050000D03*
X81240000Y-29150000D03*
X81240000Y-28100000D03*
D19*
X26110000Y-33940000D03*
X26110000Y-35840000D03*
X23410000Y-35840000D03*
X23410000Y-34890000D03*
X23410000Y-33940000D03*
D20*
X90560000Y-107810000D03*
X90560000Y-111010000D03*
X95460000Y-107810000D03*
X95460000Y-111010000D03*
X90670000Y-100810000D03*
X90670000Y-104010000D03*
X95570000Y-100810000D03*
X95570000Y-104010000D03*
X75050000Y-73900000D03*
X75050000Y-77100000D03*
X79950000Y-73900000D03*
X79950000Y-77100000D03*
X55050000Y-73900000D03*
X55050000Y-77100000D03*
X59950000Y-73900000D03*
X59950000Y-77100000D03*
X35050000Y-73900000D03*
X35050000Y-77100000D03*
X39950000Y-73900000D03*
X39950000Y-77100000D03*
X75050000Y-54400000D03*
X75050000Y-57600000D03*
X79950000Y-54400000D03*
X79950000Y-57600000D03*
X55050000Y-54400000D03*
X55050000Y-57600000D03*
X59950000Y-54400000D03*
X59950000Y-57600000D03*
X35050000Y-54400000D03*
X35050000Y-57600000D03*
X39950000Y-54400000D03*
X39950000Y-57600000D03*
X75050000Y-34900000D03*
X75050000Y-38100000D03*
X79950000Y-34900000D03*
X79950000Y-38100000D03*
X55050000Y-34900000D03*
X55050000Y-38100000D03*
X59950000Y-34900000D03*
X59950000Y-38100000D03*
X35050000Y-34900000D03*
X35050000Y-38100000D03*
X39950000Y-34900000D03*
X39950000Y-38100000D03*
D21*
G36*
X23562691Y-47666053D02*
G01*
X23583926Y-47669203D01*
X23604750Y-47674419D01*
X23624962Y-47681651D01*
X23644368Y-47690830D01*
X23662781Y-47701866D01*
X23680024Y-47714654D01*
X23695930Y-47729070D01*
X23710346Y-47744976D01*
X23723134Y-47762219D01*
X23734170Y-47780632D01*
X23743349Y-47800038D01*
X23750581Y-47820250D01*
X23755797Y-47841074D01*
X23758947Y-47862309D01*
X23760000Y-47883750D01*
X23760000Y-48396250D01*
X23758947Y-48417691D01*
X23755797Y-48438926D01*
X23750581Y-48459750D01*
X23743349Y-48479962D01*
X23734170Y-48499368D01*
X23723134Y-48517781D01*
X23710346Y-48535024D01*
X23695930Y-48550930D01*
X23680024Y-48565346D01*
X23662781Y-48578134D01*
X23644368Y-48589170D01*
X23624962Y-48598349D01*
X23604750Y-48605581D01*
X23583926Y-48610797D01*
X23562691Y-48613947D01*
X23541250Y-48615000D01*
X23103750Y-48615000D01*
X23082309Y-48613947D01*
X23061074Y-48610797D01*
X23040250Y-48605581D01*
X23020038Y-48598349D01*
X23000632Y-48589170D01*
X22982219Y-48578134D01*
X22964976Y-48565346D01*
X22949070Y-48550930D01*
X22934654Y-48535024D01*
X22921866Y-48517781D01*
X22910830Y-48499368D01*
X22901651Y-48479962D01*
X22894419Y-48459750D01*
X22889203Y-48438926D01*
X22886053Y-48417691D01*
X22885000Y-48396250D01*
X22885000Y-47883750D01*
X22886053Y-47862309D01*
X22889203Y-47841074D01*
X22894419Y-47820250D01*
X22901651Y-47800038D01*
X22910830Y-47780632D01*
X22921866Y-47762219D01*
X22934654Y-47744976D01*
X22949070Y-47729070D01*
X22964976Y-47714654D01*
X22982219Y-47701866D01*
X23000632Y-47690830D01*
X23020038Y-47681651D01*
X23040250Y-47674419D01*
X23061074Y-47669203D01*
X23082309Y-47666053D01*
X23103750Y-47665000D01*
X23541250Y-47665000D01*
X23562691Y-47666053D01*
X23562691Y-47666053D01*
G37*
D22*
X23322500Y-48140000D03*
D21*
G36*
X25137691Y-47666053D02*
G01*
X25158926Y-47669203D01*
X25179750Y-47674419D01*
X25199962Y-47681651D01*
X25219368Y-47690830D01*
X25237781Y-47701866D01*
X25255024Y-47714654D01*
X25270930Y-47729070D01*
X25285346Y-47744976D01*
X25298134Y-47762219D01*
X25309170Y-47780632D01*
X25318349Y-47800038D01*
X25325581Y-47820250D01*
X25330797Y-47841074D01*
X25333947Y-47862309D01*
X25335000Y-47883750D01*
X25335000Y-48396250D01*
X25333947Y-48417691D01*
X25330797Y-48438926D01*
X25325581Y-48459750D01*
X25318349Y-48479962D01*
X25309170Y-48499368D01*
X25298134Y-48517781D01*
X25285346Y-48535024D01*
X25270930Y-48550930D01*
X25255024Y-48565346D01*
X25237781Y-48578134D01*
X25219368Y-48589170D01*
X25199962Y-48598349D01*
X25179750Y-48605581D01*
X25158926Y-48610797D01*
X25137691Y-48613947D01*
X25116250Y-48615000D01*
X24678750Y-48615000D01*
X24657309Y-48613947D01*
X24636074Y-48610797D01*
X24615250Y-48605581D01*
X24595038Y-48598349D01*
X24575632Y-48589170D01*
X24557219Y-48578134D01*
X24539976Y-48565346D01*
X24524070Y-48550930D01*
X24509654Y-48535024D01*
X24496866Y-48517781D01*
X24485830Y-48499368D01*
X24476651Y-48479962D01*
X24469419Y-48459750D01*
X24464203Y-48438926D01*
X24461053Y-48417691D01*
X24460000Y-48396250D01*
X24460000Y-47883750D01*
X24461053Y-47862309D01*
X24464203Y-47841074D01*
X24469419Y-47820250D01*
X24476651Y-47800038D01*
X24485830Y-47780632D01*
X24496866Y-47762219D01*
X24509654Y-47744976D01*
X24524070Y-47729070D01*
X24539976Y-47714654D01*
X24557219Y-47701866D01*
X24575632Y-47690830D01*
X24595038Y-47681651D01*
X24615250Y-47674419D01*
X24636074Y-47669203D01*
X24657309Y-47666053D01*
X24678750Y-47665000D01*
X25116250Y-47665000D01*
X25137691Y-47666053D01*
X25137691Y-47666053D01*
G37*
D22*
X24897500Y-48140000D03*
D21*
G36*
X23402691Y-44516053D02*
G01*
X23423926Y-44519203D01*
X23444750Y-44524419D01*
X23464962Y-44531651D01*
X23484368Y-44540830D01*
X23502781Y-44551866D01*
X23520024Y-44564654D01*
X23535930Y-44579070D01*
X23550346Y-44594976D01*
X23563134Y-44612219D01*
X23574170Y-44630632D01*
X23583349Y-44650038D01*
X23590581Y-44670250D01*
X23595797Y-44691074D01*
X23598947Y-44712309D01*
X23600000Y-44733750D01*
X23600000Y-45246250D01*
X23598947Y-45267691D01*
X23595797Y-45288926D01*
X23590581Y-45309750D01*
X23583349Y-45329962D01*
X23574170Y-45349368D01*
X23563134Y-45367781D01*
X23550346Y-45385024D01*
X23535930Y-45400930D01*
X23520024Y-45415346D01*
X23502781Y-45428134D01*
X23484368Y-45439170D01*
X23464962Y-45448349D01*
X23444750Y-45455581D01*
X23423926Y-45460797D01*
X23402691Y-45463947D01*
X23381250Y-45465000D01*
X22943750Y-45465000D01*
X22922309Y-45463947D01*
X22901074Y-45460797D01*
X22880250Y-45455581D01*
X22860038Y-45448349D01*
X22840632Y-45439170D01*
X22822219Y-45428134D01*
X22804976Y-45415346D01*
X22789070Y-45400930D01*
X22774654Y-45385024D01*
X22761866Y-45367781D01*
X22750830Y-45349368D01*
X22741651Y-45329962D01*
X22734419Y-45309750D01*
X22729203Y-45288926D01*
X22726053Y-45267691D01*
X22725000Y-45246250D01*
X22725000Y-44733750D01*
X22726053Y-44712309D01*
X22729203Y-44691074D01*
X22734419Y-44670250D01*
X22741651Y-44650038D01*
X22750830Y-44630632D01*
X22761866Y-44612219D01*
X22774654Y-44594976D01*
X22789070Y-44579070D01*
X22804976Y-44564654D01*
X22822219Y-44551866D01*
X22840632Y-44540830D01*
X22860038Y-44531651D01*
X22880250Y-44524419D01*
X22901074Y-44519203D01*
X22922309Y-44516053D01*
X22943750Y-44515000D01*
X23381250Y-44515000D01*
X23402691Y-44516053D01*
X23402691Y-44516053D01*
G37*
D22*
X23162500Y-44990000D03*
D21*
G36*
X24977691Y-44516053D02*
G01*
X24998926Y-44519203D01*
X25019750Y-44524419D01*
X25039962Y-44531651D01*
X25059368Y-44540830D01*
X25077781Y-44551866D01*
X25095024Y-44564654D01*
X25110930Y-44579070D01*
X25125346Y-44594976D01*
X25138134Y-44612219D01*
X25149170Y-44630632D01*
X25158349Y-44650038D01*
X25165581Y-44670250D01*
X25170797Y-44691074D01*
X25173947Y-44712309D01*
X25175000Y-44733750D01*
X25175000Y-45246250D01*
X25173947Y-45267691D01*
X25170797Y-45288926D01*
X25165581Y-45309750D01*
X25158349Y-45329962D01*
X25149170Y-45349368D01*
X25138134Y-45367781D01*
X25125346Y-45385024D01*
X25110930Y-45400930D01*
X25095024Y-45415346D01*
X25077781Y-45428134D01*
X25059368Y-45439170D01*
X25039962Y-45448349D01*
X25019750Y-45455581D01*
X24998926Y-45460797D01*
X24977691Y-45463947D01*
X24956250Y-45465000D01*
X24518750Y-45465000D01*
X24497309Y-45463947D01*
X24476074Y-45460797D01*
X24455250Y-45455581D01*
X24435038Y-45448349D01*
X24415632Y-45439170D01*
X24397219Y-45428134D01*
X24379976Y-45415346D01*
X24364070Y-45400930D01*
X24349654Y-45385024D01*
X24336866Y-45367781D01*
X24325830Y-45349368D01*
X24316651Y-45329962D01*
X24309419Y-45309750D01*
X24304203Y-45288926D01*
X24301053Y-45267691D01*
X24300000Y-45246250D01*
X24300000Y-44733750D01*
X24301053Y-44712309D01*
X24304203Y-44691074D01*
X24309419Y-44670250D01*
X24316651Y-44650038D01*
X24325830Y-44630632D01*
X24336866Y-44612219D01*
X24349654Y-44594976D01*
X24364070Y-44579070D01*
X24379976Y-44564654D01*
X24397219Y-44551866D01*
X24415632Y-44540830D01*
X24435038Y-44531651D01*
X24455250Y-44524419D01*
X24476074Y-44519203D01*
X24497309Y-44516053D01*
X24518750Y-44515000D01*
X24956250Y-44515000D01*
X24977691Y-44516053D01*
X24977691Y-44516053D01*
G37*
D22*
X24737500Y-44990000D03*
D21*
G36*
X23482691Y-41796053D02*
G01*
X23503926Y-41799203D01*
X23524750Y-41804419D01*
X23544962Y-41811651D01*
X23564368Y-41820830D01*
X23582781Y-41831866D01*
X23600024Y-41844654D01*
X23615930Y-41859070D01*
X23630346Y-41874976D01*
X23643134Y-41892219D01*
X23654170Y-41910632D01*
X23663349Y-41930038D01*
X23670581Y-41950250D01*
X23675797Y-41971074D01*
X23678947Y-41992309D01*
X23680000Y-42013750D01*
X23680000Y-42526250D01*
X23678947Y-42547691D01*
X23675797Y-42568926D01*
X23670581Y-42589750D01*
X23663349Y-42609962D01*
X23654170Y-42629368D01*
X23643134Y-42647781D01*
X23630346Y-42665024D01*
X23615930Y-42680930D01*
X23600024Y-42695346D01*
X23582781Y-42708134D01*
X23564368Y-42719170D01*
X23544962Y-42728349D01*
X23524750Y-42735581D01*
X23503926Y-42740797D01*
X23482691Y-42743947D01*
X23461250Y-42745000D01*
X23023750Y-42745000D01*
X23002309Y-42743947D01*
X22981074Y-42740797D01*
X22960250Y-42735581D01*
X22940038Y-42728349D01*
X22920632Y-42719170D01*
X22902219Y-42708134D01*
X22884976Y-42695346D01*
X22869070Y-42680930D01*
X22854654Y-42665024D01*
X22841866Y-42647781D01*
X22830830Y-42629368D01*
X22821651Y-42609962D01*
X22814419Y-42589750D01*
X22809203Y-42568926D01*
X22806053Y-42547691D01*
X22805000Y-42526250D01*
X22805000Y-42013750D01*
X22806053Y-41992309D01*
X22809203Y-41971074D01*
X22814419Y-41950250D01*
X22821651Y-41930038D01*
X22830830Y-41910632D01*
X22841866Y-41892219D01*
X22854654Y-41874976D01*
X22869070Y-41859070D01*
X22884976Y-41844654D01*
X22902219Y-41831866D01*
X22920632Y-41820830D01*
X22940038Y-41811651D01*
X22960250Y-41804419D01*
X22981074Y-41799203D01*
X23002309Y-41796053D01*
X23023750Y-41795000D01*
X23461250Y-41795000D01*
X23482691Y-41796053D01*
X23482691Y-41796053D01*
G37*
D22*
X23242500Y-42270000D03*
D21*
G36*
X25057691Y-41796053D02*
G01*
X25078926Y-41799203D01*
X25099750Y-41804419D01*
X25119962Y-41811651D01*
X25139368Y-41820830D01*
X25157781Y-41831866D01*
X25175024Y-41844654D01*
X25190930Y-41859070D01*
X25205346Y-41874976D01*
X25218134Y-41892219D01*
X25229170Y-41910632D01*
X25238349Y-41930038D01*
X25245581Y-41950250D01*
X25250797Y-41971074D01*
X25253947Y-41992309D01*
X25255000Y-42013750D01*
X25255000Y-42526250D01*
X25253947Y-42547691D01*
X25250797Y-42568926D01*
X25245581Y-42589750D01*
X25238349Y-42609962D01*
X25229170Y-42629368D01*
X25218134Y-42647781D01*
X25205346Y-42665024D01*
X25190930Y-42680930D01*
X25175024Y-42695346D01*
X25157781Y-42708134D01*
X25139368Y-42719170D01*
X25119962Y-42728349D01*
X25099750Y-42735581D01*
X25078926Y-42740797D01*
X25057691Y-42743947D01*
X25036250Y-42745000D01*
X24598750Y-42745000D01*
X24577309Y-42743947D01*
X24556074Y-42740797D01*
X24535250Y-42735581D01*
X24515038Y-42728349D01*
X24495632Y-42719170D01*
X24477219Y-42708134D01*
X24459976Y-42695346D01*
X24444070Y-42680930D01*
X24429654Y-42665024D01*
X24416866Y-42647781D01*
X24405830Y-42629368D01*
X24396651Y-42609962D01*
X24389419Y-42589750D01*
X24384203Y-42568926D01*
X24381053Y-42547691D01*
X24380000Y-42526250D01*
X24380000Y-42013750D01*
X24381053Y-41992309D01*
X24384203Y-41971074D01*
X24389419Y-41950250D01*
X24396651Y-41930038D01*
X24405830Y-41910632D01*
X24416866Y-41892219D01*
X24429654Y-41874976D01*
X24444070Y-41859070D01*
X24459976Y-41844654D01*
X24477219Y-41831866D01*
X24495632Y-41820830D01*
X24515038Y-41811651D01*
X24535250Y-41804419D01*
X24556074Y-41799203D01*
X24577309Y-41796053D01*
X24598750Y-41795000D01*
X25036250Y-41795000D01*
X25057691Y-41796053D01*
X25057691Y-41796053D01*
G37*
D22*
X24817500Y-42270000D03*
D21*
G36*
X25645779Y-37816144D02*
G01*
X25668834Y-37819563D01*
X25691443Y-37825227D01*
X25713387Y-37833079D01*
X25734457Y-37843044D01*
X25754448Y-37855026D01*
X25773168Y-37868910D01*
X25790438Y-37884562D01*
X25806090Y-37901832D01*
X25819974Y-37920552D01*
X25831956Y-37940543D01*
X25841921Y-37961613D01*
X25849773Y-37983557D01*
X25855437Y-38006166D01*
X25858856Y-38029221D01*
X25860000Y-38052500D01*
X25860000Y-38527500D01*
X25858856Y-38550779D01*
X25855437Y-38573834D01*
X25849773Y-38596443D01*
X25841921Y-38618387D01*
X25831956Y-38639457D01*
X25819974Y-38659448D01*
X25806090Y-38678168D01*
X25790438Y-38695438D01*
X25773168Y-38711090D01*
X25754448Y-38724974D01*
X25734457Y-38736956D01*
X25713387Y-38746921D01*
X25691443Y-38754773D01*
X25668834Y-38760437D01*
X25645779Y-38763856D01*
X25622500Y-38765000D01*
X25047500Y-38765000D01*
X25024221Y-38763856D01*
X25001166Y-38760437D01*
X24978557Y-38754773D01*
X24956613Y-38746921D01*
X24935543Y-38736956D01*
X24915552Y-38724974D01*
X24896832Y-38711090D01*
X24879562Y-38695438D01*
X24863910Y-38678168D01*
X24850026Y-38659448D01*
X24838044Y-38639457D01*
X24828079Y-38618387D01*
X24820227Y-38596443D01*
X24814563Y-38573834D01*
X24811144Y-38550779D01*
X24810000Y-38527500D01*
X24810000Y-38052500D01*
X24811144Y-38029221D01*
X24814563Y-38006166D01*
X24820227Y-37983557D01*
X24828079Y-37961613D01*
X24838044Y-37940543D01*
X24850026Y-37920552D01*
X24863910Y-37901832D01*
X24879562Y-37884562D01*
X24896832Y-37868910D01*
X24915552Y-37855026D01*
X24935543Y-37843044D01*
X24956613Y-37833079D01*
X24978557Y-37825227D01*
X25001166Y-37819563D01*
X25024221Y-37816144D01*
X25047500Y-37815000D01*
X25622500Y-37815000D01*
X25645779Y-37816144D01*
X25645779Y-37816144D01*
G37*
D23*
X25335000Y-38290000D03*
D21*
G36*
X23895779Y-37816144D02*
G01*
X23918834Y-37819563D01*
X23941443Y-37825227D01*
X23963387Y-37833079D01*
X23984457Y-37843044D01*
X24004448Y-37855026D01*
X24023168Y-37868910D01*
X24040438Y-37884562D01*
X24056090Y-37901832D01*
X24069974Y-37920552D01*
X24081956Y-37940543D01*
X24091921Y-37961613D01*
X24099773Y-37983557D01*
X24105437Y-38006166D01*
X24108856Y-38029221D01*
X24110000Y-38052500D01*
X24110000Y-38527500D01*
X24108856Y-38550779D01*
X24105437Y-38573834D01*
X24099773Y-38596443D01*
X24091921Y-38618387D01*
X24081956Y-38639457D01*
X24069974Y-38659448D01*
X24056090Y-38678168D01*
X24040438Y-38695438D01*
X24023168Y-38711090D01*
X24004448Y-38724974D01*
X23984457Y-38736956D01*
X23963387Y-38746921D01*
X23941443Y-38754773D01*
X23918834Y-38760437D01*
X23895779Y-38763856D01*
X23872500Y-38765000D01*
X23297500Y-38765000D01*
X23274221Y-38763856D01*
X23251166Y-38760437D01*
X23228557Y-38754773D01*
X23206613Y-38746921D01*
X23185543Y-38736956D01*
X23165552Y-38724974D01*
X23146832Y-38711090D01*
X23129562Y-38695438D01*
X23113910Y-38678168D01*
X23100026Y-38659448D01*
X23088044Y-38639457D01*
X23078079Y-38618387D01*
X23070227Y-38596443D01*
X23064563Y-38573834D01*
X23061144Y-38550779D01*
X23060000Y-38527500D01*
X23060000Y-38052500D01*
X23061144Y-38029221D01*
X23064563Y-38006166D01*
X23070227Y-37983557D01*
X23078079Y-37961613D01*
X23088044Y-37940543D01*
X23100026Y-37920552D01*
X23113910Y-37901832D01*
X23129562Y-37884562D01*
X23146832Y-37868910D01*
X23165552Y-37855026D01*
X23185543Y-37843044D01*
X23206613Y-37833079D01*
X23228557Y-37825227D01*
X23251166Y-37819563D01*
X23274221Y-37816144D01*
X23297500Y-37815000D01*
X23872500Y-37815000D01*
X23895779Y-37816144D01*
X23895779Y-37816144D01*
G37*
D23*
X23585000Y-38290000D03*
D21*
G36*
X25165779Y-49636144D02*
G01*
X25188834Y-49639563D01*
X25211443Y-49645227D01*
X25233387Y-49653079D01*
X25254457Y-49663044D01*
X25274448Y-49675026D01*
X25293168Y-49688910D01*
X25310438Y-49704562D01*
X25326090Y-49721832D01*
X25339974Y-49740552D01*
X25351956Y-49760543D01*
X25361921Y-49781613D01*
X25369773Y-49803557D01*
X25375437Y-49826166D01*
X25378856Y-49849221D01*
X25380000Y-49872500D01*
X25380000Y-50347500D01*
X25378856Y-50370779D01*
X25375437Y-50393834D01*
X25369773Y-50416443D01*
X25361921Y-50438387D01*
X25351956Y-50459457D01*
X25339974Y-50479448D01*
X25326090Y-50498168D01*
X25310438Y-50515438D01*
X25293168Y-50531090D01*
X25274448Y-50544974D01*
X25254457Y-50556956D01*
X25233387Y-50566921D01*
X25211443Y-50574773D01*
X25188834Y-50580437D01*
X25165779Y-50583856D01*
X25142500Y-50585000D01*
X24567500Y-50585000D01*
X24544221Y-50583856D01*
X24521166Y-50580437D01*
X24498557Y-50574773D01*
X24476613Y-50566921D01*
X24455543Y-50556956D01*
X24435552Y-50544974D01*
X24416832Y-50531090D01*
X24399562Y-50515438D01*
X24383910Y-50498168D01*
X24370026Y-50479448D01*
X24358044Y-50459457D01*
X24348079Y-50438387D01*
X24340227Y-50416443D01*
X24334563Y-50393834D01*
X24331144Y-50370779D01*
X24330000Y-50347500D01*
X24330000Y-49872500D01*
X24331144Y-49849221D01*
X24334563Y-49826166D01*
X24340227Y-49803557D01*
X24348079Y-49781613D01*
X24358044Y-49760543D01*
X24370026Y-49740552D01*
X24383910Y-49721832D01*
X24399562Y-49704562D01*
X24416832Y-49688910D01*
X24435552Y-49675026D01*
X24455543Y-49663044D01*
X24476613Y-49653079D01*
X24498557Y-49645227D01*
X24521166Y-49639563D01*
X24544221Y-49636144D01*
X24567500Y-49635000D01*
X25142500Y-49635000D01*
X25165779Y-49636144D01*
X25165779Y-49636144D01*
G37*
D23*
X24855000Y-50110000D03*
D21*
G36*
X23415779Y-49636144D02*
G01*
X23438834Y-49639563D01*
X23461443Y-49645227D01*
X23483387Y-49653079D01*
X23504457Y-49663044D01*
X23524448Y-49675026D01*
X23543168Y-49688910D01*
X23560438Y-49704562D01*
X23576090Y-49721832D01*
X23589974Y-49740552D01*
X23601956Y-49760543D01*
X23611921Y-49781613D01*
X23619773Y-49803557D01*
X23625437Y-49826166D01*
X23628856Y-49849221D01*
X23630000Y-49872500D01*
X23630000Y-50347500D01*
X23628856Y-50370779D01*
X23625437Y-50393834D01*
X23619773Y-50416443D01*
X23611921Y-50438387D01*
X23601956Y-50459457D01*
X23589974Y-50479448D01*
X23576090Y-50498168D01*
X23560438Y-50515438D01*
X23543168Y-50531090D01*
X23524448Y-50544974D01*
X23504457Y-50556956D01*
X23483387Y-50566921D01*
X23461443Y-50574773D01*
X23438834Y-50580437D01*
X23415779Y-50583856D01*
X23392500Y-50585000D01*
X22817500Y-50585000D01*
X22794221Y-50583856D01*
X22771166Y-50580437D01*
X22748557Y-50574773D01*
X22726613Y-50566921D01*
X22705543Y-50556956D01*
X22685552Y-50544974D01*
X22666832Y-50531090D01*
X22649562Y-50515438D01*
X22633910Y-50498168D01*
X22620026Y-50479448D01*
X22608044Y-50459457D01*
X22598079Y-50438387D01*
X22590227Y-50416443D01*
X22584563Y-50393834D01*
X22581144Y-50370779D01*
X22580000Y-50347500D01*
X22580000Y-49872500D01*
X22581144Y-49849221D01*
X22584563Y-49826166D01*
X22590227Y-49803557D01*
X22598079Y-49781613D01*
X22608044Y-49760543D01*
X22620026Y-49740552D01*
X22633910Y-49721832D01*
X22649562Y-49704562D01*
X22666832Y-49688910D01*
X22685552Y-49675026D01*
X22705543Y-49663044D01*
X22726613Y-49653079D01*
X22748557Y-49645227D01*
X22771166Y-49639563D01*
X22794221Y-49636144D01*
X22817500Y-49635000D01*
X23392500Y-49635000D01*
X23415779Y-49636144D01*
X23415779Y-49636144D01*
G37*
D23*
X23105000Y-50110000D03*
D21*
G36*
X93052691Y-31626053D02*
G01*
X93073926Y-31629203D01*
X93094750Y-31634419D01*
X93114962Y-31641651D01*
X93134368Y-31650830D01*
X93152781Y-31661866D01*
X93170024Y-31674654D01*
X93185930Y-31689070D01*
X93200346Y-31704976D01*
X93213134Y-31722219D01*
X93224170Y-31740632D01*
X93233349Y-31760038D01*
X93240581Y-31780250D01*
X93245797Y-31801074D01*
X93248947Y-31822309D01*
X93250000Y-31843750D01*
X93250000Y-32356250D01*
X93248947Y-32377691D01*
X93245797Y-32398926D01*
X93240581Y-32419750D01*
X93233349Y-32439962D01*
X93224170Y-32459368D01*
X93213134Y-32477781D01*
X93200346Y-32495024D01*
X93185930Y-32510930D01*
X93170024Y-32525346D01*
X93152781Y-32538134D01*
X93134368Y-32549170D01*
X93114962Y-32558349D01*
X93094750Y-32565581D01*
X93073926Y-32570797D01*
X93052691Y-32573947D01*
X93031250Y-32575000D01*
X92593750Y-32575000D01*
X92572309Y-32573947D01*
X92551074Y-32570797D01*
X92530250Y-32565581D01*
X92510038Y-32558349D01*
X92490632Y-32549170D01*
X92472219Y-32538134D01*
X92454976Y-32525346D01*
X92439070Y-32510930D01*
X92424654Y-32495024D01*
X92411866Y-32477781D01*
X92400830Y-32459368D01*
X92391651Y-32439962D01*
X92384419Y-32419750D01*
X92379203Y-32398926D01*
X92376053Y-32377691D01*
X92375000Y-32356250D01*
X92375000Y-31843750D01*
X92376053Y-31822309D01*
X92379203Y-31801074D01*
X92384419Y-31780250D01*
X92391651Y-31760038D01*
X92400830Y-31740632D01*
X92411866Y-31722219D01*
X92424654Y-31704976D01*
X92439070Y-31689070D01*
X92454976Y-31674654D01*
X92472219Y-31661866D01*
X92490632Y-31650830D01*
X92510038Y-31641651D01*
X92530250Y-31634419D01*
X92551074Y-31629203D01*
X92572309Y-31626053D01*
X92593750Y-31625000D01*
X93031250Y-31625000D01*
X93052691Y-31626053D01*
X93052691Y-31626053D01*
G37*
D22*
X92812500Y-32100000D03*
D21*
G36*
X94627691Y-31626053D02*
G01*
X94648926Y-31629203D01*
X94669750Y-31634419D01*
X94689962Y-31641651D01*
X94709368Y-31650830D01*
X94727781Y-31661866D01*
X94745024Y-31674654D01*
X94760930Y-31689070D01*
X94775346Y-31704976D01*
X94788134Y-31722219D01*
X94799170Y-31740632D01*
X94808349Y-31760038D01*
X94815581Y-31780250D01*
X94820797Y-31801074D01*
X94823947Y-31822309D01*
X94825000Y-31843750D01*
X94825000Y-32356250D01*
X94823947Y-32377691D01*
X94820797Y-32398926D01*
X94815581Y-32419750D01*
X94808349Y-32439962D01*
X94799170Y-32459368D01*
X94788134Y-32477781D01*
X94775346Y-32495024D01*
X94760930Y-32510930D01*
X94745024Y-32525346D01*
X94727781Y-32538134D01*
X94709368Y-32549170D01*
X94689962Y-32558349D01*
X94669750Y-32565581D01*
X94648926Y-32570797D01*
X94627691Y-32573947D01*
X94606250Y-32575000D01*
X94168750Y-32575000D01*
X94147309Y-32573947D01*
X94126074Y-32570797D01*
X94105250Y-32565581D01*
X94085038Y-32558349D01*
X94065632Y-32549170D01*
X94047219Y-32538134D01*
X94029976Y-32525346D01*
X94014070Y-32510930D01*
X93999654Y-32495024D01*
X93986866Y-32477781D01*
X93975830Y-32459368D01*
X93966651Y-32439962D01*
X93959419Y-32419750D01*
X93954203Y-32398926D01*
X93951053Y-32377691D01*
X93950000Y-32356250D01*
X93950000Y-31843750D01*
X93951053Y-31822309D01*
X93954203Y-31801074D01*
X93959419Y-31780250D01*
X93966651Y-31760038D01*
X93975830Y-31740632D01*
X93986866Y-31722219D01*
X93999654Y-31704976D01*
X94014070Y-31689070D01*
X94029976Y-31674654D01*
X94047219Y-31661866D01*
X94065632Y-31650830D01*
X94085038Y-31641651D01*
X94105250Y-31634419D01*
X94126074Y-31629203D01*
X94147309Y-31626053D01*
X94168750Y-31625000D01*
X94606250Y-31625000D01*
X94627691Y-31626053D01*
X94627691Y-31626053D01*
G37*
D22*
X94387500Y-32100000D03*
D24*
X99200000Y-33950000D03*
X98400000Y-33950000D03*
X97600000Y-33950000D03*
X96800000Y-33950000D03*
X99200000Y-35650000D03*
X96800000Y-35650000D03*
X98400000Y-35650000D03*
X97600000Y-35650000D03*
X94100000Y-50350000D03*
X93300000Y-50350000D03*
X92500000Y-50350000D03*
X91700000Y-50350000D03*
X94100000Y-52050000D03*
X91700000Y-52050000D03*
X93300000Y-52050000D03*
X92500000Y-52050000D03*
D21*
G36*
X93052691Y-33326053D02*
G01*
X93073926Y-33329203D01*
X93094750Y-33334419D01*
X93114962Y-33341651D01*
X93134368Y-33350830D01*
X93152781Y-33361866D01*
X93170024Y-33374654D01*
X93185930Y-33389070D01*
X93200346Y-33404976D01*
X93213134Y-33422219D01*
X93224170Y-33440632D01*
X93233349Y-33460038D01*
X93240581Y-33480250D01*
X93245797Y-33501074D01*
X93248947Y-33522309D01*
X93250000Y-33543750D01*
X93250000Y-34056250D01*
X93248947Y-34077691D01*
X93245797Y-34098926D01*
X93240581Y-34119750D01*
X93233349Y-34139962D01*
X93224170Y-34159368D01*
X93213134Y-34177781D01*
X93200346Y-34195024D01*
X93185930Y-34210930D01*
X93170024Y-34225346D01*
X93152781Y-34238134D01*
X93134368Y-34249170D01*
X93114962Y-34258349D01*
X93094750Y-34265581D01*
X93073926Y-34270797D01*
X93052691Y-34273947D01*
X93031250Y-34275000D01*
X92593750Y-34275000D01*
X92572309Y-34273947D01*
X92551074Y-34270797D01*
X92530250Y-34265581D01*
X92510038Y-34258349D01*
X92490632Y-34249170D01*
X92472219Y-34238134D01*
X92454976Y-34225346D01*
X92439070Y-34210930D01*
X92424654Y-34195024D01*
X92411866Y-34177781D01*
X92400830Y-34159368D01*
X92391651Y-34139962D01*
X92384419Y-34119750D01*
X92379203Y-34098926D01*
X92376053Y-34077691D01*
X92375000Y-34056250D01*
X92375000Y-33543750D01*
X92376053Y-33522309D01*
X92379203Y-33501074D01*
X92384419Y-33480250D01*
X92391651Y-33460038D01*
X92400830Y-33440632D01*
X92411866Y-33422219D01*
X92424654Y-33404976D01*
X92439070Y-33389070D01*
X92454976Y-33374654D01*
X92472219Y-33361866D01*
X92490632Y-33350830D01*
X92510038Y-33341651D01*
X92530250Y-33334419D01*
X92551074Y-33329203D01*
X92572309Y-33326053D01*
X92593750Y-33325000D01*
X93031250Y-33325000D01*
X93052691Y-33326053D01*
X93052691Y-33326053D01*
G37*
D22*
X92812500Y-33800000D03*
D21*
G36*
X94627691Y-33326053D02*
G01*
X94648926Y-33329203D01*
X94669750Y-33334419D01*
X94689962Y-33341651D01*
X94709368Y-33350830D01*
X94727781Y-33361866D01*
X94745024Y-33374654D01*
X94760930Y-33389070D01*
X94775346Y-33404976D01*
X94788134Y-33422219D01*
X94799170Y-33440632D01*
X94808349Y-33460038D01*
X94815581Y-33480250D01*
X94820797Y-33501074D01*
X94823947Y-33522309D01*
X94825000Y-33543750D01*
X94825000Y-34056250D01*
X94823947Y-34077691D01*
X94820797Y-34098926D01*
X94815581Y-34119750D01*
X94808349Y-34139962D01*
X94799170Y-34159368D01*
X94788134Y-34177781D01*
X94775346Y-34195024D01*
X94760930Y-34210930D01*
X94745024Y-34225346D01*
X94727781Y-34238134D01*
X94709368Y-34249170D01*
X94689962Y-34258349D01*
X94669750Y-34265581D01*
X94648926Y-34270797D01*
X94627691Y-34273947D01*
X94606250Y-34275000D01*
X94168750Y-34275000D01*
X94147309Y-34273947D01*
X94126074Y-34270797D01*
X94105250Y-34265581D01*
X94085038Y-34258349D01*
X94065632Y-34249170D01*
X94047219Y-34238134D01*
X94029976Y-34225346D01*
X94014070Y-34210930D01*
X93999654Y-34195024D01*
X93986866Y-34177781D01*
X93975830Y-34159368D01*
X93966651Y-34139962D01*
X93959419Y-34119750D01*
X93954203Y-34098926D01*
X93951053Y-34077691D01*
X93950000Y-34056250D01*
X93950000Y-33543750D01*
X93951053Y-33522309D01*
X93954203Y-33501074D01*
X93959419Y-33480250D01*
X93966651Y-33460038D01*
X93975830Y-33440632D01*
X93986866Y-33422219D01*
X93999654Y-33404976D01*
X94014070Y-33389070D01*
X94029976Y-33374654D01*
X94047219Y-33361866D01*
X94065632Y-33350830D01*
X94085038Y-33341651D01*
X94105250Y-33334419D01*
X94126074Y-33329203D01*
X94147309Y-33326053D01*
X94168750Y-33325000D01*
X94606250Y-33325000D01*
X94627691Y-33326053D01*
X94627691Y-33326053D01*
G37*
D22*
X94387500Y-33800000D03*
D21*
G36*
X94627691Y-34926053D02*
G01*
X94648926Y-34929203D01*
X94669750Y-34934419D01*
X94689962Y-34941651D01*
X94709368Y-34950830D01*
X94727781Y-34961866D01*
X94745024Y-34974654D01*
X94760930Y-34989070D01*
X94775346Y-35004976D01*
X94788134Y-35022219D01*
X94799170Y-35040632D01*
X94808349Y-35060038D01*
X94815581Y-35080250D01*
X94820797Y-35101074D01*
X94823947Y-35122309D01*
X94825000Y-35143750D01*
X94825000Y-35656250D01*
X94823947Y-35677691D01*
X94820797Y-35698926D01*
X94815581Y-35719750D01*
X94808349Y-35739962D01*
X94799170Y-35759368D01*
X94788134Y-35777781D01*
X94775346Y-35795024D01*
X94760930Y-35810930D01*
X94745024Y-35825346D01*
X94727781Y-35838134D01*
X94709368Y-35849170D01*
X94689962Y-35858349D01*
X94669750Y-35865581D01*
X94648926Y-35870797D01*
X94627691Y-35873947D01*
X94606250Y-35875000D01*
X94168750Y-35875000D01*
X94147309Y-35873947D01*
X94126074Y-35870797D01*
X94105250Y-35865581D01*
X94085038Y-35858349D01*
X94065632Y-35849170D01*
X94047219Y-35838134D01*
X94029976Y-35825346D01*
X94014070Y-35810930D01*
X93999654Y-35795024D01*
X93986866Y-35777781D01*
X93975830Y-35759368D01*
X93966651Y-35739962D01*
X93959419Y-35719750D01*
X93954203Y-35698926D01*
X93951053Y-35677691D01*
X93950000Y-35656250D01*
X93950000Y-35143750D01*
X93951053Y-35122309D01*
X93954203Y-35101074D01*
X93959419Y-35080250D01*
X93966651Y-35060038D01*
X93975830Y-35040632D01*
X93986866Y-35022219D01*
X93999654Y-35004976D01*
X94014070Y-34989070D01*
X94029976Y-34974654D01*
X94047219Y-34961866D01*
X94065632Y-34950830D01*
X94085038Y-34941651D01*
X94105250Y-34934419D01*
X94126074Y-34929203D01*
X94147309Y-34926053D01*
X94168750Y-34925000D01*
X94606250Y-34925000D01*
X94627691Y-34926053D01*
X94627691Y-34926053D01*
G37*
D22*
X94387500Y-35400000D03*
D21*
G36*
X93052691Y-34926053D02*
G01*
X93073926Y-34929203D01*
X93094750Y-34934419D01*
X93114962Y-34941651D01*
X93134368Y-34950830D01*
X93152781Y-34961866D01*
X93170024Y-34974654D01*
X93185930Y-34989070D01*
X93200346Y-35004976D01*
X93213134Y-35022219D01*
X93224170Y-35040632D01*
X93233349Y-35060038D01*
X93240581Y-35080250D01*
X93245797Y-35101074D01*
X93248947Y-35122309D01*
X93250000Y-35143750D01*
X93250000Y-35656250D01*
X93248947Y-35677691D01*
X93245797Y-35698926D01*
X93240581Y-35719750D01*
X93233349Y-35739962D01*
X93224170Y-35759368D01*
X93213134Y-35777781D01*
X93200346Y-35795024D01*
X93185930Y-35810930D01*
X93170024Y-35825346D01*
X93152781Y-35838134D01*
X93134368Y-35849170D01*
X93114962Y-35858349D01*
X93094750Y-35865581D01*
X93073926Y-35870797D01*
X93052691Y-35873947D01*
X93031250Y-35875000D01*
X92593750Y-35875000D01*
X92572309Y-35873947D01*
X92551074Y-35870797D01*
X92530250Y-35865581D01*
X92510038Y-35858349D01*
X92490632Y-35849170D01*
X92472219Y-35838134D01*
X92454976Y-35825346D01*
X92439070Y-35810930D01*
X92424654Y-35795024D01*
X92411866Y-35777781D01*
X92400830Y-35759368D01*
X92391651Y-35739962D01*
X92384419Y-35719750D01*
X92379203Y-35698926D01*
X92376053Y-35677691D01*
X92375000Y-35656250D01*
X92375000Y-35143750D01*
X92376053Y-35122309D01*
X92379203Y-35101074D01*
X92384419Y-35080250D01*
X92391651Y-35060038D01*
X92400830Y-35040632D01*
X92411866Y-35022219D01*
X92424654Y-35004976D01*
X92439070Y-34989070D01*
X92454976Y-34974654D01*
X92472219Y-34961866D01*
X92490632Y-34950830D01*
X92510038Y-34941651D01*
X92530250Y-34934419D01*
X92551074Y-34929203D01*
X92572309Y-34926053D01*
X92593750Y-34925000D01*
X93031250Y-34925000D01*
X93052691Y-34926053D01*
X93052691Y-34926053D01*
G37*
D22*
X92812500Y-35400000D03*
D21*
G36*
X92342351Y-67680361D02*
G01*
X92349632Y-67681441D01*
X92356771Y-67683229D01*
X92363701Y-67685709D01*
X92370355Y-67688856D01*
X92376668Y-67692640D01*
X92382579Y-67697024D01*
X92388033Y-67701967D01*
X92392976Y-67707421D01*
X92397360Y-67713332D01*
X92401144Y-67719645D01*
X92404291Y-67726299D01*
X92406771Y-67733229D01*
X92408559Y-67740368D01*
X92409639Y-67747649D01*
X92410000Y-67755000D01*
X92410000Y-69080000D01*
X92409639Y-69087351D01*
X92408559Y-69094632D01*
X92406771Y-69101771D01*
X92404291Y-69108701D01*
X92401144Y-69115355D01*
X92397360Y-69121668D01*
X92392976Y-69127579D01*
X92388033Y-69133033D01*
X92382579Y-69137976D01*
X92376668Y-69142360D01*
X92370355Y-69146144D01*
X92363701Y-69149291D01*
X92356771Y-69151771D01*
X92349632Y-69153559D01*
X92342351Y-69154639D01*
X92335000Y-69155000D01*
X92185000Y-69155000D01*
X92177649Y-69154639D01*
X92170368Y-69153559D01*
X92163229Y-69151771D01*
X92156299Y-69149291D01*
X92149645Y-69146144D01*
X92143332Y-69142360D01*
X92137421Y-69137976D01*
X92131967Y-69133033D01*
X92127024Y-69127579D01*
X92122640Y-69121668D01*
X92118856Y-69115355D01*
X92115709Y-69108701D01*
X92113229Y-69101771D01*
X92111441Y-69094632D01*
X92110361Y-69087351D01*
X92110000Y-69080000D01*
X92110000Y-67755000D01*
X92110361Y-67747649D01*
X92111441Y-67740368D01*
X92113229Y-67733229D01*
X92115709Y-67726299D01*
X92118856Y-67719645D01*
X92122640Y-67713332D01*
X92127024Y-67707421D01*
X92131967Y-67701967D01*
X92137421Y-67697024D01*
X92143332Y-67692640D01*
X92149645Y-67688856D01*
X92156299Y-67685709D01*
X92163229Y-67683229D01*
X92170368Y-67681441D01*
X92177649Y-67680361D01*
X92185000Y-67680000D01*
X92335000Y-67680000D01*
X92342351Y-67680361D01*
X92342351Y-67680361D01*
G37*
D25*
X92260000Y-68417500D03*
D21*
G36*
X92842351Y-67680361D02*
G01*
X92849632Y-67681441D01*
X92856771Y-67683229D01*
X92863701Y-67685709D01*
X92870355Y-67688856D01*
X92876668Y-67692640D01*
X92882579Y-67697024D01*
X92888033Y-67701967D01*
X92892976Y-67707421D01*
X92897360Y-67713332D01*
X92901144Y-67719645D01*
X92904291Y-67726299D01*
X92906771Y-67733229D01*
X92908559Y-67740368D01*
X92909639Y-67747649D01*
X92910000Y-67755000D01*
X92910000Y-69080000D01*
X92909639Y-69087351D01*
X92908559Y-69094632D01*
X92906771Y-69101771D01*
X92904291Y-69108701D01*
X92901144Y-69115355D01*
X92897360Y-69121668D01*
X92892976Y-69127579D01*
X92888033Y-69133033D01*
X92882579Y-69137976D01*
X92876668Y-69142360D01*
X92870355Y-69146144D01*
X92863701Y-69149291D01*
X92856771Y-69151771D01*
X92849632Y-69153559D01*
X92842351Y-69154639D01*
X92835000Y-69155000D01*
X92685000Y-69155000D01*
X92677649Y-69154639D01*
X92670368Y-69153559D01*
X92663229Y-69151771D01*
X92656299Y-69149291D01*
X92649645Y-69146144D01*
X92643332Y-69142360D01*
X92637421Y-69137976D01*
X92631967Y-69133033D01*
X92627024Y-69127579D01*
X92622640Y-69121668D01*
X92618856Y-69115355D01*
X92615709Y-69108701D01*
X92613229Y-69101771D01*
X92611441Y-69094632D01*
X92610361Y-69087351D01*
X92610000Y-69080000D01*
X92610000Y-67755000D01*
X92610361Y-67747649D01*
X92611441Y-67740368D01*
X92613229Y-67733229D01*
X92615709Y-67726299D01*
X92618856Y-67719645D01*
X92622640Y-67713332D01*
X92627024Y-67707421D01*
X92631967Y-67701967D01*
X92637421Y-67697024D01*
X92643332Y-67692640D01*
X92649645Y-67688856D01*
X92656299Y-67685709D01*
X92663229Y-67683229D01*
X92670368Y-67681441D01*
X92677649Y-67680361D01*
X92685000Y-67680000D01*
X92835000Y-67680000D01*
X92842351Y-67680361D01*
X92842351Y-67680361D01*
G37*
D25*
X92760000Y-68417500D03*
D21*
G36*
X93342351Y-67680361D02*
G01*
X93349632Y-67681441D01*
X93356771Y-67683229D01*
X93363701Y-67685709D01*
X93370355Y-67688856D01*
X93376668Y-67692640D01*
X93382579Y-67697024D01*
X93388033Y-67701967D01*
X93392976Y-67707421D01*
X93397360Y-67713332D01*
X93401144Y-67719645D01*
X93404291Y-67726299D01*
X93406771Y-67733229D01*
X93408559Y-67740368D01*
X93409639Y-67747649D01*
X93410000Y-67755000D01*
X93410000Y-69080000D01*
X93409639Y-69087351D01*
X93408559Y-69094632D01*
X93406771Y-69101771D01*
X93404291Y-69108701D01*
X93401144Y-69115355D01*
X93397360Y-69121668D01*
X93392976Y-69127579D01*
X93388033Y-69133033D01*
X93382579Y-69137976D01*
X93376668Y-69142360D01*
X93370355Y-69146144D01*
X93363701Y-69149291D01*
X93356771Y-69151771D01*
X93349632Y-69153559D01*
X93342351Y-69154639D01*
X93335000Y-69155000D01*
X93185000Y-69155000D01*
X93177649Y-69154639D01*
X93170368Y-69153559D01*
X93163229Y-69151771D01*
X93156299Y-69149291D01*
X93149645Y-69146144D01*
X93143332Y-69142360D01*
X93137421Y-69137976D01*
X93131967Y-69133033D01*
X93127024Y-69127579D01*
X93122640Y-69121668D01*
X93118856Y-69115355D01*
X93115709Y-69108701D01*
X93113229Y-69101771D01*
X93111441Y-69094632D01*
X93110361Y-69087351D01*
X93110000Y-69080000D01*
X93110000Y-67755000D01*
X93110361Y-67747649D01*
X93111441Y-67740368D01*
X93113229Y-67733229D01*
X93115709Y-67726299D01*
X93118856Y-67719645D01*
X93122640Y-67713332D01*
X93127024Y-67707421D01*
X93131967Y-67701967D01*
X93137421Y-67697024D01*
X93143332Y-67692640D01*
X93149645Y-67688856D01*
X93156299Y-67685709D01*
X93163229Y-67683229D01*
X93170368Y-67681441D01*
X93177649Y-67680361D01*
X93185000Y-67680000D01*
X93335000Y-67680000D01*
X93342351Y-67680361D01*
X93342351Y-67680361D01*
G37*
D25*
X93260000Y-68417500D03*
D21*
G36*
X93842351Y-67680361D02*
G01*
X93849632Y-67681441D01*
X93856771Y-67683229D01*
X93863701Y-67685709D01*
X93870355Y-67688856D01*
X93876668Y-67692640D01*
X93882579Y-67697024D01*
X93888033Y-67701967D01*
X93892976Y-67707421D01*
X93897360Y-67713332D01*
X93901144Y-67719645D01*
X93904291Y-67726299D01*
X93906771Y-67733229D01*
X93908559Y-67740368D01*
X93909639Y-67747649D01*
X93910000Y-67755000D01*
X93910000Y-69080000D01*
X93909639Y-69087351D01*
X93908559Y-69094632D01*
X93906771Y-69101771D01*
X93904291Y-69108701D01*
X93901144Y-69115355D01*
X93897360Y-69121668D01*
X93892976Y-69127579D01*
X93888033Y-69133033D01*
X93882579Y-69137976D01*
X93876668Y-69142360D01*
X93870355Y-69146144D01*
X93863701Y-69149291D01*
X93856771Y-69151771D01*
X93849632Y-69153559D01*
X93842351Y-69154639D01*
X93835000Y-69155000D01*
X93685000Y-69155000D01*
X93677649Y-69154639D01*
X93670368Y-69153559D01*
X93663229Y-69151771D01*
X93656299Y-69149291D01*
X93649645Y-69146144D01*
X93643332Y-69142360D01*
X93637421Y-69137976D01*
X93631967Y-69133033D01*
X93627024Y-69127579D01*
X93622640Y-69121668D01*
X93618856Y-69115355D01*
X93615709Y-69108701D01*
X93613229Y-69101771D01*
X93611441Y-69094632D01*
X93610361Y-69087351D01*
X93610000Y-69080000D01*
X93610000Y-67755000D01*
X93610361Y-67747649D01*
X93611441Y-67740368D01*
X93613229Y-67733229D01*
X93615709Y-67726299D01*
X93618856Y-67719645D01*
X93622640Y-67713332D01*
X93627024Y-67707421D01*
X93631967Y-67701967D01*
X93637421Y-67697024D01*
X93643332Y-67692640D01*
X93649645Y-67688856D01*
X93656299Y-67685709D01*
X93663229Y-67683229D01*
X93670368Y-67681441D01*
X93677649Y-67680361D01*
X93685000Y-67680000D01*
X93835000Y-67680000D01*
X93842351Y-67680361D01*
X93842351Y-67680361D01*
G37*
D25*
X93760000Y-68417500D03*
D21*
G36*
X94342351Y-67680361D02*
G01*
X94349632Y-67681441D01*
X94356771Y-67683229D01*
X94363701Y-67685709D01*
X94370355Y-67688856D01*
X94376668Y-67692640D01*
X94382579Y-67697024D01*
X94388033Y-67701967D01*
X94392976Y-67707421D01*
X94397360Y-67713332D01*
X94401144Y-67719645D01*
X94404291Y-67726299D01*
X94406771Y-67733229D01*
X94408559Y-67740368D01*
X94409639Y-67747649D01*
X94410000Y-67755000D01*
X94410000Y-69080000D01*
X94409639Y-69087351D01*
X94408559Y-69094632D01*
X94406771Y-69101771D01*
X94404291Y-69108701D01*
X94401144Y-69115355D01*
X94397360Y-69121668D01*
X94392976Y-69127579D01*
X94388033Y-69133033D01*
X94382579Y-69137976D01*
X94376668Y-69142360D01*
X94370355Y-69146144D01*
X94363701Y-69149291D01*
X94356771Y-69151771D01*
X94349632Y-69153559D01*
X94342351Y-69154639D01*
X94335000Y-69155000D01*
X94185000Y-69155000D01*
X94177649Y-69154639D01*
X94170368Y-69153559D01*
X94163229Y-69151771D01*
X94156299Y-69149291D01*
X94149645Y-69146144D01*
X94143332Y-69142360D01*
X94137421Y-69137976D01*
X94131967Y-69133033D01*
X94127024Y-69127579D01*
X94122640Y-69121668D01*
X94118856Y-69115355D01*
X94115709Y-69108701D01*
X94113229Y-69101771D01*
X94111441Y-69094632D01*
X94110361Y-69087351D01*
X94110000Y-69080000D01*
X94110000Y-67755000D01*
X94110361Y-67747649D01*
X94111441Y-67740368D01*
X94113229Y-67733229D01*
X94115709Y-67726299D01*
X94118856Y-67719645D01*
X94122640Y-67713332D01*
X94127024Y-67707421D01*
X94131967Y-67701967D01*
X94137421Y-67697024D01*
X94143332Y-67692640D01*
X94149645Y-67688856D01*
X94156299Y-67685709D01*
X94163229Y-67683229D01*
X94170368Y-67681441D01*
X94177649Y-67680361D01*
X94185000Y-67680000D01*
X94335000Y-67680000D01*
X94342351Y-67680361D01*
X94342351Y-67680361D01*
G37*
D25*
X94260000Y-68417500D03*
D21*
G36*
X94842351Y-67680361D02*
G01*
X94849632Y-67681441D01*
X94856771Y-67683229D01*
X94863701Y-67685709D01*
X94870355Y-67688856D01*
X94876668Y-67692640D01*
X94882579Y-67697024D01*
X94888033Y-67701967D01*
X94892976Y-67707421D01*
X94897360Y-67713332D01*
X94901144Y-67719645D01*
X94904291Y-67726299D01*
X94906771Y-67733229D01*
X94908559Y-67740368D01*
X94909639Y-67747649D01*
X94910000Y-67755000D01*
X94910000Y-69080000D01*
X94909639Y-69087351D01*
X94908559Y-69094632D01*
X94906771Y-69101771D01*
X94904291Y-69108701D01*
X94901144Y-69115355D01*
X94897360Y-69121668D01*
X94892976Y-69127579D01*
X94888033Y-69133033D01*
X94882579Y-69137976D01*
X94876668Y-69142360D01*
X94870355Y-69146144D01*
X94863701Y-69149291D01*
X94856771Y-69151771D01*
X94849632Y-69153559D01*
X94842351Y-69154639D01*
X94835000Y-69155000D01*
X94685000Y-69155000D01*
X94677649Y-69154639D01*
X94670368Y-69153559D01*
X94663229Y-69151771D01*
X94656299Y-69149291D01*
X94649645Y-69146144D01*
X94643332Y-69142360D01*
X94637421Y-69137976D01*
X94631967Y-69133033D01*
X94627024Y-69127579D01*
X94622640Y-69121668D01*
X94618856Y-69115355D01*
X94615709Y-69108701D01*
X94613229Y-69101771D01*
X94611441Y-69094632D01*
X94610361Y-69087351D01*
X94610000Y-69080000D01*
X94610000Y-67755000D01*
X94610361Y-67747649D01*
X94611441Y-67740368D01*
X94613229Y-67733229D01*
X94615709Y-67726299D01*
X94618856Y-67719645D01*
X94622640Y-67713332D01*
X94627024Y-67707421D01*
X94631967Y-67701967D01*
X94637421Y-67697024D01*
X94643332Y-67692640D01*
X94649645Y-67688856D01*
X94656299Y-67685709D01*
X94663229Y-67683229D01*
X94670368Y-67681441D01*
X94677649Y-67680361D01*
X94685000Y-67680000D01*
X94835000Y-67680000D01*
X94842351Y-67680361D01*
X94842351Y-67680361D01*
G37*
D25*
X94760000Y-68417500D03*
D21*
G36*
X95342351Y-67680361D02*
G01*
X95349632Y-67681441D01*
X95356771Y-67683229D01*
X95363701Y-67685709D01*
X95370355Y-67688856D01*
X95376668Y-67692640D01*
X95382579Y-67697024D01*
X95388033Y-67701967D01*
X95392976Y-67707421D01*
X95397360Y-67713332D01*
X95401144Y-67719645D01*
X95404291Y-67726299D01*
X95406771Y-67733229D01*
X95408559Y-67740368D01*
X95409639Y-67747649D01*
X95410000Y-67755000D01*
X95410000Y-69080000D01*
X95409639Y-69087351D01*
X95408559Y-69094632D01*
X95406771Y-69101771D01*
X95404291Y-69108701D01*
X95401144Y-69115355D01*
X95397360Y-69121668D01*
X95392976Y-69127579D01*
X95388033Y-69133033D01*
X95382579Y-69137976D01*
X95376668Y-69142360D01*
X95370355Y-69146144D01*
X95363701Y-69149291D01*
X95356771Y-69151771D01*
X95349632Y-69153559D01*
X95342351Y-69154639D01*
X95335000Y-69155000D01*
X95185000Y-69155000D01*
X95177649Y-69154639D01*
X95170368Y-69153559D01*
X95163229Y-69151771D01*
X95156299Y-69149291D01*
X95149645Y-69146144D01*
X95143332Y-69142360D01*
X95137421Y-69137976D01*
X95131967Y-69133033D01*
X95127024Y-69127579D01*
X95122640Y-69121668D01*
X95118856Y-69115355D01*
X95115709Y-69108701D01*
X95113229Y-69101771D01*
X95111441Y-69094632D01*
X95110361Y-69087351D01*
X95110000Y-69080000D01*
X95110000Y-67755000D01*
X95110361Y-67747649D01*
X95111441Y-67740368D01*
X95113229Y-67733229D01*
X95115709Y-67726299D01*
X95118856Y-67719645D01*
X95122640Y-67713332D01*
X95127024Y-67707421D01*
X95131967Y-67701967D01*
X95137421Y-67697024D01*
X95143332Y-67692640D01*
X95149645Y-67688856D01*
X95156299Y-67685709D01*
X95163229Y-67683229D01*
X95170368Y-67681441D01*
X95177649Y-67680361D01*
X95185000Y-67680000D01*
X95335000Y-67680000D01*
X95342351Y-67680361D01*
X95342351Y-67680361D01*
G37*
D25*
X95260000Y-68417500D03*
D21*
G36*
X95842351Y-67680361D02*
G01*
X95849632Y-67681441D01*
X95856771Y-67683229D01*
X95863701Y-67685709D01*
X95870355Y-67688856D01*
X95876668Y-67692640D01*
X95882579Y-67697024D01*
X95888033Y-67701967D01*
X95892976Y-67707421D01*
X95897360Y-67713332D01*
X95901144Y-67719645D01*
X95904291Y-67726299D01*
X95906771Y-67733229D01*
X95908559Y-67740368D01*
X95909639Y-67747649D01*
X95910000Y-67755000D01*
X95910000Y-69080000D01*
X95909639Y-69087351D01*
X95908559Y-69094632D01*
X95906771Y-69101771D01*
X95904291Y-69108701D01*
X95901144Y-69115355D01*
X95897360Y-69121668D01*
X95892976Y-69127579D01*
X95888033Y-69133033D01*
X95882579Y-69137976D01*
X95876668Y-69142360D01*
X95870355Y-69146144D01*
X95863701Y-69149291D01*
X95856771Y-69151771D01*
X95849632Y-69153559D01*
X95842351Y-69154639D01*
X95835000Y-69155000D01*
X95685000Y-69155000D01*
X95677649Y-69154639D01*
X95670368Y-69153559D01*
X95663229Y-69151771D01*
X95656299Y-69149291D01*
X95649645Y-69146144D01*
X95643332Y-69142360D01*
X95637421Y-69137976D01*
X95631967Y-69133033D01*
X95627024Y-69127579D01*
X95622640Y-69121668D01*
X95618856Y-69115355D01*
X95615709Y-69108701D01*
X95613229Y-69101771D01*
X95611441Y-69094632D01*
X95610361Y-69087351D01*
X95610000Y-69080000D01*
X95610000Y-67755000D01*
X95610361Y-67747649D01*
X95611441Y-67740368D01*
X95613229Y-67733229D01*
X95615709Y-67726299D01*
X95618856Y-67719645D01*
X95622640Y-67713332D01*
X95627024Y-67707421D01*
X95631967Y-67701967D01*
X95637421Y-67697024D01*
X95643332Y-67692640D01*
X95649645Y-67688856D01*
X95656299Y-67685709D01*
X95663229Y-67683229D01*
X95670368Y-67681441D01*
X95677649Y-67680361D01*
X95685000Y-67680000D01*
X95835000Y-67680000D01*
X95842351Y-67680361D01*
X95842351Y-67680361D01*
G37*
D25*
X95760000Y-68417500D03*
D21*
G36*
X96342351Y-67680361D02*
G01*
X96349632Y-67681441D01*
X96356771Y-67683229D01*
X96363701Y-67685709D01*
X96370355Y-67688856D01*
X96376668Y-67692640D01*
X96382579Y-67697024D01*
X96388033Y-67701967D01*
X96392976Y-67707421D01*
X96397360Y-67713332D01*
X96401144Y-67719645D01*
X96404291Y-67726299D01*
X96406771Y-67733229D01*
X96408559Y-67740368D01*
X96409639Y-67747649D01*
X96410000Y-67755000D01*
X96410000Y-69080000D01*
X96409639Y-69087351D01*
X96408559Y-69094632D01*
X96406771Y-69101771D01*
X96404291Y-69108701D01*
X96401144Y-69115355D01*
X96397360Y-69121668D01*
X96392976Y-69127579D01*
X96388033Y-69133033D01*
X96382579Y-69137976D01*
X96376668Y-69142360D01*
X96370355Y-69146144D01*
X96363701Y-69149291D01*
X96356771Y-69151771D01*
X96349632Y-69153559D01*
X96342351Y-69154639D01*
X96335000Y-69155000D01*
X96185000Y-69155000D01*
X96177649Y-69154639D01*
X96170368Y-69153559D01*
X96163229Y-69151771D01*
X96156299Y-69149291D01*
X96149645Y-69146144D01*
X96143332Y-69142360D01*
X96137421Y-69137976D01*
X96131967Y-69133033D01*
X96127024Y-69127579D01*
X96122640Y-69121668D01*
X96118856Y-69115355D01*
X96115709Y-69108701D01*
X96113229Y-69101771D01*
X96111441Y-69094632D01*
X96110361Y-69087351D01*
X96110000Y-69080000D01*
X96110000Y-67755000D01*
X96110361Y-67747649D01*
X96111441Y-67740368D01*
X96113229Y-67733229D01*
X96115709Y-67726299D01*
X96118856Y-67719645D01*
X96122640Y-67713332D01*
X96127024Y-67707421D01*
X96131967Y-67701967D01*
X96137421Y-67697024D01*
X96143332Y-67692640D01*
X96149645Y-67688856D01*
X96156299Y-67685709D01*
X96163229Y-67683229D01*
X96170368Y-67681441D01*
X96177649Y-67680361D01*
X96185000Y-67680000D01*
X96335000Y-67680000D01*
X96342351Y-67680361D01*
X96342351Y-67680361D01*
G37*
D25*
X96260000Y-68417500D03*
D21*
G36*
X96842351Y-67680361D02*
G01*
X96849632Y-67681441D01*
X96856771Y-67683229D01*
X96863701Y-67685709D01*
X96870355Y-67688856D01*
X96876668Y-67692640D01*
X96882579Y-67697024D01*
X96888033Y-67701967D01*
X96892976Y-67707421D01*
X96897360Y-67713332D01*
X96901144Y-67719645D01*
X96904291Y-67726299D01*
X96906771Y-67733229D01*
X96908559Y-67740368D01*
X96909639Y-67747649D01*
X96910000Y-67755000D01*
X96910000Y-69080000D01*
X96909639Y-69087351D01*
X96908559Y-69094632D01*
X96906771Y-69101771D01*
X96904291Y-69108701D01*
X96901144Y-69115355D01*
X96897360Y-69121668D01*
X96892976Y-69127579D01*
X96888033Y-69133033D01*
X96882579Y-69137976D01*
X96876668Y-69142360D01*
X96870355Y-69146144D01*
X96863701Y-69149291D01*
X96856771Y-69151771D01*
X96849632Y-69153559D01*
X96842351Y-69154639D01*
X96835000Y-69155000D01*
X96685000Y-69155000D01*
X96677649Y-69154639D01*
X96670368Y-69153559D01*
X96663229Y-69151771D01*
X96656299Y-69149291D01*
X96649645Y-69146144D01*
X96643332Y-69142360D01*
X96637421Y-69137976D01*
X96631967Y-69133033D01*
X96627024Y-69127579D01*
X96622640Y-69121668D01*
X96618856Y-69115355D01*
X96615709Y-69108701D01*
X96613229Y-69101771D01*
X96611441Y-69094632D01*
X96610361Y-69087351D01*
X96610000Y-69080000D01*
X96610000Y-67755000D01*
X96610361Y-67747649D01*
X96611441Y-67740368D01*
X96613229Y-67733229D01*
X96615709Y-67726299D01*
X96618856Y-67719645D01*
X96622640Y-67713332D01*
X96627024Y-67707421D01*
X96631967Y-67701967D01*
X96637421Y-67697024D01*
X96643332Y-67692640D01*
X96649645Y-67688856D01*
X96656299Y-67685709D01*
X96663229Y-67683229D01*
X96670368Y-67681441D01*
X96677649Y-67680361D01*
X96685000Y-67680000D01*
X96835000Y-67680000D01*
X96842351Y-67680361D01*
X96842351Y-67680361D01*
G37*
D25*
X96760000Y-68417500D03*
D21*
G36*
X97342351Y-67680361D02*
G01*
X97349632Y-67681441D01*
X97356771Y-67683229D01*
X97363701Y-67685709D01*
X97370355Y-67688856D01*
X97376668Y-67692640D01*
X97382579Y-67697024D01*
X97388033Y-67701967D01*
X97392976Y-67707421D01*
X97397360Y-67713332D01*
X97401144Y-67719645D01*
X97404291Y-67726299D01*
X97406771Y-67733229D01*
X97408559Y-67740368D01*
X97409639Y-67747649D01*
X97410000Y-67755000D01*
X97410000Y-69080000D01*
X97409639Y-69087351D01*
X97408559Y-69094632D01*
X97406771Y-69101771D01*
X97404291Y-69108701D01*
X97401144Y-69115355D01*
X97397360Y-69121668D01*
X97392976Y-69127579D01*
X97388033Y-69133033D01*
X97382579Y-69137976D01*
X97376668Y-69142360D01*
X97370355Y-69146144D01*
X97363701Y-69149291D01*
X97356771Y-69151771D01*
X97349632Y-69153559D01*
X97342351Y-69154639D01*
X97335000Y-69155000D01*
X97185000Y-69155000D01*
X97177649Y-69154639D01*
X97170368Y-69153559D01*
X97163229Y-69151771D01*
X97156299Y-69149291D01*
X97149645Y-69146144D01*
X97143332Y-69142360D01*
X97137421Y-69137976D01*
X97131967Y-69133033D01*
X97127024Y-69127579D01*
X97122640Y-69121668D01*
X97118856Y-69115355D01*
X97115709Y-69108701D01*
X97113229Y-69101771D01*
X97111441Y-69094632D01*
X97110361Y-69087351D01*
X97110000Y-69080000D01*
X97110000Y-67755000D01*
X97110361Y-67747649D01*
X97111441Y-67740368D01*
X97113229Y-67733229D01*
X97115709Y-67726299D01*
X97118856Y-67719645D01*
X97122640Y-67713332D01*
X97127024Y-67707421D01*
X97131967Y-67701967D01*
X97137421Y-67697024D01*
X97143332Y-67692640D01*
X97149645Y-67688856D01*
X97156299Y-67685709D01*
X97163229Y-67683229D01*
X97170368Y-67681441D01*
X97177649Y-67680361D01*
X97185000Y-67680000D01*
X97335000Y-67680000D01*
X97342351Y-67680361D01*
X97342351Y-67680361D01*
G37*
D25*
X97260000Y-68417500D03*
D21*
G36*
X97842351Y-67680361D02*
G01*
X97849632Y-67681441D01*
X97856771Y-67683229D01*
X97863701Y-67685709D01*
X97870355Y-67688856D01*
X97876668Y-67692640D01*
X97882579Y-67697024D01*
X97888033Y-67701967D01*
X97892976Y-67707421D01*
X97897360Y-67713332D01*
X97901144Y-67719645D01*
X97904291Y-67726299D01*
X97906771Y-67733229D01*
X97908559Y-67740368D01*
X97909639Y-67747649D01*
X97910000Y-67755000D01*
X97910000Y-69080000D01*
X97909639Y-69087351D01*
X97908559Y-69094632D01*
X97906771Y-69101771D01*
X97904291Y-69108701D01*
X97901144Y-69115355D01*
X97897360Y-69121668D01*
X97892976Y-69127579D01*
X97888033Y-69133033D01*
X97882579Y-69137976D01*
X97876668Y-69142360D01*
X97870355Y-69146144D01*
X97863701Y-69149291D01*
X97856771Y-69151771D01*
X97849632Y-69153559D01*
X97842351Y-69154639D01*
X97835000Y-69155000D01*
X97685000Y-69155000D01*
X97677649Y-69154639D01*
X97670368Y-69153559D01*
X97663229Y-69151771D01*
X97656299Y-69149291D01*
X97649645Y-69146144D01*
X97643332Y-69142360D01*
X97637421Y-69137976D01*
X97631967Y-69133033D01*
X97627024Y-69127579D01*
X97622640Y-69121668D01*
X97618856Y-69115355D01*
X97615709Y-69108701D01*
X97613229Y-69101771D01*
X97611441Y-69094632D01*
X97610361Y-69087351D01*
X97610000Y-69080000D01*
X97610000Y-67755000D01*
X97610361Y-67747649D01*
X97611441Y-67740368D01*
X97613229Y-67733229D01*
X97615709Y-67726299D01*
X97618856Y-67719645D01*
X97622640Y-67713332D01*
X97627024Y-67707421D01*
X97631967Y-67701967D01*
X97637421Y-67697024D01*
X97643332Y-67692640D01*
X97649645Y-67688856D01*
X97656299Y-67685709D01*
X97663229Y-67683229D01*
X97670368Y-67681441D01*
X97677649Y-67680361D01*
X97685000Y-67680000D01*
X97835000Y-67680000D01*
X97842351Y-67680361D01*
X97842351Y-67680361D01*
G37*
D25*
X97760000Y-68417500D03*
D21*
G36*
X99842351Y-69680361D02*
G01*
X99849632Y-69681441D01*
X99856771Y-69683229D01*
X99863701Y-69685709D01*
X99870355Y-69688856D01*
X99876668Y-69692640D01*
X99882579Y-69697024D01*
X99888033Y-69701967D01*
X99892976Y-69707421D01*
X99897360Y-69713332D01*
X99901144Y-69719645D01*
X99904291Y-69726299D01*
X99906771Y-69733229D01*
X99908559Y-69740368D01*
X99909639Y-69747649D01*
X99910000Y-69755000D01*
X99910000Y-69905000D01*
X99909639Y-69912351D01*
X99908559Y-69919632D01*
X99906771Y-69926771D01*
X99904291Y-69933701D01*
X99901144Y-69940355D01*
X99897360Y-69946668D01*
X99892976Y-69952579D01*
X99888033Y-69958033D01*
X99882579Y-69962976D01*
X99876668Y-69967360D01*
X99870355Y-69971144D01*
X99863701Y-69974291D01*
X99856771Y-69976771D01*
X99849632Y-69978559D01*
X99842351Y-69979639D01*
X99835000Y-69980000D01*
X98510000Y-69980000D01*
X98502649Y-69979639D01*
X98495368Y-69978559D01*
X98488229Y-69976771D01*
X98481299Y-69974291D01*
X98474645Y-69971144D01*
X98468332Y-69967360D01*
X98462421Y-69962976D01*
X98456967Y-69958033D01*
X98452024Y-69952579D01*
X98447640Y-69946668D01*
X98443856Y-69940355D01*
X98440709Y-69933701D01*
X98438229Y-69926771D01*
X98436441Y-69919632D01*
X98435361Y-69912351D01*
X98435000Y-69905000D01*
X98435000Y-69755000D01*
X98435361Y-69747649D01*
X98436441Y-69740368D01*
X98438229Y-69733229D01*
X98440709Y-69726299D01*
X98443856Y-69719645D01*
X98447640Y-69713332D01*
X98452024Y-69707421D01*
X98456967Y-69701967D01*
X98462421Y-69697024D01*
X98468332Y-69692640D01*
X98474645Y-69688856D01*
X98481299Y-69685709D01*
X98488229Y-69683229D01*
X98495368Y-69681441D01*
X98502649Y-69680361D01*
X98510000Y-69680000D01*
X99835000Y-69680000D01*
X99842351Y-69680361D01*
X99842351Y-69680361D01*
G37*
D25*
X99172500Y-69830000D03*
D21*
G36*
X99842351Y-70180361D02*
G01*
X99849632Y-70181441D01*
X99856771Y-70183229D01*
X99863701Y-70185709D01*
X99870355Y-70188856D01*
X99876668Y-70192640D01*
X99882579Y-70197024D01*
X99888033Y-70201967D01*
X99892976Y-70207421D01*
X99897360Y-70213332D01*
X99901144Y-70219645D01*
X99904291Y-70226299D01*
X99906771Y-70233229D01*
X99908559Y-70240368D01*
X99909639Y-70247649D01*
X99910000Y-70255000D01*
X99910000Y-70405000D01*
X99909639Y-70412351D01*
X99908559Y-70419632D01*
X99906771Y-70426771D01*
X99904291Y-70433701D01*
X99901144Y-70440355D01*
X99897360Y-70446668D01*
X99892976Y-70452579D01*
X99888033Y-70458033D01*
X99882579Y-70462976D01*
X99876668Y-70467360D01*
X99870355Y-70471144D01*
X99863701Y-70474291D01*
X99856771Y-70476771D01*
X99849632Y-70478559D01*
X99842351Y-70479639D01*
X99835000Y-70480000D01*
X98510000Y-70480000D01*
X98502649Y-70479639D01*
X98495368Y-70478559D01*
X98488229Y-70476771D01*
X98481299Y-70474291D01*
X98474645Y-70471144D01*
X98468332Y-70467360D01*
X98462421Y-70462976D01*
X98456967Y-70458033D01*
X98452024Y-70452579D01*
X98447640Y-70446668D01*
X98443856Y-70440355D01*
X98440709Y-70433701D01*
X98438229Y-70426771D01*
X98436441Y-70419632D01*
X98435361Y-70412351D01*
X98435000Y-70405000D01*
X98435000Y-70255000D01*
X98435361Y-70247649D01*
X98436441Y-70240368D01*
X98438229Y-70233229D01*
X98440709Y-70226299D01*
X98443856Y-70219645D01*
X98447640Y-70213332D01*
X98452024Y-70207421D01*
X98456967Y-70201967D01*
X98462421Y-70197024D01*
X98468332Y-70192640D01*
X98474645Y-70188856D01*
X98481299Y-70185709D01*
X98488229Y-70183229D01*
X98495368Y-70181441D01*
X98502649Y-70180361D01*
X98510000Y-70180000D01*
X99835000Y-70180000D01*
X99842351Y-70180361D01*
X99842351Y-70180361D01*
G37*
D25*
X99172500Y-70330000D03*
D21*
G36*
X99842351Y-70680361D02*
G01*
X99849632Y-70681441D01*
X99856771Y-70683229D01*
X99863701Y-70685709D01*
X99870355Y-70688856D01*
X99876668Y-70692640D01*
X99882579Y-70697024D01*
X99888033Y-70701967D01*
X99892976Y-70707421D01*
X99897360Y-70713332D01*
X99901144Y-70719645D01*
X99904291Y-70726299D01*
X99906771Y-70733229D01*
X99908559Y-70740368D01*
X99909639Y-70747649D01*
X99910000Y-70755000D01*
X99910000Y-70905000D01*
X99909639Y-70912351D01*
X99908559Y-70919632D01*
X99906771Y-70926771D01*
X99904291Y-70933701D01*
X99901144Y-70940355D01*
X99897360Y-70946668D01*
X99892976Y-70952579D01*
X99888033Y-70958033D01*
X99882579Y-70962976D01*
X99876668Y-70967360D01*
X99870355Y-70971144D01*
X99863701Y-70974291D01*
X99856771Y-70976771D01*
X99849632Y-70978559D01*
X99842351Y-70979639D01*
X99835000Y-70980000D01*
X98510000Y-70980000D01*
X98502649Y-70979639D01*
X98495368Y-70978559D01*
X98488229Y-70976771D01*
X98481299Y-70974291D01*
X98474645Y-70971144D01*
X98468332Y-70967360D01*
X98462421Y-70962976D01*
X98456967Y-70958033D01*
X98452024Y-70952579D01*
X98447640Y-70946668D01*
X98443856Y-70940355D01*
X98440709Y-70933701D01*
X98438229Y-70926771D01*
X98436441Y-70919632D01*
X98435361Y-70912351D01*
X98435000Y-70905000D01*
X98435000Y-70755000D01*
X98435361Y-70747649D01*
X98436441Y-70740368D01*
X98438229Y-70733229D01*
X98440709Y-70726299D01*
X98443856Y-70719645D01*
X98447640Y-70713332D01*
X98452024Y-70707421D01*
X98456967Y-70701967D01*
X98462421Y-70697024D01*
X98468332Y-70692640D01*
X98474645Y-70688856D01*
X98481299Y-70685709D01*
X98488229Y-70683229D01*
X98495368Y-70681441D01*
X98502649Y-70680361D01*
X98510000Y-70680000D01*
X99835000Y-70680000D01*
X99842351Y-70680361D01*
X99842351Y-70680361D01*
G37*
D25*
X99172500Y-70830000D03*
D21*
G36*
X99842351Y-71180361D02*
G01*
X99849632Y-71181441D01*
X99856771Y-71183229D01*
X99863701Y-71185709D01*
X99870355Y-71188856D01*
X99876668Y-71192640D01*
X99882579Y-71197024D01*
X99888033Y-71201967D01*
X99892976Y-71207421D01*
X99897360Y-71213332D01*
X99901144Y-71219645D01*
X99904291Y-71226299D01*
X99906771Y-71233229D01*
X99908559Y-71240368D01*
X99909639Y-71247649D01*
X99910000Y-71255000D01*
X99910000Y-71405000D01*
X99909639Y-71412351D01*
X99908559Y-71419632D01*
X99906771Y-71426771D01*
X99904291Y-71433701D01*
X99901144Y-71440355D01*
X99897360Y-71446668D01*
X99892976Y-71452579D01*
X99888033Y-71458033D01*
X99882579Y-71462976D01*
X99876668Y-71467360D01*
X99870355Y-71471144D01*
X99863701Y-71474291D01*
X99856771Y-71476771D01*
X99849632Y-71478559D01*
X99842351Y-71479639D01*
X99835000Y-71480000D01*
X98510000Y-71480000D01*
X98502649Y-71479639D01*
X98495368Y-71478559D01*
X98488229Y-71476771D01*
X98481299Y-71474291D01*
X98474645Y-71471144D01*
X98468332Y-71467360D01*
X98462421Y-71462976D01*
X98456967Y-71458033D01*
X98452024Y-71452579D01*
X98447640Y-71446668D01*
X98443856Y-71440355D01*
X98440709Y-71433701D01*
X98438229Y-71426771D01*
X98436441Y-71419632D01*
X98435361Y-71412351D01*
X98435000Y-71405000D01*
X98435000Y-71255000D01*
X98435361Y-71247649D01*
X98436441Y-71240368D01*
X98438229Y-71233229D01*
X98440709Y-71226299D01*
X98443856Y-71219645D01*
X98447640Y-71213332D01*
X98452024Y-71207421D01*
X98456967Y-71201967D01*
X98462421Y-71197024D01*
X98468332Y-71192640D01*
X98474645Y-71188856D01*
X98481299Y-71185709D01*
X98488229Y-71183229D01*
X98495368Y-71181441D01*
X98502649Y-71180361D01*
X98510000Y-71180000D01*
X99835000Y-71180000D01*
X99842351Y-71180361D01*
X99842351Y-71180361D01*
G37*
D25*
X99172500Y-71330000D03*
D21*
G36*
X99842351Y-71680361D02*
G01*
X99849632Y-71681441D01*
X99856771Y-71683229D01*
X99863701Y-71685709D01*
X99870355Y-71688856D01*
X99876668Y-71692640D01*
X99882579Y-71697024D01*
X99888033Y-71701967D01*
X99892976Y-71707421D01*
X99897360Y-71713332D01*
X99901144Y-71719645D01*
X99904291Y-71726299D01*
X99906771Y-71733229D01*
X99908559Y-71740368D01*
X99909639Y-71747649D01*
X99910000Y-71755000D01*
X99910000Y-71905000D01*
X99909639Y-71912351D01*
X99908559Y-71919632D01*
X99906771Y-71926771D01*
X99904291Y-71933701D01*
X99901144Y-71940355D01*
X99897360Y-71946668D01*
X99892976Y-71952579D01*
X99888033Y-71958033D01*
X99882579Y-71962976D01*
X99876668Y-71967360D01*
X99870355Y-71971144D01*
X99863701Y-71974291D01*
X99856771Y-71976771D01*
X99849632Y-71978559D01*
X99842351Y-71979639D01*
X99835000Y-71980000D01*
X98510000Y-71980000D01*
X98502649Y-71979639D01*
X98495368Y-71978559D01*
X98488229Y-71976771D01*
X98481299Y-71974291D01*
X98474645Y-71971144D01*
X98468332Y-71967360D01*
X98462421Y-71962976D01*
X98456967Y-71958033D01*
X98452024Y-71952579D01*
X98447640Y-71946668D01*
X98443856Y-71940355D01*
X98440709Y-71933701D01*
X98438229Y-71926771D01*
X98436441Y-71919632D01*
X98435361Y-71912351D01*
X98435000Y-71905000D01*
X98435000Y-71755000D01*
X98435361Y-71747649D01*
X98436441Y-71740368D01*
X98438229Y-71733229D01*
X98440709Y-71726299D01*
X98443856Y-71719645D01*
X98447640Y-71713332D01*
X98452024Y-71707421D01*
X98456967Y-71701967D01*
X98462421Y-71697024D01*
X98468332Y-71692640D01*
X98474645Y-71688856D01*
X98481299Y-71685709D01*
X98488229Y-71683229D01*
X98495368Y-71681441D01*
X98502649Y-71680361D01*
X98510000Y-71680000D01*
X99835000Y-71680000D01*
X99842351Y-71680361D01*
X99842351Y-71680361D01*
G37*
D25*
X99172500Y-71830000D03*
D21*
G36*
X99842351Y-72180361D02*
G01*
X99849632Y-72181441D01*
X99856771Y-72183229D01*
X99863701Y-72185709D01*
X99870355Y-72188856D01*
X99876668Y-72192640D01*
X99882579Y-72197024D01*
X99888033Y-72201967D01*
X99892976Y-72207421D01*
X99897360Y-72213332D01*
X99901144Y-72219645D01*
X99904291Y-72226299D01*
X99906771Y-72233229D01*
X99908559Y-72240368D01*
X99909639Y-72247649D01*
X99910000Y-72255000D01*
X99910000Y-72405000D01*
X99909639Y-72412351D01*
X99908559Y-72419632D01*
X99906771Y-72426771D01*
X99904291Y-72433701D01*
X99901144Y-72440355D01*
X99897360Y-72446668D01*
X99892976Y-72452579D01*
X99888033Y-72458033D01*
X99882579Y-72462976D01*
X99876668Y-72467360D01*
X99870355Y-72471144D01*
X99863701Y-72474291D01*
X99856771Y-72476771D01*
X99849632Y-72478559D01*
X99842351Y-72479639D01*
X99835000Y-72480000D01*
X98510000Y-72480000D01*
X98502649Y-72479639D01*
X98495368Y-72478559D01*
X98488229Y-72476771D01*
X98481299Y-72474291D01*
X98474645Y-72471144D01*
X98468332Y-72467360D01*
X98462421Y-72462976D01*
X98456967Y-72458033D01*
X98452024Y-72452579D01*
X98447640Y-72446668D01*
X98443856Y-72440355D01*
X98440709Y-72433701D01*
X98438229Y-72426771D01*
X98436441Y-72419632D01*
X98435361Y-72412351D01*
X98435000Y-72405000D01*
X98435000Y-72255000D01*
X98435361Y-72247649D01*
X98436441Y-72240368D01*
X98438229Y-72233229D01*
X98440709Y-72226299D01*
X98443856Y-72219645D01*
X98447640Y-72213332D01*
X98452024Y-72207421D01*
X98456967Y-72201967D01*
X98462421Y-72197024D01*
X98468332Y-72192640D01*
X98474645Y-72188856D01*
X98481299Y-72185709D01*
X98488229Y-72183229D01*
X98495368Y-72181441D01*
X98502649Y-72180361D01*
X98510000Y-72180000D01*
X99835000Y-72180000D01*
X99842351Y-72180361D01*
X99842351Y-72180361D01*
G37*
D25*
X99172500Y-72330000D03*
D21*
G36*
X99842351Y-72680361D02*
G01*
X99849632Y-72681441D01*
X99856771Y-72683229D01*
X99863701Y-72685709D01*
X99870355Y-72688856D01*
X99876668Y-72692640D01*
X99882579Y-72697024D01*
X99888033Y-72701967D01*
X99892976Y-72707421D01*
X99897360Y-72713332D01*
X99901144Y-72719645D01*
X99904291Y-72726299D01*
X99906771Y-72733229D01*
X99908559Y-72740368D01*
X99909639Y-72747649D01*
X99910000Y-72755000D01*
X99910000Y-72905000D01*
X99909639Y-72912351D01*
X99908559Y-72919632D01*
X99906771Y-72926771D01*
X99904291Y-72933701D01*
X99901144Y-72940355D01*
X99897360Y-72946668D01*
X99892976Y-72952579D01*
X99888033Y-72958033D01*
X99882579Y-72962976D01*
X99876668Y-72967360D01*
X99870355Y-72971144D01*
X99863701Y-72974291D01*
X99856771Y-72976771D01*
X99849632Y-72978559D01*
X99842351Y-72979639D01*
X99835000Y-72980000D01*
X98510000Y-72980000D01*
X98502649Y-72979639D01*
X98495368Y-72978559D01*
X98488229Y-72976771D01*
X98481299Y-72974291D01*
X98474645Y-72971144D01*
X98468332Y-72967360D01*
X98462421Y-72962976D01*
X98456967Y-72958033D01*
X98452024Y-72952579D01*
X98447640Y-72946668D01*
X98443856Y-72940355D01*
X98440709Y-72933701D01*
X98438229Y-72926771D01*
X98436441Y-72919632D01*
X98435361Y-72912351D01*
X98435000Y-72905000D01*
X98435000Y-72755000D01*
X98435361Y-72747649D01*
X98436441Y-72740368D01*
X98438229Y-72733229D01*
X98440709Y-72726299D01*
X98443856Y-72719645D01*
X98447640Y-72713332D01*
X98452024Y-72707421D01*
X98456967Y-72701967D01*
X98462421Y-72697024D01*
X98468332Y-72692640D01*
X98474645Y-72688856D01*
X98481299Y-72685709D01*
X98488229Y-72683229D01*
X98495368Y-72681441D01*
X98502649Y-72680361D01*
X98510000Y-72680000D01*
X99835000Y-72680000D01*
X99842351Y-72680361D01*
X99842351Y-72680361D01*
G37*
D25*
X99172500Y-72830000D03*
D21*
G36*
X99842351Y-73180361D02*
G01*
X99849632Y-73181441D01*
X99856771Y-73183229D01*
X99863701Y-73185709D01*
X99870355Y-73188856D01*
X99876668Y-73192640D01*
X99882579Y-73197024D01*
X99888033Y-73201967D01*
X99892976Y-73207421D01*
X99897360Y-73213332D01*
X99901144Y-73219645D01*
X99904291Y-73226299D01*
X99906771Y-73233229D01*
X99908559Y-73240368D01*
X99909639Y-73247649D01*
X99910000Y-73255000D01*
X99910000Y-73405000D01*
X99909639Y-73412351D01*
X99908559Y-73419632D01*
X99906771Y-73426771D01*
X99904291Y-73433701D01*
X99901144Y-73440355D01*
X99897360Y-73446668D01*
X99892976Y-73452579D01*
X99888033Y-73458033D01*
X99882579Y-73462976D01*
X99876668Y-73467360D01*
X99870355Y-73471144D01*
X99863701Y-73474291D01*
X99856771Y-73476771D01*
X99849632Y-73478559D01*
X99842351Y-73479639D01*
X99835000Y-73480000D01*
X98510000Y-73480000D01*
X98502649Y-73479639D01*
X98495368Y-73478559D01*
X98488229Y-73476771D01*
X98481299Y-73474291D01*
X98474645Y-73471144D01*
X98468332Y-73467360D01*
X98462421Y-73462976D01*
X98456967Y-73458033D01*
X98452024Y-73452579D01*
X98447640Y-73446668D01*
X98443856Y-73440355D01*
X98440709Y-73433701D01*
X98438229Y-73426771D01*
X98436441Y-73419632D01*
X98435361Y-73412351D01*
X98435000Y-73405000D01*
X98435000Y-73255000D01*
X98435361Y-73247649D01*
X98436441Y-73240368D01*
X98438229Y-73233229D01*
X98440709Y-73226299D01*
X98443856Y-73219645D01*
X98447640Y-73213332D01*
X98452024Y-73207421D01*
X98456967Y-73201967D01*
X98462421Y-73197024D01*
X98468332Y-73192640D01*
X98474645Y-73188856D01*
X98481299Y-73185709D01*
X98488229Y-73183229D01*
X98495368Y-73181441D01*
X98502649Y-73180361D01*
X98510000Y-73180000D01*
X99835000Y-73180000D01*
X99842351Y-73180361D01*
X99842351Y-73180361D01*
G37*
D25*
X99172500Y-73330000D03*
D21*
G36*
X99842351Y-73680361D02*
G01*
X99849632Y-73681441D01*
X99856771Y-73683229D01*
X99863701Y-73685709D01*
X99870355Y-73688856D01*
X99876668Y-73692640D01*
X99882579Y-73697024D01*
X99888033Y-73701967D01*
X99892976Y-73707421D01*
X99897360Y-73713332D01*
X99901144Y-73719645D01*
X99904291Y-73726299D01*
X99906771Y-73733229D01*
X99908559Y-73740368D01*
X99909639Y-73747649D01*
X99910000Y-73755000D01*
X99910000Y-73905000D01*
X99909639Y-73912351D01*
X99908559Y-73919632D01*
X99906771Y-73926771D01*
X99904291Y-73933701D01*
X99901144Y-73940355D01*
X99897360Y-73946668D01*
X99892976Y-73952579D01*
X99888033Y-73958033D01*
X99882579Y-73962976D01*
X99876668Y-73967360D01*
X99870355Y-73971144D01*
X99863701Y-73974291D01*
X99856771Y-73976771D01*
X99849632Y-73978559D01*
X99842351Y-73979639D01*
X99835000Y-73980000D01*
X98510000Y-73980000D01*
X98502649Y-73979639D01*
X98495368Y-73978559D01*
X98488229Y-73976771D01*
X98481299Y-73974291D01*
X98474645Y-73971144D01*
X98468332Y-73967360D01*
X98462421Y-73962976D01*
X98456967Y-73958033D01*
X98452024Y-73952579D01*
X98447640Y-73946668D01*
X98443856Y-73940355D01*
X98440709Y-73933701D01*
X98438229Y-73926771D01*
X98436441Y-73919632D01*
X98435361Y-73912351D01*
X98435000Y-73905000D01*
X98435000Y-73755000D01*
X98435361Y-73747649D01*
X98436441Y-73740368D01*
X98438229Y-73733229D01*
X98440709Y-73726299D01*
X98443856Y-73719645D01*
X98447640Y-73713332D01*
X98452024Y-73707421D01*
X98456967Y-73701967D01*
X98462421Y-73697024D01*
X98468332Y-73692640D01*
X98474645Y-73688856D01*
X98481299Y-73685709D01*
X98488229Y-73683229D01*
X98495368Y-73681441D01*
X98502649Y-73680361D01*
X98510000Y-73680000D01*
X99835000Y-73680000D01*
X99842351Y-73680361D01*
X99842351Y-73680361D01*
G37*
D25*
X99172500Y-73830000D03*
D21*
G36*
X99842351Y-74180361D02*
G01*
X99849632Y-74181441D01*
X99856771Y-74183229D01*
X99863701Y-74185709D01*
X99870355Y-74188856D01*
X99876668Y-74192640D01*
X99882579Y-74197024D01*
X99888033Y-74201967D01*
X99892976Y-74207421D01*
X99897360Y-74213332D01*
X99901144Y-74219645D01*
X99904291Y-74226299D01*
X99906771Y-74233229D01*
X99908559Y-74240368D01*
X99909639Y-74247649D01*
X99910000Y-74255000D01*
X99910000Y-74405000D01*
X99909639Y-74412351D01*
X99908559Y-74419632D01*
X99906771Y-74426771D01*
X99904291Y-74433701D01*
X99901144Y-74440355D01*
X99897360Y-74446668D01*
X99892976Y-74452579D01*
X99888033Y-74458033D01*
X99882579Y-74462976D01*
X99876668Y-74467360D01*
X99870355Y-74471144D01*
X99863701Y-74474291D01*
X99856771Y-74476771D01*
X99849632Y-74478559D01*
X99842351Y-74479639D01*
X99835000Y-74480000D01*
X98510000Y-74480000D01*
X98502649Y-74479639D01*
X98495368Y-74478559D01*
X98488229Y-74476771D01*
X98481299Y-74474291D01*
X98474645Y-74471144D01*
X98468332Y-74467360D01*
X98462421Y-74462976D01*
X98456967Y-74458033D01*
X98452024Y-74452579D01*
X98447640Y-74446668D01*
X98443856Y-74440355D01*
X98440709Y-74433701D01*
X98438229Y-74426771D01*
X98436441Y-74419632D01*
X98435361Y-74412351D01*
X98435000Y-74405000D01*
X98435000Y-74255000D01*
X98435361Y-74247649D01*
X98436441Y-74240368D01*
X98438229Y-74233229D01*
X98440709Y-74226299D01*
X98443856Y-74219645D01*
X98447640Y-74213332D01*
X98452024Y-74207421D01*
X98456967Y-74201967D01*
X98462421Y-74197024D01*
X98468332Y-74192640D01*
X98474645Y-74188856D01*
X98481299Y-74185709D01*
X98488229Y-74183229D01*
X98495368Y-74181441D01*
X98502649Y-74180361D01*
X98510000Y-74180000D01*
X99835000Y-74180000D01*
X99842351Y-74180361D01*
X99842351Y-74180361D01*
G37*
D25*
X99172500Y-74330000D03*
D21*
G36*
X99842351Y-74680361D02*
G01*
X99849632Y-74681441D01*
X99856771Y-74683229D01*
X99863701Y-74685709D01*
X99870355Y-74688856D01*
X99876668Y-74692640D01*
X99882579Y-74697024D01*
X99888033Y-74701967D01*
X99892976Y-74707421D01*
X99897360Y-74713332D01*
X99901144Y-74719645D01*
X99904291Y-74726299D01*
X99906771Y-74733229D01*
X99908559Y-74740368D01*
X99909639Y-74747649D01*
X99910000Y-74755000D01*
X99910000Y-74905000D01*
X99909639Y-74912351D01*
X99908559Y-74919632D01*
X99906771Y-74926771D01*
X99904291Y-74933701D01*
X99901144Y-74940355D01*
X99897360Y-74946668D01*
X99892976Y-74952579D01*
X99888033Y-74958033D01*
X99882579Y-74962976D01*
X99876668Y-74967360D01*
X99870355Y-74971144D01*
X99863701Y-74974291D01*
X99856771Y-74976771D01*
X99849632Y-74978559D01*
X99842351Y-74979639D01*
X99835000Y-74980000D01*
X98510000Y-74980000D01*
X98502649Y-74979639D01*
X98495368Y-74978559D01*
X98488229Y-74976771D01*
X98481299Y-74974291D01*
X98474645Y-74971144D01*
X98468332Y-74967360D01*
X98462421Y-74962976D01*
X98456967Y-74958033D01*
X98452024Y-74952579D01*
X98447640Y-74946668D01*
X98443856Y-74940355D01*
X98440709Y-74933701D01*
X98438229Y-74926771D01*
X98436441Y-74919632D01*
X98435361Y-74912351D01*
X98435000Y-74905000D01*
X98435000Y-74755000D01*
X98435361Y-74747649D01*
X98436441Y-74740368D01*
X98438229Y-74733229D01*
X98440709Y-74726299D01*
X98443856Y-74719645D01*
X98447640Y-74713332D01*
X98452024Y-74707421D01*
X98456967Y-74701967D01*
X98462421Y-74697024D01*
X98468332Y-74692640D01*
X98474645Y-74688856D01*
X98481299Y-74685709D01*
X98488229Y-74683229D01*
X98495368Y-74681441D01*
X98502649Y-74680361D01*
X98510000Y-74680000D01*
X99835000Y-74680000D01*
X99842351Y-74680361D01*
X99842351Y-74680361D01*
G37*
D25*
X99172500Y-74830000D03*
D21*
G36*
X99842351Y-75180361D02*
G01*
X99849632Y-75181441D01*
X99856771Y-75183229D01*
X99863701Y-75185709D01*
X99870355Y-75188856D01*
X99876668Y-75192640D01*
X99882579Y-75197024D01*
X99888033Y-75201967D01*
X99892976Y-75207421D01*
X99897360Y-75213332D01*
X99901144Y-75219645D01*
X99904291Y-75226299D01*
X99906771Y-75233229D01*
X99908559Y-75240368D01*
X99909639Y-75247649D01*
X99910000Y-75255000D01*
X99910000Y-75405000D01*
X99909639Y-75412351D01*
X99908559Y-75419632D01*
X99906771Y-75426771D01*
X99904291Y-75433701D01*
X99901144Y-75440355D01*
X99897360Y-75446668D01*
X99892976Y-75452579D01*
X99888033Y-75458033D01*
X99882579Y-75462976D01*
X99876668Y-75467360D01*
X99870355Y-75471144D01*
X99863701Y-75474291D01*
X99856771Y-75476771D01*
X99849632Y-75478559D01*
X99842351Y-75479639D01*
X99835000Y-75480000D01*
X98510000Y-75480000D01*
X98502649Y-75479639D01*
X98495368Y-75478559D01*
X98488229Y-75476771D01*
X98481299Y-75474291D01*
X98474645Y-75471144D01*
X98468332Y-75467360D01*
X98462421Y-75462976D01*
X98456967Y-75458033D01*
X98452024Y-75452579D01*
X98447640Y-75446668D01*
X98443856Y-75440355D01*
X98440709Y-75433701D01*
X98438229Y-75426771D01*
X98436441Y-75419632D01*
X98435361Y-75412351D01*
X98435000Y-75405000D01*
X98435000Y-75255000D01*
X98435361Y-75247649D01*
X98436441Y-75240368D01*
X98438229Y-75233229D01*
X98440709Y-75226299D01*
X98443856Y-75219645D01*
X98447640Y-75213332D01*
X98452024Y-75207421D01*
X98456967Y-75201967D01*
X98462421Y-75197024D01*
X98468332Y-75192640D01*
X98474645Y-75188856D01*
X98481299Y-75185709D01*
X98488229Y-75183229D01*
X98495368Y-75181441D01*
X98502649Y-75180361D01*
X98510000Y-75180000D01*
X99835000Y-75180000D01*
X99842351Y-75180361D01*
X99842351Y-75180361D01*
G37*
D25*
X99172500Y-75330000D03*
D21*
G36*
X97842351Y-76005361D02*
G01*
X97849632Y-76006441D01*
X97856771Y-76008229D01*
X97863701Y-76010709D01*
X97870355Y-76013856D01*
X97876668Y-76017640D01*
X97882579Y-76022024D01*
X97888033Y-76026967D01*
X97892976Y-76032421D01*
X97897360Y-76038332D01*
X97901144Y-76044645D01*
X97904291Y-76051299D01*
X97906771Y-76058229D01*
X97908559Y-76065368D01*
X97909639Y-76072649D01*
X97910000Y-76080000D01*
X97910000Y-77405000D01*
X97909639Y-77412351D01*
X97908559Y-77419632D01*
X97906771Y-77426771D01*
X97904291Y-77433701D01*
X97901144Y-77440355D01*
X97897360Y-77446668D01*
X97892976Y-77452579D01*
X97888033Y-77458033D01*
X97882579Y-77462976D01*
X97876668Y-77467360D01*
X97870355Y-77471144D01*
X97863701Y-77474291D01*
X97856771Y-77476771D01*
X97849632Y-77478559D01*
X97842351Y-77479639D01*
X97835000Y-77480000D01*
X97685000Y-77480000D01*
X97677649Y-77479639D01*
X97670368Y-77478559D01*
X97663229Y-77476771D01*
X97656299Y-77474291D01*
X97649645Y-77471144D01*
X97643332Y-77467360D01*
X97637421Y-77462976D01*
X97631967Y-77458033D01*
X97627024Y-77452579D01*
X97622640Y-77446668D01*
X97618856Y-77440355D01*
X97615709Y-77433701D01*
X97613229Y-77426771D01*
X97611441Y-77419632D01*
X97610361Y-77412351D01*
X97610000Y-77405000D01*
X97610000Y-76080000D01*
X97610361Y-76072649D01*
X97611441Y-76065368D01*
X97613229Y-76058229D01*
X97615709Y-76051299D01*
X97618856Y-76044645D01*
X97622640Y-76038332D01*
X97627024Y-76032421D01*
X97631967Y-76026967D01*
X97637421Y-76022024D01*
X97643332Y-76017640D01*
X97649645Y-76013856D01*
X97656299Y-76010709D01*
X97663229Y-76008229D01*
X97670368Y-76006441D01*
X97677649Y-76005361D01*
X97685000Y-76005000D01*
X97835000Y-76005000D01*
X97842351Y-76005361D01*
X97842351Y-76005361D01*
G37*
D25*
X97760000Y-76742500D03*
D21*
G36*
X97342351Y-76005361D02*
G01*
X97349632Y-76006441D01*
X97356771Y-76008229D01*
X97363701Y-76010709D01*
X97370355Y-76013856D01*
X97376668Y-76017640D01*
X97382579Y-76022024D01*
X97388033Y-76026967D01*
X97392976Y-76032421D01*
X97397360Y-76038332D01*
X97401144Y-76044645D01*
X97404291Y-76051299D01*
X97406771Y-76058229D01*
X97408559Y-76065368D01*
X97409639Y-76072649D01*
X97410000Y-76080000D01*
X97410000Y-77405000D01*
X97409639Y-77412351D01*
X97408559Y-77419632D01*
X97406771Y-77426771D01*
X97404291Y-77433701D01*
X97401144Y-77440355D01*
X97397360Y-77446668D01*
X97392976Y-77452579D01*
X97388033Y-77458033D01*
X97382579Y-77462976D01*
X97376668Y-77467360D01*
X97370355Y-77471144D01*
X97363701Y-77474291D01*
X97356771Y-77476771D01*
X97349632Y-77478559D01*
X97342351Y-77479639D01*
X97335000Y-77480000D01*
X97185000Y-77480000D01*
X97177649Y-77479639D01*
X97170368Y-77478559D01*
X97163229Y-77476771D01*
X97156299Y-77474291D01*
X97149645Y-77471144D01*
X97143332Y-77467360D01*
X97137421Y-77462976D01*
X97131967Y-77458033D01*
X97127024Y-77452579D01*
X97122640Y-77446668D01*
X97118856Y-77440355D01*
X97115709Y-77433701D01*
X97113229Y-77426771D01*
X97111441Y-77419632D01*
X97110361Y-77412351D01*
X97110000Y-77405000D01*
X97110000Y-76080000D01*
X97110361Y-76072649D01*
X97111441Y-76065368D01*
X97113229Y-76058229D01*
X97115709Y-76051299D01*
X97118856Y-76044645D01*
X97122640Y-76038332D01*
X97127024Y-76032421D01*
X97131967Y-76026967D01*
X97137421Y-76022024D01*
X97143332Y-76017640D01*
X97149645Y-76013856D01*
X97156299Y-76010709D01*
X97163229Y-76008229D01*
X97170368Y-76006441D01*
X97177649Y-76005361D01*
X97185000Y-76005000D01*
X97335000Y-76005000D01*
X97342351Y-76005361D01*
X97342351Y-76005361D01*
G37*
D25*
X97260000Y-76742500D03*
D21*
G36*
X96842351Y-76005361D02*
G01*
X96849632Y-76006441D01*
X96856771Y-76008229D01*
X96863701Y-76010709D01*
X96870355Y-76013856D01*
X96876668Y-76017640D01*
X96882579Y-76022024D01*
X96888033Y-76026967D01*
X96892976Y-76032421D01*
X96897360Y-76038332D01*
X96901144Y-76044645D01*
X96904291Y-76051299D01*
X96906771Y-76058229D01*
X96908559Y-76065368D01*
X96909639Y-76072649D01*
X96910000Y-76080000D01*
X96910000Y-77405000D01*
X96909639Y-77412351D01*
X96908559Y-77419632D01*
X96906771Y-77426771D01*
X96904291Y-77433701D01*
X96901144Y-77440355D01*
X96897360Y-77446668D01*
X96892976Y-77452579D01*
X96888033Y-77458033D01*
X96882579Y-77462976D01*
X96876668Y-77467360D01*
X96870355Y-77471144D01*
X96863701Y-77474291D01*
X96856771Y-77476771D01*
X96849632Y-77478559D01*
X96842351Y-77479639D01*
X96835000Y-77480000D01*
X96685000Y-77480000D01*
X96677649Y-77479639D01*
X96670368Y-77478559D01*
X96663229Y-77476771D01*
X96656299Y-77474291D01*
X96649645Y-77471144D01*
X96643332Y-77467360D01*
X96637421Y-77462976D01*
X96631967Y-77458033D01*
X96627024Y-77452579D01*
X96622640Y-77446668D01*
X96618856Y-77440355D01*
X96615709Y-77433701D01*
X96613229Y-77426771D01*
X96611441Y-77419632D01*
X96610361Y-77412351D01*
X96610000Y-77405000D01*
X96610000Y-76080000D01*
X96610361Y-76072649D01*
X96611441Y-76065368D01*
X96613229Y-76058229D01*
X96615709Y-76051299D01*
X96618856Y-76044645D01*
X96622640Y-76038332D01*
X96627024Y-76032421D01*
X96631967Y-76026967D01*
X96637421Y-76022024D01*
X96643332Y-76017640D01*
X96649645Y-76013856D01*
X96656299Y-76010709D01*
X96663229Y-76008229D01*
X96670368Y-76006441D01*
X96677649Y-76005361D01*
X96685000Y-76005000D01*
X96835000Y-76005000D01*
X96842351Y-76005361D01*
X96842351Y-76005361D01*
G37*
D25*
X96760000Y-76742500D03*
D21*
G36*
X96342351Y-76005361D02*
G01*
X96349632Y-76006441D01*
X96356771Y-76008229D01*
X96363701Y-76010709D01*
X96370355Y-76013856D01*
X96376668Y-76017640D01*
X96382579Y-76022024D01*
X96388033Y-76026967D01*
X96392976Y-76032421D01*
X96397360Y-76038332D01*
X96401144Y-76044645D01*
X96404291Y-76051299D01*
X96406771Y-76058229D01*
X96408559Y-76065368D01*
X96409639Y-76072649D01*
X96410000Y-76080000D01*
X96410000Y-77405000D01*
X96409639Y-77412351D01*
X96408559Y-77419632D01*
X96406771Y-77426771D01*
X96404291Y-77433701D01*
X96401144Y-77440355D01*
X96397360Y-77446668D01*
X96392976Y-77452579D01*
X96388033Y-77458033D01*
X96382579Y-77462976D01*
X96376668Y-77467360D01*
X96370355Y-77471144D01*
X96363701Y-77474291D01*
X96356771Y-77476771D01*
X96349632Y-77478559D01*
X96342351Y-77479639D01*
X96335000Y-77480000D01*
X96185000Y-77480000D01*
X96177649Y-77479639D01*
X96170368Y-77478559D01*
X96163229Y-77476771D01*
X96156299Y-77474291D01*
X96149645Y-77471144D01*
X96143332Y-77467360D01*
X96137421Y-77462976D01*
X96131967Y-77458033D01*
X96127024Y-77452579D01*
X96122640Y-77446668D01*
X96118856Y-77440355D01*
X96115709Y-77433701D01*
X96113229Y-77426771D01*
X96111441Y-77419632D01*
X96110361Y-77412351D01*
X96110000Y-77405000D01*
X96110000Y-76080000D01*
X96110361Y-76072649D01*
X96111441Y-76065368D01*
X96113229Y-76058229D01*
X96115709Y-76051299D01*
X96118856Y-76044645D01*
X96122640Y-76038332D01*
X96127024Y-76032421D01*
X96131967Y-76026967D01*
X96137421Y-76022024D01*
X96143332Y-76017640D01*
X96149645Y-76013856D01*
X96156299Y-76010709D01*
X96163229Y-76008229D01*
X96170368Y-76006441D01*
X96177649Y-76005361D01*
X96185000Y-76005000D01*
X96335000Y-76005000D01*
X96342351Y-76005361D01*
X96342351Y-76005361D01*
G37*
D25*
X96260000Y-76742500D03*
D21*
G36*
X95842351Y-76005361D02*
G01*
X95849632Y-76006441D01*
X95856771Y-76008229D01*
X95863701Y-76010709D01*
X95870355Y-76013856D01*
X95876668Y-76017640D01*
X95882579Y-76022024D01*
X95888033Y-76026967D01*
X95892976Y-76032421D01*
X95897360Y-76038332D01*
X95901144Y-76044645D01*
X95904291Y-76051299D01*
X95906771Y-76058229D01*
X95908559Y-76065368D01*
X95909639Y-76072649D01*
X95910000Y-76080000D01*
X95910000Y-77405000D01*
X95909639Y-77412351D01*
X95908559Y-77419632D01*
X95906771Y-77426771D01*
X95904291Y-77433701D01*
X95901144Y-77440355D01*
X95897360Y-77446668D01*
X95892976Y-77452579D01*
X95888033Y-77458033D01*
X95882579Y-77462976D01*
X95876668Y-77467360D01*
X95870355Y-77471144D01*
X95863701Y-77474291D01*
X95856771Y-77476771D01*
X95849632Y-77478559D01*
X95842351Y-77479639D01*
X95835000Y-77480000D01*
X95685000Y-77480000D01*
X95677649Y-77479639D01*
X95670368Y-77478559D01*
X95663229Y-77476771D01*
X95656299Y-77474291D01*
X95649645Y-77471144D01*
X95643332Y-77467360D01*
X95637421Y-77462976D01*
X95631967Y-77458033D01*
X95627024Y-77452579D01*
X95622640Y-77446668D01*
X95618856Y-77440355D01*
X95615709Y-77433701D01*
X95613229Y-77426771D01*
X95611441Y-77419632D01*
X95610361Y-77412351D01*
X95610000Y-77405000D01*
X95610000Y-76080000D01*
X95610361Y-76072649D01*
X95611441Y-76065368D01*
X95613229Y-76058229D01*
X95615709Y-76051299D01*
X95618856Y-76044645D01*
X95622640Y-76038332D01*
X95627024Y-76032421D01*
X95631967Y-76026967D01*
X95637421Y-76022024D01*
X95643332Y-76017640D01*
X95649645Y-76013856D01*
X95656299Y-76010709D01*
X95663229Y-76008229D01*
X95670368Y-76006441D01*
X95677649Y-76005361D01*
X95685000Y-76005000D01*
X95835000Y-76005000D01*
X95842351Y-76005361D01*
X95842351Y-76005361D01*
G37*
D25*
X95760000Y-76742500D03*
D21*
G36*
X95342351Y-76005361D02*
G01*
X95349632Y-76006441D01*
X95356771Y-76008229D01*
X95363701Y-76010709D01*
X95370355Y-76013856D01*
X95376668Y-76017640D01*
X95382579Y-76022024D01*
X95388033Y-76026967D01*
X95392976Y-76032421D01*
X95397360Y-76038332D01*
X95401144Y-76044645D01*
X95404291Y-76051299D01*
X95406771Y-76058229D01*
X95408559Y-76065368D01*
X95409639Y-76072649D01*
X95410000Y-76080000D01*
X95410000Y-77405000D01*
X95409639Y-77412351D01*
X95408559Y-77419632D01*
X95406771Y-77426771D01*
X95404291Y-77433701D01*
X95401144Y-77440355D01*
X95397360Y-77446668D01*
X95392976Y-77452579D01*
X95388033Y-77458033D01*
X95382579Y-77462976D01*
X95376668Y-77467360D01*
X95370355Y-77471144D01*
X95363701Y-77474291D01*
X95356771Y-77476771D01*
X95349632Y-77478559D01*
X95342351Y-77479639D01*
X95335000Y-77480000D01*
X95185000Y-77480000D01*
X95177649Y-77479639D01*
X95170368Y-77478559D01*
X95163229Y-77476771D01*
X95156299Y-77474291D01*
X95149645Y-77471144D01*
X95143332Y-77467360D01*
X95137421Y-77462976D01*
X95131967Y-77458033D01*
X95127024Y-77452579D01*
X95122640Y-77446668D01*
X95118856Y-77440355D01*
X95115709Y-77433701D01*
X95113229Y-77426771D01*
X95111441Y-77419632D01*
X95110361Y-77412351D01*
X95110000Y-77405000D01*
X95110000Y-76080000D01*
X95110361Y-76072649D01*
X95111441Y-76065368D01*
X95113229Y-76058229D01*
X95115709Y-76051299D01*
X95118856Y-76044645D01*
X95122640Y-76038332D01*
X95127024Y-76032421D01*
X95131967Y-76026967D01*
X95137421Y-76022024D01*
X95143332Y-76017640D01*
X95149645Y-76013856D01*
X95156299Y-76010709D01*
X95163229Y-76008229D01*
X95170368Y-76006441D01*
X95177649Y-76005361D01*
X95185000Y-76005000D01*
X95335000Y-76005000D01*
X95342351Y-76005361D01*
X95342351Y-76005361D01*
G37*
D25*
X95260000Y-76742500D03*
D21*
G36*
X94842351Y-76005361D02*
G01*
X94849632Y-76006441D01*
X94856771Y-76008229D01*
X94863701Y-76010709D01*
X94870355Y-76013856D01*
X94876668Y-76017640D01*
X94882579Y-76022024D01*
X94888033Y-76026967D01*
X94892976Y-76032421D01*
X94897360Y-76038332D01*
X94901144Y-76044645D01*
X94904291Y-76051299D01*
X94906771Y-76058229D01*
X94908559Y-76065368D01*
X94909639Y-76072649D01*
X94910000Y-76080000D01*
X94910000Y-77405000D01*
X94909639Y-77412351D01*
X94908559Y-77419632D01*
X94906771Y-77426771D01*
X94904291Y-77433701D01*
X94901144Y-77440355D01*
X94897360Y-77446668D01*
X94892976Y-77452579D01*
X94888033Y-77458033D01*
X94882579Y-77462976D01*
X94876668Y-77467360D01*
X94870355Y-77471144D01*
X94863701Y-77474291D01*
X94856771Y-77476771D01*
X94849632Y-77478559D01*
X94842351Y-77479639D01*
X94835000Y-77480000D01*
X94685000Y-77480000D01*
X94677649Y-77479639D01*
X94670368Y-77478559D01*
X94663229Y-77476771D01*
X94656299Y-77474291D01*
X94649645Y-77471144D01*
X94643332Y-77467360D01*
X94637421Y-77462976D01*
X94631967Y-77458033D01*
X94627024Y-77452579D01*
X94622640Y-77446668D01*
X94618856Y-77440355D01*
X94615709Y-77433701D01*
X94613229Y-77426771D01*
X94611441Y-77419632D01*
X94610361Y-77412351D01*
X94610000Y-77405000D01*
X94610000Y-76080000D01*
X94610361Y-76072649D01*
X94611441Y-76065368D01*
X94613229Y-76058229D01*
X94615709Y-76051299D01*
X94618856Y-76044645D01*
X94622640Y-76038332D01*
X94627024Y-76032421D01*
X94631967Y-76026967D01*
X94637421Y-76022024D01*
X94643332Y-76017640D01*
X94649645Y-76013856D01*
X94656299Y-76010709D01*
X94663229Y-76008229D01*
X94670368Y-76006441D01*
X94677649Y-76005361D01*
X94685000Y-76005000D01*
X94835000Y-76005000D01*
X94842351Y-76005361D01*
X94842351Y-76005361D01*
G37*
D25*
X94760000Y-76742500D03*
D21*
G36*
X94342351Y-76005361D02*
G01*
X94349632Y-76006441D01*
X94356771Y-76008229D01*
X94363701Y-76010709D01*
X94370355Y-76013856D01*
X94376668Y-76017640D01*
X94382579Y-76022024D01*
X94388033Y-76026967D01*
X94392976Y-76032421D01*
X94397360Y-76038332D01*
X94401144Y-76044645D01*
X94404291Y-76051299D01*
X94406771Y-76058229D01*
X94408559Y-76065368D01*
X94409639Y-76072649D01*
X94410000Y-76080000D01*
X94410000Y-77405000D01*
X94409639Y-77412351D01*
X94408559Y-77419632D01*
X94406771Y-77426771D01*
X94404291Y-77433701D01*
X94401144Y-77440355D01*
X94397360Y-77446668D01*
X94392976Y-77452579D01*
X94388033Y-77458033D01*
X94382579Y-77462976D01*
X94376668Y-77467360D01*
X94370355Y-77471144D01*
X94363701Y-77474291D01*
X94356771Y-77476771D01*
X94349632Y-77478559D01*
X94342351Y-77479639D01*
X94335000Y-77480000D01*
X94185000Y-77480000D01*
X94177649Y-77479639D01*
X94170368Y-77478559D01*
X94163229Y-77476771D01*
X94156299Y-77474291D01*
X94149645Y-77471144D01*
X94143332Y-77467360D01*
X94137421Y-77462976D01*
X94131967Y-77458033D01*
X94127024Y-77452579D01*
X94122640Y-77446668D01*
X94118856Y-77440355D01*
X94115709Y-77433701D01*
X94113229Y-77426771D01*
X94111441Y-77419632D01*
X94110361Y-77412351D01*
X94110000Y-77405000D01*
X94110000Y-76080000D01*
X94110361Y-76072649D01*
X94111441Y-76065368D01*
X94113229Y-76058229D01*
X94115709Y-76051299D01*
X94118856Y-76044645D01*
X94122640Y-76038332D01*
X94127024Y-76032421D01*
X94131967Y-76026967D01*
X94137421Y-76022024D01*
X94143332Y-76017640D01*
X94149645Y-76013856D01*
X94156299Y-76010709D01*
X94163229Y-76008229D01*
X94170368Y-76006441D01*
X94177649Y-76005361D01*
X94185000Y-76005000D01*
X94335000Y-76005000D01*
X94342351Y-76005361D01*
X94342351Y-76005361D01*
G37*
D25*
X94260000Y-76742500D03*
D21*
G36*
X93842351Y-76005361D02*
G01*
X93849632Y-76006441D01*
X93856771Y-76008229D01*
X93863701Y-76010709D01*
X93870355Y-76013856D01*
X93876668Y-76017640D01*
X93882579Y-76022024D01*
X93888033Y-76026967D01*
X93892976Y-76032421D01*
X93897360Y-76038332D01*
X93901144Y-76044645D01*
X93904291Y-76051299D01*
X93906771Y-76058229D01*
X93908559Y-76065368D01*
X93909639Y-76072649D01*
X93910000Y-76080000D01*
X93910000Y-77405000D01*
X93909639Y-77412351D01*
X93908559Y-77419632D01*
X93906771Y-77426771D01*
X93904291Y-77433701D01*
X93901144Y-77440355D01*
X93897360Y-77446668D01*
X93892976Y-77452579D01*
X93888033Y-77458033D01*
X93882579Y-77462976D01*
X93876668Y-77467360D01*
X93870355Y-77471144D01*
X93863701Y-77474291D01*
X93856771Y-77476771D01*
X93849632Y-77478559D01*
X93842351Y-77479639D01*
X93835000Y-77480000D01*
X93685000Y-77480000D01*
X93677649Y-77479639D01*
X93670368Y-77478559D01*
X93663229Y-77476771D01*
X93656299Y-77474291D01*
X93649645Y-77471144D01*
X93643332Y-77467360D01*
X93637421Y-77462976D01*
X93631967Y-77458033D01*
X93627024Y-77452579D01*
X93622640Y-77446668D01*
X93618856Y-77440355D01*
X93615709Y-77433701D01*
X93613229Y-77426771D01*
X93611441Y-77419632D01*
X93610361Y-77412351D01*
X93610000Y-77405000D01*
X93610000Y-76080000D01*
X93610361Y-76072649D01*
X93611441Y-76065368D01*
X93613229Y-76058229D01*
X93615709Y-76051299D01*
X93618856Y-76044645D01*
X93622640Y-76038332D01*
X93627024Y-76032421D01*
X93631967Y-76026967D01*
X93637421Y-76022024D01*
X93643332Y-76017640D01*
X93649645Y-76013856D01*
X93656299Y-76010709D01*
X93663229Y-76008229D01*
X93670368Y-76006441D01*
X93677649Y-76005361D01*
X93685000Y-76005000D01*
X93835000Y-76005000D01*
X93842351Y-76005361D01*
X93842351Y-76005361D01*
G37*
D25*
X93760000Y-76742500D03*
D21*
G36*
X93342351Y-76005361D02*
G01*
X93349632Y-76006441D01*
X93356771Y-76008229D01*
X93363701Y-76010709D01*
X93370355Y-76013856D01*
X93376668Y-76017640D01*
X93382579Y-76022024D01*
X93388033Y-76026967D01*
X93392976Y-76032421D01*
X93397360Y-76038332D01*
X93401144Y-76044645D01*
X93404291Y-76051299D01*
X93406771Y-76058229D01*
X93408559Y-76065368D01*
X93409639Y-76072649D01*
X93410000Y-76080000D01*
X93410000Y-77405000D01*
X93409639Y-77412351D01*
X93408559Y-77419632D01*
X93406771Y-77426771D01*
X93404291Y-77433701D01*
X93401144Y-77440355D01*
X93397360Y-77446668D01*
X93392976Y-77452579D01*
X93388033Y-77458033D01*
X93382579Y-77462976D01*
X93376668Y-77467360D01*
X93370355Y-77471144D01*
X93363701Y-77474291D01*
X93356771Y-77476771D01*
X93349632Y-77478559D01*
X93342351Y-77479639D01*
X93335000Y-77480000D01*
X93185000Y-77480000D01*
X93177649Y-77479639D01*
X93170368Y-77478559D01*
X93163229Y-77476771D01*
X93156299Y-77474291D01*
X93149645Y-77471144D01*
X93143332Y-77467360D01*
X93137421Y-77462976D01*
X93131967Y-77458033D01*
X93127024Y-77452579D01*
X93122640Y-77446668D01*
X93118856Y-77440355D01*
X93115709Y-77433701D01*
X93113229Y-77426771D01*
X93111441Y-77419632D01*
X93110361Y-77412351D01*
X93110000Y-77405000D01*
X93110000Y-76080000D01*
X93110361Y-76072649D01*
X93111441Y-76065368D01*
X93113229Y-76058229D01*
X93115709Y-76051299D01*
X93118856Y-76044645D01*
X93122640Y-76038332D01*
X93127024Y-76032421D01*
X93131967Y-76026967D01*
X93137421Y-76022024D01*
X93143332Y-76017640D01*
X93149645Y-76013856D01*
X93156299Y-76010709D01*
X93163229Y-76008229D01*
X93170368Y-76006441D01*
X93177649Y-76005361D01*
X93185000Y-76005000D01*
X93335000Y-76005000D01*
X93342351Y-76005361D01*
X93342351Y-76005361D01*
G37*
D25*
X93260000Y-76742500D03*
D21*
G36*
X92842351Y-76005361D02*
G01*
X92849632Y-76006441D01*
X92856771Y-76008229D01*
X92863701Y-76010709D01*
X92870355Y-76013856D01*
X92876668Y-76017640D01*
X92882579Y-76022024D01*
X92888033Y-76026967D01*
X92892976Y-76032421D01*
X92897360Y-76038332D01*
X92901144Y-76044645D01*
X92904291Y-76051299D01*
X92906771Y-76058229D01*
X92908559Y-76065368D01*
X92909639Y-76072649D01*
X92910000Y-76080000D01*
X92910000Y-77405000D01*
X92909639Y-77412351D01*
X92908559Y-77419632D01*
X92906771Y-77426771D01*
X92904291Y-77433701D01*
X92901144Y-77440355D01*
X92897360Y-77446668D01*
X92892976Y-77452579D01*
X92888033Y-77458033D01*
X92882579Y-77462976D01*
X92876668Y-77467360D01*
X92870355Y-77471144D01*
X92863701Y-77474291D01*
X92856771Y-77476771D01*
X92849632Y-77478559D01*
X92842351Y-77479639D01*
X92835000Y-77480000D01*
X92685000Y-77480000D01*
X92677649Y-77479639D01*
X92670368Y-77478559D01*
X92663229Y-77476771D01*
X92656299Y-77474291D01*
X92649645Y-77471144D01*
X92643332Y-77467360D01*
X92637421Y-77462976D01*
X92631967Y-77458033D01*
X92627024Y-77452579D01*
X92622640Y-77446668D01*
X92618856Y-77440355D01*
X92615709Y-77433701D01*
X92613229Y-77426771D01*
X92611441Y-77419632D01*
X92610361Y-77412351D01*
X92610000Y-77405000D01*
X92610000Y-76080000D01*
X92610361Y-76072649D01*
X92611441Y-76065368D01*
X92613229Y-76058229D01*
X92615709Y-76051299D01*
X92618856Y-76044645D01*
X92622640Y-76038332D01*
X92627024Y-76032421D01*
X92631967Y-76026967D01*
X92637421Y-76022024D01*
X92643332Y-76017640D01*
X92649645Y-76013856D01*
X92656299Y-76010709D01*
X92663229Y-76008229D01*
X92670368Y-76006441D01*
X92677649Y-76005361D01*
X92685000Y-76005000D01*
X92835000Y-76005000D01*
X92842351Y-76005361D01*
X92842351Y-76005361D01*
G37*
D25*
X92760000Y-76742500D03*
D21*
G36*
X92342351Y-76005361D02*
G01*
X92349632Y-76006441D01*
X92356771Y-76008229D01*
X92363701Y-76010709D01*
X92370355Y-76013856D01*
X92376668Y-76017640D01*
X92382579Y-76022024D01*
X92388033Y-76026967D01*
X92392976Y-76032421D01*
X92397360Y-76038332D01*
X92401144Y-76044645D01*
X92404291Y-76051299D01*
X92406771Y-76058229D01*
X92408559Y-76065368D01*
X92409639Y-76072649D01*
X92410000Y-76080000D01*
X92410000Y-77405000D01*
X92409639Y-77412351D01*
X92408559Y-77419632D01*
X92406771Y-77426771D01*
X92404291Y-77433701D01*
X92401144Y-77440355D01*
X92397360Y-77446668D01*
X92392976Y-77452579D01*
X92388033Y-77458033D01*
X92382579Y-77462976D01*
X92376668Y-77467360D01*
X92370355Y-77471144D01*
X92363701Y-77474291D01*
X92356771Y-77476771D01*
X92349632Y-77478559D01*
X92342351Y-77479639D01*
X92335000Y-77480000D01*
X92185000Y-77480000D01*
X92177649Y-77479639D01*
X92170368Y-77478559D01*
X92163229Y-77476771D01*
X92156299Y-77474291D01*
X92149645Y-77471144D01*
X92143332Y-77467360D01*
X92137421Y-77462976D01*
X92131967Y-77458033D01*
X92127024Y-77452579D01*
X92122640Y-77446668D01*
X92118856Y-77440355D01*
X92115709Y-77433701D01*
X92113229Y-77426771D01*
X92111441Y-77419632D01*
X92110361Y-77412351D01*
X92110000Y-77405000D01*
X92110000Y-76080000D01*
X92110361Y-76072649D01*
X92111441Y-76065368D01*
X92113229Y-76058229D01*
X92115709Y-76051299D01*
X92118856Y-76044645D01*
X92122640Y-76038332D01*
X92127024Y-76032421D01*
X92131967Y-76026967D01*
X92137421Y-76022024D01*
X92143332Y-76017640D01*
X92149645Y-76013856D01*
X92156299Y-76010709D01*
X92163229Y-76008229D01*
X92170368Y-76006441D01*
X92177649Y-76005361D01*
X92185000Y-76005000D01*
X92335000Y-76005000D01*
X92342351Y-76005361D01*
X92342351Y-76005361D01*
G37*
D25*
X92260000Y-76742500D03*
D21*
G36*
X91517351Y-75180361D02*
G01*
X91524632Y-75181441D01*
X91531771Y-75183229D01*
X91538701Y-75185709D01*
X91545355Y-75188856D01*
X91551668Y-75192640D01*
X91557579Y-75197024D01*
X91563033Y-75201967D01*
X91567976Y-75207421D01*
X91572360Y-75213332D01*
X91576144Y-75219645D01*
X91579291Y-75226299D01*
X91581771Y-75233229D01*
X91583559Y-75240368D01*
X91584639Y-75247649D01*
X91585000Y-75255000D01*
X91585000Y-75405000D01*
X91584639Y-75412351D01*
X91583559Y-75419632D01*
X91581771Y-75426771D01*
X91579291Y-75433701D01*
X91576144Y-75440355D01*
X91572360Y-75446668D01*
X91567976Y-75452579D01*
X91563033Y-75458033D01*
X91557579Y-75462976D01*
X91551668Y-75467360D01*
X91545355Y-75471144D01*
X91538701Y-75474291D01*
X91531771Y-75476771D01*
X91524632Y-75478559D01*
X91517351Y-75479639D01*
X91510000Y-75480000D01*
X90185000Y-75480000D01*
X90177649Y-75479639D01*
X90170368Y-75478559D01*
X90163229Y-75476771D01*
X90156299Y-75474291D01*
X90149645Y-75471144D01*
X90143332Y-75467360D01*
X90137421Y-75462976D01*
X90131967Y-75458033D01*
X90127024Y-75452579D01*
X90122640Y-75446668D01*
X90118856Y-75440355D01*
X90115709Y-75433701D01*
X90113229Y-75426771D01*
X90111441Y-75419632D01*
X90110361Y-75412351D01*
X90110000Y-75405000D01*
X90110000Y-75255000D01*
X90110361Y-75247649D01*
X90111441Y-75240368D01*
X90113229Y-75233229D01*
X90115709Y-75226299D01*
X90118856Y-75219645D01*
X90122640Y-75213332D01*
X90127024Y-75207421D01*
X90131967Y-75201967D01*
X90137421Y-75197024D01*
X90143332Y-75192640D01*
X90149645Y-75188856D01*
X90156299Y-75185709D01*
X90163229Y-75183229D01*
X90170368Y-75181441D01*
X90177649Y-75180361D01*
X90185000Y-75180000D01*
X91510000Y-75180000D01*
X91517351Y-75180361D01*
X91517351Y-75180361D01*
G37*
D25*
X90847500Y-75330000D03*
D21*
G36*
X91517351Y-74680361D02*
G01*
X91524632Y-74681441D01*
X91531771Y-74683229D01*
X91538701Y-74685709D01*
X91545355Y-74688856D01*
X91551668Y-74692640D01*
X91557579Y-74697024D01*
X91563033Y-74701967D01*
X91567976Y-74707421D01*
X91572360Y-74713332D01*
X91576144Y-74719645D01*
X91579291Y-74726299D01*
X91581771Y-74733229D01*
X91583559Y-74740368D01*
X91584639Y-74747649D01*
X91585000Y-74755000D01*
X91585000Y-74905000D01*
X91584639Y-74912351D01*
X91583559Y-74919632D01*
X91581771Y-74926771D01*
X91579291Y-74933701D01*
X91576144Y-74940355D01*
X91572360Y-74946668D01*
X91567976Y-74952579D01*
X91563033Y-74958033D01*
X91557579Y-74962976D01*
X91551668Y-74967360D01*
X91545355Y-74971144D01*
X91538701Y-74974291D01*
X91531771Y-74976771D01*
X91524632Y-74978559D01*
X91517351Y-74979639D01*
X91510000Y-74980000D01*
X90185000Y-74980000D01*
X90177649Y-74979639D01*
X90170368Y-74978559D01*
X90163229Y-74976771D01*
X90156299Y-74974291D01*
X90149645Y-74971144D01*
X90143332Y-74967360D01*
X90137421Y-74962976D01*
X90131967Y-74958033D01*
X90127024Y-74952579D01*
X90122640Y-74946668D01*
X90118856Y-74940355D01*
X90115709Y-74933701D01*
X90113229Y-74926771D01*
X90111441Y-74919632D01*
X90110361Y-74912351D01*
X90110000Y-74905000D01*
X90110000Y-74755000D01*
X90110361Y-74747649D01*
X90111441Y-74740368D01*
X90113229Y-74733229D01*
X90115709Y-74726299D01*
X90118856Y-74719645D01*
X90122640Y-74713332D01*
X90127024Y-74707421D01*
X90131967Y-74701967D01*
X90137421Y-74697024D01*
X90143332Y-74692640D01*
X90149645Y-74688856D01*
X90156299Y-74685709D01*
X90163229Y-74683229D01*
X90170368Y-74681441D01*
X90177649Y-74680361D01*
X90185000Y-74680000D01*
X91510000Y-74680000D01*
X91517351Y-74680361D01*
X91517351Y-74680361D01*
G37*
D25*
X90847500Y-74830000D03*
D21*
G36*
X91517351Y-74180361D02*
G01*
X91524632Y-74181441D01*
X91531771Y-74183229D01*
X91538701Y-74185709D01*
X91545355Y-74188856D01*
X91551668Y-74192640D01*
X91557579Y-74197024D01*
X91563033Y-74201967D01*
X91567976Y-74207421D01*
X91572360Y-74213332D01*
X91576144Y-74219645D01*
X91579291Y-74226299D01*
X91581771Y-74233229D01*
X91583559Y-74240368D01*
X91584639Y-74247649D01*
X91585000Y-74255000D01*
X91585000Y-74405000D01*
X91584639Y-74412351D01*
X91583559Y-74419632D01*
X91581771Y-74426771D01*
X91579291Y-74433701D01*
X91576144Y-74440355D01*
X91572360Y-74446668D01*
X91567976Y-74452579D01*
X91563033Y-74458033D01*
X91557579Y-74462976D01*
X91551668Y-74467360D01*
X91545355Y-74471144D01*
X91538701Y-74474291D01*
X91531771Y-74476771D01*
X91524632Y-74478559D01*
X91517351Y-74479639D01*
X91510000Y-74480000D01*
X90185000Y-74480000D01*
X90177649Y-74479639D01*
X90170368Y-74478559D01*
X90163229Y-74476771D01*
X90156299Y-74474291D01*
X90149645Y-74471144D01*
X90143332Y-74467360D01*
X90137421Y-74462976D01*
X90131967Y-74458033D01*
X90127024Y-74452579D01*
X90122640Y-74446668D01*
X90118856Y-74440355D01*
X90115709Y-74433701D01*
X90113229Y-74426771D01*
X90111441Y-74419632D01*
X90110361Y-74412351D01*
X90110000Y-74405000D01*
X90110000Y-74255000D01*
X90110361Y-74247649D01*
X90111441Y-74240368D01*
X90113229Y-74233229D01*
X90115709Y-74226299D01*
X90118856Y-74219645D01*
X90122640Y-74213332D01*
X90127024Y-74207421D01*
X90131967Y-74201967D01*
X90137421Y-74197024D01*
X90143332Y-74192640D01*
X90149645Y-74188856D01*
X90156299Y-74185709D01*
X90163229Y-74183229D01*
X90170368Y-74181441D01*
X90177649Y-74180361D01*
X90185000Y-74180000D01*
X91510000Y-74180000D01*
X91517351Y-74180361D01*
X91517351Y-74180361D01*
G37*
D25*
X90847500Y-74330000D03*
D21*
G36*
X91517351Y-73680361D02*
G01*
X91524632Y-73681441D01*
X91531771Y-73683229D01*
X91538701Y-73685709D01*
X91545355Y-73688856D01*
X91551668Y-73692640D01*
X91557579Y-73697024D01*
X91563033Y-73701967D01*
X91567976Y-73707421D01*
X91572360Y-73713332D01*
X91576144Y-73719645D01*
X91579291Y-73726299D01*
X91581771Y-73733229D01*
X91583559Y-73740368D01*
X91584639Y-73747649D01*
X91585000Y-73755000D01*
X91585000Y-73905000D01*
X91584639Y-73912351D01*
X91583559Y-73919632D01*
X91581771Y-73926771D01*
X91579291Y-73933701D01*
X91576144Y-73940355D01*
X91572360Y-73946668D01*
X91567976Y-73952579D01*
X91563033Y-73958033D01*
X91557579Y-73962976D01*
X91551668Y-73967360D01*
X91545355Y-73971144D01*
X91538701Y-73974291D01*
X91531771Y-73976771D01*
X91524632Y-73978559D01*
X91517351Y-73979639D01*
X91510000Y-73980000D01*
X90185000Y-73980000D01*
X90177649Y-73979639D01*
X90170368Y-73978559D01*
X90163229Y-73976771D01*
X90156299Y-73974291D01*
X90149645Y-73971144D01*
X90143332Y-73967360D01*
X90137421Y-73962976D01*
X90131967Y-73958033D01*
X90127024Y-73952579D01*
X90122640Y-73946668D01*
X90118856Y-73940355D01*
X90115709Y-73933701D01*
X90113229Y-73926771D01*
X90111441Y-73919632D01*
X90110361Y-73912351D01*
X90110000Y-73905000D01*
X90110000Y-73755000D01*
X90110361Y-73747649D01*
X90111441Y-73740368D01*
X90113229Y-73733229D01*
X90115709Y-73726299D01*
X90118856Y-73719645D01*
X90122640Y-73713332D01*
X90127024Y-73707421D01*
X90131967Y-73701967D01*
X90137421Y-73697024D01*
X90143332Y-73692640D01*
X90149645Y-73688856D01*
X90156299Y-73685709D01*
X90163229Y-73683229D01*
X90170368Y-73681441D01*
X90177649Y-73680361D01*
X90185000Y-73680000D01*
X91510000Y-73680000D01*
X91517351Y-73680361D01*
X91517351Y-73680361D01*
G37*
D25*
X90847500Y-73830000D03*
D21*
G36*
X91517351Y-73180361D02*
G01*
X91524632Y-73181441D01*
X91531771Y-73183229D01*
X91538701Y-73185709D01*
X91545355Y-73188856D01*
X91551668Y-73192640D01*
X91557579Y-73197024D01*
X91563033Y-73201967D01*
X91567976Y-73207421D01*
X91572360Y-73213332D01*
X91576144Y-73219645D01*
X91579291Y-73226299D01*
X91581771Y-73233229D01*
X91583559Y-73240368D01*
X91584639Y-73247649D01*
X91585000Y-73255000D01*
X91585000Y-73405000D01*
X91584639Y-73412351D01*
X91583559Y-73419632D01*
X91581771Y-73426771D01*
X91579291Y-73433701D01*
X91576144Y-73440355D01*
X91572360Y-73446668D01*
X91567976Y-73452579D01*
X91563033Y-73458033D01*
X91557579Y-73462976D01*
X91551668Y-73467360D01*
X91545355Y-73471144D01*
X91538701Y-73474291D01*
X91531771Y-73476771D01*
X91524632Y-73478559D01*
X91517351Y-73479639D01*
X91510000Y-73480000D01*
X90185000Y-73480000D01*
X90177649Y-73479639D01*
X90170368Y-73478559D01*
X90163229Y-73476771D01*
X90156299Y-73474291D01*
X90149645Y-73471144D01*
X90143332Y-73467360D01*
X90137421Y-73462976D01*
X90131967Y-73458033D01*
X90127024Y-73452579D01*
X90122640Y-73446668D01*
X90118856Y-73440355D01*
X90115709Y-73433701D01*
X90113229Y-73426771D01*
X90111441Y-73419632D01*
X90110361Y-73412351D01*
X90110000Y-73405000D01*
X90110000Y-73255000D01*
X90110361Y-73247649D01*
X90111441Y-73240368D01*
X90113229Y-73233229D01*
X90115709Y-73226299D01*
X90118856Y-73219645D01*
X90122640Y-73213332D01*
X90127024Y-73207421D01*
X90131967Y-73201967D01*
X90137421Y-73197024D01*
X90143332Y-73192640D01*
X90149645Y-73188856D01*
X90156299Y-73185709D01*
X90163229Y-73183229D01*
X90170368Y-73181441D01*
X90177649Y-73180361D01*
X90185000Y-73180000D01*
X91510000Y-73180000D01*
X91517351Y-73180361D01*
X91517351Y-73180361D01*
G37*
D25*
X90847500Y-73330000D03*
D21*
G36*
X91517351Y-72680361D02*
G01*
X91524632Y-72681441D01*
X91531771Y-72683229D01*
X91538701Y-72685709D01*
X91545355Y-72688856D01*
X91551668Y-72692640D01*
X91557579Y-72697024D01*
X91563033Y-72701967D01*
X91567976Y-72707421D01*
X91572360Y-72713332D01*
X91576144Y-72719645D01*
X91579291Y-72726299D01*
X91581771Y-72733229D01*
X91583559Y-72740368D01*
X91584639Y-72747649D01*
X91585000Y-72755000D01*
X91585000Y-72905000D01*
X91584639Y-72912351D01*
X91583559Y-72919632D01*
X91581771Y-72926771D01*
X91579291Y-72933701D01*
X91576144Y-72940355D01*
X91572360Y-72946668D01*
X91567976Y-72952579D01*
X91563033Y-72958033D01*
X91557579Y-72962976D01*
X91551668Y-72967360D01*
X91545355Y-72971144D01*
X91538701Y-72974291D01*
X91531771Y-72976771D01*
X91524632Y-72978559D01*
X91517351Y-72979639D01*
X91510000Y-72980000D01*
X90185000Y-72980000D01*
X90177649Y-72979639D01*
X90170368Y-72978559D01*
X90163229Y-72976771D01*
X90156299Y-72974291D01*
X90149645Y-72971144D01*
X90143332Y-72967360D01*
X90137421Y-72962976D01*
X90131967Y-72958033D01*
X90127024Y-72952579D01*
X90122640Y-72946668D01*
X90118856Y-72940355D01*
X90115709Y-72933701D01*
X90113229Y-72926771D01*
X90111441Y-72919632D01*
X90110361Y-72912351D01*
X90110000Y-72905000D01*
X90110000Y-72755000D01*
X90110361Y-72747649D01*
X90111441Y-72740368D01*
X90113229Y-72733229D01*
X90115709Y-72726299D01*
X90118856Y-72719645D01*
X90122640Y-72713332D01*
X90127024Y-72707421D01*
X90131967Y-72701967D01*
X90137421Y-72697024D01*
X90143332Y-72692640D01*
X90149645Y-72688856D01*
X90156299Y-72685709D01*
X90163229Y-72683229D01*
X90170368Y-72681441D01*
X90177649Y-72680361D01*
X90185000Y-72680000D01*
X91510000Y-72680000D01*
X91517351Y-72680361D01*
X91517351Y-72680361D01*
G37*
D25*
X90847500Y-72830000D03*
D21*
G36*
X91517351Y-72180361D02*
G01*
X91524632Y-72181441D01*
X91531771Y-72183229D01*
X91538701Y-72185709D01*
X91545355Y-72188856D01*
X91551668Y-72192640D01*
X91557579Y-72197024D01*
X91563033Y-72201967D01*
X91567976Y-72207421D01*
X91572360Y-72213332D01*
X91576144Y-72219645D01*
X91579291Y-72226299D01*
X91581771Y-72233229D01*
X91583559Y-72240368D01*
X91584639Y-72247649D01*
X91585000Y-72255000D01*
X91585000Y-72405000D01*
X91584639Y-72412351D01*
X91583559Y-72419632D01*
X91581771Y-72426771D01*
X91579291Y-72433701D01*
X91576144Y-72440355D01*
X91572360Y-72446668D01*
X91567976Y-72452579D01*
X91563033Y-72458033D01*
X91557579Y-72462976D01*
X91551668Y-72467360D01*
X91545355Y-72471144D01*
X91538701Y-72474291D01*
X91531771Y-72476771D01*
X91524632Y-72478559D01*
X91517351Y-72479639D01*
X91510000Y-72480000D01*
X90185000Y-72480000D01*
X90177649Y-72479639D01*
X90170368Y-72478559D01*
X90163229Y-72476771D01*
X90156299Y-72474291D01*
X90149645Y-72471144D01*
X90143332Y-72467360D01*
X90137421Y-72462976D01*
X90131967Y-72458033D01*
X90127024Y-72452579D01*
X90122640Y-72446668D01*
X90118856Y-72440355D01*
X90115709Y-72433701D01*
X90113229Y-72426771D01*
X90111441Y-72419632D01*
X90110361Y-72412351D01*
X90110000Y-72405000D01*
X90110000Y-72255000D01*
X90110361Y-72247649D01*
X90111441Y-72240368D01*
X90113229Y-72233229D01*
X90115709Y-72226299D01*
X90118856Y-72219645D01*
X90122640Y-72213332D01*
X90127024Y-72207421D01*
X90131967Y-72201967D01*
X90137421Y-72197024D01*
X90143332Y-72192640D01*
X90149645Y-72188856D01*
X90156299Y-72185709D01*
X90163229Y-72183229D01*
X90170368Y-72181441D01*
X90177649Y-72180361D01*
X90185000Y-72180000D01*
X91510000Y-72180000D01*
X91517351Y-72180361D01*
X91517351Y-72180361D01*
G37*
D25*
X90847500Y-72330000D03*
D21*
G36*
X91517351Y-71680361D02*
G01*
X91524632Y-71681441D01*
X91531771Y-71683229D01*
X91538701Y-71685709D01*
X91545355Y-71688856D01*
X91551668Y-71692640D01*
X91557579Y-71697024D01*
X91563033Y-71701967D01*
X91567976Y-71707421D01*
X91572360Y-71713332D01*
X91576144Y-71719645D01*
X91579291Y-71726299D01*
X91581771Y-71733229D01*
X91583559Y-71740368D01*
X91584639Y-71747649D01*
X91585000Y-71755000D01*
X91585000Y-71905000D01*
X91584639Y-71912351D01*
X91583559Y-71919632D01*
X91581771Y-71926771D01*
X91579291Y-71933701D01*
X91576144Y-71940355D01*
X91572360Y-71946668D01*
X91567976Y-71952579D01*
X91563033Y-71958033D01*
X91557579Y-71962976D01*
X91551668Y-71967360D01*
X91545355Y-71971144D01*
X91538701Y-71974291D01*
X91531771Y-71976771D01*
X91524632Y-71978559D01*
X91517351Y-71979639D01*
X91510000Y-71980000D01*
X90185000Y-71980000D01*
X90177649Y-71979639D01*
X90170368Y-71978559D01*
X90163229Y-71976771D01*
X90156299Y-71974291D01*
X90149645Y-71971144D01*
X90143332Y-71967360D01*
X90137421Y-71962976D01*
X90131967Y-71958033D01*
X90127024Y-71952579D01*
X90122640Y-71946668D01*
X90118856Y-71940355D01*
X90115709Y-71933701D01*
X90113229Y-71926771D01*
X90111441Y-71919632D01*
X90110361Y-71912351D01*
X90110000Y-71905000D01*
X90110000Y-71755000D01*
X90110361Y-71747649D01*
X90111441Y-71740368D01*
X90113229Y-71733229D01*
X90115709Y-71726299D01*
X90118856Y-71719645D01*
X90122640Y-71713332D01*
X90127024Y-71707421D01*
X90131967Y-71701967D01*
X90137421Y-71697024D01*
X90143332Y-71692640D01*
X90149645Y-71688856D01*
X90156299Y-71685709D01*
X90163229Y-71683229D01*
X90170368Y-71681441D01*
X90177649Y-71680361D01*
X90185000Y-71680000D01*
X91510000Y-71680000D01*
X91517351Y-71680361D01*
X91517351Y-71680361D01*
G37*
D25*
X90847500Y-71830000D03*
D21*
G36*
X91517351Y-71180361D02*
G01*
X91524632Y-71181441D01*
X91531771Y-71183229D01*
X91538701Y-71185709D01*
X91545355Y-71188856D01*
X91551668Y-71192640D01*
X91557579Y-71197024D01*
X91563033Y-71201967D01*
X91567976Y-71207421D01*
X91572360Y-71213332D01*
X91576144Y-71219645D01*
X91579291Y-71226299D01*
X91581771Y-71233229D01*
X91583559Y-71240368D01*
X91584639Y-71247649D01*
X91585000Y-71255000D01*
X91585000Y-71405000D01*
X91584639Y-71412351D01*
X91583559Y-71419632D01*
X91581771Y-71426771D01*
X91579291Y-71433701D01*
X91576144Y-71440355D01*
X91572360Y-71446668D01*
X91567976Y-71452579D01*
X91563033Y-71458033D01*
X91557579Y-71462976D01*
X91551668Y-71467360D01*
X91545355Y-71471144D01*
X91538701Y-71474291D01*
X91531771Y-71476771D01*
X91524632Y-71478559D01*
X91517351Y-71479639D01*
X91510000Y-71480000D01*
X90185000Y-71480000D01*
X90177649Y-71479639D01*
X90170368Y-71478559D01*
X90163229Y-71476771D01*
X90156299Y-71474291D01*
X90149645Y-71471144D01*
X90143332Y-71467360D01*
X90137421Y-71462976D01*
X90131967Y-71458033D01*
X90127024Y-71452579D01*
X90122640Y-71446668D01*
X90118856Y-71440355D01*
X90115709Y-71433701D01*
X90113229Y-71426771D01*
X90111441Y-71419632D01*
X90110361Y-71412351D01*
X90110000Y-71405000D01*
X90110000Y-71255000D01*
X90110361Y-71247649D01*
X90111441Y-71240368D01*
X90113229Y-71233229D01*
X90115709Y-71226299D01*
X90118856Y-71219645D01*
X90122640Y-71213332D01*
X90127024Y-71207421D01*
X90131967Y-71201967D01*
X90137421Y-71197024D01*
X90143332Y-71192640D01*
X90149645Y-71188856D01*
X90156299Y-71185709D01*
X90163229Y-71183229D01*
X90170368Y-71181441D01*
X90177649Y-71180361D01*
X90185000Y-71180000D01*
X91510000Y-71180000D01*
X91517351Y-71180361D01*
X91517351Y-71180361D01*
G37*
D25*
X90847500Y-71330000D03*
D21*
G36*
X91517351Y-70680361D02*
G01*
X91524632Y-70681441D01*
X91531771Y-70683229D01*
X91538701Y-70685709D01*
X91545355Y-70688856D01*
X91551668Y-70692640D01*
X91557579Y-70697024D01*
X91563033Y-70701967D01*
X91567976Y-70707421D01*
X91572360Y-70713332D01*
X91576144Y-70719645D01*
X91579291Y-70726299D01*
X91581771Y-70733229D01*
X91583559Y-70740368D01*
X91584639Y-70747649D01*
X91585000Y-70755000D01*
X91585000Y-70905000D01*
X91584639Y-70912351D01*
X91583559Y-70919632D01*
X91581771Y-70926771D01*
X91579291Y-70933701D01*
X91576144Y-70940355D01*
X91572360Y-70946668D01*
X91567976Y-70952579D01*
X91563033Y-70958033D01*
X91557579Y-70962976D01*
X91551668Y-70967360D01*
X91545355Y-70971144D01*
X91538701Y-70974291D01*
X91531771Y-70976771D01*
X91524632Y-70978559D01*
X91517351Y-70979639D01*
X91510000Y-70980000D01*
X90185000Y-70980000D01*
X90177649Y-70979639D01*
X90170368Y-70978559D01*
X90163229Y-70976771D01*
X90156299Y-70974291D01*
X90149645Y-70971144D01*
X90143332Y-70967360D01*
X90137421Y-70962976D01*
X90131967Y-70958033D01*
X90127024Y-70952579D01*
X90122640Y-70946668D01*
X90118856Y-70940355D01*
X90115709Y-70933701D01*
X90113229Y-70926771D01*
X90111441Y-70919632D01*
X90110361Y-70912351D01*
X90110000Y-70905000D01*
X90110000Y-70755000D01*
X90110361Y-70747649D01*
X90111441Y-70740368D01*
X90113229Y-70733229D01*
X90115709Y-70726299D01*
X90118856Y-70719645D01*
X90122640Y-70713332D01*
X90127024Y-70707421D01*
X90131967Y-70701967D01*
X90137421Y-70697024D01*
X90143332Y-70692640D01*
X90149645Y-70688856D01*
X90156299Y-70685709D01*
X90163229Y-70683229D01*
X90170368Y-70681441D01*
X90177649Y-70680361D01*
X90185000Y-70680000D01*
X91510000Y-70680000D01*
X91517351Y-70680361D01*
X91517351Y-70680361D01*
G37*
D25*
X90847500Y-70830000D03*
D21*
G36*
X91517351Y-70180361D02*
G01*
X91524632Y-70181441D01*
X91531771Y-70183229D01*
X91538701Y-70185709D01*
X91545355Y-70188856D01*
X91551668Y-70192640D01*
X91557579Y-70197024D01*
X91563033Y-70201967D01*
X91567976Y-70207421D01*
X91572360Y-70213332D01*
X91576144Y-70219645D01*
X91579291Y-70226299D01*
X91581771Y-70233229D01*
X91583559Y-70240368D01*
X91584639Y-70247649D01*
X91585000Y-70255000D01*
X91585000Y-70405000D01*
X91584639Y-70412351D01*
X91583559Y-70419632D01*
X91581771Y-70426771D01*
X91579291Y-70433701D01*
X91576144Y-70440355D01*
X91572360Y-70446668D01*
X91567976Y-70452579D01*
X91563033Y-70458033D01*
X91557579Y-70462976D01*
X91551668Y-70467360D01*
X91545355Y-70471144D01*
X91538701Y-70474291D01*
X91531771Y-70476771D01*
X91524632Y-70478559D01*
X91517351Y-70479639D01*
X91510000Y-70480000D01*
X90185000Y-70480000D01*
X90177649Y-70479639D01*
X90170368Y-70478559D01*
X90163229Y-70476771D01*
X90156299Y-70474291D01*
X90149645Y-70471144D01*
X90143332Y-70467360D01*
X90137421Y-70462976D01*
X90131967Y-70458033D01*
X90127024Y-70452579D01*
X90122640Y-70446668D01*
X90118856Y-70440355D01*
X90115709Y-70433701D01*
X90113229Y-70426771D01*
X90111441Y-70419632D01*
X90110361Y-70412351D01*
X90110000Y-70405000D01*
X90110000Y-70255000D01*
X90110361Y-70247649D01*
X90111441Y-70240368D01*
X90113229Y-70233229D01*
X90115709Y-70226299D01*
X90118856Y-70219645D01*
X90122640Y-70213332D01*
X90127024Y-70207421D01*
X90131967Y-70201967D01*
X90137421Y-70197024D01*
X90143332Y-70192640D01*
X90149645Y-70188856D01*
X90156299Y-70185709D01*
X90163229Y-70183229D01*
X90170368Y-70181441D01*
X90177649Y-70180361D01*
X90185000Y-70180000D01*
X91510000Y-70180000D01*
X91517351Y-70180361D01*
X91517351Y-70180361D01*
G37*
D25*
X90847500Y-70330000D03*
D21*
G36*
X91517351Y-69680361D02*
G01*
X91524632Y-69681441D01*
X91531771Y-69683229D01*
X91538701Y-69685709D01*
X91545355Y-69688856D01*
X91551668Y-69692640D01*
X91557579Y-69697024D01*
X91563033Y-69701967D01*
X91567976Y-69707421D01*
X91572360Y-69713332D01*
X91576144Y-69719645D01*
X91579291Y-69726299D01*
X91581771Y-69733229D01*
X91583559Y-69740368D01*
X91584639Y-69747649D01*
X91585000Y-69755000D01*
X91585000Y-69905000D01*
X91584639Y-69912351D01*
X91583559Y-69919632D01*
X91581771Y-69926771D01*
X91579291Y-69933701D01*
X91576144Y-69940355D01*
X91572360Y-69946668D01*
X91567976Y-69952579D01*
X91563033Y-69958033D01*
X91557579Y-69962976D01*
X91551668Y-69967360D01*
X91545355Y-69971144D01*
X91538701Y-69974291D01*
X91531771Y-69976771D01*
X91524632Y-69978559D01*
X91517351Y-69979639D01*
X91510000Y-69980000D01*
X90185000Y-69980000D01*
X90177649Y-69979639D01*
X90170368Y-69978559D01*
X90163229Y-69976771D01*
X90156299Y-69974291D01*
X90149645Y-69971144D01*
X90143332Y-69967360D01*
X90137421Y-69962976D01*
X90131967Y-69958033D01*
X90127024Y-69952579D01*
X90122640Y-69946668D01*
X90118856Y-69940355D01*
X90115709Y-69933701D01*
X90113229Y-69926771D01*
X90111441Y-69919632D01*
X90110361Y-69912351D01*
X90110000Y-69905000D01*
X90110000Y-69755000D01*
X90110361Y-69747649D01*
X90111441Y-69740368D01*
X90113229Y-69733229D01*
X90115709Y-69726299D01*
X90118856Y-69719645D01*
X90122640Y-69713332D01*
X90127024Y-69707421D01*
X90131967Y-69701967D01*
X90137421Y-69697024D01*
X90143332Y-69692640D01*
X90149645Y-69688856D01*
X90156299Y-69685709D01*
X90163229Y-69683229D01*
X90170368Y-69681441D01*
X90177649Y-69680361D01*
X90185000Y-69680000D01*
X91510000Y-69680000D01*
X91517351Y-69680361D01*
X91517351Y-69680361D01*
G37*
D25*
X90847500Y-69830000D03*
D26*
X90500000Y-63400000D03*
X90500000Y-55600000D03*
D21*
G36*
X103185779Y-58526144D02*
G01*
X103208834Y-58529563D01*
X103231443Y-58535227D01*
X103253387Y-58543079D01*
X103274457Y-58553044D01*
X103294448Y-58565026D01*
X103313168Y-58578910D01*
X103330438Y-58594562D01*
X103346090Y-58611832D01*
X103359974Y-58630552D01*
X103371956Y-58650543D01*
X103381921Y-58671613D01*
X103389773Y-58693557D01*
X103395437Y-58716166D01*
X103398856Y-58739221D01*
X103400000Y-58762500D01*
X103400000Y-59237500D01*
X103398856Y-59260779D01*
X103395437Y-59283834D01*
X103389773Y-59306443D01*
X103381921Y-59328387D01*
X103371956Y-59349457D01*
X103359974Y-59369448D01*
X103346090Y-59388168D01*
X103330438Y-59405438D01*
X103313168Y-59421090D01*
X103294448Y-59434974D01*
X103274457Y-59446956D01*
X103253387Y-59456921D01*
X103231443Y-59464773D01*
X103208834Y-59470437D01*
X103185779Y-59473856D01*
X103162500Y-59475000D01*
X102587500Y-59475000D01*
X102564221Y-59473856D01*
X102541166Y-59470437D01*
X102518557Y-59464773D01*
X102496613Y-59456921D01*
X102475543Y-59446956D01*
X102455552Y-59434974D01*
X102436832Y-59421090D01*
X102419562Y-59405438D01*
X102403910Y-59388168D01*
X102390026Y-59369448D01*
X102378044Y-59349457D01*
X102368079Y-59328387D01*
X102360227Y-59306443D01*
X102354563Y-59283834D01*
X102351144Y-59260779D01*
X102350000Y-59237500D01*
X102350000Y-58762500D01*
X102351144Y-58739221D01*
X102354563Y-58716166D01*
X102360227Y-58693557D01*
X102368079Y-58671613D01*
X102378044Y-58650543D01*
X102390026Y-58630552D01*
X102403910Y-58611832D01*
X102419562Y-58594562D01*
X102436832Y-58578910D01*
X102455552Y-58565026D01*
X102475543Y-58553044D01*
X102496613Y-58543079D01*
X102518557Y-58535227D01*
X102541166Y-58529563D01*
X102564221Y-58526144D01*
X102587500Y-58525000D01*
X103162500Y-58525000D01*
X103185779Y-58526144D01*
X103185779Y-58526144D01*
G37*
D23*
X102875000Y-59000000D03*
D21*
G36*
X101435779Y-58526144D02*
G01*
X101458834Y-58529563D01*
X101481443Y-58535227D01*
X101503387Y-58543079D01*
X101524457Y-58553044D01*
X101544448Y-58565026D01*
X101563168Y-58578910D01*
X101580438Y-58594562D01*
X101596090Y-58611832D01*
X101609974Y-58630552D01*
X101621956Y-58650543D01*
X101631921Y-58671613D01*
X101639773Y-58693557D01*
X101645437Y-58716166D01*
X101648856Y-58739221D01*
X101650000Y-58762500D01*
X101650000Y-59237500D01*
X101648856Y-59260779D01*
X101645437Y-59283834D01*
X101639773Y-59306443D01*
X101631921Y-59328387D01*
X101621956Y-59349457D01*
X101609974Y-59369448D01*
X101596090Y-59388168D01*
X101580438Y-59405438D01*
X101563168Y-59421090D01*
X101544448Y-59434974D01*
X101524457Y-59446956D01*
X101503387Y-59456921D01*
X101481443Y-59464773D01*
X101458834Y-59470437D01*
X101435779Y-59473856D01*
X101412500Y-59475000D01*
X100837500Y-59475000D01*
X100814221Y-59473856D01*
X100791166Y-59470437D01*
X100768557Y-59464773D01*
X100746613Y-59456921D01*
X100725543Y-59446956D01*
X100705552Y-59434974D01*
X100686832Y-59421090D01*
X100669562Y-59405438D01*
X100653910Y-59388168D01*
X100640026Y-59369448D01*
X100628044Y-59349457D01*
X100618079Y-59328387D01*
X100610227Y-59306443D01*
X100604563Y-59283834D01*
X100601144Y-59260779D01*
X100600000Y-59237500D01*
X100600000Y-58762500D01*
X100601144Y-58739221D01*
X100604563Y-58716166D01*
X100610227Y-58693557D01*
X100618079Y-58671613D01*
X100628044Y-58650543D01*
X100640026Y-58630552D01*
X100653910Y-58611832D01*
X100669562Y-58594562D01*
X100686832Y-58578910D01*
X100705552Y-58565026D01*
X100725543Y-58553044D01*
X100746613Y-58543079D01*
X100768557Y-58535227D01*
X100791166Y-58529563D01*
X100814221Y-58526144D01*
X100837500Y-58525000D01*
X101412500Y-58525000D01*
X101435779Y-58526144D01*
X101435779Y-58526144D01*
G37*
D23*
X101125000Y-59000000D03*
D21*
G36*
X103185779Y-60526144D02*
G01*
X103208834Y-60529563D01*
X103231443Y-60535227D01*
X103253387Y-60543079D01*
X103274457Y-60553044D01*
X103294448Y-60565026D01*
X103313168Y-60578910D01*
X103330438Y-60594562D01*
X103346090Y-60611832D01*
X103359974Y-60630552D01*
X103371956Y-60650543D01*
X103381921Y-60671613D01*
X103389773Y-60693557D01*
X103395437Y-60716166D01*
X103398856Y-60739221D01*
X103400000Y-60762500D01*
X103400000Y-61237500D01*
X103398856Y-61260779D01*
X103395437Y-61283834D01*
X103389773Y-61306443D01*
X103381921Y-61328387D01*
X103371956Y-61349457D01*
X103359974Y-61369448D01*
X103346090Y-61388168D01*
X103330438Y-61405438D01*
X103313168Y-61421090D01*
X103294448Y-61434974D01*
X103274457Y-61446956D01*
X103253387Y-61456921D01*
X103231443Y-61464773D01*
X103208834Y-61470437D01*
X103185779Y-61473856D01*
X103162500Y-61475000D01*
X102587500Y-61475000D01*
X102564221Y-61473856D01*
X102541166Y-61470437D01*
X102518557Y-61464773D01*
X102496613Y-61456921D01*
X102475543Y-61446956D01*
X102455552Y-61434974D01*
X102436832Y-61421090D01*
X102419562Y-61405438D01*
X102403910Y-61388168D01*
X102390026Y-61369448D01*
X102378044Y-61349457D01*
X102368079Y-61328387D01*
X102360227Y-61306443D01*
X102354563Y-61283834D01*
X102351144Y-61260779D01*
X102350000Y-61237500D01*
X102350000Y-60762500D01*
X102351144Y-60739221D01*
X102354563Y-60716166D01*
X102360227Y-60693557D01*
X102368079Y-60671613D01*
X102378044Y-60650543D01*
X102390026Y-60630552D01*
X102403910Y-60611832D01*
X102419562Y-60594562D01*
X102436832Y-60578910D01*
X102455552Y-60565026D01*
X102475543Y-60553044D01*
X102496613Y-60543079D01*
X102518557Y-60535227D01*
X102541166Y-60529563D01*
X102564221Y-60526144D01*
X102587500Y-60525000D01*
X103162500Y-60525000D01*
X103185779Y-60526144D01*
X103185779Y-60526144D01*
G37*
D23*
X102875000Y-61000000D03*
D21*
G36*
X101435779Y-60526144D02*
G01*
X101458834Y-60529563D01*
X101481443Y-60535227D01*
X101503387Y-60543079D01*
X101524457Y-60553044D01*
X101544448Y-60565026D01*
X101563168Y-60578910D01*
X101580438Y-60594562D01*
X101596090Y-60611832D01*
X101609974Y-60630552D01*
X101621956Y-60650543D01*
X101631921Y-60671613D01*
X101639773Y-60693557D01*
X101645437Y-60716166D01*
X101648856Y-60739221D01*
X101650000Y-60762500D01*
X101650000Y-61237500D01*
X101648856Y-61260779D01*
X101645437Y-61283834D01*
X101639773Y-61306443D01*
X101631921Y-61328387D01*
X101621956Y-61349457D01*
X101609974Y-61369448D01*
X101596090Y-61388168D01*
X101580438Y-61405438D01*
X101563168Y-61421090D01*
X101544448Y-61434974D01*
X101524457Y-61446956D01*
X101503387Y-61456921D01*
X101481443Y-61464773D01*
X101458834Y-61470437D01*
X101435779Y-61473856D01*
X101412500Y-61475000D01*
X100837500Y-61475000D01*
X100814221Y-61473856D01*
X100791166Y-61470437D01*
X100768557Y-61464773D01*
X100746613Y-61456921D01*
X100725543Y-61446956D01*
X100705552Y-61434974D01*
X100686832Y-61421090D01*
X100669562Y-61405438D01*
X100653910Y-61388168D01*
X100640026Y-61369448D01*
X100628044Y-61349457D01*
X100618079Y-61328387D01*
X100610227Y-61306443D01*
X100604563Y-61283834D01*
X100601144Y-61260779D01*
X100600000Y-61237500D01*
X100600000Y-60762500D01*
X100601144Y-60739221D01*
X100604563Y-60716166D01*
X100610227Y-60693557D01*
X100618079Y-60671613D01*
X100628044Y-60650543D01*
X100640026Y-60630552D01*
X100653910Y-60611832D01*
X100669562Y-60594562D01*
X100686832Y-60578910D01*
X100705552Y-60565026D01*
X100725543Y-60553044D01*
X100746613Y-60543079D01*
X100768557Y-60535227D01*
X100791166Y-60529563D01*
X100814221Y-60526144D01*
X100837500Y-60525000D01*
X101412500Y-60525000D01*
X101435779Y-60526144D01*
X101435779Y-60526144D01*
G37*
D23*
X101125000Y-61000000D03*
D21*
G36*
X98685779Y-58526144D02*
G01*
X98708834Y-58529563D01*
X98731443Y-58535227D01*
X98753387Y-58543079D01*
X98774457Y-58553044D01*
X98794448Y-58565026D01*
X98813168Y-58578910D01*
X98830438Y-58594562D01*
X98846090Y-58611832D01*
X98859974Y-58630552D01*
X98871956Y-58650543D01*
X98881921Y-58671613D01*
X98889773Y-58693557D01*
X98895437Y-58716166D01*
X98898856Y-58739221D01*
X98900000Y-58762500D01*
X98900000Y-59237500D01*
X98898856Y-59260779D01*
X98895437Y-59283834D01*
X98889773Y-59306443D01*
X98881921Y-59328387D01*
X98871956Y-59349457D01*
X98859974Y-59369448D01*
X98846090Y-59388168D01*
X98830438Y-59405438D01*
X98813168Y-59421090D01*
X98794448Y-59434974D01*
X98774457Y-59446956D01*
X98753387Y-59456921D01*
X98731443Y-59464773D01*
X98708834Y-59470437D01*
X98685779Y-59473856D01*
X98662500Y-59475000D01*
X98087500Y-59475000D01*
X98064221Y-59473856D01*
X98041166Y-59470437D01*
X98018557Y-59464773D01*
X97996613Y-59456921D01*
X97975543Y-59446956D01*
X97955552Y-59434974D01*
X97936832Y-59421090D01*
X97919562Y-59405438D01*
X97903910Y-59388168D01*
X97890026Y-59369448D01*
X97878044Y-59349457D01*
X97868079Y-59328387D01*
X97860227Y-59306443D01*
X97854563Y-59283834D01*
X97851144Y-59260779D01*
X97850000Y-59237500D01*
X97850000Y-58762500D01*
X97851144Y-58739221D01*
X97854563Y-58716166D01*
X97860227Y-58693557D01*
X97868079Y-58671613D01*
X97878044Y-58650543D01*
X97890026Y-58630552D01*
X97903910Y-58611832D01*
X97919562Y-58594562D01*
X97936832Y-58578910D01*
X97955552Y-58565026D01*
X97975543Y-58553044D01*
X97996613Y-58543079D01*
X98018557Y-58535227D01*
X98041166Y-58529563D01*
X98064221Y-58526144D01*
X98087500Y-58525000D01*
X98662500Y-58525000D01*
X98685779Y-58526144D01*
X98685779Y-58526144D01*
G37*
D23*
X98375000Y-59000000D03*
D21*
G36*
X96935779Y-58526144D02*
G01*
X96958834Y-58529563D01*
X96981443Y-58535227D01*
X97003387Y-58543079D01*
X97024457Y-58553044D01*
X97044448Y-58565026D01*
X97063168Y-58578910D01*
X97080438Y-58594562D01*
X97096090Y-58611832D01*
X97109974Y-58630552D01*
X97121956Y-58650543D01*
X97131921Y-58671613D01*
X97139773Y-58693557D01*
X97145437Y-58716166D01*
X97148856Y-58739221D01*
X97150000Y-58762500D01*
X97150000Y-59237500D01*
X97148856Y-59260779D01*
X97145437Y-59283834D01*
X97139773Y-59306443D01*
X97131921Y-59328387D01*
X97121956Y-59349457D01*
X97109974Y-59369448D01*
X97096090Y-59388168D01*
X97080438Y-59405438D01*
X97063168Y-59421090D01*
X97044448Y-59434974D01*
X97024457Y-59446956D01*
X97003387Y-59456921D01*
X96981443Y-59464773D01*
X96958834Y-59470437D01*
X96935779Y-59473856D01*
X96912500Y-59475000D01*
X96337500Y-59475000D01*
X96314221Y-59473856D01*
X96291166Y-59470437D01*
X96268557Y-59464773D01*
X96246613Y-59456921D01*
X96225543Y-59446956D01*
X96205552Y-59434974D01*
X96186832Y-59421090D01*
X96169562Y-59405438D01*
X96153910Y-59388168D01*
X96140026Y-59369448D01*
X96128044Y-59349457D01*
X96118079Y-59328387D01*
X96110227Y-59306443D01*
X96104563Y-59283834D01*
X96101144Y-59260779D01*
X96100000Y-59237500D01*
X96100000Y-58762500D01*
X96101144Y-58739221D01*
X96104563Y-58716166D01*
X96110227Y-58693557D01*
X96118079Y-58671613D01*
X96128044Y-58650543D01*
X96140026Y-58630552D01*
X96153910Y-58611832D01*
X96169562Y-58594562D01*
X96186832Y-58578910D01*
X96205552Y-58565026D01*
X96225543Y-58553044D01*
X96246613Y-58543079D01*
X96268557Y-58535227D01*
X96291166Y-58529563D01*
X96314221Y-58526144D01*
X96337500Y-58525000D01*
X96912500Y-58525000D01*
X96935779Y-58526144D01*
X96935779Y-58526144D01*
G37*
D23*
X96625000Y-59000000D03*
D21*
G36*
X96935779Y-60526144D02*
G01*
X96958834Y-60529563D01*
X96981443Y-60535227D01*
X97003387Y-60543079D01*
X97024457Y-60553044D01*
X97044448Y-60565026D01*
X97063168Y-60578910D01*
X97080438Y-60594562D01*
X97096090Y-60611832D01*
X97109974Y-60630552D01*
X97121956Y-60650543D01*
X97131921Y-60671613D01*
X97139773Y-60693557D01*
X97145437Y-60716166D01*
X97148856Y-60739221D01*
X97150000Y-60762500D01*
X97150000Y-61237500D01*
X97148856Y-61260779D01*
X97145437Y-61283834D01*
X97139773Y-61306443D01*
X97131921Y-61328387D01*
X97121956Y-61349457D01*
X97109974Y-61369448D01*
X97096090Y-61388168D01*
X97080438Y-61405438D01*
X97063168Y-61421090D01*
X97044448Y-61434974D01*
X97024457Y-61446956D01*
X97003387Y-61456921D01*
X96981443Y-61464773D01*
X96958834Y-61470437D01*
X96935779Y-61473856D01*
X96912500Y-61475000D01*
X96337500Y-61475000D01*
X96314221Y-61473856D01*
X96291166Y-61470437D01*
X96268557Y-61464773D01*
X96246613Y-61456921D01*
X96225543Y-61446956D01*
X96205552Y-61434974D01*
X96186832Y-61421090D01*
X96169562Y-61405438D01*
X96153910Y-61388168D01*
X96140026Y-61369448D01*
X96128044Y-61349457D01*
X96118079Y-61328387D01*
X96110227Y-61306443D01*
X96104563Y-61283834D01*
X96101144Y-61260779D01*
X96100000Y-61237500D01*
X96100000Y-60762500D01*
X96101144Y-60739221D01*
X96104563Y-60716166D01*
X96110227Y-60693557D01*
X96118079Y-60671613D01*
X96128044Y-60650543D01*
X96140026Y-60630552D01*
X96153910Y-60611832D01*
X96169562Y-60594562D01*
X96186832Y-60578910D01*
X96205552Y-60565026D01*
X96225543Y-60553044D01*
X96246613Y-60543079D01*
X96268557Y-60535227D01*
X96291166Y-60529563D01*
X96314221Y-60526144D01*
X96337500Y-60525000D01*
X96912500Y-60525000D01*
X96935779Y-60526144D01*
X96935779Y-60526144D01*
G37*
D23*
X96625000Y-61000000D03*
D21*
G36*
X98685779Y-60526144D02*
G01*
X98708834Y-60529563D01*
X98731443Y-60535227D01*
X98753387Y-60543079D01*
X98774457Y-60553044D01*
X98794448Y-60565026D01*
X98813168Y-60578910D01*
X98830438Y-60594562D01*
X98846090Y-60611832D01*
X98859974Y-60630552D01*
X98871956Y-60650543D01*
X98881921Y-60671613D01*
X98889773Y-60693557D01*
X98895437Y-60716166D01*
X98898856Y-60739221D01*
X98900000Y-60762500D01*
X98900000Y-61237500D01*
X98898856Y-61260779D01*
X98895437Y-61283834D01*
X98889773Y-61306443D01*
X98881921Y-61328387D01*
X98871956Y-61349457D01*
X98859974Y-61369448D01*
X98846090Y-61388168D01*
X98830438Y-61405438D01*
X98813168Y-61421090D01*
X98794448Y-61434974D01*
X98774457Y-61446956D01*
X98753387Y-61456921D01*
X98731443Y-61464773D01*
X98708834Y-61470437D01*
X98685779Y-61473856D01*
X98662500Y-61475000D01*
X98087500Y-61475000D01*
X98064221Y-61473856D01*
X98041166Y-61470437D01*
X98018557Y-61464773D01*
X97996613Y-61456921D01*
X97975543Y-61446956D01*
X97955552Y-61434974D01*
X97936832Y-61421090D01*
X97919562Y-61405438D01*
X97903910Y-61388168D01*
X97890026Y-61369448D01*
X97878044Y-61349457D01*
X97868079Y-61328387D01*
X97860227Y-61306443D01*
X97854563Y-61283834D01*
X97851144Y-61260779D01*
X97850000Y-61237500D01*
X97850000Y-60762500D01*
X97851144Y-60739221D01*
X97854563Y-60716166D01*
X97860227Y-60693557D01*
X97868079Y-60671613D01*
X97878044Y-60650543D01*
X97890026Y-60630552D01*
X97903910Y-60611832D01*
X97919562Y-60594562D01*
X97936832Y-60578910D01*
X97955552Y-60565026D01*
X97975543Y-60553044D01*
X97996613Y-60543079D01*
X98018557Y-60535227D01*
X98041166Y-60529563D01*
X98064221Y-60526144D01*
X98087500Y-60525000D01*
X98662500Y-60525000D01*
X98685779Y-60526144D01*
X98685779Y-60526144D01*
G37*
D23*
X98375000Y-61000000D03*
D21*
G36*
X104210779Y-96001144D02*
G01*
X104233834Y-96004563D01*
X104256443Y-96010227D01*
X104278387Y-96018079D01*
X104299457Y-96028044D01*
X104319448Y-96040026D01*
X104338168Y-96053910D01*
X104355438Y-96069562D01*
X104371090Y-96086832D01*
X104384974Y-96105552D01*
X104396956Y-96125543D01*
X104406921Y-96146613D01*
X104414773Y-96168557D01*
X104420437Y-96191166D01*
X104423856Y-96214221D01*
X104425000Y-96237500D01*
X104425000Y-96812500D01*
X104423856Y-96835779D01*
X104420437Y-96858834D01*
X104414773Y-96881443D01*
X104406921Y-96903387D01*
X104396956Y-96924457D01*
X104384974Y-96944448D01*
X104371090Y-96963168D01*
X104355438Y-96980438D01*
X104338168Y-96996090D01*
X104319448Y-97009974D01*
X104299457Y-97021956D01*
X104278387Y-97031921D01*
X104256443Y-97039773D01*
X104233834Y-97045437D01*
X104210779Y-97048856D01*
X104187500Y-97050000D01*
X103712500Y-97050000D01*
X103689221Y-97048856D01*
X103666166Y-97045437D01*
X103643557Y-97039773D01*
X103621613Y-97031921D01*
X103600543Y-97021956D01*
X103580552Y-97009974D01*
X103561832Y-96996090D01*
X103544562Y-96980438D01*
X103528910Y-96963168D01*
X103515026Y-96944448D01*
X103503044Y-96924457D01*
X103493079Y-96903387D01*
X103485227Y-96881443D01*
X103479563Y-96858834D01*
X103476144Y-96835779D01*
X103475000Y-96812500D01*
X103475000Y-96237500D01*
X103476144Y-96214221D01*
X103479563Y-96191166D01*
X103485227Y-96168557D01*
X103493079Y-96146613D01*
X103503044Y-96125543D01*
X103515026Y-96105552D01*
X103528910Y-96086832D01*
X103544562Y-96069562D01*
X103561832Y-96053910D01*
X103580552Y-96040026D01*
X103600543Y-96028044D01*
X103621613Y-96018079D01*
X103643557Y-96010227D01*
X103666166Y-96004563D01*
X103689221Y-96001144D01*
X103712500Y-96000000D01*
X104187500Y-96000000D01*
X104210779Y-96001144D01*
X104210779Y-96001144D01*
G37*
D23*
X103950000Y-96525000D03*
D21*
G36*
X104210779Y-94251144D02*
G01*
X104233834Y-94254563D01*
X104256443Y-94260227D01*
X104278387Y-94268079D01*
X104299457Y-94278044D01*
X104319448Y-94290026D01*
X104338168Y-94303910D01*
X104355438Y-94319562D01*
X104371090Y-94336832D01*
X104384974Y-94355552D01*
X104396956Y-94375543D01*
X104406921Y-94396613D01*
X104414773Y-94418557D01*
X104420437Y-94441166D01*
X104423856Y-94464221D01*
X104425000Y-94487500D01*
X104425000Y-95062500D01*
X104423856Y-95085779D01*
X104420437Y-95108834D01*
X104414773Y-95131443D01*
X104406921Y-95153387D01*
X104396956Y-95174457D01*
X104384974Y-95194448D01*
X104371090Y-95213168D01*
X104355438Y-95230438D01*
X104338168Y-95246090D01*
X104319448Y-95259974D01*
X104299457Y-95271956D01*
X104278387Y-95281921D01*
X104256443Y-95289773D01*
X104233834Y-95295437D01*
X104210779Y-95298856D01*
X104187500Y-95300000D01*
X103712500Y-95300000D01*
X103689221Y-95298856D01*
X103666166Y-95295437D01*
X103643557Y-95289773D01*
X103621613Y-95281921D01*
X103600543Y-95271956D01*
X103580552Y-95259974D01*
X103561832Y-95246090D01*
X103544562Y-95230438D01*
X103528910Y-95213168D01*
X103515026Y-95194448D01*
X103503044Y-95174457D01*
X103493079Y-95153387D01*
X103485227Y-95131443D01*
X103479563Y-95108834D01*
X103476144Y-95085779D01*
X103475000Y-95062500D01*
X103475000Y-94487500D01*
X103476144Y-94464221D01*
X103479563Y-94441166D01*
X103485227Y-94418557D01*
X103493079Y-94396613D01*
X103503044Y-94375543D01*
X103515026Y-94355552D01*
X103528910Y-94336832D01*
X103544562Y-94319562D01*
X103561832Y-94303910D01*
X103580552Y-94290026D01*
X103600543Y-94278044D01*
X103621613Y-94268079D01*
X103643557Y-94260227D01*
X103666166Y-94254563D01*
X103689221Y-94251144D01*
X103712500Y-94250000D01*
X104187500Y-94250000D01*
X104210779Y-94251144D01*
X104210779Y-94251144D01*
G37*
D23*
X103950000Y-94775000D03*
D21*
G36*
X106210779Y-96001144D02*
G01*
X106233834Y-96004563D01*
X106256443Y-96010227D01*
X106278387Y-96018079D01*
X106299457Y-96028044D01*
X106319448Y-96040026D01*
X106338168Y-96053910D01*
X106355438Y-96069562D01*
X106371090Y-96086832D01*
X106384974Y-96105552D01*
X106396956Y-96125543D01*
X106406921Y-96146613D01*
X106414773Y-96168557D01*
X106420437Y-96191166D01*
X106423856Y-96214221D01*
X106425000Y-96237500D01*
X106425000Y-96812500D01*
X106423856Y-96835779D01*
X106420437Y-96858834D01*
X106414773Y-96881443D01*
X106406921Y-96903387D01*
X106396956Y-96924457D01*
X106384974Y-96944448D01*
X106371090Y-96963168D01*
X106355438Y-96980438D01*
X106338168Y-96996090D01*
X106319448Y-97009974D01*
X106299457Y-97021956D01*
X106278387Y-97031921D01*
X106256443Y-97039773D01*
X106233834Y-97045437D01*
X106210779Y-97048856D01*
X106187500Y-97050000D01*
X105712500Y-97050000D01*
X105689221Y-97048856D01*
X105666166Y-97045437D01*
X105643557Y-97039773D01*
X105621613Y-97031921D01*
X105600543Y-97021956D01*
X105580552Y-97009974D01*
X105561832Y-96996090D01*
X105544562Y-96980438D01*
X105528910Y-96963168D01*
X105515026Y-96944448D01*
X105503044Y-96924457D01*
X105493079Y-96903387D01*
X105485227Y-96881443D01*
X105479563Y-96858834D01*
X105476144Y-96835779D01*
X105475000Y-96812500D01*
X105475000Y-96237500D01*
X105476144Y-96214221D01*
X105479563Y-96191166D01*
X105485227Y-96168557D01*
X105493079Y-96146613D01*
X105503044Y-96125543D01*
X105515026Y-96105552D01*
X105528910Y-96086832D01*
X105544562Y-96069562D01*
X105561832Y-96053910D01*
X105580552Y-96040026D01*
X105600543Y-96028044D01*
X105621613Y-96018079D01*
X105643557Y-96010227D01*
X105666166Y-96004563D01*
X105689221Y-96001144D01*
X105712500Y-96000000D01*
X106187500Y-96000000D01*
X106210779Y-96001144D01*
X106210779Y-96001144D01*
G37*
D23*
X105950000Y-96525000D03*
D21*
G36*
X106210779Y-94251144D02*
G01*
X106233834Y-94254563D01*
X106256443Y-94260227D01*
X106278387Y-94268079D01*
X106299457Y-94278044D01*
X106319448Y-94290026D01*
X106338168Y-94303910D01*
X106355438Y-94319562D01*
X106371090Y-94336832D01*
X106384974Y-94355552D01*
X106396956Y-94375543D01*
X106406921Y-94396613D01*
X106414773Y-94418557D01*
X106420437Y-94441166D01*
X106423856Y-94464221D01*
X106425000Y-94487500D01*
X106425000Y-95062500D01*
X106423856Y-95085779D01*
X106420437Y-95108834D01*
X106414773Y-95131443D01*
X106406921Y-95153387D01*
X106396956Y-95174457D01*
X106384974Y-95194448D01*
X106371090Y-95213168D01*
X106355438Y-95230438D01*
X106338168Y-95246090D01*
X106319448Y-95259974D01*
X106299457Y-95271956D01*
X106278387Y-95281921D01*
X106256443Y-95289773D01*
X106233834Y-95295437D01*
X106210779Y-95298856D01*
X106187500Y-95300000D01*
X105712500Y-95300000D01*
X105689221Y-95298856D01*
X105666166Y-95295437D01*
X105643557Y-95289773D01*
X105621613Y-95281921D01*
X105600543Y-95271956D01*
X105580552Y-95259974D01*
X105561832Y-95246090D01*
X105544562Y-95230438D01*
X105528910Y-95213168D01*
X105515026Y-95194448D01*
X105503044Y-95174457D01*
X105493079Y-95153387D01*
X105485227Y-95131443D01*
X105479563Y-95108834D01*
X105476144Y-95085779D01*
X105475000Y-95062500D01*
X105475000Y-94487500D01*
X105476144Y-94464221D01*
X105479563Y-94441166D01*
X105485227Y-94418557D01*
X105493079Y-94396613D01*
X105503044Y-94375543D01*
X105515026Y-94355552D01*
X105528910Y-94336832D01*
X105544562Y-94319562D01*
X105561832Y-94303910D01*
X105580552Y-94290026D01*
X105600543Y-94278044D01*
X105621613Y-94268079D01*
X105643557Y-94260227D01*
X105666166Y-94254563D01*
X105689221Y-94251144D01*
X105712500Y-94250000D01*
X106187500Y-94250000D01*
X106210779Y-94251144D01*
X106210779Y-94251144D01*
G37*
D23*
X105950000Y-94775000D03*
D21*
G36*
X112624504Y-88701204D02*
G01*
X112648773Y-88704804D01*
X112672571Y-88710765D01*
X112695671Y-88719030D01*
X112717849Y-88729520D01*
X112738893Y-88742133D01*
X112758598Y-88756747D01*
X112776777Y-88773223D01*
X112793253Y-88791402D01*
X112807867Y-88811107D01*
X112820480Y-88832151D01*
X112830970Y-88854329D01*
X112839235Y-88877429D01*
X112845196Y-88901227D01*
X112848796Y-88925496D01*
X112850000Y-88950000D01*
X112850000Y-90050000D01*
X112848796Y-90074504D01*
X112845196Y-90098773D01*
X112839235Y-90122571D01*
X112830970Y-90145671D01*
X112820480Y-90167849D01*
X112807867Y-90188893D01*
X112793253Y-90208598D01*
X112776777Y-90226777D01*
X112758598Y-90243253D01*
X112738893Y-90257867D01*
X112717849Y-90270480D01*
X112695671Y-90280970D01*
X112672571Y-90289235D01*
X112648773Y-90295196D01*
X112624504Y-90298796D01*
X112600000Y-90300000D01*
X110500000Y-90300000D01*
X110475496Y-90298796D01*
X110451227Y-90295196D01*
X110427429Y-90289235D01*
X110404329Y-90280970D01*
X110382151Y-90270480D01*
X110361107Y-90257867D01*
X110341402Y-90243253D01*
X110323223Y-90226777D01*
X110306747Y-90208598D01*
X110292133Y-90188893D01*
X110279520Y-90167849D01*
X110269030Y-90145671D01*
X110260765Y-90122571D01*
X110254804Y-90098773D01*
X110251204Y-90074504D01*
X110250000Y-90050000D01*
X110250000Y-88950000D01*
X110251204Y-88925496D01*
X110254804Y-88901227D01*
X110260765Y-88877429D01*
X110269030Y-88854329D01*
X110279520Y-88832151D01*
X110292133Y-88811107D01*
X110306747Y-88791402D01*
X110323223Y-88773223D01*
X110341402Y-88756747D01*
X110361107Y-88742133D01*
X110382151Y-88729520D01*
X110404329Y-88719030D01*
X110427429Y-88710765D01*
X110451227Y-88704804D01*
X110475496Y-88701204D01*
X110500000Y-88700000D01*
X112600000Y-88700000D01*
X112624504Y-88701204D01*
X112624504Y-88701204D01*
G37*
D27*
X111550000Y-89500000D03*
D21*
G36*
X109024504Y-88701204D02*
G01*
X109048773Y-88704804D01*
X109072571Y-88710765D01*
X109095671Y-88719030D01*
X109117849Y-88729520D01*
X109138893Y-88742133D01*
X109158598Y-88756747D01*
X109176777Y-88773223D01*
X109193253Y-88791402D01*
X109207867Y-88811107D01*
X109220480Y-88832151D01*
X109230970Y-88854329D01*
X109239235Y-88877429D01*
X109245196Y-88901227D01*
X109248796Y-88925496D01*
X109250000Y-88950000D01*
X109250000Y-90050000D01*
X109248796Y-90074504D01*
X109245196Y-90098773D01*
X109239235Y-90122571D01*
X109230970Y-90145671D01*
X109220480Y-90167849D01*
X109207867Y-90188893D01*
X109193253Y-90208598D01*
X109176777Y-90226777D01*
X109158598Y-90243253D01*
X109138893Y-90257867D01*
X109117849Y-90270480D01*
X109095671Y-90280970D01*
X109072571Y-90289235D01*
X109048773Y-90295196D01*
X109024504Y-90298796D01*
X109000000Y-90300000D01*
X106900000Y-90300000D01*
X106875496Y-90298796D01*
X106851227Y-90295196D01*
X106827429Y-90289235D01*
X106804329Y-90280970D01*
X106782151Y-90270480D01*
X106761107Y-90257867D01*
X106741402Y-90243253D01*
X106723223Y-90226777D01*
X106706747Y-90208598D01*
X106692133Y-90188893D01*
X106679520Y-90167849D01*
X106669030Y-90145671D01*
X106660765Y-90122571D01*
X106654804Y-90098773D01*
X106651204Y-90074504D01*
X106650000Y-90050000D01*
X106650000Y-88950000D01*
X106651204Y-88925496D01*
X106654804Y-88901227D01*
X106660765Y-88877429D01*
X106669030Y-88854329D01*
X106679520Y-88832151D01*
X106692133Y-88811107D01*
X106706747Y-88791402D01*
X106723223Y-88773223D01*
X106741402Y-88756747D01*
X106761107Y-88742133D01*
X106782151Y-88729520D01*
X106804329Y-88719030D01*
X106827429Y-88710765D01*
X106851227Y-88704804D01*
X106875496Y-88701204D01*
X106900000Y-88700000D01*
X109000000Y-88700000D01*
X109024504Y-88701204D01*
X109024504Y-88701204D01*
G37*
D27*
X107950000Y-89500000D03*
D21*
G36*
X76567691Y-29626053D02*
G01*
X76588926Y-29629203D01*
X76609750Y-29634419D01*
X76629962Y-29641651D01*
X76649368Y-29650830D01*
X76667781Y-29661866D01*
X76685024Y-29674654D01*
X76700930Y-29689070D01*
X76715346Y-29704976D01*
X76728134Y-29722219D01*
X76739170Y-29740632D01*
X76748349Y-29760038D01*
X76755581Y-29780250D01*
X76760797Y-29801074D01*
X76763947Y-29822309D01*
X76765000Y-29843750D01*
X76765000Y-30281250D01*
X76763947Y-30302691D01*
X76760797Y-30323926D01*
X76755581Y-30344750D01*
X76748349Y-30364962D01*
X76739170Y-30384368D01*
X76728134Y-30402781D01*
X76715346Y-30420024D01*
X76700930Y-30435930D01*
X76685024Y-30450346D01*
X76667781Y-30463134D01*
X76649368Y-30474170D01*
X76629962Y-30483349D01*
X76609750Y-30490581D01*
X76588926Y-30495797D01*
X76567691Y-30498947D01*
X76546250Y-30500000D01*
X76033750Y-30500000D01*
X76012309Y-30498947D01*
X75991074Y-30495797D01*
X75970250Y-30490581D01*
X75950038Y-30483349D01*
X75930632Y-30474170D01*
X75912219Y-30463134D01*
X75894976Y-30450346D01*
X75879070Y-30435930D01*
X75864654Y-30420024D01*
X75851866Y-30402781D01*
X75840830Y-30384368D01*
X75831651Y-30364962D01*
X75824419Y-30344750D01*
X75819203Y-30323926D01*
X75816053Y-30302691D01*
X75815000Y-30281250D01*
X75815000Y-29843750D01*
X75816053Y-29822309D01*
X75819203Y-29801074D01*
X75824419Y-29780250D01*
X75831651Y-29760038D01*
X75840830Y-29740632D01*
X75851866Y-29722219D01*
X75864654Y-29704976D01*
X75879070Y-29689070D01*
X75894976Y-29674654D01*
X75912219Y-29661866D01*
X75930632Y-29650830D01*
X75950038Y-29641651D01*
X75970250Y-29634419D01*
X75991074Y-29629203D01*
X76012309Y-29626053D01*
X76033750Y-29625000D01*
X76546250Y-29625000D01*
X76567691Y-29626053D01*
X76567691Y-29626053D01*
G37*
D22*
X76290000Y-30062500D03*
D21*
G36*
X76567691Y-31201053D02*
G01*
X76588926Y-31204203D01*
X76609750Y-31209419D01*
X76629962Y-31216651D01*
X76649368Y-31225830D01*
X76667781Y-31236866D01*
X76685024Y-31249654D01*
X76700930Y-31264070D01*
X76715346Y-31279976D01*
X76728134Y-31297219D01*
X76739170Y-31315632D01*
X76748349Y-31335038D01*
X76755581Y-31355250D01*
X76760797Y-31376074D01*
X76763947Y-31397309D01*
X76765000Y-31418750D01*
X76765000Y-31856250D01*
X76763947Y-31877691D01*
X76760797Y-31898926D01*
X76755581Y-31919750D01*
X76748349Y-31939962D01*
X76739170Y-31959368D01*
X76728134Y-31977781D01*
X76715346Y-31995024D01*
X76700930Y-32010930D01*
X76685024Y-32025346D01*
X76667781Y-32038134D01*
X76649368Y-32049170D01*
X76629962Y-32058349D01*
X76609750Y-32065581D01*
X76588926Y-32070797D01*
X76567691Y-32073947D01*
X76546250Y-32075000D01*
X76033750Y-32075000D01*
X76012309Y-32073947D01*
X75991074Y-32070797D01*
X75970250Y-32065581D01*
X75950038Y-32058349D01*
X75930632Y-32049170D01*
X75912219Y-32038134D01*
X75894976Y-32025346D01*
X75879070Y-32010930D01*
X75864654Y-31995024D01*
X75851866Y-31977781D01*
X75840830Y-31959368D01*
X75831651Y-31939962D01*
X75824419Y-31919750D01*
X75819203Y-31898926D01*
X75816053Y-31877691D01*
X75815000Y-31856250D01*
X75815000Y-31418750D01*
X75816053Y-31397309D01*
X75819203Y-31376074D01*
X75824419Y-31355250D01*
X75831651Y-31335038D01*
X75840830Y-31315632D01*
X75851866Y-31297219D01*
X75864654Y-31279976D01*
X75879070Y-31264070D01*
X75894976Y-31249654D01*
X75912219Y-31236866D01*
X75930632Y-31225830D01*
X75950038Y-31216651D01*
X75970250Y-31209419D01*
X75991074Y-31204203D01*
X76012309Y-31201053D01*
X76033750Y-31200000D01*
X76546250Y-31200000D01*
X76567691Y-31201053D01*
X76567691Y-31201053D01*
G37*
D22*
X76290000Y-31637500D03*
D21*
G36*
X73567691Y-31401053D02*
G01*
X73588926Y-31404203D01*
X73609750Y-31409419D01*
X73629962Y-31416651D01*
X73649368Y-31425830D01*
X73667781Y-31436866D01*
X73685024Y-31449654D01*
X73700930Y-31464070D01*
X73715346Y-31479976D01*
X73728134Y-31497219D01*
X73739170Y-31515632D01*
X73748349Y-31535038D01*
X73755581Y-31555250D01*
X73760797Y-31576074D01*
X73763947Y-31597309D01*
X73765000Y-31618750D01*
X73765000Y-32056250D01*
X73763947Y-32077691D01*
X73760797Y-32098926D01*
X73755581Y-32119750D01*
X73748349Y-32139962D01*
X73739170Y-32159368D01*
X73728134Y-32177781D01*
X73715346Y-32195024D01*
X73700930Y-32210930D01*
X73685024Y-32225346D01*
X73667781Y-32238134D01*
X73649368Y-32249170D01*
X73629962Y-32258349D01*
X73609750Y-32265581D01*
X73588926Y-32270797D01*
X73567691Y-32273947D01*
X73546250Y-32275000D01*
X73033750Y-32275000D01*
X73012309Y-32273947D01*
X72991074Y-32270797D01*
X72970250Y-32265581D01*
X72950038Y-32258349D01*
X72930632Y-32249170D01*
X72912219Y-32238134D01*
X72894976Y-32225346D01*
X72879070Y-32210930D01*
X72864654Y-32195024D01*
X72851866Y-32177781D01*
X72840830Y-32159368D01*
X72831651Y-32139962D01*
X72824419Y-32119750D01*
X72819203Y-32098926D01*
X72816053Y-32077691D01*
X72815000Y-32056250D01*
X72815000Y-31618750D01*
X72816053Y-31597309D01*
X72819203Y-31576074D01*
X72824419Y-31555250D01*
X72831651Y-31535038D01*
X72840830Y-31515632D01*
X72851866Y-31497219D01*
X72864654Y-31479976D01*
X72879070Y-31464070D01*
X72894976Y-31449654D01*
X72912219Y-31436866D01*
X72930632Y-31425830D01*
X72950038Y-31416651D01*
X72970250Y-31409419D01*
X72991074Y-31404203D01*
X73012309Y-31401053D01*
X73033750Y-31400000D01*
X73546250Y-31400000D01*
X73567691Y-31401053D01*
X73567691Y-31401053D01*
G37*
D22*
X73290000Y-31837500D03*
D21*
G36*
X73567691Y-29826053D02*
G01*
X73588926Y-29829203D01*
X73609750Y-29834419D01*
X73629962Y-29841651D01*
X73649368Y-29850830D01*
X73667781Y-29861866D01*
X73685024Y-29874654D01*
X73700930Y-29889070D01*
X73715346Y-29904976D01*
X73728134Y-29922219D01*
X73739170Y-29940632D01*
X73748349Y-29960038D01*
X73755581Y-29980250D01*
X73760797Y-30001074D01*
X73763947Y-30022309D01*
X73765000Y-30043750D01*
X73765000Y-30481250D01*
X73763947Y-30502691D01*
X73760797Y-30523926D01*
X73755581Y-30544750D01*
X73748349Y-30564962D01*
X73739170Y-30584368D01*
X73728134Y-30602781D01*
X73715346Y-30620024D01*
X73700930Y-30635930D01*
X73685024Y-30650346D01*
X73667781Y-30663134D01*
X73649368Y-30674170D01*
X73629962Y-30683349D01*
X73609750Y-30690581D01*
X73588926Y-30695797D01*
X73567691Y-30698947D01*
X73546250Y-30700000D01*
X73033750Y-30700000D01*
X73012309Y-30698947D01*
X72991074Y-30695797D01*
X72970250Y-30690581D01*
X72950038Y-30683349D01*
X72930632Y-30674170D01*
X72912219Y-30663134D01*
X72894976Y-30650346D01*
X72879070Y-30635930D01*
X72864654Y-30620024D01*
X72851866Y-30602781D01*
X72840830Y-30584368D01*
X72831651Y-30564962D01*
X72824419Y-30544750D01*
X72819203Y-30523926D01*
X72816053Y-30502691D01*
X72815000Y-30481250D01*
X72815000Y-30043750D01*
X72816053Y-30022309D01*
X72819203Y-30001074D01*
X72824419Y-29980250D01*
X72831651Y-29960038D01*
X72840830Y-29940632D01*
X72851866Y-29922219D01*
X72864654Y-29904976D01*
X72879070Y-29889070D01*
X72894976Y-29874654D01*
X72912219Y-29861866D01*
X72930632Y-29850830D01*
X72950038Y-29841651D01*
X72970250Y-29834419D01*
X72991074Y-29829203D01*
X73012309Y-29826053D01*
X73033750Y-29825000D01*
X73546250Y-29825000D01*
X73567691Y-29826053D01*
X73567691Y-29826053D01*
G37*
D22*
X73290000Y-30262500D03*
D21*
G36*
X60760779Y-21951144D02*
G01*
X60783834Y-21954563D01*
X60806443Y-21960227D01*
X60828387Y-21968079D01*
X60849457Y-21978044D01*
X60869448Y-21990026D01*
X60888168Y-22003910D01*
X60905438Y-22019562D01*
X60921090Y-22036832D01*
X60934974Y-22055552D01*
X60946956Y-22075543D01*
X60956921Y-22096613D01*
X60964773Y-22118557D01*
X60970437Y-22141166D01*
X60973856Y-22164221D01*
X60975000Y-22187500D01*
X60975000Y-22762500D01*
X60973856Y-22785779D01*
X60970437Y-22808834D01*
X60964773Y-22831443D01*
X60956921Y-22853387D01*
X60946956Y-22874457D01*
X60934974Y-22894448D01*
X60921090Y-22913168D01*
X60905438Y-22930438D01*
X60888168Y-22946090D01*
X60869448Y-22959974D01*
X60849457Y-22971956D01*
X60828387Y-22981921D01*
X60806443Y-22989773D01*
X60783834Y-22995437D01*
X60760779Y-22998856D01*
X60737500Y-23000000D01*
X60262500Y-23000000D01*
X60239221Y-22998856D01*
X60216166Y-22995437D01*
X60193557Y-22989773D01*
X60171613Y-22981921D01*
X60150543Y-22971956D01*
X60130552Y-22959974D01*
X60111832Y-22946090D01*
X60094562Y-22930438D01*
X60078910Y-22913168D01*
X60065026Y-22894448D01*
X60053044Y-22874457D01*
X60043079Y-22853387D01*
X60035227Y-22831443D01*
X60029563Y-22808834D01*
X60026144Y-22785779D01*
X60025000Y-22762500D01*
X60025000Y-22187500D01*
X60026144Y-22164221D01*
X60029563Y-22141166D01*
X60035227Y-22118557D01*
X60043079Y-22096613D01*
X60053044Y-22075543D01*
X60065026Y-22055552D01*
X60078910Y-22036832D01*
X60094562Y-22019562D01*
X60111832Y-22003910D01*
X60130552Y-21990026D01*
X60150543Y-21978044D01*
X60171613Y-21968079D01*
X60193557Y-21960227D01*
X60216166Y-21954563D01*
X60239221Y-21951144D01*
X60262500Y-21950000D01*
X60737500Y-21950000D01*
X60760779Y-21951144D01*
X60760779Y-21951144D01*
G37*
D23*
X60500000Y-22475000D03*
D21*
G36*
X60760779Y-23701144D02*
G01*
X60783834Y-23704563D01*
X60806443Y-23710227D01*
X60828387Y-23718079D01*
X60849457Y-23728044D01*
X60869448Y-23740026D01*
X60888168Y-23753910D01*
X60905438Y-23769562D01*
X60921090Y-23786832D01*
X60934974Y-23805552D01*
X60946956Y-23825543D01*
X60956921Y-23846613D01*
X60964773Y-23868557D01*
X60970437Y-23891166D01*
X60973856Y-23914221D01*
X60975000Y-23937500D01*
X60975000Y-24512500D01*
X60973856Y-24535779D01*
X60970437Y-24558834D01*
X60964773Y-24581443D01*
X60956921Y-24603387D01*
X60946956Y-24624457D01*
X60934974Y-24644448D01*
X60921090Y-24663168D01*
X60905438Y-24680438D01*
X60888168Y-24696090D01*
X60869448Y-24709974D01*
X60849457Y-24721956D01*
X60828387Y-24731921D01*
X60806443Y-24739773D01*
X60783834Y-24745437D01*
X60760779Y-24748856D01*
X60737500Y-24750000D01*
X60262500Y-24750000D01*
X60239221Y-24748856D01*
X60216166Y-24745437D01*
X60193557Y-24739773D01*
X60171613Y-24731921D01*
X60150543Y-24721956D01*
X60130552Y-24709974D01*
X60111832Y-24696090D01*
X60094562Y-24680438D01*
X60078910Y-24663168D01*
X60065026Y-24644448D01*
X60053044Y-24624457D01*
X60043079Y-24603387D01*
X60035227Y-24581443D01*
X60029563Y-24558834D01*
X60026144Y-24535779D01*
X60025000Y-24512500D01*
X60025000Y-23937500D01*
X60026144Y-23914221D01*
X60029563Y-23891166D01*
X60035227Y-23868557D01*
X60043079Y-23846613D01*
X60053044Y-23825543D01*
X60065026Y-23805552D01*
X60078910Y-23786832D01*
X60094562Y-23769562D01*
X60111832Y-23753910D01*
X60130552Y-23740026D01*
X60150543Y-23728044D01*
X60171613Y-23718079D01*
X60193557Y-23710227D01*
X60216166Y-23704563D01*
X60239221Y-23701144D01*
X60262500Y-23700000D01*
X60737500Y-23700000D01*
X60760779Y-23701144D01*
X60760779Y-23701144D01*
G37*
D23*
X60500000Y-24225000D03*
D21*
G36*
X53074504Y-21301204D02*
G01*
X53098773Y-21304804D01*
X53122571Y-21310765D01*
X53145671Y-21319030D01*
X53167849Y-21329520D01*
X53188893Y-21342133D01*
X53208598Y-21356747D01*
X53226777Y-21373223D01*
X53243253Y-21391402D01*
X53257867Y-21411107D01*
X53270480Y-21432151D01*
X53280970Y-21454329D01*
X53289235Y-21477429D01*
X53295196Y-21501227D01*
X53298796Y-21525496D01*
X53300000Y-21550000D01*
X53300000Y-24550000D01*
X53298796Y-24574504D01*
X53295196Y-24598773D01*
X53289235Y-24622571D01*
X53280970Y-24645671D01*
X53270480Y-24667849D01*
X53257867Y-24688893D01*
X53243253Y-24708598D01*
X53226777Y-24726777D01*
X53208598Y-24743253D01*
X53188893Y-24757867D01*
X53167849Y-24770480D01*
X53145671Y-24780970D01*
X53122571Y-24789235D01*
X53098773Y-24795196D01*
X53074504Y-24798796D01*
X53050000Y-24800000D01*
X51950000Y-24800000D01*
X51925496Y-24798796D01*
X51901227Y-24795196D01*
X51877429Y-24789235D01*
X51854329Y-24780970D01*
X51832151Y-24770480D01*
X51811107Y-24757867D01*
X51791402Y-24743253D01*
X51773223Y-24726777D01*
X51756747Y-24708598D01*
X51742133Y-24688893D01*
X51729520Y-24667849D01*
X51719030Y-24645671D01*
X51710765Y-24622571D01*
X51704804Y-24598773D01*
X51701204Y-24574504D01*
X51700000Y-24550000D01*
X51700000Y-21550000D01*
X51701204Y-21525496D01*
X51704804Y-21501227D01*
X51710765Y-21477429D01*
X51719030Y-21454329D01*
X51729520Y-21432151D01*
X51742133Y-21411107D01*
X51756747Y-21391402D01*
X51773223Y-21373223D01*
X51791402Y-21356747D01*
X51811107Y-21342133D01*
X51832151Y-21329520D01*
X51854329Y-21319030D01*
X51877429Y-21310765D01*
X51901227Y-21304804D01*
X51925496Y-21301204D01*
X51950000Y-21300000D01*
X53050000Y-21300000D01*
X53074504Y-21301204D01*
X53074504Y-21301204D01*
G37*
D27*
X52500000Y-23050000D03*
D21*
G36*
X53074504Y-26901204D02*
G01*
X53098773Y-26904804D01*
X53122571Y-26910765D01*
X53145671Y-26919030D01*
X53167849Y-26929520D01*
X53188893Y-26942133D01*
X53208598Y-26956747D01*
X53226777Y-26973223D01*
X53243253Y-26991402D01*
X53257867Y-27011107D01*
X53270480Y-27032151D01*
X53280970Y-27054329D01*
X53289235Y-27077429D01*
X53295196Y-27101227D01*
X53298796Y-27125496D01*
X53300000Y-27150000D01*
X53300000Y-30150000D01*
X53298796Y-30174504D01*
X53295196Y-30198773D01*
X53289235Y-30222571D01*
X53280970Y-30245671D01*
X53270480Y-30267849D01*
X53257867Y-30288893D01*
X53243253Y-30308598D01*
X53226777Y-30326777D01*
X53208598Y-30343253D01*
X53188893Y-30357867D01*
X53167849Y-30370480D01*
X53145671Y-30380970D01*
X53122571Y-30389235D01*
X53098773Y-30395196D01*
X53074504Y-30398796D01*
X53050000Y-30400000D01*
X51950000Y-30400000D01*
X51925496Y-30398796D01*
X51901227Y-30395196D01*
X51877429Y-30389235D01*
X51854329Y-30380970D01*
X51832151Y-30370480D01*
X51811107Y-30357867D01*
X51791402Y-30343253D01*
X51773223Y-30326777D01*
X51756747Y-30308598D01*
X51742133Y-30288893D01*
X51729520Y-30267849D01*
X51719030Y-30245671D01*
X51710765Y-30222571D01*
X51704804Y-30198773D01*
X51701204Y-30174504D01*
X51700000Y-30150000D01*
X51700000Y-27150000D01*
X51701204Y-27125496D01*
X51704804Y-27101227D01*
X51710765Y-27077429D01*
X51719030Y-27054329D01*
X51729520Y-27032151D01*
X51742133Y-27011107D01*
X51756747Y-26991402D01*
X51773223Y-26973223D01*
X51791402Y-26956747D01*
X51811107Y-26942133D01*
X51832151Y-26929520D01*
X51854329Y-26919030D01*
X51877429Y-26910765D01*
X51901227Y-26904804D01*
X51925496Y-26901204D01*
X51950000Y-26900000D01*
X53050000Y-26900000D01*
X53074504Y-26901204D01*
X53074504Y-26901204D01*
G37*
D27*
X52500000Y-28650000D03*
D21*
G36*
X66074504Y-27401204D02*
G01*
X66098773Y-27404804D01*
X66122571Y-27410765D01*
X66145671Y-27419030D01*
X66167849Y-27429520D01*
X66188893Y-27442133D01*
X66208598Y-27456747D01*
X66226777Y-27473223D01*
X66243253Y-27491402D01*
X66257867Y-27511107D01*
X66270480Y-27532151D01*
X66280970Y-27554329D01*
X66289235Y-27577429D01*
X66295196Y-27601227D01*
X66298796Y-27625496D01*
X66300000Y-27650000D01*
X66300000Y-30650000D01*
X66298796Y-30674504D01*
X66295196Y-30698773D01*
X66289235Y-30722571D01*
X66280970Y-30745671D01*
X66270480Y-30767849D01*
X66257867Y-30788893D01*
X66243253Y-30808598D01*
X66226777Y-30826777D01*
X66208598Y-30843253D01*
X66188893Y-30857867D01*
X66167849Y-30870480D01*
X66145671Y-30880970D01*
X66122571Y-30889235D01*
X66098773Y-30895196D01*
X66074504Y-30898796D01*
X66050000Y-30900000D01*
X64950000Y-30900000D01*
X64925496Y-30898796D01*
X64901227Y-30895196D01*
X64877429Y-30889235D01*
X64854329Y-30880970D01*
X64832151Y-30870480D01*
X64811107Y-30857867D01*
X64791402Y-30843253D01*
X64773223Y-30826777D01*
X64756747Y-30808598D01*
X64742133Y-30788893D01*
X64729520Y-30767849D01*
X64719030Y-30745671D01*
X64710765Y-30722571D01*
X64704804Y-30698773D01*
X64701204Y-30674504D01*
X64700000Y-30650000D01*
X64700000Y-27650000D01*
X64701204Y-27625496D01*
X64704804Y-27601227D01*
X64710765Y-27577429D01*
X64719030Y-27554329D01*
X64729520Y-27532151D01*
X64742133Y-27511107D01*
X64756747Y-27491402D01*
X64773223Y-27473223D01*
X64791402Y-27456747D01*
X64811107Y-27442133D01*
X64832151Y-27429520D01*
X64854329Y-27419030D01*
X64877429Y-27410765D01*
X64901227Y-27404804D01*
X64925496Y-27401204D01*
X64950000Y-27400000D01*
X66050000Y-27400000D01*
X66074504Y-27401204D01*
X66074504Y-27401204D01*
G37*
D27*
X65500000Y-29150000D03*
D21*
G36*
X66074504Y-21801204D02*
G01*
X66098773Y-21804804D01*
X66122571Y-21810765D01*
X66145671Y-21819030D01*
X66167849Y-21829520D01*
X66188893Y-21842133D01*
X66208598Y-21856747D01*
X66226777Y-21873223D01*
X66243253Y-21891402D01*
X66257867Y-21911107D01*
X66270480Y-21932151D01*
X66280970Y-21954329D01*
X66289235Y-21977429D01*
X66295196Y-22001227D01*
X66298796Y-22025496D01*
X66300000Y-22050000D01*
X66300000Y-25050000D01*
X66298796Y-25074504D01*
X66295196Y-25098773D01*
X66289235Y-25122571D01*
X66280970Y-25145671D01*
X66270480Y-25167849D01*
X66257867Y-25188893D01*
X66243253Y-25208598D01*
X66226777Y-25226777D01*
X66208598Y-25243253D01*
X66188893Y-25257867D01*
X66167849Y-25270480D01*
X66145671Y-25280970D01*
X66122571Y-25289235D01*
X66098773Y-25295196D01*
X66074504Y-25298796D01*
X66050000Y-25300000D01*
X64950000Y-25300000D01*
X64925496Y-25298796D01*
X64901227Y-25295196D01*
X64877429Y-25289235D01*
X64854329Y-25280970D01*
X64832151Y-25270480D01*
X64811107Y-25257867D01*
X64791402Y-25243253D01*
X64773223Y-25226777D01*
X64756747Y-25208598D01*
X64742133Y-25188893D01*
X64729520Y-25167849D01*
X64719030Y-25145671D01*
X64710765Y-25122571D01*
X64704804Y-25098773D01*
X64701204Y-25074504D01*
X64700000Y-25050000D01*
X64700000Y-22050000D01*
X64701204Y-22025496D01*
X64704804Y-22001227D01*
X64710765Y-21977429D01*
X64719030Y-21954329D01*
X64729520Y-21932151D01*
X64742133Y-21911107D01*
X64756747Y-21891402D01*
X64773223Y-21873223D01*
X64791402Y-21856747D01*
X64811107Y-21842133D01*
X64832151Y-21829520D01*
X64854329Y-21819030D01*
X64877429Y-21810765D01*
X64901227Y-21804804D01*
X64925496Y-21801204D01*
X64950000Y-21800000D01*
X66050000Y-21800000D01*
X66074504Y-21801204D01*
X66074504Y-21801204D01*
G37*
D27*
X65500000Y-23550000D03*
D26*
X74100000Y-109600000D03*
X66300000Y-109600000D03*
D18*
X87140000Y-28450000D03*
X87140000Y-30550000D03*
X87140000Y-29500000D03*
X89260000Y-30550000D03*
X89260000Y-28450000D03*
X89260000Y-29500000D03*
D26*
X74100000Y-104600000D03*
X66300000Y-104600000D03*
X74100000Y-99600000D03*
X66300000Y-99600000D03*
D28*
X92750000Y-30300000D03*
X92750000Y-29500000D03*
X92750000Y-28700000D03*
X92750000Y-27900000D03*
X91050000Y-30300000D03*
X91050000Y-27900000D03*
X91050000Y-29500000D03*
X91050000Y-28700000D03*
D21*
G36*
X34674504Y-21351204D02*
G01*
X34698773Y-21354804D01*
X34722571Y-21360765D01*
X34745671Y-21369030D01*
X34767849Y-21379520D01*
X34788893Y-21392133D01*
X34808598Y-21406747D01*
X34826777Y-21423223D01*
X34843253Y-21441402D01*
X34857867Y-21461107D01*
X34870480Y-21482151D01*
X34880970Y-21504329D01*
X34889235Y-21527429D01*
X34895196Y-21551227D01*
X34898796Y-21575496D01*
X34900000Y-21600000D01*
X34900000Y-24600000D01*
X34898796Y-24624504D01*
X34895196Y-24648773D01*
X34889235Y-24672571D01*
X34880970Y-24695671D01*
X34870480Y-24717849D01*
X34857867Y-24738893D01*
X34843253Y-24758598D01*
X34826777Y-24776777D01*
X34808598Y-24793253D01*
X34788893Y-24807867D01*
X34767849Y-24820480D01*
X34745671Y-24830970D01*
X34722571Y-24839235D01*
X34698773Y-24845196D01*
X34674504Y-24848796D01*
X34650000Y-24850000D01*
X33550000Y-24850000D01*
X33525496Y-24848796D01*
X33501227Y-24845196D01*
X33477429Y-24839235D01*
X33454329Y-24830970D01*
X33432151Y-24820480D01*
X33411107Y-24807867D01*
X33391402Y-24793253D01*
X33373223Y-24776777D01*
X33356747Y-24758598D01*
X33342133Y-24738893D01*
X33329520Y-24717849D01*
X33319030Y-24695671D01*
X33310765Y-24672571D01*
X33304804Y-24648773D01*
X33301204Y-24624504D01*
X33300000Y-24600000D01*
X33300000Y-21600000D01*
X33301204Y-21575496D01*
X33304804Y-21551227D01*
X33310765Y-21527429D01*
X33319030Y-21504329D01*
X33329520Y-21482151D01*
X33342133Y-21461107D01*
X33356747Y-21441402D01*
X33373223Y-21423223D01*
X33391402Y-21406747D01*
X33411107Y-21392133D01*
X33432151Y-21379520D01*
X33454329Y-21369030D01*
X33477429Y-21360765D01*
X33501227Y-21354804D01*
X33525496Y-21351204D01*
X33550000Y-21350000D01*
X34650000Y-21350000D01*
X34674504Y-21351204D01*
X34674504Y-21351204D01*
G37*
D27*
X34100000Y-23100000D03*
D21*
G36*
X34674504Y-26951204D02*
G01*
X34698773Y-26954804D01*
X34722571Y-26960765D01*
X34745671Y-26969030D01*
X34767849Y-26979520D01*
X34788893Y-26992133D01*
X34808598Y-27006747D01*
X34826777Y-27023223D01*
X34843253Y-27041402D01*
X34857867Y-27061107D01*
X34870480Y-27082151D01*
X34880970Y-27104329D01*
X34889235Y-27127429D01*
X34895196Y-27151227D01*
X34898796Y-27175496D01*
X34900000Y-27200000D01*
X34900000Y-30200000D01*
X34898796Y-30224504D01*
X34895196Y-30248773D01*
X34889235Y-30272571D01*
X34880970Y-30295671D01*
X34870480Y-30317849D01*
X34857867Y-30338893D01*
X34843253Y-30358598D01*
X34826777Y-30376777D01*
X34808598Y-30393253D01*
X34788893Y-30407867D01*
X34767849Y-30420480D01*
X34745671Y-30430970D01*
X34722571Y-30439235D01*
X34698773Y-30445196D01*
X34674504Y-30448796D01*
X34650000Y-30450000D01*
X33550000Y-30450000D01*
X33525496Y-30448796D01*
X33501227Y-30445196D01*
X33477429Y-30439235D01*
X33454329Y-30430970D01*
X33432151Y-30420480D01*
X33411107Y-30407867D01*
X33391402Y-30393253D01*
X33373223Y-30376777D01*
X33356747Y-30358598D01*
X33342133Y-30338893D01*
X33329520Y-30317849D01*
X33319030Y-30295671D01*
X33310765Y-30272571D01*
X33304804Y-30248773D01*
X33301204Y-30224504D01*
X33300000Y-30200000D01*
X33300000Y-27200000D01*
X33301204Y-27175496D01*
X33304804Y-27151227D01*
X33310765Y-27127429D01*
X33319030Y-27104329D01*
X33329520Y-27082151D01*
X33342133Y-27061107D01*
X33356747Y-27041402D01*
X33373223Y-27023223D01*
X33391402Y-27006747D01*
X33411107Y-26992133D01*
X33432151Y-26979520D01*
X33454329Y-26969030D01*
X33477429Y-26960765D01*
X33501227Y-26954804D01*
X33525496Y-26951204D01*
X33550000Y-26950000D01*
X34650000Y-26950000D01*
X34674504Y-26951204D01*
X34674504Y-26951204D01*
G37*
D27*
X34100000Y-28700000D03*
D21*
G36*
X44424504Y-21351204D02*
G01*
X44448773Y-21354804D01*
X44472571Y-21360765D01*
X44495671Y-21369030D01*
X44517849Y-21379520D01*
X44538893Y-21392133D01*
X44558598Y-21406747D01*
X44576777Y-21423223D01*
X44593253Y-21441402D01*
X44607867Y-21461107D01*
X44620480Y-21482151D01*
X44630970Y-21504329D01*
X44639235Y-21527429D01*
X44645196Y-21551227D01*
X44648796Y-21575496D01*
X44650000Y-21600000D01*
X44650000Y-24600000D01*
X44648796Y-24624504D01*
X44645196Y-24648773D01*
X44639235Y-24672571D01*
X44630970Y-24695671D01*
X44620480Y-24717849D01*
X44607867Y-24738893D01*
X44593253Y-24758598D01*
X44576777Y-24776777D01*
X44558598Y-24793253D01*
X44538893Y-24807867D01*
X44517849Y-24820480D01*
X44495671Y-24830970D01*
X44472571Y-24839235D01*
X44448773Y-24845196D01*
X44424504Y-24848796D01*
X44400000Y-24850000D01*
X43300000Y-24850000D01*
X43275496Y-24848796D01*
X43251227Y-24845196D01*
X43227429Y-24839235D01*
X43204329Y-24830970D01*
X43182151Y-24820480D01*
X43161107Y-24807867D01*
X43141402Y-24793253D01*
X43123223Y-24776777D01*
X43106747Y-24758598D01*
X43092133Y-24738893D01*
X43079520Y-24717849D01*
X43069030Y-24695671D01*
X43060765Y-24672571D01*
X43054804Y-24648773D01*
X43051204Y-24624504D01*
X43050000Y-24600000D01*
X43050000Y-21600000D01*
X43051204Y-21575496D01*
X43054804Y-21551227D01*
X43060765Y-21527429D01*
X43069030Y-21504329D01*
X43079520Y-21482151D01*
X43092133Y-21461107D01*
X43106747Y-21441402D01*
X43123223Y-21423223D01*
X43141402Y-21406747D01*
X43161107Y-21392133D01*
X43182151Y-21379520D01*
X43204329Y-21369030D01*
X43227429Y-21360765D01*
X43251227Y-21354804D01*
X43275496Y-21351204D01*
X43300000Y-21350000D01*
X44400000Y-21350000D01*
X44424504Y-21351204D01*
X44424504Y-21351204D01*
G37*
D27*
X43850000Y-23100000D03*
D21*
G36*
X44424504Y-26951204D02*
G01*
X44448773Y-26954804D01*
X44472571Y-26960765D01*
X44495671Y-26969030D01*
X44517849Y-26979520D01*
X44538893Y-26992133D01*
X44558598Y-27006747D01*
X44576777Y-27023223D01*
X44593253Y-27041402D01*
X44607867Y-27061107D01*
X44620480Y-27082151D01*
X44630970Y-27104329D01*
X44639235Y-27127429D01*
X44645196Y-27151227D01*
X44648796Y-27175496D01*
X44650000Y-27200000D01*
X44650000Y-30200000D01*
X44648796Y-30224504D01*
X44645196Y-30248773D01*
X44639235Y-30272571D01*
X44630970Y-30295671D01*
X44620480Y-30317849D01*
X44607867Y-30338893D01*
X44593253Y-30358598D01*
X44576777Y-30376777D01*
X44558598Y-30393253D01*
X44538893Y-30407867D01*
X44517849Y-30420480D01*
X44495671Y-30430970D01*
X44472571Y-30439235D01*
X44448773Y-30445196D01*
X44424504Y-30448796D01*
X44400000Y-30450000D01*
X43300000Y-30450000D01*
X43275496Y-30448796D01*
X43251227Y-30445196D01*
X43227429Y-30439235D01*
X43204329Y-30430970D01*
X43182151Y-30420480D01*
X43161107Y-30407867D01*
X43141402Y-30393253D01*
X43123223Y-30376777D01*
X43106747Y-30358598D01*
X43092133Y-30338893D01*
X43079520Y-30317849D01*
X43069030Y-30295671D01*
X43060765Y-30272571D01*
X43054804Y-30248773D01*
X43051204Y-30224504D01*
X43050000Y-30200000D01*
X43050000Y-27200000D01*
X43051204Y-27175496D01*
X43054804Y-27151227D01*
X43060765Y-27127429D01*
X43069030Y-27104329D01*
X43079520Y-27082151D01*
X43092133Y-27061107D01*
X43106747Y-27041402D01*
X43123223Y-27023223D01*
X43141402Y-27006747D01*
X43161107Y-26992133D01*
X43182151Y-26979520D01*
X43204329Y-26969030D01*
X43227429Y-26960765D01*
X43251227Y-26954804D01*
X43275496Y-26951204D01*
X43300000Y-26950000D01*
X44400000Y-26950000D01*
X44424504Y-26951204D01*
X44424504Y-26951204D01*
G37*
D27*
X43850000Y-28700000D03*
M02*
