G04 #@! TF.GenerationSoftware,KiCad,Pcbnew,5.1.2-f72e74a~84~ubuntu18.04.1*
G04 #@! TF.CreationDate,2019-06-06T15:51:32+08:00*
G04 #@! TF.ProjectId,stm32_aux_keyboard,73746d33-325f-4617-9578-5f6b6579626f,rev?*
G04 #@! TF.SameCoordinates,Original*
G04 #@! TF.FileFunction,Legend,Bot*
G04 #@! TF.FilePolarity,Positive*
%FSLAX46Y46*%
G04 Gerber Fmt 4.6, Leading zero omitted, Abs format (unit mm)*
G04 Created by KiCad (PCBNEW 5.1.2-f72e74a~84~ubuntu18.04.1) date 2019-06-06 15:51:32*
%MOMM*%
%LPD*%
G04 APERTURE LIST*
%ADD10C,0.120000*%
%ADD11C,0.200000*%
%ADD12C,0.100000*%
%ADD13C,0.127000*%
%ADD14C,0.150000*%
G04 APERTURE END LIST*
D10*
X80880000Y-30000000D02*
X80880000Y-29200000D01*
X84320000Y-30000000D02*
X84320000Y-29200000D01*
X70130000Y-31231267D02*
X70130000Y-30888733D01*
X71150000Y-31231267D02*
X71150000Y-30888733D01*
X73890000Y-25571267D02*
X73890000Y-25228733D01*
X74910000Y-25571267D02*
X74910000Y-25228733D01*
X23838733Y-47660000D02*
X24181267Y-47660000D01*
X23838733Y-48680000D02*
X24181267Y-48680000D01*
X23598733Y-44520000D02*
X23941267Y-44520000D01*
X23598733Y-45540000D02*
X23941267Y-45540000D01*
X23798733Y-41720000D02*
X24141267Y-41720000D01*
X23798733Y-42740000D02*
X24141267Y-42740000D01*
X92300000Y-109671252D02*
X92300000Y-109148748D01*
X93720000Y-109671252D02*
X93720000Y-109148748D01*
X92410000Y-102671252D02*
X92410000Y-102148748D01*
X93830000Y-102671252D02*
X93830000Y-102148748D01*
X76770000Y-75616252D02*
X76770000Y-75093748D01*
X78190000Y-75616252D02*
X78190000Y-75093748D01*
X57050000Y-75571252D02*
X57050000Y-75048748D01*
X58470000Y-75571252D02*
X58470000Y-75048748D01*
X37070000Y-75781252D02*
X37070000Y-75258748D01*
X38490000Y-75781252D02*
X38490000Y-75258748D01*
X77180000Y-56306252D02*
X77180000Y-55783748D01*
X78600000Y-56306252D02*
X78600000Y-55783748D01*
X56990000Y-56361252D02*
X56990000Y-55838748D01*
X58410000Y-56361252D02*
X58410000Y-55838748D01*
X37000000Y-56221252D02*
X37000000Y-55698748D01*
X38420000Y-56221252D02*
X38420000Y-55698748D01*
X76740000Y-36576252D02*
X76740000Y-36053748D01*
X78160000Y-36576252D02*
X78160000Y-36053748D01*
X56630000Y-37046252D02*
X56630000Y-36523748D01*
X58050000Y-37046252D02*
X58050000Y-36523748D01*
X36790000Y-36761252D02*
X36790000Y-36238748D01*
X38210000Y-36761252D02*
X38210000Y-36238748D01*
X93671267Y-32610000D02*
X93328733Y-32610000D01*
X93671267Y-31590000D02*
X93328733Y-31590000D01*
X105571267Y-47210000D02*
X105228733Y-47210000D01*
X105571267Y-46190000D02*
X105228733Y-46190000D01*
X103271267Y-33010000D02*
X102928733Y-33010000D01*
X103271267Y-31990000D02*
X102928733Y-31990000D01*
X102828733Y-35490000D02*
X103171267Y-35490000D01*
X102828733Y-36510000D02*
X103171267Y-36510000D01*
X97071267Y-46710000D02*
X96728733Y-46710000D01*
X97071267Y-45690000D02*
X96728733Y-45690000D01*
X100390000Y-40871267D02*
X100390000Y-40528733D01*
X101410000Y-40871267D02*
X101410000Y-40528733D01*
X97071267Y-43710000D02*
X96728733Y-43710000D01*
X97071267Y-42690000D02*
X96728733Y-42690000D01*
X111200000Y-37200000D02*
X111200000Y-35800000D01*
X110500000Y-35100000D02*
X109900000Y-35100000D01*
X109200000Y-35800000D02*
X109200000Y-37200000D01*
X109900000Y-37900000D02*
X110500000Y-37900000D01*
X110500000Y-37900000D02*
G75*
G03X111200000Y-37200000I0J700000D01*
G01*
X109200000Y-37200000D02*
G75*
G03X109900000Y-37900000I700000J0D01*
G01*
X109900000Y-35100000D02*
G75*
G03X109200000Y-35800000I0J-700000D01*
G01*
X111200000Y-35800000D02*
G75*
G03X110500000Y-35100000I-700000J0D01*
G01*
X107500000Y-37100000D02*
X107500000Y-35700000D01*
X106800000Y-35000000D02*
X106200000Y-35000000D01*
X105500000Y-35700000D02*
X105500000Y-37100000D01*
X106200000Y-37800000D02*
X106800000Y-37800000D01*
X106800000Y-37800000D02*
G75*
G03X107500000Y-37100000I0J700000D01*
G01*
X105500000Y-37100000D02*
G75*
G03X106200000Y-37800000I700000J0D01*
G01*
X106200000Y-35000000D02*
G75*
G03X105500000Y-35700000I0J-700000D01*
G01*
X107500000Y-35700000D02*
G75*
G03X106800000Y-35000000I-700000J0D01*
G01*
X104160000Y-49028733D02*
X104160000Y-49371267D01*
X103140000Y-49028733D02*
X103140000Y-49371267D01*
X105571267Y-43210000D02*
X105228733Y-43210000D01*
X105571267Y-42190000D02*
X105228733Y-42190000D01*
X97071267Y-48210000D02*
X96728733Y-48210000D01*
X97071267Y-47190000D02*
X96728733Y-47190000D01*
X96728733Y-44190000D02*
X97071267Y-44190000D01*
X96728733Y-45210000D02*
X97071267Y-45210000D01*
X99410000Y-40528733D02*
X99410000Y-40871267D01*
X98390000Y-40528733D02*
X98390000Y-40871267D01*
X89528733Y-42190000D02*
X89871267Y-42190000D01*
X89528733Y-43210000D02*
X89871267Y-43210000D01*
X89528733Y-43690000D02*
X89871267Y-43690000D01*
X89528733Y-44710000D02*
X89871267Y-44710000D01*
D11*
X96500000Y-65900000D02*
X96500000Y-66100000D01*
D12*
X96400000Y-66050000D02*
X96600000Y-66050000D01*
X96800000Y-66200000D02*
X96200000Y-66200000D01*
X96500000Y-65800000D02*
X96800000Y-66200000D01*
X96700000Y-66100000D02*
X96300000Y-66100000D01*
X96200000Y-66200000D02*
X96500000Y-65800000D01*
D10*
X97235000Y-65200000D02*
X97235000Y-67485000D01*
X97235000Y-67485000D02*
X95765000Y-67485000D01*
X95765000Y-67485000D02*
X95765000Y-65200000D01*
X97990000Y-66171267D02*
X97990000Y-65828733D01*
X99010000Y-66171267D02*
X99010000Y-65828733D01*
X90671267Y-58510000D02*
X90328733Y-58510000D01*
X90671267Y-57490000D02*
X90328733Y-57490000D01*
X94500000Y-74050000D02*
X94500000Y-69950000D01*
X94500000Y-69950000D02*
X92500000Y-69950000D01*
X92500000Y-69950000D02*
X92500000Y-74050000D01*
X92500000Y-74050000D02*
X94500000Y-74050000D01*
X92300000Y-73300000D02*
X92000000Y-73600000D01*
X92000000Y-73600000D02*
X92000000Y-73000000D01*
X92300000Y-73300000D02*
X92000000Y-73000000D01*
X97500000Y-74050000D02*
X97500000Y-69950000D01*
X97500000Y-69950000D02*
X95500000Y-69950000D01*
X95500000Y-69950000D02*
X95500000Y-74050000D01*
X95500000Y-74050000D02*
X97500000Y-74050000D01*
X95300000Y-73300000D02*
X95000000Y-73600000D01*
X95000000Y-73600000D02*
X95000000Y-73000000D01*
X95300000Y-73300000D02*
X95000000Y-73000000D01*
X96990000Y-76913767D02*
X96990000Y-76571233D01*
X98010000Y-76913767D02*
X98010000Y-76571233D01*
X99328733Y-89490000D02*
X99671267Y-89490000D01*
X99328733Y-90510000D02*
X99671267Y-90510000D01*
X99203733Y-85490000D02*
X99546267Y-85490000D01*
X99203733Y-86510000D02*
X99546267Y-86510000D01*
X92028733Y-88290000D02*
X92371267Y-88290000D01*
X92028733Y-89310000D02*
X92371267Y-89310000D01*
X92028733Y-86815000D02*
X92371267Y-86815000D01*
X92028733Y-87835000D02*
X92371267Y-87835000D01*
X99671267Y-70510000D02*
X99328733Y-70510000D01*
X99671267Y-69490000D02*
X99328733Y-69490000D01*
X93010000Y-67828733D02*
X93010000Y-68171267D01*
X91990000Y-67828733D02*
X91990000Y-68171267D01*
X90328733Y-72990000D02*
X90671267Y-72990000D01*
X90328733Y-74010000D02*
X90671267Y-74010000D01*
X90671267Y-61510000D02*
X90328733Y-61510000D01*
X90671267Y-60490000D02*
X90328733Y-60490000D01*
X99010000Y-80828733D02*
X99010000Y-81171267D01*
X97990000Y-80828733D02*
X97990000Y-81171267D01*
X54590000Y-21750000D02*
X54590000Y-27760000D01*
X61410000Y-24000000D02*
X61410000Y-27760000D01*
X54590000Y-27760000D02*
X55850000Y-27760000D01*
X61410000Y-27760000D02*
X60150000Y-27760000D01*
X76810000Y-30728733D02*
X76810000Y-31071267D01*
X75790000Y-30728733D02*
X75790000Y-31071267D01*
X73910000Y-30878733D02*
X73910000Y-31221267D01*
X72890000Y-30878733D02*
X72890000Y-31221267D01*
X68210000Y-26341422D02*
X68210000Y-26858578D01*
X66790000Y-26341422D02*
X66790000Y-26858578D01*
X62740000Y-26771267D02*
X62740000Y-26428733D01*
X63760000Y-26771267D02*
X63760000Y-26428733D01*
X50490000Y-26021267D02*
X50490000Y-25678733D01*
X51510000Y-26021267D02*
X51510000Y-25678733D01*
X70371267Y-110110000D02*
X70028733Y-110110000D01*
X70371267Y-109090000D02*
X70028733Y-109090000D01*
X81796267Y-111010000D02*
X81453733Y-111010000D01*
X81796267Y-109990000D02*
X81453733Y-109990000D01*
X85328733Y-21590000D02*
X85671267Y-21590000D01*
X85328733Y-22610000D02*
X85671267Y-22610000D01*
X70371267Y-105110000D02*
X70028733Y-105110000D01*
X70371267Y-104090000D02*
X70028733Y-104090000D01*
X70371267Y-100110000D02*
X70028733Y-100110000D01*
X70371267Y-99090000D02*
X70028733Y-99090000D01*
D13*
X80547500Y-108198500D02*
X80547500Y-108858900D01*
X82452500Y-108198500D02*
X82452500Y-108858900D01*
X81500000Y-106801500D02*
X81500000Y-106141100D01*
X82998600Y-106801500D02*
X80001400Y-106801500D01*
X80001400Y-106801500D02*
X80001400Y-108198500D01*
X80001400Y-108198500D02*
X82998600Y-108198500D01*
X82998600Y-108198500D02*
X82998600Y-106801500D01*
D10*
X79000000Y-109275000D02*
X79000000Y-105375000D01*
X77000000Y-109275000D02*
X77000000Y-105375000D01*
X79000000Y-109275000D02*
X77000000Y-109275000D01*
X84653733Y-106415000D02*
X84996267Y-106415000D01*
X84653733Y-107435000D02*
X84996267Y-107435000D01*
X71500000Y-75250000D02*
X71500000Y-79150000D01*
X73500000Y-75250000D02*
X73500000Y-79150000D01*
X71500000Y-75250000D02*
X73500000Y-75250000D01*
X51500000Y-75250000D02*
X51500000Y-79150000D01*
X53500000Y-75250000D02*
X53500000Y-79150000D01*
X51500000Y-75250000D02*
X53500000Y-75250000D01*
X31500000Y-75250000D02*
X31500000Y-79150000D01*
X33500000Y-75250000D02*
X33500000Y-79150000D01*
X31500000Y-75250000D02*
X33500000Y-75250000D01*
X71500000Y-55750000D02*
X71500000Y-59650000D01*
X73500000Y-55750000D02*
X73500000Y-59650000D01*
X71500000Y-55750000D02*
X73500000Y-55750000D01*
X51500000Y-55750000D02*
X51500000Y-59650000D01*
X53500000Y-55750000D02*
X53500000Y-59650000D01*
X51500000Y-55750000D02*
X53500000Y-55750000D01*
X31500000Y-55750000D02*
X31500000Y-59650000D01*
X33500000Y-55750000D02*
X33500000Y-59650000D01*
X31500000Y-55750000D02*
X33500000Y-55750000D01*
X71500000Y-36250000D02*
X71500000Y-40150000D01*
X73500000Y-36250000D02*
X73500000Y-40150000D01*
X71500000Y-36250000D02*
X73500000Y-36250000D01*
X51500000Y-36250000D02*
X51500000Y-40150000D01*
X53500000Y-36250000D02*
X53500000Y-40150000D01*
X51500000Y-36250000D02*
X53500000Y-36250000D01*
X31500000Y-36250000D02*
X31500000Y-40150000D01*
X33500000Y-36250000D02*
X33500000Y-40150000D01*
X31500000Y-36250000D02*
X33500000Y-36250000D01*
X35690000Y-21800000D02*
X35690000Y-27810000D01*
X42510000Y-24050000D02*
X42510000Y-27810000D01*
X35690000Y-27810000D02*
X36950000Y-27810000D01*
X42510000Y-27810000D02*
X41250000Y-27810000D01*
X33590000Y-26071267D02*
X33590000Y-25728733D01*
X34610000Y-26071267D02*
X34610000Y-25728733D01*
X51303733Y-104940000D02*
X51646267Y-104940000D01*
X51303733Y-105960000D02*
X51646267Y-105960000D01*
X59521267Y-106260000D02*
X59178733Y-106260000D01*
X59521267Y-105240000D02*
X59178733Y-105240000D01*
X59571267Y-103660000D02*
X59228733Y-103660000D01*
X59571267Y-102640000D02*
X59228733Y-102640000D01*
X51646267Y-104335000D02*
X51303733Y-104335000D01*
X51646267Y-103315000D02*
X51303733Y-103315000D01*
X59178733Y-107390000D02*
X59521267Y-107390000D01*
X59178733Y-108410000D02*
X59521267Y-108410000D01*
X59228733Y-100940000D02*
X59571267Y-100940000D01*
X59228733Y-101960000D02*
X59571267Y-101960000D01*
X33128733Y-105315000D02*
X33471267Y-105315000D01*
X33128733Y-106335000D02*
X33471267Y-106335000D01*
X41171267Y-108010000D02*
X40828733Y-108010000D01*
X41171267Y-106990000D02*
X40828733Y-106990000D01*
X41171267Y-102010000D02*
X40828733Y-102010000D01*
X41171267Y-100990000D02*
X40828733Y-100990000D01*
X33471267Y-104810000D02*
X33128733Y-104810000D01*
X33471267Y-103790000D02*
X33128733Y-103790000D01*
X40828733Y-104990000D02*
X41171267Y-104990000D01*
X40828733Y-106010000D02*
X41171267Y-106010000D01*
X40828733Y-102990000D02*
X41171267Y-102990000D01*
X40828733Y-104010000D02*
X41171267Y-104010000D01*
X22490000Y-53171267D02*
X22490000Y-52828733D01*
X23510000Y-53171267D02*
X23510000Y-52828733D01*
X25490000Y-53171267D02*
X25490000Y-52828733D01*
X26510000Y-53171267D02*
X26510000Y-52828733D01*
X23490000Y-77171267D02*
X23490000Y-76828733D01*
X24510000Y-77171267D02*
X24510000Y-76828733D01*
X26490000Y-77171267D02*
X26490000Y-76828733D01*
X27510000Y-77171267D02*
X27510000Y-76828733D01*
X22490000Y-57171267D02*
X22490000Y-56828733D01*
X23510000Y-57171267D02*
X23510000Y-56828733D01*
X25490000Y-57171267D02*
X25490000Y-56828733D01*
X26510000Y-57171267D02*
X26510000Y-56828733D01*
X23490000Y-82171267D02*
X23490000Y-81828733D01*
X24510000Y-82171267D02*
X24510000Y-81828733D01*
X26490000Y-82171267D02*
X26490000Y-81828733D01*
X27510000Y-82171267D02*
X27510000Y-81828733D01*
X22490000Y-61171267D02*
X22490000Y-60828733D01*
X23510000Y-61171267D02*
X23510000Y-60828733D01*
X25490000Y-61171267D02*
X25490000Y-60828733D01*
X26510000Y-61171267D02*
X26510000Y-60828733D01*
X23490000Y-87171267D02*
X23490000Y-86828733D01*
X24510000Y-87171267D02*
X24510000Y-86828733D01*
X26490000Y-87171267D02*
X26490000Y-86828733D01*
X27510000Y-87171267D02*
X27510000Y-86828733D01*
D14*
X80452380Y-28909523D02*
X79976190Y-28576190D01*
X80452380Y-28338095D02*
X79452380Y-28338095D01*
X79452380Y-28719047D01*
X79500000Y-28814285D01*
X79547619Y-28861904D01*
X79642857Y-28909523D01*
X79785714Y-28909523D01*
X79880952Y-28861904D01*
X79928571Y-28814285D01*
X79976190Y-28719047D01*
X79976190Y-28338095D01*
X80452380Y-29338095D02*
X79452380Y-29338095D01*
X80452380Y-29909523D01*
X79452380Y-29909523D01*
X79785714Y-30814285D02*
X80452380Y-30814285D01*
X79404761Y-30576190D02*
X80119047Y-30338095D01*
X80119047Y-30957142D01*
X70952380Y-33857142D02*
X70476190Y-33523809D01*
X70952380Y-33285714D02*
X69952380Y-33285714D01*
X69952380Y-33666666D01*
X70000000Y-33761904D01*
X70047619Y-33809523D01*
X70142857Y-33857142D01*
X70285714Y-33857142D01*
X70380952Y-33809523D01*
X70428571Y-33761904D01*
X70476190Y-33666666D01*
X70476190Y-33285714D01*
X70047619Y-34238095D02*
X70000000Y-34285714D01*
X69952380Y-34380952D01*
X69952380Y-34619047D01*
X70000000Y-34714285D01*
X70047619Y-34761904D01*
X70142857Y-34809523D01*
X70238095Y-34809523D01*
X70380952Y-34761904D01*
X70952380Y-34190476D01*
X70952380Y-34809523D01*
X69952380Y-35142857D02*
X69952380Y-35809523D01*
X70952380Y-35380952D01*
X73182380Y-21382143D02*
X72706190Y-21048810D01*
X73182380Y-20810715D02*
X72182380Y-20810715D01*
X72182380Y-21191667D01*
X72230000Y-21286905D01*
X72277619Y-21334524D01*
X72372857Y-21382143D01*
X72515714Y-21382143D01*
X72610952Y-21334524D01*
X72658571Y-21286905D01*
X72706190Y-21191667D01*
X72706190Y-20810715D01*
X72277619Y-21763096D02*
X72230000Y-21810715D01*
X72182380Y-21905953D01*
X72182380Y-22144048D01*
X72230000Y-22239286D01*
X72277619Y-22286905D01*
X72372857Y-22334524D01*
X72468095Y-22334524D01*
X72610952Y-22286905D01*
X73182380Y-21715477D01*
X73182380Y-22334524D01*
X72182380Y-23191667D02*
X72182380Y-23001191D01*
X72230000Y-22905953D01*
X72277619Y-22858334D01*
X72420476Y-22763096D01*
X72610952Y-22715477D01*
X72991904Y-22715477D01*
X73087142Y-22763096D01*
X73134761Y-22810715D01*
X73182380Y-22905953D01*
X73182380Y-23096429D01*
X73134761Y-23191667D01*
X73087142Y-23239286D01*
X72991904Y-23286905D01*
X72753809Y-23286905D01*
X72658571Y-23239286D01*
X72610952Y-23191667D01*
X72563333Y-23096429D01*
X72563333Y-22905953D01*
X72610952Y-22810715D01*
X72658571Y-22763096D01*
X72753809Y-22715477D01*
X24176666Y-50052380D02*
X24510000Y-49576190D01*
X24748095Y-50052380D02*
X24748095Y-49052380D01*
X24367142Y-49052380D01*
X24271904Y-49100000D01*
X24224285Y-49147619D01*
X24176666Y-49242857D01*
X24176666Y-49385714D01*
X24224285Y-49480952D01*
X24271904Y-49528571D01*
X24367142Y-49576190D01*
X24748095Y-49576190D01*
X23700476Y-50052380D02*
X23510000Y-50052380D01*
X23414761Y-50004761D01*
X23367142Y-49957142D01*
X23271904Y-49814285D01*
X23224285Y-49623809D01*
X23224285Y-49242857D01*
X23271904Y-49147619D01*
X23319523Y-49100000D01*
X23414761Y-49052380D01*
X23605238Y-49052380D01*
X23700476Y-49100000D01*
X23748095Y-49147619D01*
X23795714Y-49242857D01*
X23795714Y-49480952D01*
X23748095Y-49576190D01*
X23700476Y-49623809D01*
X23605238Y-49671428D01*
X23414761Y-49671428D01*
X23319523Y-49623809D01*
X23271904Y-49576190D01*
X23224285Y-49480952D01*
X23936666Y-46912380D02*
X24270000Y-46436190D01*
X24508095Y-46912380D02*
X24508095Y-45912380D01*
X24127142Y-45912380D01*
X24031904Y-45960000D01*
X23984285Y-46007619D01*
X23936666Y-46102857D01*
X23936666Y-46245714D01*
X23984285Y-46340952D01*
X24031904Y-46388571D01*
X24127142Y-46436190D01*
X24508095Y-46436190D01*
X23365238Y-46340952D02*
X23460476Y-46293333D01*
X23508095Y-46245714D01*
X23555714Y-46150476D01*
X23555714Y-46102857D01*
X23508095Y-46007619D01*
X23460476Y-45960000D01*
X23365238Y-45912380D01*
X23174761Y-45912380D01*
X23079523Y-45960000D01*
X23031904Y-46007619D01*
X22984285Y-46102857D01*
X22984285Y-46150476D01*
X23031904Y-46245714D01*
X23079523Y-46293333D01*
X23174761Y-46340952D01*
X23365238Y-46340952D01*
X23460476Y-46388571D01*
X23508095Y-46436190D01*
X23555714Y-46531428D01*
X23555714Y-46721904D01*
X23508095Y-46817142D01*
X23460476Y-46864761D01*
X23365238Y-46912380D01*
X23174761Y-46912380D01*
X23079523Y-46864761D01*
X23031904Y-46817142D01*
X22984285Y-46721904D01*
X22984285Y-46531428D01*
X23031904Y-46436190D01*
X23079523Y-46388571D01*
X23174761Y-46340952D01*
X24136666Y-44112380D02*
X24470000Y-43636190D01*
X24708095Y-44112380D02*
X24708095Y-43112380D01*
X24327142Y-43112380D01*
X24231904Y-43160000D01*
X24184285Y-43207619D01*
X24136666Y-43302857D01*
X24136666Y-43445714D01*
X24184285Y-43540952D01*
X24231904Y-43588571D01*
X24327142Y-43636190D01*
X24708095Y-43636190D01*
X23803333Y-43112380D02*
X23136666Y-43112380D01*
X23565238Y-44112380D01*
X95017142Y-108767142D02*
X95064761Y-108719523D01*
X95112380Y-108576666D01*
X95112380Y-108481428D01*
X95064761Y-108338571D01*
X94969523Y-108243333D01*
X94874285Y-108195714D01*
X94683809Y-108148095D01*
X94540952Y-108148095D01*
X94350476Y-108195714D01*
X94255238Y-108243333D01*
X94160000Y-108338571D01*
X94112380Y-108481428D01*
X94112380Y-108576666D01*
X94160000Y-108719523D01*
X94207619Y-108767142D01*
X95112380Y-109719523D02*
X95112380Y-109148095D01*
X95112380Y-109433809D02*
X94112380Y-109433809D01*
X94255238Y-109338571D01*
X94350476Y-109243333D01*
X94398095Y-109148095D01*
X94112380Y-110052857D02*
X94112380Y-110719523D01*
X95112380Y-110290952D01*
X95127142Y-101767142D02*
X95174761Y-101719523D01*
X95222380Y-101576666D01*
X95222380Y-101481428D01*
X95174761Y-101338571D01*
X95079523Y-101243333D01*
X94984285Y-101195714D01*
X94793809Y-101148095D01*
X94650952Y-101148095D01*
X94460476Y-101195714D01*
X94365238Y-101243333D01*
X94270000Y-101338571D01*
X94222380Y-101481428D01*
X94222380Y-101576666D01*
X94270000Y-101719523D01*
X94317619Y-101767142D01*
X95222380Y-102719523D02*
X95222380Y-102148095D01*
X95222380Y-102433809D02*
X94222380Y-102433809D01*
X94365238Y-102338571D01*
X94460476Y-102243333D01*
X94508095Y-102148095D01*
X94222380Y-103576666D02*
X94222380Y-103386190D01*
X94270000Y-103290952D01*
X94317619Y-103243333D01*
X94460476Y-103148095D01*
X94650952Y-103100476D01*
X95031904Y-103100476D01*
X95127142Y-103148095D01*
X95174761Y-103195714D01*
X95222380Y-103290952D01*
X95222380Y-103481428D01*
X95174761Y-103576666D01*
X95127142Y-103624285D01*
X95031904Y-103671904D01*
X94793809Y-103671904D01*
X94698571Y-103624285D01*
X94650952Y-103576666D01*
X94603333Y-103481428D01*
X94603333Y-103290952D01*
X94650952Y-103195714D01*
X94698571Y-103148095D01*
X94793809Y-103100476D01*
X79487142Y-74712142D02*
X79534761Y-74664523D01*
X79582380Y-74521666D01*
X79582380Y-74426428D01*
X79534761Y-74283571D01*
X79439523Y-74188333D01*
X79344285Y-74140714D01*
X79153809Y-74093095D01*
X79010952Y-74093095D01*
X78820476Y-74140714D01*
X78725238Y-74188333D01*
X78630000Y-74283571D01*
X78582380Y-74426428D01*
X78582380Y-74521666D01*
X78630000Y-74664523D01*
X78677619Y-74712142D01*
X79582380Y-75664523D02*
X79582380Y-75093095D01*
X79582380Y-75378809D02*
X78582380Y-75378809D01*
X78725238Y-75283571D01*
X78820476Y-75188333D01*
X78868095Y-75093095D01*
X78582380Y-76569285D02*
X78582380Y-76093095D01*
X79058571Y-76045476D01*
X79010952Y-76093095D01*
X78963333Y-76188333D01*
X78963333Y-76426428D01*
X79010952Y-76521666D01*
X79058571Y-76569285D01*
X79153809Y-76616904D01*
X79391904Y-76616904D01*
X79487142Y-76569285D01*
X79534761Y-76521666D01*
X79582380Y-76426428D01*
X79582380Y-76188333D01*
X79534761Y-76093095D01*
X79487142Y-76045476D01*
X59767142Y-74667142D02*
X59814761Y-74619523D01*
X59862380Y-74476666D01*
X59862380Y-74381428D01*
X59814761Y-74238571D01*
X59719523Y-74143333D01*
X59624285Y-74095714D01*
X59433809Y-74048095D01*
X59290952Y-74048095D01*
X59100476Y-74095714D01*
X59005238Y-74143333D01*
X58910000Y-74238571D01*
X58862380Y-74381428D01*
X58862380Y-74476666D01*
X58910000Y-74619523D01*
X58957619Y-74667142D01*
X59862380Y-75619523D02*
X59862380Y-75048095D01*
X59862380Y-75333809D02*
X58862380Y-75333809D01*
X59005238Y-75238571D01*
X59100476Y-75143333D01*
X59148095Y-75048095D01*
X59195714Y-76476666D02*
X59862380Y-76476666D01*
X58814761Y-76238571D02*
X59529047Y-76000476D01*
X59529047Y-76619523D01*
X39787142Y-74877142D02*
X39834761Y-74829523D01*
X39882380Y-74686666D01*
X39882380Y-74591428D01*
X39834761Y-74448571D01*
X39739523Y-74353333D01*
X39644285Y-74305714D01*
X39453809Y-74258095D01*
X39310952Y-74258095D01*
X39120476Y-74305714D01*
X39025238Y-74353333D01*
X38930000Y-74448571D01*
X38882380Y-74591428D01*
X38882380Y-74686666D01*
X38930000Y-74829523D01*
X38977619Y-74877142D01*
X39882380Y-75829523D02*
X39882380Y-75258095D01*
X39882380Y-75543809D02*
X38882380Y-75543809D01*
X39025238Y-75448571D01*
X39120476Y-75353333D01*
X39168095Y-75258095D01*
X38882380Y-76162857D02*
X38882380Y-76781904D01*
X39263333Y-76448571D01*
X39263333Y-76591428D01*
X39310952Y-76686666D01*
X39358571Y-76734285D01*
X39453809Y-76781904D01*
X39691904Y-76781904D01*
X39787142Y-76734285D01*
X39834761Y-76686666D01*
X39882380Y-76591428D01*
X39882380Y-76305714D01*
X39834761Y-76210476D01*
X39787142Y-76162857D01*
X79897142Y-55402142D02*
X79944761Y-55354523D01*
X79992380Y-55211666D01*
X79992380Y-55116428D01*
X79944761Y-54973571D01*
X79849523Y-54878333D01*
X79754285Y-54830714D01*
X79563809Y-54783095D01*
X79420952Y-54783095D01*
X79230476Y-54830714D01*
X79135238Y-54878333D01*
X79040000Y-54973571D01*
X78992380Y-55116428D01*
X78992380Y-55211666D01*
X79040000Y-55354523D01*
X79087619Y-55402142D01*
X79992380Y-56354523D02*
X79992380Y-55783095D01*
X79992380Y-56068809D02*
X78992380Y-56068809D01*
X79135238Y-55973571D01*
X79230476Y-55878333D01*
X79278095Y-55783095D01*
X79087619Y-56735476D02*
X79040000Y-56783095D01*
X78992380Y-56878333D01*
X78992380Y-57116428D01*
X79040000Y-57211666D01*
X79087619Y-57259285D01*
X79182857Y-57306904D01*
X79278095Y-57306904D01*
X79420952Y-57259285D01*
X79992380Y-56687857D01*
X79992380Y-57306904D01*
X59707142Y-55457142D02*
X59754761Y-55409523D01*
X59802380Y-55266666D01*
X59802380Y-55171428D01*
X59754761Y-55028571D01*
X59659523Y-54933333D01*
X59564285Y-54885714D01*
X59373809Y-54838095D01*
X59230952Y-54838095D01*
X59040476Y-54885714D01*
X58945238Y-54933333D01*
X58850000Y-55028571D01*
X58802380Y-55171428D01*
X58802380Y-55266666D01*
X58850000Y-55409523D01*
X58897619Y-55457142D01*
X59802380Y-56409523D02*
X59802380Y-55838095D01*
X59802380Y-56123809D02*
X58802380Y-56123809D01*
X58945238Y-56028571D01*
X59040476Y-55933333D01*
X59088095Y-55838095D01*
X59802380Y-57361904D02*
X59802380Y-56790476D01*
X59802380Y-57076190D02*
X58802380Y-57076190D01*
X58945238Y-56980952D01*
X59040476Y-56885714D01*
X59088095Y-56790476D01*
X39717142Y-55317142D02*
X39764761Y-55269523D01*
X39812380Y-55126666D01*
X39812380Y-55031428D01*
X39764761Y-54888571D01*
X39669523Y-54793333D01*
X39574285Y-54745714D01*
X39383809Y-54698095D01*
X39240952Y-54698095D01*
X39050476Y-54745714D01*
X38955238Y-54793333D01*
X38860000Y-54888571D01*
X38812380Y-55031428D01*
X38812380Y-55126666D01*
X38860000Y-55269523D01*
X38907619Y-55317142D01*
X39812380Y-56269523D02*
X39812380Y-55698095D01*
X39812380Y-55983809D02*
X38812380Y-55983809D01*
X38955238Y-55888571D01*
X39050476Y-55793333D01*
X39098095Y-55698095D01*
X38812380Y-56888571D02*
X38812380Y-56983809D01*
X38860000Y-57079047D01*
X38907619Y-57126666D01*
X39002857Y-57174285D01*
X39193333Y-57221904D01*
X39431428Y-57221904D01*
X39621904Y-57174285D01*
X39717142Y-57126666D01*
X39764761Y-57079047D01*
X39812380Y-56983809D01*
X39812380Y-56888571D01*
X39764761Y-56793333D01*
X39717142Y-56745714D01*
X39621904Y-56698095D01*
X39431428Y-56650476D01*
X39193333Y-56650476D01*
X39002857Y-56698095D01*
X38907619Y-56745714D01*
X38860000Y-56793333D01*
X38812380Y-56888571D01*
X79457142Y-36148333D02*
X79504761Y-36100714D01*
X79552380Y-35957857D01*
X79552380Y-35862619D01*
X79504761Y-35719761D01*
X79409523Y-35624523D01*
X79314285Y-35576904D01*
X79123809Y-35529285D01*
X78980952Y-35529285D01*
X78790476Y-35576904D01*
X78695238Y-35624523D01*
X78600000Y-35719761D01*
X78552380Y-35862619D01*
X78552380Y-35957857D01*
X78600000Y-36100714D01*
X78647619Y-36148333D01*
X79552380Y-36624523D02*
X79552380Y-36815000D01*
X79504761Y-36910238D01*
X79457142Y-36957857D01*
X79314285Y-37053095D01*
X79123809Y-37100714D01*
X78742857Y-37100714D01*
X78647619Y-37053095D01*
X78600000Y-37005476D01*
X78552380Y-36910238D01*
X78552380Y-36719761D01*
X78600000Y-36624523D01*
X78647619Y-36576904D01*
X78742857Y-36529285D01*
X78980952Y-36529285D01*
X79076190Y-36576904D01*
X79123809Y-36624523D01*
X79171428Y-36719761D01*
X79171428Y-36910238D01*
X79123809Y-37005476D01*
X79076190Y-37053095D01*
X78980952Y-37100714D01*
X59347142Y-36618333D02*
X59394761Y-36570714D01*
X59442380Y-36427857D01*
X59442380Y-36332619D01*
X59394761Y-36189761D01*
X59299523Y-36094523D01*
X59204285Y-36046904D01*
X59013809Y-35999285D01*
X58870952Y-35999285D01*
X58680476Y-36046904D01*
X58585238Y-36094523D01*
X58490000Y-36189761D01*
X58442380Y-36332619D01*
X58442380Y-36427857D01*
X58490000Y-36570714D01*
X58537619Y-36618333D01*
X58870952Y-37189761D02*
X58823333Y-37094523D01*
X58775714Y-37046904D01*
X58680476Y-36999285D01*
X58632857Y-36999285D01*
X58537619Y-37046904D01*
X58490000Y-37094523D01*
X58442380Y-37189761D01*
X58442380Y-37380238D01*
X58490000Y-37475476D01*
X58537619Y-37523095D01*
X58632857Y-37570714D01*
X58680476Y-37570714D01*
X58775714Y-37523095D01*
X58823333Y-37475476D01*
X58870952Y-37380238D01*
X58870952Y-37189761D01*
X58918571Y-37094523D01*
X58966190Y-37046904D01*
X59061428Y-36999285D01*
X59251904Y-36999285D01*
X59347142Y-37046904D01*
X59394761Y-37094523D01*
X59442380Y-37189761D01*
X59442380Y-37380238D01*
X59394761Y-37475476D01*
X59347142Y-37523095D01*
X59251904Y-37570714D01*
X59061428Y-37570714D01*
X58966190Y-37523095D01*
X58918571Y-37475476D01*
X58870952Y-37380238D01*
X39507142Y-36333333D02*
X39554761Y-36285714D01*
X39602380Y-36142857D01*
X39602380Y-36047619D01*
X39554761Y-35904761D01*
X39459523Y-35809523D01*
X39364285Y-35761904D01*
X39173809Y-35714285D01*
X39030952Y-35714285D01*
X38840476Y-35761904D01*
X38745238Y-35809523D01*
X38650000Y-35904761D01*
X38602380Y-36047619D01*
X38602380Y-36142857D01*
X38650000Y-36285714D01*
X38697619Y-36333333D01*
X38602380Y-36666666D02*
X38602380Y-37333333D01*
X39602380Y-36904761D01*
X90742857Y-32452380D02*
X91076190Y-31976190D01*
X91314285Y-32452380D02*
X91314285Y-31452380D01*
X90933333Y-31452380D01*
X90838095Y-31500000D01*
X90790476Y-31547619D01*
X90742857Y-31642857D01*
X90742857Y-31785714D01*
X90790476Y-31880952D01*
X90838095Y-31928571D01*
X90933333Y-31976190D01*
X91314285Y-31976190D01*
X90361904Y-31547619D02*
X90314285Y-31500000D01*
X90219047Y-31452380D01*
X89980952Y-31452380D01*
X89885714Y-31500000D01*
X89838095Y-31547619D01*
X89790476Y-31642857D01*
X89790476Y-31738095D01*
X89838095Y-31880952D01*
X90409523Y-32452380D01*
X89790476Y-32452380D01*
X88885714Y-31452380D02*
X89361904Y-31452380D01*
X89409523Y-31928571D01*
X89361904Y-31880952D01*
X89266666Y-31833333D01*
X89028571Y-31833333D01*
X88933333Y-31880952D01*
X88885714Y-31928571D01*
X88838095Y-32023809D01*
X88838095Y-32261904D01*
X88885714Y-32357142D01*
X88933333Y-32404761D01*
X89028571Y-32452380D01*
X89266666Y-32452380D01*
X89361904Y-32404761D01*
X89409523Y-32357142D01*
X106042857Y-45722380D02*
X106376190Y-45246190D01*
X106614285Y-45722380D02*
X106614285Y-44722380D01*
X106233333Y-44722380D01*
X106138095Y-44770000D01*
X106090476Y-44817619D01*
X106042857Y-44912857D01*
X106042857Y-45055714D01*
X106090476Y-45150952D01*
X106138095Y-45198571D01*
X106233333Y-45246190D01*
X106614285Y-45246190D01*
X105661904Y-44817619D02*
X105614285Y-44770000D01*
X105519047Y-44722380D01*
X105280952Y-44722380D01*
X105185714Y-44770000D01*
X105138095Y-44817619D01*
X105090476Y-44912857D01*
X105090476Y-45008095D01*
X105138095Y-45150952D01*
X105709523Y-45722380D01*
X105090476Y-45722380D01*
X104233333Y-45055714D02*
X104233333Y-45722380D01*
X104471428Y-44674761D02*
X104709523Y-45389047D01*
X104090476Y-45389047D01*
X100292857Y-32952380D02*
X100626190Y-32476190D01*
X100864285Y-32952380D02*
X100864285Y-31952380D01*
X100483333Y-31952380D01*
X100388095Y-32000000D01*
X100340476Y-32047619D01*
X100292857Y-32142857D01*
X100292857Y-32285714D01*
X100340476Y-32380952D01*
X100388095Y-32428571D01*
X100483333Y-32476190D01*
X100864285Y-32476190D01*
X99911904Y-32047619D02*
X99864285Y-32000000D01*
X99769047Y-31952380D01*
X99530952Y-31952380D01*
X99435714Y-32000000D01*
X99388095Y-32047619D01*
X99340476Y-32142857D01*
X99340476Y-32238095D01*
X99388095Y-32380952D01*
X99959523Y-32952380D01*
X99340476Y-32952380D01*
X99007142Y-31952380D02*
X98388095Y-31952380D01*
X98721428Y-32333333D01*
X98578571Y-32333333D01*
X98483333Y-32380952D01*
X98435714Y-32428571D01*
X98388095Y-32523809D01*
X98388095Y-32761904D01*
X98435714Y-32857142D01*
X98483333Y-32904761D01*
X98578571Y-32952380D01*
X98864285Y-32952380D01*
X98959523Y-32904761D01*
X99007142Y-32857142D01*
X104042857Y-38052380D02*
X104376190Y-37576190D01*
X104614285Y-38052380D02*
X104614285Y-37052380D01*
X104233333Y-37052380D01*
X104138095Y-37100000D01*
X104090476Y-37147619D01*
X104042857Y-37242857D01*
X104042857Y-37385714D01*
X104090476Y-37480952D01*
X104138095Y-37528571D01*
X104233333Y-37576190D01*
X104614285Y-37576190D01*
X103661904Y-37147619D02*
X103614285Y-37100000D01*
X103519047Y-37052380D01*
X103280952Y-37052380D01*
X103185714Y-37100000D01*
X103138095Y-37147619D01*
X103090476Y-37242857D01*
X103090476Y-37338095D01*
X103138095Y-37480952D01*
X103709523Y-38052380D01*
X103090476Y-38052380D01*
X102709523Y-37147619D02*
X102661904Y-37100000D01*
X102566666Y-37052380D01*
X102328571Y-37052380D01*
X102233333Y-37100000D01*
X102185714Y-37147619D01*
X102138095Y-37242857D01*
X102138095Y-37338095D01*
X102185714Y-37480952D01*
X102757142Y-38052380D01*
X102138095Y-38052380D01*
X94042857Y-46452380D02*
X94376190Y-45976190D01*
X94614285Y-46452380D02*
X94614285Y-45452380D01*
X94233333Y-45452380D01*
X94138095Y-45500000D01*
X94090476Y-45547619D01*
X94042857Y-45642857D01*
X94042857Y-45785714D01*
X94090476Y-45880952D01*
X94138095Y-45928571D01*
X94233333Y-45976190D01*
X94614285Y-45976190D01*
X93661904Y-45547619D02*
X93614285Y-45500000D01*
X93519047Y-45452380D01*
X93280952Y-45452380D01*
X93185714Y-45500000D01*
X93138095Y-45547619D01*
X93090476Y-45642857D01*
X93090476Y-45738095D01*
X93138095Y-45880952D01*
X93709523Y-46452380D01*
X93090476Y-46452380D01*
X92138095Y-46452380D02*
X92709523Y-46452380D01*
X92423809Y-46452380D02*
X92423809Y-45452380D01*
X92519047Y-45595238D01*
X92614285Y-45690476D01*
X92709523Y-45738095D01*
X101352380Y-36857142D02*
X100876190Y-36523809D01*
X101352380Y-36285714D02*
X100352380Y-36285714D01*
X100352380Y-36666666D01*
X100400000Y-36761904D01*
X100447619Y-36809523D01*
X100542857Y-36857142D01*
X100685714Y-36857142D01*
X100780952Y-36809523D01*
X100828571Y-36761904D01*
X100876190Y-36666666D01*
X100876190Y-36285714D01*
X100447619Y-37238095D02*
X100400000Y-37285714D01*
X100352380Y-37380952D01*
X100352380Y-37619047D01*
X100400000Y-37714285D01*
X100447619Y-37761904D01*
X100542857Y-37809523D01*
X100638095Y-37809523D01*
X100780952Y-37761904D01*
X101352380Y-37190476D01*
X101352380Y-37809523D01*
X100352380Y-38428571D02*
X100352380Y-38523809D01*
X100400000Y-38619047D01*
X100447619Y-38666666D01*
X100542857Y-38714285D01*
X100733333Y-38761904D01*
X100971428Y-38761904D01*
X101161904Y-38714285D01*
X101257142Y-38666666D01*
X101304761Y-38619047D01*
X101352380Y-38523809D01*
X101352380Y-38428571D01*
X101304761Y-38333333D01*
X101257142Y-38285714D01*
X101161904Y-38238095D01*
X100971428Y-38190476D01*
X100733333Y-38190476D01*
X100542857Y-38238095D01*
X100447619Y-38285714D01*
X100400000Y-38333333D01*
X100352380Y-38428571D01*
X94042857Y-42452380D02*
X94376190Y-41976190D01*
X94614285Y-42452380D02*
X94614285Y-41452380D01*
X94233333Y-41452380D01*
X94138095Y-41500000D01*
X94090476Y-41547619D01*
X94042857Y-41642857D01*
X94042857Y-41785714D01*
X94090476Y-41880952D01*
X94138095Y-41928571D01*
X94233333Y-41976190D01*
X94614285Y-41976190D01*
X93090476Y-42452380D02*
X93661904Y-42452380D01*
X93376190Y-42452380D02*
X93376190Y-41452380D01*
X93471428Y-41595238D01*
X93566666Y-41690476D01*
X93661904Y-41738095D01*
X92614285Y-42452380D02*
X92423809Y-42452380D01*
X92328571Y-42404761D01*
X92280952Y-42357142D01*
X92185714Y-42214285D01*
X92138095Y-42023809D01*
X92138095Y-41642857D01*
X92185714Y-41547619D01*
X92233333Y-41500000D01*
X92328571Y-41452380D01*
X92519047Y-41452380D01*
X92614285Y-41500000D01*
X92661904Y-41547619D01*
X92709523Y-41642857D01*
X92709523Y-41880952D01*
X92661904Y-41976190D01*
X92614285Y-42023809D01*
X92519047Y-42071428D01*
X92328571Y-42071428D01*
X92233333Y-42023809D01*
X92185714Y-41976190D01*
X92138095Y-41880952D01*
X112704761Y-33457142D02*
X112752380Y-33600000D01*
X112752380Y-33838095D01*
X112704761Y-33933333D01*
X112657142Y-33980952D01*
X112561904Y-34028571D01*
X112466666Y-34028571D01*
X112371428Y-33980952D01*
X112323809Y-33933333D01*
X112276190Y-33838095D01*
X112228571Y-33647619D01*
X112180952Y-33552380D01*
X112133333Y-33504761D01*
X112038095Y-33457142D01*
X111942857Y-33457142D01*
X111847619Y-33504761D01*
X111800000Y-33552380D01*
X111752380Y-33647619D01*
X111752380Y-33885714D01*
X111800000Y-34028571D01*
X111752380Y-34361904D02*
X112752380Y-34600000D01*
X112038095Y-34790476D01*
X112752380Y-34980952D01*
X111752380Y-35219047D01*
X112752380Y-35600000D02*
X111752380Y-35600000D01*
X111752380Y-35838095D01*
X111800000Y-35980952D01*
X111895238Y-36076190D01*
X111990476Y-36123809D01*
X112180952Y-36171428D01*
X112323809Y-36171428D01*
X112514285Y-36123809D01*
X112609523Y-36076190D01*
X112704761Y-35980952D01*
X112752380Y-35838095D01*
X112752380Y-35600000D01*
X112847619Y-36361904D02*
X112847619Y-37123809D01*
X112704761Y-37314285D02*
X112752380Y-37457142D01*
X112752380Y-37695238D01*
X112704761Y-37790476D01*
X112657142Y-37838095D01*
X112561904Y-37885714D01*
X112466666Y-37885714D01*
X112371428Y-37838095D01*
X112323809Y-37790476D01*
X112276190Y-37695238D01*
X112228571Y-37504761D01*
X112180952Y-37409523D01*
X112133333Y-37361904D01*
X112038095Y-37314285D01*
X111942857Y-37314285D01*
X111847619Y-37361904D01*
X111800000Y-37409523D01*
X111752380Y-37504761D01*
X111752380Y-37742857D01*
X111800000Y-37885714D01*
X111752380Y-38219047D02*
X112752380Y-38457142D01*
X112038095Y-38647619D01*
X112752380Y-38838095D01*
X111752380Y-39076190D01*
X112752380Y-39457142D02*
X111752380Y-39457142D01*
X111752380Y-39695238D01*
X111800000Y-39838095D01*
X111895238Y-39933333D01*
X111990476Y-39980952D01*
X112180952Y-40028571D01*
X112323809Y-40028571D01*
X112514285Y-39980952D01*
X112609523Y-39933333D01*
X112704761Y-39838095D01*
X112752380Y-39695238D01*
X112752380Y-39457142D01*
X112847619Y-40219047D02*
X112847619Y-40980952D01*
X112228571Y-41219047D02*
X112228571Y-41552380D01*
X112752380Y-41695238D02*
X112752380Y-41219047D01*
X111752380Y-41219047D01*
X111752380Y-41695238D01*
X112752380Y-42123809D02*
X111752380Y-42123809D01*
X112752380Y-42695238D01*
X111752380Y-42695238D01*
X108804761Y-33323809D02*
X108852380Y-33466666D01*
X108852380Y-33704761D01*
X108804761Y-33800000D01*
X108757142Y-33847619D01*
X108661904Y-33895238D01*
X108566666Y-33895238D01*
X108471428Y-33847619D01*
X108423809Y-33800000D01*
X108376190Y-33704761D01*
X108328571Y-33514285D01*
X108280952Y-33419047D01*
X108233333Y-33371428D01*
X108138095Y-33323809D01*
X108042857Y-33323809D01*
X107947619Y-33371428D01*
X107900000Y-33419047D01*
X107852380Y-33514285D01*
X107852380Y-33752380D01*
X107900000Y-33895238D01*
X107852380Y-34228571D02*
X108852380Y-34466666D01*
X108138095Y-34657142D01*
X108852380Y-34847619D01*
X107852380Y-35085714D01*
X108852380Y-35466666D02*
X107852380Y-35466666D01*
X107852380Y-35704761D01*
X107900000Y-35847619D01*
X107995238Y-35942857D01*
X108090476Y-35990476D01*
X108280952Y-36038095D01*
X108423809Y-36038095D01*
X108614285Y-35990476D01*
X108709523Y-35942857D01*
X108804761Y-35847619D01*
X108852380Y-35704761D01*
X108852380Y-35466666D01*
X108947619Y-36228571D02*
X108947619Y-36990476D01*
X107852380Y-37133333D02*
X107852380Y-37752380D01*
X108233333Y-37419047D01*
X108233333Y-37561904D01*
X108280952Y-37657142D01*
X108328571Y-37704761D01*
X108423809Y-37752380D01*
X108661904Y-37752380D01*
X108757142Y-37704761D01*
X108804761Y-37657142D01*
X108852380Y-37561904D01*
X108852380Y-37276190D01*
X108804761Y-37180952D01*
X108757142Y-37133333D01*
X107852380Y-38038095D02*
X108852380Y-38371428D01*
X107852380Y-38704761D01*
X107852380Y-38942857D02*
X107852380Y-39561904D01*
X108233333Y-39228571D01*
X108233333Y-39371428D01*
X108280952Y-39466666D01*
X108328571Y-39514285D01*
X108423809Y-39561904D01*
X108661904Y-39561904D01*
X108757142Y-39514285D01*
X108804761Y-39466666D01*
X108852380Y-39371428D01*
X108852380Y-39085714D01*
X108804761Y-38990476D01*
X108757142Y-38942857D01*
X108947619Y-39752380D02*
X108947619Y-40514285D01*
X108328571Y-40752380D02*
X108328571Y-41085714D01*
X108852380Y-41228571D02*
X108852380Y-40752380D01*
X107852380Y-40752380D01*
X107852380Y-41228571D01*
X108852380Y-41657142D02*
X107852380Y-41657142D01*
X108852380Y-42228571D01*
X107852380Y-42228571D01*
X102577142Y-48557142D02*
X102624761Y-48509523D01*
X102672380Y-48366666D01*
X102672380Y-48271428D01*
X102624761Y-48128571D01*
X102529523Y-48033333D01*
X102434285Y-47985714D01*
X102243809Y-47938095D01*
X102100952Y-47938095D01*
X101910476Y-47985714D01*
X101815238Y-48033333D01*
X101720000Y-48128571D01*
X101672380Y-48271428D01*
X101672380Y-48366666D01*
X101720000Y-48509523D01*
X101767619Y-48557142D01*
X101672380Y-48890476D02*
X101672380Y-49509523D01*
X102053333Y-49176190D01*
X102053333Y-49319047D01*
X102100952Y-49414285D01*
X102148571Y-49461904D01*
X102243809Y-49509523D01*
X102481904Y-49509523D01*
X102577142Y-49461904D01*
X102624761Y-49414285D01*
X102672380Y-49319047D01*
X102672380Y-49033333D01*
X102624761Y-48938095D01*
X102577142Y-48890476D01*
X101672380Y-50414285D02*
X101672380Y-49938095D01*
X102148571Y-49890476D01*
X102100952Y-49938095D01*
X102053333Y-50033333D01*
X102053333Y-50271428D01*
X102100952Y-50366666D01*
X102148571Y-50414285D01*
X102243809Y-50461904D01*
X102481904Y-50461904D01*
X102577142Y-50414285D01*
X102624761Y-50366666D01*
X102672380Y-50271428D01*
X102672380Y-50033333D01*
X102624761Y-49938095D01*
X102577142Y-49890476D01*
X106042857Y-41627142D02*
X106090476Y-41674761D01*
X106233333Y-41722380D01*
X106328571Y-41722380D01*
X106471428Y-41674761D01*
X106566666Y-41579523D01*
X106614285Y-41484285D01*
X106661904Y-41293809D01*
X106661904Y-41150952D01*
X106614285Y-40960476D01*
X106566666Y-40865238D01*
X106471428Y-40770000D01*
X106328571Y-40722380D01*
X106233333Y-40722380D01*
X106090476Y-40770000D01*
X106042857Y-40817619D01*
X105709523Y-40722380D02*
X105090476Y-40722380D01*
X105423809Y-41103333D01*
X105280952Y-41103333D01*
X105185714Y-41150952D01*
X105138095Y-41198571D01*
X105090476Y-41293809D01*
X105090476Y-41531904D01*
X105138095Y-41627142D01*
X105185714Y-41674761D01*
X105280952Y-41722380D01*
X105566666Y-41722380D01*
X105661904Y-41674761D01*
X105709523Y-41627142D01*
X104233333Y-41055714D02*
X104233333Y-41722380D01*
X104471428Y-40674761D02*
X104709523Y-41389047D01*
X104090476Y-41389047D01*
X94042857Y-48357142D02*
X94090476Y-48404761D01*
X94233333Y-48452380D01*
X94328571Y-48452380D01*
X94471428Y-48404761D01*
X94566666Y-48309523D01*
X94614285Y-48214285D01*
X94661904Y-48023809D01*
X94661904Y-47880952D01*
X94614285Y-47690476D01*
X94566666Y-47595238D01*
X94471428Y-47500000D01*
X94328571Y-47452380D01*
X94233333Y-47452380D01*
X94090476Y-47500000D01*
X94042857Y-47547619D01*
X93709523Y-47452380D02*
X93090476Y-47452380D01*
X93423809Y-47833333D01*
X93280952Y-47833333D01*
X93185714Y-47880952D01*
X93138095Y-47928571D01*
X93090476Y-48023809D01*
X93090476Y-48261904D01*
X93138095Y-48357142D01*
X93185714Y-48404761D01*
X93280952Y-48452380D01*
X93566666Y-48452380D01*
X93661904Y-48404761D01*
X93709523Y-48357142D01*
X92757142Y-47452380D02*
X92138095Y-47452380D01*
X92471428Y-47833333D01*
X92328571Y-47833333D01*
X92233333Y-47880952D01*
X92185714Y-47928571D01*
X92138095Y-48023809D01*
X92138095Y-48261904D01*
X92185714Y-48357142D01*
X92233333Y-48404761D01*
X92328571Y-48452380D01*
X92614285Y-48452380D01*
X92709523Y-48404761D01*
X92757142Y-48357142D01*
X94042857Y-44857142D02*
X94090476Y-44904761D01*
X94233333Y-44952380D01*
X94328571Y-44952380D01*
X94471428Y-44904761D01*
X94566666Y-44809523D01*
X94614285Y-44714285D01*
X94661904Y-44523809D01*
X94661904Y-44380952D01*
X94614285Y-44190476D01*
X94566666Y-44095238D01*
X94471428Y-44000000D01*
X94328571Y-43952380D01*
X94233333Y-43952380D01*
X94090476Y-44000000D01*
X94042857Y-44047619D01*
X93709523Y-43952380D02*
X93090476Y-43952380D01*
X93423809Y-44333333D01*
X93280952Y-44333333D01*
X93185714Y-44380952D01*
X93138095Y-44428571D01*
X93090476Y-44523809D01*
X93090476Y-44761904D01*
X93138095Y-44857142D01*
X93185714Y-44904761D01*
X93280952Y-44952380D01*
X93566666Y-44952380D01*
X93661904Y-44904761D01*
X93709523Y-44857142D01*
X92709523Y-44047619D02*
X92661904Y-44000000D01*
X92566666Y-43952380D01*
X92328571Y-43952380D01*
X92233333Y-44000000D01*
X92185714Y-44047619D01*
X92138095Y-44142857D01*
X92138095Y-44238095D01*
X92185714Y-44380952D01*
X92757142Y-44952380D01*
X92138095Y-44952380D01*
X99257142Y-36857142D02*
X99304761Y-36809523D01*
X99352380Y-36666666D01*
X99352380Y-36571428D01*
X99304761Y-36428571D01*
X99209523Y-36333333D01*
X99114285Y-36285714D01*
X98923809Y-36238095D01*
X98780952Y-36238095D01*
X98590476Y-36285714D01*
X98495238Y-36333333D01*
X98400000Y-36428571D01*
X98352380Y-36571428D01*
X98352380Y-36666666D01*
X98400000Y-36809523D01*
X98447619Y-36857142D01*
X98352380Y-37190476D02*
X98352380Y-37809523D01*
X98733333Y-37476190D01*
X98733333Y-37619047D01*
X98780952Y-37714285D01*
X98828571Y-37761904D01*
X98923809Y-37809523D01*
X99161904Y-37809523D01*
X99257142Y-37761904D01*
X99304761Y-37714285D01*
X99352380Y-37619047D01*
X99352380Y-37333333D01*
X99304761Y-37238095D01*
X99257142Y-37190476D01*
X99352380Y-38761904D02*
X99352380Y-38190476D01*
X99352380Y-38476190D02*
X98352380Y-38476190D01*
X98495238Y-38380952D01*
X98590476Y-38285714D01*
X98638095Y-38190476D01*
X86842857Y-43157142D02*
X86890476Y-43204761D01*
X87033333Y-43252380D01*
X87128571Y-43252380D01*
X87271428Y-43204761D01*
X87366666Y-43109523D01*
X87414285Y-43014285D01*
X87461904Y-42823809D01*
X87461904Y-42680952D01*
X87414285Y-42490476D01*
X87366666Y-42395238D01*
X87271428Y-42300000D01*
X87128571Y-42252380D01*
X87033333Y-42252380D01*
X86890476Y-42300000D01*
X86842857Y-42347619D01*
X86509523Y-42252380D02*
X85890476Y-42252380D01*
X86223809Y-42633333D01*
X86080952Y-42633333D01*
X85985714Y-42680952D01*
X85938095Y-42728571D01*
X85890476Y-42823809D01*
X85890476Y-43061904D01*
X85938095Y-43157142D01*
X85985714Y-43204761D01*
X86080952Y-43252380D01*
X86366666Y-43252380D01*
X86461904Y-43204761D01*
X86509523Y-43157142D01*
X85271428Y-42252380D02*
X85176190Y-42252380D01*
X85080952Y-42300000D01*
X85033333Y-42347619D01*
X84985714Y-42442857D01*
X84938095Y-42633333D01*
X84938095Y-42871428D01*
X84985714Y-43061904D01*
X85033333Y-43157142D01*
X85080952Y-43204761D01*
X85176190Y-43252380D01*
X85271428Y-43252380D01*
X85366666Y-43204761D01*
X85414285Y-43157142D01*
X85461904Y-43061904D01*
X85509523Y-42871428D01*
X85509523Y-42633333D01*
X85461904Y-42442857D01*
X85414285Y-42347619D01*
X85366666Y-42300000D01*
X85271428Y-42252380D01*
X86842857Y-44657142D02*
X86890476Y-44704761D01*
X87033333Y-44752380D01*
X87128571Y-44752380D01*
X87271428Y-44704761D01*
X87366666Y-44609523D01*
X87414285Y-44514285D01*
X87461904Y-44323809D01*
X87461904Y-44180952D01*
X87414285Y-43990476D01*
X87366666Y-43895238D01*
X87271428Y-43800000D01*
X87128571Y-43752380D01*
X87033333Y-43752380D01*
X86890476Y-43800000D01*
X86842857Y-43847619D01*
X86461904Y-43847619D02*
X86414285Y-43800000D01*
X86319047Y-43752380D01*
X86080952Y-43752380D01*
X85985714Y-43800000D01*
X85938095Y-43847619D01*
X85890476Y-43942857D01*
X85890476Y-44038095D01*
X85938095Y-44180952D01*
X86509523Y-44752380D01*
X85890476Y-44752380D01*
X85414285Y-44752380D02*
X85223809Y-44752380D01*
X85128571Y-44704761D01*
X85080952Y-44657142D01*
X84985714Y-44514285D01*
X84938095Y-44323809D01*
X84938095Y-43942857D01*
X84985714Y-43847619D01*
X85033333Y-43800000D01*
X85128571Y-43752380D01*
X85319047Y-43752380D01*
X85414285Y-43800000D01*
X85461904Y-43847619D01*
X85509523Y-43942857D01*
X85509523Y-44180952D01*
X85461904Y-44276190D01*
X85414285Y-44323809D01*
X85319047Y-44371428D01*
X85128571Y-44371428D01*
X85033333Y-44323809D01*
X84985714Y-44276190D01*
X84938095Y-44180952D01*
X96952380Y-61285714D02*
X95952380Y-61285714D01*
X95952380Y-61523809D01*
X96000000Y-61666666D01*
X96095238Y-61761904D01*
X96190476Y-61809523D01*
X96380952Y-61857142D01*
X96523809Y-61857142D01*
X96714285Y-61809523D01*
X96809523Y-61761904D01*
X96904761Y-61666666D01*
X96952380Y-61523809D01*
X96952380Y-61285714D01*
X95952380Y-62190476D02*
X95952380Y-62809523D01*
X96333333Y-62476190D01*
X96333333Y-62619047D01*
X96380952Y-62714285D01*
X96428571Y-62761904D01*
X96523809Y-62809523D01*
X96761904Y-62809523D01*
X96857142Y-62761904D01*
X96904761Y-62714285D01*
X96952380Y-62619047D01*
X96952380Y-62333333D01*
X96904761Y-62238095D01*
X96857142Y-62190476D01*
X96952380Y-63285714D02*
X96952380Y-63476190D01*
X96904761Y-63571428D01*
X96857142Y-63619047D01*
X96714285Y-63714285D01*
X96523809Y-63761904D01*
X96142857Y-63761904D01*
X96047619Y-63714285D01*
X96000000Y-63666666D01*
X95952380Y-63571428D01*
X95952380Y-63380952D01*
X96000000Y-63285714D01*
X96047619Y-63238095D01*
X96142857Y-63190476D01*
X96380952Y-63190476D01*
X96476190Y-63238095D01*
X96523809Y-63285714D01*
X96571428Y-63380952D01*
X96571428Y-63571428D01*
X96523809Y-63666666D01*
X96476190Y-63714285D01*
X96380952Y-63761904D01*
X98952380Y-61857142D02*
X98476190Y-61523809D01*
X98952380Y-61285714D02*
X97952380Y-61285714D01*
X97952380Y-61666666D01*
X98000000Y-61761904D01*
X98047619Y-61809523D01*
X98142857Y-61857142D01*
X98285714Y-61857142D01*
X98380952Y-61809523D01*
X98428571Y-61761904D01*
X98476190Y-61666666D01*
X98476190Y-61285714D01*
X97952380Y-62190476D02*
X97952380Y-62809523D01*
X98333333Y-62476190D01*
X98333333Y-62619047D01*
X98380952Y-62714285D01*
X98428571Y-62761904D01*
X98523809Y-62809523D01*
X98761904Y-62809523D01*
X98857142Y-62761904D01*
X98904761Y-62714285D01*
X98952380Y-62619047D01*
X98952380Y-62333333D01*
X98904761Y-62238095D01*
X98857142Y-62190476D01*
X98285714Y-63666666D02*
X98952380Y-63666666D01*
X97904761Y-63428571D02*
X98619047Y-63190476D01*
X98619047Y-63809523D01*
X91142857Y-57022380D02*
X91476190Y-56546190D01*
X91714285Y-57022380D02*
X91714285Y-56022380D01*
X91333333Y-56022380D01*
X91238095Y-56070000D01*
X91190476Y-56117619D01*
X91142857Y-56212857D01*
X91142857Y-56355714D01*
X91190476Y-56450952D01*
X91238095Y-56498571D01*
X91333333Y-56546190D01*
X91714285Y-56546190D01*
X90809523Y-56022380D02*
X90190476Y-56022380D01*
X90523809Y-56403333D01*
X90380952Y-56403333D01*
X90285714Y-56450952D01*
X90238095Y-56498571D01*
X90190476Y-56593809D01*
X90190476Y-56831904D01*
X90238095Y-56927142D01*
X90285714Y-56974761D01*
X90380952Y-57022380D01*
X90666666Y-57022380D01*
X90761904Y-56974761D01*
X90809523Y-56927142D01*
X89857142Y-56022380D02*
X89238095Y-56022380D01*
X89571428Y-56403333D01*
X89428571Y-56403333D01*
X89333333Y-56450952D01*
X89285714Y-56498571D01*
X89238095Y-56593809D01*
X89238095Y-56831904D01*
X89285714Y-56927142D01*
X89333333Y-56974761D01*
X89428571Y-57022380D01*
X89714285Y-57022380D01*
X89809523Y-56974761D01*
X89857142Y-56927142D01*
X91428571Y-69166666D02*
X91476190Y-69309523D01*
X91523809Y-69357142D01*
X91619047Y-69404761D01*
X91761904Y-69404761D01*
X91857142Y-69357142D01*
X91904761Y-69309523D01*
X91952380Y-69214285D01*
X91952380Y-68833333D01*
X90952380Y-68833333D01*
X90952380Y-69166666D01*
X91000000Y-69261904D01*
X91047619Y-69309523D01*
X91142857Y-69357142D01*
X91238095Y-69357142D01*
X91333333Y-69309523D01*
X91380952Y-69261904D01*
X91428571Y-69166666D01*
X91428571Y-68833333D01*
X90952380Y-70023809D02*
X90952380Y-70214285D01*
X91000000Y-70309523D01*
X91095238Y-70404761D01*
X91285714Y-70452380D01*
X91619047Y-70452380D01*
X91809523Y-70404761D01*
X91904761Y-70309523D01*
X91952380Y-70214285D01*
X91952380Y-70023809D01*
X91904761Y-69928571D01*
X91809523Y-69833333D01*
X91619047Y-69785714D01*
X91285714Y-69785714D01*
X91095238Y-69833333D01*
X91000000Y-69928571D01*
X90952380Y-70023809D01*
X90952380Y-71071428D02*
X90952380Y-71261904D01*
X91000000Y-71357142D01*
X91095238Y-71452380D01*
X91285714Y-71500000D01*
X91619047Y-71500000D01*
X91809523Y-71452380D01*
X91904761Y-71357142D01*
X91952380Y-71261904D01*
X91952380Y-71071428D01*
X91904761Y-70976190D01*
X91809523Y-70880952D01*
X91619047Y-70833333D01*
X91285714Y-70833333D01*
X91095238Y-70880952D01*
X91000000Y-70976190D01*
X90952380Y-71071428D01*
X90952380Y-71785714D02*
X90952380Y-72357142D01*
X91952380Y-72071428D02*
X90952380Y-72071428D01*
X91952380Y-73214285D02*
X91952380Y-72642857D01*
X91952380Y-72928571D02*
X90952380Y-72928571D01*
X91095238Y-72833333D01*
X91190476Y-72738095D01*
X91238095Y-72642857D01*
X98428571Y-71166666D02*
X98476190Y-71309523D01*
X98523809Y-71357142D01*
X98619047Y-71404761D01*
X98761904Y-71404761D01*
X98857142Y-71357142D01*
X98904761Y-71309523D01*
X98952380Y-71214285D01*
X98952380Y-70833333D01*
X97952380Y-70833333D01*
X97952380Y-71166666D01*
X98000000Y-71261904D01*
X98047619Y-71309523D01*
X98142857Y-71357142D01*
X98238095Y-71357142D01*
X98333333Y-71309523D01*
X98380952Y-71261904D01*
X98428571Y-71166666D01*
X98428571Y-70833333D01*
X97952380Y-72023809D02*
X97952380Y-72214285D01*
X98000000Y-72309523D01*
X98095238Y-72404761D01*
X98285714Y-72452380D01*
X98619047Y-72452380D01*
X98809523Y-72404761D01*
X98904761Y-72309523D01*
X98952380Y-72214285D01*
X98952380Y-72023809D01*
X98904761Y-71928571D01*
X98809523Y-71833333D01*
X98619047Y-71785714D01*
X98285714Y-71785714D01*
X98095238Y-71833333D01*
X98000000Y-71928571D01*
X97952380Y-72023809D01*
X97952380Y-73071428D02*
X97952380Y-73261904D01*
X98000000Y-73357142D01*
X98095238Y-73452380D01*
X98285714Y-73500000D01*
X98619047Y-73500000D01*
X98809523Y-73452380D01*
X98904761Y-73357142D01*
X98952380Y-73261904D01*
X98952380Y-73071428D01*
X98904761Y-72976190D01*
X98809523Y-72880952D01*
X98619047Y-72833333D01*
X98285714Y-72833333D01*
X98095238Y-72880952D01*
X98000000Y-72976190D01*
X97952380Y-73071428D01*
X97952380Y-73785714D02*
X97952380Y-74357142D01*
X98952380Y-74071428D02*
X97952380Y-74071428D01*
X97952380Y-74880952D02*
X97952380Y-74976190D01*
X98000000Y-75071428D01*
X98047619Y-75119047D01*
X98142857Y-75166666D01*
X98333333Y-75214285D01*
X98571428Y-75214285D01*
X98761904Y-75166666D01*
X98857142Y-75119047D01*
X98904761Y-75071428D01*
X98952380Y-74976190D01*
X98952380Y-74880952D01*
X98904761Y-74785714D01*
X98857142Y-74738095D01*
X98761904Y-74690476D01*
X98571428Y-74642857D01*
X98333333Y-74642857D01*
X98142857Y-74690476D01*
X98047619Y-74738095D01*
X98000000Y-74785714D01*
X97952380Y-74880952D01*
X98904761Y-58087714D02*
X98952380Y-58230571D01*
X98952380Y-58468666D01*
X98904761Y-58563904D01*
X98857142Y-58611523D01*
X98761904Y-58659142D01*
X98666666Y-58659142D01*
X98571428Y-58611523D01*
X98523809Y-58563904D01*
X98476190Y-58468666D01*
X98428571Y-58278190D01*
X98380952Y-58182952D01*
X98333333Y-58135333D01*
X98238095Y-58087714D01*
X98142857Y-58087714D01*
X98047619Y-58135333D01*
X98000000Y-58182952D01*
X97952380Y-58278190D01*
X97952380Y-58516285D01*
X98000000Y-58659142D01*
X98952380Y-59087714D02*
X97952380Y-59087714D01*
X97952380Y-59325809D01*
X98000000Y-59468666D01*
X98095238Y-59563904D01*
X98190476Y-59611523D01*
X98380952Y-59659142D01*
X98523809Y-59659142D01*
X98714285Y-59611523D01*
X98809523Y-59563904D01*
X98904761Y-59468666D01*
X98952380Y-59325809D01*
X98952380Y-59087714D01*
X98666666Y-60040095D02*
X98666666Y-60516285D01*
X98952380Y-59944857D02*
X97952380Y-60278190D01*
X98952380Y-60611523D01*
X101444761Y-58111523D02*
X101492380Y-58254380D01*
X101492380Y-58492476D01*
X101444761Y-58587714D01*
X101397142Y-58635333D01*
X101301904Y-58682952D01*
X101206666Y-58682952D01*
X101111428Y-58635333D01*
X101063809Y-58587714D01*
X101016190Y-58492476D01*
X100968571Y-58302000D01*
X100920952Y-58206761D01*
X100873333Y-58159142D01*
X100778095Y-58111523D01*
X100682857Y-58111523D01*
X100587619Y-58159142D01*
X100540000Y-58206761D01*
X100492380Y-58302000D01*
X100492380Y-58540095D01*
X100540000Y-58682952D01*
X101397142Y-59682952D02*
X101444761Y-59635333D01*
X101492380Y-59492476D01*
X101492380Y-59397238D01*
X101444761Y-59254380D01*
X101349523Y-59159142D01*
X101254285Y-59111523D01*
X101063809Y-59063904D01*
X100920952Y-59063904D01*
X100730476Y-59111523D01*
X100635238Y-59159142D01*
X100540000Y-59254380D01*
X100492380Y-59397238D01*
X100492380Y-59492476D01*
X100540000Y-59635333D01*
X100587619Y-59682952D01*
X101492380Y-60587714D02*
X101492380Y-60111523D01*
X100492380Y-60111523D01*
X99287142Y-76099642D02*
X99334761Y-76052023D01*
X99382380Y-75909166D01*
X99382380Y-75813928D01*
X99334761Y-75671071D01*
X99239523Y-75575833D01*
X99144285Y-75528214D01*
X98953809Y-75480595D01*
X98810952Y-75480595D01*
X98620476Y-75528214D01*
X98525238Y-75575833D01*
X98430000Y-75671071D01*
X98382380Y-75813928D01*
X98382380Y-75909166D01*
X98430000Y-76052023D01*
X98477619Y-76099642D01*
X98382380Y-77004404D02*
X98382380Y-76528214D01*
X98858571Y-76480595D01*
X98810952Y-76528214D01*
X98763333Y-76623452D01*
X98763333Y-76861547D01*
X98810952Y-76956785D01*
X98858571Y-77004404D01*
X98953809Y-77052023D01*
X99191904Y-77052023D01*
X99287142Y-77004404D01*
X99334761Y-76956785D01*
X99382380Y-76861547D01*
X99382380Y-76623452D01*
X99334761Y-76528214D01*
X99287142Y-76480595D01*
X99382380Y-78004404D02*
X99382380Y-77432976D01*
X99382380Y-77718690D02*
X98382380Y-77718690D01*
X98525238Y-77623452D01*
X98620476Y-77528214D01*
X98668095Y-77432976D01*
X103642857Y-90357142D02*
X103690476Y-90404761D01*
X103833333Y-90452380D01*
X103928571Y-90452380D01*
X104071428Y-90404761D01*
X104166666Y-90309523D01*
X104214285Y-90214285D01*
X104261904Y-90023809D01*
X104261904Y-89880952D01*
X104214285Y-89690476D01*
X104166666Y-89595238D01*
X104071428Y-89500000D01*
X103928571Y-89452380D01*
X103833333Y-89452380D01*
X103690476Y-89500000D01*
X103642857Y-89547619D01*
X102738095Y-89452380D02*
X103214285Y-89452380D01*
X103261904Y-89928571D01*
X103214285Y-89880952D01*
X103119047Y-89833333D01*
X102880952Y-89833333D01*
X102785714Y-89880952D01*
X102738095Y-89928571D01*
X102690476Y-90023809D01*
X102690476Y-90261904D01*
X102738095Y-90357142D01*
X102785714Y-90404761D01*
X102880952Y-90452380D01*
X103119047Y-90452380D01*
X103214285Y-90404761D01*
X103261904Y-90357142D01*
X102071428Y-89452380D02*
X101976190Y-89452380D01*
X101880952Y-89500000D01*
X101833333Y-89547619D01*
X101785714Y-89642857D01*
X101738095Y-89833333D01*
X101738095Y-90071428D01*
X101785714Y-90261904D01*
X101833333Y-90357142D01*
X101880952Y-90404761D01*
X101976190Y-90452380D01*
X102071428Y-90452380D01*
X102166666Y-90404761D01*
X102214285Y-90357142D01*
X102261904Y-90261904D01*
X102309523Y-90071428D01*
X102309523Y-89833333D01*
X102261904Y-89642857D01*
X102214285Y-89547619D01*
X102166666Y-89500000D01*
X102071428Y-89452380D01*
X103142858Y-86357142D02*
X103190477Y-86404761D01*
X103333334Y-86452380D01*
X103428572Y-86452380D01*
X103571429Y-86404761D01*
X103666667Y-86309523D01*
X103714286Y-86214285D01*
X103761905Y-86023809D01*
X103761905Y-85880952D01*
X103714286Y-85690476D01*
X103666667Y-85595238D01*
X103571429Y-85500000D01*
X103428572Y-85452380D01*
X103333334Y-85452380D01*
X103190477Y-85500000D01*
X103142858Y-85547619D01*
X102285715Y-85785714D02*
X102285715Y-86452380D01*
X102523810Y-85404761D02*
X102761905Y-86119047D01*
X102142858Y-86119047D01*
X101714286Y-86452380D02*
X101523810Y-86452380D01*
X101428572Y-86404761D01*
X101380953Y-86357142D01*
X101285715Y-86214285D01*
X101238096Y-86023809D01*
X101238096Y-85642857D01*
X101285715Y-85547619D01*
X101333334Y-85500000D01*
X101428572Y-85452380D01*
X101619048Y-85452380D01*
X101714286Y-85500000D01*
X101761905Y-85547619D01*
X101809524Y-85642857D01*
X101809524Y-85880952D01*
X101761905Y-85976190D01*
X101714286Y-86023809D01*
X101619048Y-86071428D01*
X101428572Y-86071428D01*
X101333334Y-86023809D01*
X101285715Y-85976190D01*
X101238096Y-85880952D01*
X89342857Y-89157142D02*
X89390476Y-89204761D01*
X89533333Y-89252380D01*
X89628571Y-89252380D01*
X89771428Y-89204761D01*
X89866666Y-89109523D01*
X89914285Y-89014285D01*
X89961904Y-88823809D01*
X89961904Y-88680952D01*
X89914285Y-88490476D01*
X89866666Y-88395238D01*
X89771428Y-88300000D01*
X89628571Y-88252380D01*
X89533333Y-88252380D01*
X89390476Y-88300000D01*
X89342857Y-88347619D01*
X88485714Y-88585714D02*
X88485714Y-89252380D01*
X88723809Y-88204761D02*
X88961904Y-88919047D01*
X88342857Y-88919047D01*
X87819047Y-88680952D02*
X87914285Y-88633333D01*
X87961904Y-88585714D01*
X88009523Y-88490476D01*
X88009523Y-88442857D01*
X87961904Y-88347619D01*
X87914285Y-88300000D01*
X87819047Y-88252380D01*
X87628571Y-88252380D01*
X87533333Y-88300000D01*
X87485714Y-88347619D01*
X87438095Y-88442857D01*
X87438095Y-88490476D01*
X87485714Y-88585714D01*
X87533333Y-88633333D01*
X87628571Y-88680952D01*
X87819047Y-88680952D01*
X87914285Y-88728571D01*
X87961904Y-88776190D01*
X88009523Y-88871428D01*
X88009523Y-89061904D01*
X87961904Y-89157142D01*
X87914285Y-89204761D01*
X87819047Y-89252380D01*
X87628571Y-89252380D01*
X87533333Y-89204761D01*
X87485714Y-89157142D01*
X87438095Y-89061904D01*
X87438095Y-88871428D01*
X87485714Y-88776190D01*
X87533333Y-88728571D01*
X87628571Y-88680952D01*
X89342857Y-87682142D02*
X89390476Y-87729761D01*
X89533333Y-87777380D01*
X89628571Y-87777380D01*
X89771428Y-87729761D01*
X89866666Y-87634523D01*
X89914285Y-87539285D01*
X89961904Y-87348809D01*
X89961904Y-87205952D01*
X89914285Y-87015476D01*
X89866666Y-86920238D01*
X89771428Y-86825000D01*
X89628571Y-86777380D01*
X89533333Y-86777380D01*
X89390476Y-86825000D01*
X89342857Y-86872619D01*
X88485714Y-87110714D02*
X88485714Y-87777380D01*
X88723809Y-86729761D02*
X88961904Y-87444047D01*
X88342857Y-87444047D01*
X88057142Y-86777380D02*
X87390476Y-86777380D01*
X87819047Y-87777380D01*
X100142857Y-68927142D02*
X100190476Y-68974761D01*
X100333333Y-69022380D01*
X100428571Y-69022380D01*
X100571428Y-68974761D01*
X100666666Y-68879523D01*
X100714285Y-68784285D01*
X100761904Y-68593809D01*
X100761904Y-68450952D01*
X100714285Y-68260476D01*
X100666666Y-68165238D01*
X100571428Y-68070000D01*
X100428571Y-68022380D01*
X100333333Y-68022380D01*
X100190476Y-68070000D01*
X100142857Y-68117619D01*
X99285714Y-68355714D02*
X99285714Y-69022380D01*
X99523809Y-67974761D02*
X99761904Y-68689047D01*
X99142857Y-68689047D01*
X98333333Y-68022380D02*
X98523809Y-68022380D01*
X98619047Y-68070000D01*
X98666666Y-68117619D01*
X98761904Y-68260476D01*
X98809523Y-68450952D01*
X98809523Y-68831904D01*
X98761904Y-68927142D01*
X98714285Y-68974761D01*
X98619047Y-69022380D01*
X98428571Y-69022380D01*
X98333333Y-68974761D01*
X98285714Y-68927142D01*
X98238095Y-68831904D01*
X98238095Y-68593809D01*
X98285714Y-68498571D01*
X98333333Y-68450952D01*
X98428571Y-68403333D01*
X98619047Y-68403333D01*
X98714285Y-68450952D01*
X98761904Y-68498571D01*
X98809523Y-68593809D01*
X91427142Y-67357142D02*
X91474761Y-67309523D01*
X91522380Y-67166666D01*
X91522380Y-67071428D01*
X91474761Y-66928571D01*
X91379523Y-66833333D01*
X91284285Y-66785714D01*
X91093809Y-66738095D01*
X90950952Y-66738095D01*
X90760476Y-66785714D01*
X90665238Y-66833333D01*
X90570000Y-66928571D01*
X90522380Y-67071428D01*
X90522380Y-67166666D01*
X90570000Y-67309523D01*
X90617619Y-67357142D01*
X90855714Y-68214285D02*
X91522380Y-68214285D01*
X90474761Y-67976190D02*
X91189047Y-67738095D01*
X91189047Y-68357142D01*
X90522380Y-69214285D02*
X90522380Y-68738095D01*
X90998571Y-68690476D01*
X90950952Y-68738095D01*
X90903333Y-68833333D01*
X90903333Y-69071428D01*
X90950952Y-69166666D01*
X90998571Y-69214285D01*
X91093809Y-69261904D01*
X91331904Y-69261904D01*
X91427142Y-69214285D01*
X91474761Y-69166666D01*
X91522380Y-69071428D01*
X91522380Y-68833333D01*
X91474761Y-68738095D01*
X91427142Y-68690476D01*
X87642857Y-73857142D02*
X87690476Y-73904761D01*
X87833333Y-73952380D01*
X87928571Y-73952380D01*
X88071428Y-73904761D01*
X88166666Y-73809523D01*
X88214285Y-73714285D01*
X88261904Y-73523809D01*
X88261904Y-73380952D01*
X88214285Y-73190476D01*
X88166666Y-73095238D01*
X88071428Y-73000000D01*
X87928571Y-72952380D01*
X87833333Y-72952380D01*
X87690476Y-73000000D01*
X87642857Y-73047619D01*
X86785714Y-73285714D02*
X86785714Y-73952380D01*
X87023809Y-72904761D02*
X87261904Y-73619047D01*
X86642857Y-73619047D01*
X85833333Y-73285714D02*
X85833333Y-73952380D01*
X86071428Y-72904761D02*
X86309523Y-73619047D01*
X85690476Y-73619047D01*
X91142857Y-59927142D02*
X91190476Y-59974761D01*
X91333333Y-60022380D01*
X91428571Y-60022380D01*
X91571428Y-59974761D01*
X91666666Y-59879523D01*
X91714285Y-59784285D01*
X91761904Y-59593809D01*
X91761904Y-59450952D01*
X91714285Y-59260476D01*
X91666666Y-59165238D01*
X91571428Y-59070000D01*
X91428571Y-59022380D01*
X91333333Y-59022380D01*
X91190476Y-59070000D01*
X91142857Y-59117619D01*
X90285714Y-59355714D02*
X90285714Y-60022380D01*
X90523809Y-58974761D02*
X90761904Y-59689047D01*
X90142857Y-59689047D01*
X89857142Y-59022380D02*
X89238095Y-59022380D01*
X89571428Y-59403333D01*
X89428571Y-59403333D01*
X89333333Y-59450952D01*
X89285714Y-59498571D01*
X89238095Y-59593809D01*
X89238095Y-59831904D01*
X89285714Y-59927142D01*
X89333333Y-59974761D01*
X89428571Y-60022380D01*
X89714285Y-60022380D01*
X89809523Y-59974761D01*
X89857142Y-59927142D01*
X100857141Y-80357142D02*
X100904760Y-80309523D01*
X100952379Y-80166666D01*
X100952379Y-80071428D01*
X100904760Y-79928571D01*
X100809522Y-79833333D01*
X100714284Y-79785714D01*
X100523808Y-79738095D01*
X100380951Y-79738095D01*
X100190475Y-79785714D01*
X100095237Y-79833333D01*
X99999999Y-79928571D01*
X99952379Y-80071428D01*
X99952379Y-80166666D01*
X99999999Y-80309523D01*
X100047618Y-80357142D01*
X100285713Y-81214285D02*
X100952379Y-81214285D01*
X99904760Y-80976190D02*
X100619046Y-80738095D01*
X100619046Y-81357142D01*
X100047618Y-81690476D02*
X99999999Y-81738095D01*
X99952379Y-81833333D01*
X99952379Y-82071428D01*
X99999999Y-82166666D01*
X100047618Y-82214285D01*
X100142856Y-82261904D01*
X100238094Y-82261904D01*
X100380951Y-82214285D01*
X100952379Y-81642857D01*
X100952379Y-82261904D01*
X109306761Y-94838023D02*
X109354380Y-94980880D01*
X109354380Y-95218976D01*
X109306761Y-95314214D01*
X109259142Y-95361833D01*
X109163904Y-95409452D01*
X109068666Y-95409452D01*
X108973428Y-95361833D01*
X108925809Y-95314214D01*
X108878190Y-95218976D01*
X108830571Y-95028500D01*
X108782952Y-94933261D01*
X108735333Y-94885642D01*
X108640095Y-94838023D01*
X108544857Y-94838023D01*
X108449619Y-94885642D01*
X108402000Y-94933261D01*
X108354380Y-95028500D01*
X108354380Y-95266595D01*
X108402000Y-95409452D01*
X109259142Y-96409452D02*
X109306761Y-96361833D01*
X109354380Y-96218976D01*
X109354380Y-96123738D01*
X109306761Y-95980880D01*
X109211523Y-95885642D01*
X109116285Y-95838023D01*
X108925809Y-95790404D01*
X108782952Y-95790404D01*
X108592476Y-95838023D01*
X108497238Y-95885642D01*
X108402000Y-95980880D01*
X108354380Y-96123738D01*
X108354380Y-96218976D01*
X108402000Y-96361833D01*
X108449619Y-96409452D01*
X109354380Y-97314214D02*
X109354380Y-96838023D01*
X108354380Y-96838023D01*
X107972761Y-94814214D02*
X108020380Y-94957071D01*
X108020380Y-95195166D01*
X107972761Y-95290404D01*
X107925142Y-95338023D01*
X107829904Y-95385642D01*
X107734666Y-95385642D01*
X107639428Y-95338023D01*
X107591809Y-95290404D01*
X107544190Y-95195166D01*
X107496571Y-95004690D01*
X107448952Y-94909452D01*
X107401333Y-94861833D01*
X107306095Y-94814214D01*
X107210857Y-94814214D01*
X107115619Y-94861833D01*
X107068000Y-94909452D01*
X107020380Y-95004690D01*
X107020380Y-95242785D01*
X107068000Y-95385642D01*
X108020380Y-95814214D02*
X107020380Y-95814214D01*
X107020380Y-96052309D01*
X107068000Y-96195166D01*
X107163238Y-96290404D01*
X107258476Y-96338023D01*
X107448952Y-96385642D01*
X107591809Y-96385642D01*
X107782285Y-96338023D01*
X107877523Y-96290404D01*
X107972761Y-96195166D01*
X108020380Y-96052309D01*
X108020380Y-95814214D01*
X107734666Y-96766595D02*
X107734666Y-97242785D01*
X108020380Y-96671357D02*
X107020380Y-97004690D01*
X108020380Y-97338023D01*
X111450000Y-95266595D02*
X111402380Y-95171357D01*
X111402380Y-95028500D01*
X111450000Y-94885642D01*
X111545238Y-94790404D01*
X111640476Y-94742785D01*
X111830952Y-94695166D01*
X111973809Y-94695166D01*
X112164285Y-94742785D01*
X112259523Y-94790404D01*
X112354761Y-94885642D01*
X112402380Y-95028500D01*
X112402380Y-95123738D01*
X112354761Y-95266595D01*
X112307142Y-95314214D01*
X111973809Y-95314214D01*
X111973809Y-95123738D01*
X112402380Y-95742785D02*
X111402380Y-95742785D01*
X112402380Y-96314214D01*
X111402380Y-96314214D01*
X112402380Y-96790404D02*
X111402380Y-96790404D01*
X111402380Y-97028500D01*
X111450000Y-97171357D01*
X111545238Y-97266595D01*
X111640476Y-97314214D01*
X111830952Y-97361833D01*
X111973809Y-97361833D01*
X112164285Y-97314214D01*
X112259523Y-97266595D01*
X112354761Y-97171357D01*
X112402380Y-97028500D01*
X112402380Y-96790404D01*
X109878380Y-94695166D02*
X110878380Y-95028500D01*
X109878380Y-95361833D01*
X110783142Y-96266595D02*
X110830761Y-96218976D01*
X110878380Y-96076119D01*
X110878380Y-95980880D01*
X110830761Y-95838023D01*
X110735523Y-95742785D01*
X110640285Y-95695166D01*
X110449809Y-95647547D01*
X110306952Y-95647547D01*
X110116476Y-95695166D01*
X110021238Y-95742785D01*
X109926000Y-95838023D01*
X109878380Y-95980880D01*
X109878380Y-96076119D01*
X109926000Y-96218976D01*
X109973619Y-96266595D01*
X110783142Y-97266595D02*
X110830761Y-97218976D01*
X110878380Y-97076119D01*
X110878380Y-96980880D01*
X110830761Y-96838023D01*
X110735523Y-96742785D01*
X110640285Y-96695166D01*
X110449809Y-96647547D01*
X110306952Y-96647547D01*
X110116476Y-96695166D01*
X110021238Y-96742785D01*
X109926000Y-96838023D01*
X109878380Y-96980880D01*
X109878380Y-97076119D01*
X109926000Y-97218976D01*
X109973619Y-97266595D01*
X97112285Y-99804761D02*
X96969428Y-99852380D01*
X96731333Y-99852380D01*
X96636095Y-99804761D01*
X96588476Y-99757142D01*
X96540857Y-99661904D01*
X96540857Y-99566666D01*
X96588476Y-99471428D01*
X96636095Y-99423809D01*
X96731333Y-99376190D01*
X96921809Y-99328571D01*
X97017047Y-99280952D01*
X97064666Y-99233333D01*
X97112285Y-99138095D01*
X97112285Y-99042857D01*
X97064666Y-98947619D01*
X97017047Y-98900000D01*
X96921809Y-98852380D01*
X96683714Y-98852380D01*
X96540857Y-98900000D01*
X96112285Y-99852380D02*
X96112285Y-98852380D01*
X95874190Y-98852380D01*
X95731333Y-98900000D01*
X95636095Y-98995238D01*
X95588476Y-99090476D01*
X95540857Y-99280952D01*
X95540857Y-99423809D01*
X95588476Y-99614285D01*
X95636095Y-99709523D01*
X95731333Y-99804761D01*
X95874190Y-99852380D01*
X96112285Y-99852380D01*
X95159904Y-99566666D02*
X94683714Y-99566666D01*
X95255142Y-99852380D02*
X94921809Y-98852380D01*
X94588476Y-99852380D01*
X97088476Y-102344761D02*
X96945619Y-102392380D01*
X96707523Y-102392380D01*
X96612285Y-102344761D01*
X96564666Y-102297142D01*
X96517047Y-102201904D01*
X96517047Y-102106666D01*
X96564666Y-102011428D01*
X96612285Y-101963809D01*
X96707523Y-101916190D01*
X96898000Y-101868571D01*
X96993238Y-101820952D01*
X97040857Y-101773333D01*
X97088476Y-101678095D01*
X97088476Y-101582857D01*
X97040857Y-101487619D01*
X96993238Y-101440000D01*
X96898000Y-101392380D01*
X96659904Y-101392380D01*
X96517047Y-101440000D01*
X95517047Y-102297142D02*
X95564666Y-102344761D01*
X95707523Y-102392380D01*
X95802761Y-102392380D01*
X95945619Y-102344761D01*
X96040857Y-102249523D01*
X96088476Y-102154285D01*
X96136095Y-101963809D01*
X96136095Y-101820952D01*
X96088476Y-101630476D01*
X96040857Y-101535238D01*
X95945619Y-101440000D01*
X95802761Y-101392380D01*
X95707523Y-101392380D01*
X95564666Y-101440000D01*
X95517047Y-101487619D01*
X94612285Y-102392380D02*
X95088476Y-102392380D01*
X95088476Y-101392380D01*
X52952380Y-21738095D02*
X53761904Y-21738095D01*
X53857142Y-21785714D01*
X53904761Y-21833333D01*
X53952380Y-21928571D01*
X53952380Y-22119047D01*
X53904761Y-22214285D01*
X53857142Y-22261904D01*
X53761904Y-22309523D01*
X52952380Y-22309523D01*
X53047619Y-22738095D02*
X53000000Y-22785714D01*
X52952380Y-22880952D01*
X52952380Y-23119047D01*
X53000000Y-23214285D01*
X53047619Y-23261904D01*
X53142857Y-23309523D01*
X53238095Y-23309523D01*
X53380952Y-23261904D01*
X53952380Y-22690476D01*
X53952380Y-23309523D01*
X75322380Y-28083333D02*
X74846190Y-27750000D01*
X75322380Y-27511904D02*
X74322380Y-27511904D01*
X74322380Y-27892857D01*
X74370000Y-27988095D01*
X74417619Y-28035714D01*
X74512857Y-28083333D01*
X74655714Y-28083333D01*
X74750952Y-28035714D01*
X74798571Y-27988095D01*
X74846190Y-27892857D01*
X74846190Y-27511904D01*
X74322380Y-28940476D02*
X74322380Y-28750000D01*
X74370000Y-28654761D01*
X74417619Y-28607142D01*
X74560476Y-28511904D01*
X74750952Y-28464285D01*
X75131904Y-28464285D01*
X75227142Y-28511904D01*
X75274761Y-28559523D01*
X75322380Y-28654761D01*
X75322380Y-28845238D01*
X75274761Y-28940476D01*
X75227142Y-28988095D01*
X75131904Y-29035714D01*
X74893809Y-29035714D01*
X74798571Y-28988095D01*
X74750952Y-28940476D01*
X74703333Y-28845238D01*
X74703333Y-28654761D01*
X74750952Y-28559523D01*
X74798571Y-28511904D01*
X74893809Y-28464285D01*
X73862380Y-28233334D02*
X73386190Y-27900001D01*
X73862380Y-27661905D02*
X72862380Y-27661905D01*
X72862380Y-28042858D01*
X72910000Y-28138096D01*
X72957619Y-28185715D01*
X73052857Y-28233334D01*
X73195714Y-28233334D01*
X73290952Y-28185715D01*
X73338571Y-28138096D01*
X73386190Y-28042858D01*
X73386190Y-27661905D01*
X72862380Y-29138096D02*
X72862380Y-28661905D01*
X73338571Y-28614286D01*
X73290952Y-28661905D01*
X73243333Y-28757143D01*
X73243333Y-28995239D01*
X73290952Y-29090477D01*
X73338571Y-29138096D01*
X73433809Y-29185715D01*
X73671904Y-29185715D01*
X73767142Y-29138096D01*
X73814761Y-29090477D01*
X73862380Y-28995239D01*
X73862380Y-28757143D01*
X73814761Y-28661905D01*
X73767142Y-28614286D01*
X67952380Y-23333333D02*
X67476190Y-23000000D01*
X67952380Y-22761904D02*
X66952380Y-22761904D01*
X66952380Y-23142857D01*
X67000000Y-23238095D01*
X67047619Y-23285714D01*
X67142857Y-23333333D01*
X67285714Y-23333333D01*
X67380952Y-23285714D01*
X67428571Y-23238095D01*
X67476190Y-23142857D01*
X67476190Y-22761904D01*
X67285714Y-24190476D02*
X67952380Y-24190476D01*
X66904761Y-23952380D02*
X67619047Y-23714285D01*
X67619047Y-24333333D01*
X63952380Y-23333333D02*
X63476190Y-23000000D01*
X63952380Y-22761904D02*
X62952380Y-22761904D01*
X62952380Y-23142857D01*
X63000000Y-23238095D01*
X63047619Y-23285714D01*
X63142857Y-23333333D01*
X63285714Y-23333333D01*
X63380952Y-23285714D01*
X63428571Y-23238095D01*
X63476190Y-23142857D01*
X63476190Y-22761904D01*
X62952380Y-23666666D02*
X62952380Y-24285714D01*
X63333333Y-23952380D01*
X63333333Y-24095238D01*
X63380952Y-24190476D01*
X63428571Y-24238095D01*
X63523809Y-24285714D01*
X63761904Y-24285714D01*
X63857142Y-24238095D01*
X63904761Y-24190476D01*
X63952380Y-24095238D01*
X63952380Y-23809523D01*
X63904761Y-23714285D01*
X63857142Y-23666666D01*
X51357142Y-28833333D02*
X51404761Y-28785714D01*
X51452380Y-28642857D01*
X51452380Y-28547619D01*
X51404761Y-28404761D01*
X51309523Y-28309523D01*
X51214285Y-28261904D01*
X51023809Y-28214285D01*
X50880952Y-28214285D01*
X50690476Y-28261904D01*
X50595238Y-28309523D01*
X50500000Y-28404761D01*
X50452380Y-28547619D01*
X50452380Y-28642857D01*
X50500000Y-28785714D01*
X50547619Y-28833333D01*
X50785714Y-29690476D02*
X51452380Y-29690476D01*
X50404761Y-29452380D02*
X51119047Y-29214285D01*
X51119047Y-29833333D01*
X70842857Y-108622380D02*
X71176190Y-108146190D01*
X71414285Y-108622380D02*
X71414285Y-107622380D01*
X71033333Y-107622380D01*
X70938095Y-107670000D01*
X70890476Y-107717619D01*
X70842857Y-107812857D01*
X70842857Y-107955714D01*
X70890476Y-108050952D01*
X70938095Y-108098571D01*
X71033333Y-108146190D01*
X71414285Y-108146190D01*
X69890476Y-108622380D02*
X70461904Y-108622380D01*
X70176190Y-108622380D02*
X70176190Y-107622380D01*
X70271428Y-107765238D01*
X70366666Y-107860476D01*
X70461904Y-107908095D01*
X69509523Y-107717619D02*
X69461904Y-107670000D01*
X69366666Y-107622380D01*
X69128571Y-107622380D01*
X69033333Y-107670000D01*
X68985714Y-107717619D01*
X68938095Y-107812857D01*
X68938095Y-107908095D01*
X68985714Y-108050952D01*
X69557142Y-108622380D01*
X68938095Y-108622380D01*
X82267857Y-109522380D02*
X82601190Y-109046190D01*
X82839285Y-109522380D02*
X82839285Y-108522380D01*
X82458333Y-108522380D01*
X82363095Y-108570000D01*
X82315476Y-108617619D01*
X82267857Y-108712857D01*
X82267857Y-108855714D01*
X82315476Y-108950952D01*
X82363095Y-108998571D01*
X82458333Y-109046190D01*
X82839285Y-109046190D01*
X81315476Y-109522380D02*
X81886904Y-109522380D01*
X81601190Y-109522380D02*
X81601190Y-108522380D01*
X81696428Y-108665238D01*
X81791666Y-108760476D01*
X81886904Y-108808095D01*
X80410714Y-108522380D02*
X80886904Y-108522380D01*
X80934523Y-108998571D01*
X80886904Y-108950952D01*
X80791666Y-108903333D01*
X80553571Y-108903333D01*
X80458333Y-108950952D01*
X80410714Y-108998571D01*
X80363095Y-109093809D01*
X80363095Y-109331904D01*
X80410714Y-109427142D01*
X80458333Y-109474761D01*
X80553571Y-109522380D01*
X80791666Y-109522380D01*
X80886904Y-109474761D01*
X80934523Y-109427142D01*
X91642857Y-22452380D02*
X91976190Y-21976190D01*
X92214285Y-22452380D02*
X92214285Y-21452380D01*
X91833333Y-21452380D01*
X91738095Y-21500000D01*
X91690476Y-21547619D01*
X91642857Y-21642857D01*
X91642857Y-21785714D01*
X91690476Y-21880952D01*
X91738095Y-21928571D01*
X91833333Y-21976190D01*
X92214285Y-21976190D01*
X90690476Y-22452380D02*
X91261904Y-22452380D01*
X90976190Y-22452380D02*
X90976190Y-21452380D01*
X91071428Y-21595238D01*
X91166666Y-21690476D01*
X91261904Y-21738095D01*
X89833333Y-21785714D02*
X89833333Y-22452380D01*
X90071428Y-21404761D02*
X90309523Y-22119047D01*
X89690476Y-22119047D01*
X70842857Y-103622380D02*
X71176190Y-103146190D01*
X71414285Y-103622380D02*
X71414285Y-102622380D01*
X71033333Y-102622380D01*
X70938095Y-102670000D01*
X70890476Y-102717619D01*
X70842857Y-102812857D01*
X70842857Y-102955714D01*
X70890476Y-103050952D01*
X70938095Y-103098571D01*
X71033333Y-103146190D01*
X71414285Y-103146190D01*
X69890476Y-103622380D02*
X70461904Y-103622380D01*
X70176190Y-103622380D02*
X70176190Y-102622380D01*
X70271428Y-102765238D01*
X70366666Y-102860476D01*
X70461904Y-102908095D01*
X68938095Y-103622380D02*
X69509523Y-103622380D01*
X69223809Y-103622380D02*
X69223809Y-102622380D01*
X69319047Y-102765238D01*
X69414285Y-102860476D01*
X69509523Y-102908095D01*
X70842857Y-98622380D02*
X71176190Y-98146190D01*
X71414285Y-98622380D02*
X71414285Y-97622380D01*
X71033333Y-97622380D01*
X70938095Y-97670000D01*
X70890476Y-97717619D01*
X70842857Y-97812857D01*
X70842857Y-97955714D01*
X70890476Y-98050952D01*
X70938095Y-98098571D01*
X71033333Y-98146190D01*
X71414285Y-98146190D01*
X69890476Y-98622380D02*
X70461904Y-98622380D01*
X70176190Y-98622380D02*
X70176190Y-97622380D01*
X70271428Y-97765238D01*
X70366666Y-97860476D01*
X70461904Y-97908095D01*
X69271428Y-97622380D02*
X69176190Y-97622380D01*
X69080952Y-97670000D01*
X69033333Y-97717619D01*
X68985714Y-97812857D01*
X68938095Y-98003333D01*
X68938095Y-98241428D01*
X68985714Y-98431904D01*
X69033333Y-98527142D01*
X69080952Y-98574761D01*
X69176190Y-98622380D01*
X69271428Y-98622380D01*
X69366666Y-98574761D01*
X69414285Y-98527142D01*
X69461904Y-98431904D01*
X69509523Y-98241428D01*
X69509523Y-98003333D01*
X69461904Y-97812857D01*
X69414285Y-97717619D01*
X69366666Y-97670000D01*
X69271428Y-97622380D01*
X81595238Y-110547619D02*
X81690476Y-110500000D01*
X81785714Y-110404761D01*
X81928571Y-110261904D01*
X82023809Y-110214285D01*
X82119047Y-110214285D01*
X82071428Y-110452380D02*
X82166666Y-110404761D01*
X82261904Y-110309523D01*
X82309523Y-110119047D01*
X82309523Y-109785714D01*
X82261904Y-109595238D01*
X82166666Y-109500000D01*
X82071428Y-109452380D01*
X81880952Y-109452380D01*
X81785714Y-109500000D01*
X81690476Y-109595238D01*
X81642857Y-109785714D01*
X81642857Y-110119047D01*
X81690476Y-110309523D01*
X81785714Y-110404761D01*
X81880952Y-110452380D01*
X82071428Y-110452380D01*
X80690476Y-110452380D02*
X81261904Y-110452380D01*
X80976190Y-110452380D02*
X80976190Y-109452380D01*
X81071428Y-109595238D01*
X81166666Y-109690476D01*
X81261904Y-109738095D01*
X76452380Y-105810714D02*
X75452380Y-105810714D01*
X75452380Y-106048809D01*
X75500000Y-106191666D01*
X75595238Y-106286904D01*
X75690476Y-106334523D01*
X75880952Y-106382142D01*
X76023809Y-106382142D01*
X76214285Y-106334523D01*
X76309523Y-106286904D01*
X76404761Y-106191666D01*
X76452380Y-106048809D01*
X76452380Y-105810714D01*
X75547619Y-106763095D02*
X75500000Y-106810714D01*
X75452380Y-106905952D01*
X75452380Y-107144047D01*
X75500000Y-107239285D01*
X75547619Y-107286904D01*
X75642857Y-107334523D01*
X75738095Y-107334523D01*
X75880952Y-107286904D01*
X76452380Y-106715476D01*
X76452380Y-107334523D01*
X75785714Y-108191666D02*
X76452380Y-108191666D01*
X75404761Y-107953571D02*
X76119047Y-107715476D01*
X76119047Y-108334523D01*
X81967857Y-107282142D02*
X82015476Y-107329761D01*
X82158333Y-107377380D01*
X82253571Y-107377380D01*
X82396428Y-107329761D01*
X82491666Y-107234523D01*
X82539285Y-107139285D01*
X82586904Y-106948809D01*
X82586904Y-106805952D01*
X82539285Y-106615476D01*
X82491666Y-106520238D01*
X82396428Y-106425000D01*
X82253571Y-106377380D01*
X82158333Y-106377380D01*
X82015476Y-106425000D01*
X81967857Y-106472619D01*
X81586904Y-106472619D02*
X81539285Y-106425000D01*
X81444047Y-106377380D01*
X81205952Y-106377380D01*
X81110714Y-106425000D01*
X81063095Y-106472619D01*
X81015476Y-106567857D01*
X81015476Y-106663095D01*
X81063095Y-106805952D01*
X81634523Y-107377380D01*
X81015476Y-107377380D01*
X80110714Y-106377380D02*
X80586904Y-106377380D01*
X80634523Y-106853571D01*
X80586904Y-106805952D01*
X80491666Y-106758333D01*
X80253571Y-106758333D01*
X80158333Y-106805952D01*
X80110714Y-106853571D01*
X80063095Y-106948809D01*
X80063095Y-107186904D01*
X80110714Y-107282142D01*
X80158333Y-107329761D01*
X80253571Y-107377380D01*
X80491666Y-107377380D01*
X80586904Y-107329761D01*
X80634523Y-107282142D01*
X70952380Y-76285714D02*
X69952380Y-76285714D01*
X69952380Y-76523809D01*
X70000000Y-76666666D01*
X70095238Y-76761904D01*
X70190476Y-76809523D01*
X70380952Y-76857142D01*
X70523809Y-76857142D01*
X70714285Y-76809523D01*
X70809523Y-76761904D01*
X70904761Y-76666666D01*
X70952380Y-76523809D01*
X70952380Y-76285714D01*
X69952380Y-77190476D02*
X69952380Y-77809523D01*
X70333333Y-77476190D01*
X70333333Y-77619047D01*
X70380952Y-77714285D01*
X70428571Y-77761904D01*
X70523809Y-77809523D01*
X70761904Y-77809523D01*
X70857142Y-77761904D01*
X70904761Y-77714285D01*
X70952380Y-77619047D01*
X70952380Y-77333333D01*
X70904761Y-77238095D01*
X70857142Y-77190476D01*
X69952380Y-78714285D02*
X69952380Y-78238095D01*
X70428571Y-78190476D01*
X70380952Y-78238095D01*
X70333333Y-78333333D01*
X70333333Y-78571428D01*
X70380952Y-78666666D01*
X70428571Y-78714285D01*
X70523809Y-78761904D01*
X70761904Y-78761904D01*
X70857142Y-78714285D01*
X70904761Y-78666666D01*
X70952380Y-78571428D01*
X70952380Y-78333333D01*
X70904761Y-78238095D01*
X70857142Y-78190476D01*
X50952380Y-76285714D02*
X49952380Y-76285714D01*
X49952380Y-76523809D01*
X50000000Y-76666666D01*
X50095238Y-76761904D01*
X50190476Y-76809523D01*
X50380952Y-76857142D01*
X50523809Y-76857142D01*
X50714285Y-76809523D01*
X50809523Y-76761904D01*
X50904761Y-76666666D01*
X50952380Y-76523809D01*
X50952380Y-76285714D01*
X49952380Y-77190476D02*
X49952380Y-77809523D01*
X50333333Y-77476190D01*
X50333333Y-77619047D01*
X50380952Y-77714285D01*
X50428571Y-77761904D01*
X50523809Y-77809523D01*
X50761904Y-77809523D01*
X50857142Y-77761904D01*
X50904761Y-77714285D01*
X50952380Y-77619047D01*
X50952380Y-77333333D01*
X50904761Y-77238095D01*
X50857142Y-77190476D01*
X50285714Y-78666666D02*
X50952380Y-78666666D01*
X49904761Y-78428571D02*
X50619047Y-78190476D01*
X50619047Y-78809523D01*
X30952380Y-76285714D02*
X29952380Y-76285714D01*
X29952380Y-76523809D01*
X30000000Y-76666666D01*
X30095238Y-76761904D01*
X30190476Y-76809523D01*
X30380952Y-76857142D01*
X30523809Y-76857142D01*
X30714285Y-76809523D01*
X30809523Y-76761904D01*
X30904761Y-76666666D01*
X30952380Y-76523809D01*
X30952380Y-76285714D01*
X29952380Y-77190476D02*
X29952380Y-77809523D01*
X30333333Y-77476190D01*
X30333333Y-77619047D01*
X30380952Y-77714285D01*
X30428571Y-77761904D01*
X30523809Y-77809523D01*
X30761904Y-77809523D01*
X30857142Y-77761904D01*
X30904761Y-77714285D01*
X30952380Y-77619047D01*
X30952380Y-77333333D01*
X30904761Y-77238095D01*
X30857142Y-77190476D01*
X29952380Y-78142857D02*
X29952380Y-78761904D01*
X30333333Y-78428571D01*
X30333333Y-78571428D01*
X30380952Y-78666666D01*
X30428571Y-78714285D01*
X30523809Y-78761904D01*
X30761904Y-78761904D01*
X30857142Y-78714285D01*
X30904761Y-78666666D01*
X30952380Y-78571428D01*
X30952380Y-78285714D01*
X30904761Y-78190476D01*
X30857142Y-78142857D01*
X70952380Y-56785714D02*
X69952380Y-56785714D01*
X69952380Y-57023809D01*
X70000000Y-57166666D01*
X70095238Y-57261904D01*
X70190476Y-57309523D01*
X70380952Y-57357142D01*
X70523809Y-57357142D01*
X70714285Y-57309523D01*
X70809523Y-57261904D01*
X70904761Y-57166666D01*
X70952380Y-57023809D01*
X70952380Y-56785714D01*
X69952380Y-57690476D02*
X69952380Y-58309523D01*
X70333333Y-57976190D01*
X70333333Y-58119047D01*
X70380952Y-58214285D01*
X70428571Y-58261904D01*
X70523809Y-58309523D01*
X70761904Y-58309523D01*
X70857142Y-58261904D01*
X70904761Y-58214285D01*
X70952380Y-58119047D01*
X70952380Y-57833333D01*
X70904761Y-57738095D01*
X70857142Y-57690476D01*
X70047619Y-58690476D02*
X70000000Y-58738095D01*
X69952380Y-58833333D01*
X69952380Y-59071428D01*
X70000000Y-59166666D01*
X70047619Y-59214285D01*
X70142857Y-59261904D01*
X70238095Y-59261904D01*
X70380952Y-59214285D01*
X70952380Y-58642857D01*
X70952380Y-59261904D01*
X50952380Y-56785714D02*
X49952380Y-56785714D01*
X49952380Y-57023809D01*
X50000000Y-57166666D01*
X50095238Y-57261904D01*
X50190476Y-57309523D01*
X50380952Y-57357142D01*
X50523809Y-57357142D01*
X50714285Y-57309523D01*
X50809523Y-57261904D01*
X50904761Y-57166666D01*
X50952380Y-57023809D01*
X50952380Y-56785714D01*
X49952380Y-57690476D02*
X49952380Y-58309523D01*
X50333333Y-57976190D01*
X50333333Y-58119047D01*
X50380952Y-58214285D01*
X50428571Y-58261904D01*
X50523809Y-58309523D01*
X50761904Y-58309523D01*
X50857142Y-58261904D01*
X50904761Y-58214285D01*
X50952380Y-58119047D01*
X50952380Y-57833333D01*
X50904761Y-57738095D01*
X50857142Y-57690476D01*
X50952380Y-59261904D02*
X50952380Y-58690476D01*
X50952380Y-58976190D02*
X49952380Y-58976190D01*
X50095238Y-58880952D01*
X50190476Y-58785714D01*
X50238095Y-58690476D01*
X30952380Y-56785714D02*
X29952380Y-56785714D01*
X29952380Y-57023809D01*
X30000000Y-57166666D01*
X30095238Y-57261904D01*
X30190476Y-57309523D01*
X30380952Y-57357142D01*
X30523809Y-57357142D01*
X30714285Y-57309523D01*
X30809523Y-57261904D01*
X30904761Y-57166666D01*
X30952380Y-57023809D01*
X30952380Y-56785714D01*
X29952380Y-57690476D02*
X29952380Y-58309523D01*
X30333333Y-57976190D01*
X30333333Y-58119047D01*
X30380952Y-58214285D01*
X30428571Y-58261904D01*
X30523809Y-58309523D01*
X30761904Y-58309523D01*
X30857142Y-58261904D01*
X30904761Y-58214285D01*
X30952380Y-58119047D01*
X30952380Y-57833333D01*
X30904761Y-57738095D01*
X30857142Y-57690476D01*
X29952380Y-58928571D02*
X29952380Y-59023809D01*
X30000000Y-59119047D01*
X30047619Y-59166666D01*
X30142857Y-59214285D01*
X30333333Y-59261904D01*
X30571428Y-59261904D01*
X30761904Y-59214285D01*
X30857142Y-59166666D01*
X30904761Y-59119047D01*
X30952380Y-59023809D01*
X30952380Y-58928571D01*
X30904761Y-58833333D01*
X30857142Y-58785714D01*
X30761904Y-58738095D01*
X30571428Y-58690476D01*
X30333333Y-58690476D01*
X30142857Y-58738095D01*
X30047619Y-58785714D01*
X30000000Y-58833333D01*
X29952380Y-58928571D01*
X70952380Y-37285714D02*
X69952380Y-37285714D01*
X69952380Y-37523809D01*
X70000000Y-37666666D01*
X70095238Y-37761904D01*
X70190476Y-37809523D01*
X70380952Y-37857142D01*
X70523809Y-37857142D01*
X70714285Y-37809523D01*
X70809523Y-37761904D01*
X70904761Y-37666666D01*
X70952380Y-37523809D01*
X70952380Y-37285714D01*
X70047619Y-38238095D02*
X70000000Y-38285714D01*
X69952380Y-38380952D01*
X69952380Y-38619047D01*
X70000000Y-38714285D01*
X70047619Y-38761904D01*
X70142857Y-38809523D01*
X70238095Y-38809523D01*
X70380952Y-38761904D01*
X70952380Y-38190476D01*
X70952380Y-38809523D01*
X70952380Y-39285714D02*
X70952380Y-39476190D01*
X70904761Y-39571428D01*
X70857142Y-39619047D01*
X70714285Y-39714285D01*
X70523809Y-39761904D01*
X70142857Y-39761904D01*
X70047619Y-39714285D01*
X70000000Y-39666666D01*
X69952380Y-39571428D01*
X69952380Y-39380952D01*
X70000000Y-39285714D01*
X70047619Y-39238095D01*
X70142857Y-39190476D01*
X70380952Y-39190476D01*
X70476190Y-39238095D01*
X70523809Y-39285714D01*
X70571428Y-39380952D01*
X70571428Y-39571428D01*
X70523809Y-39666666D01*
X70476190Y-39714285D01*
X70380952Y-39761904D01*
X50952380Y-37285714D02*
X49952380Y-37285714D01*
X49952380Y-37523809D01*
X50000000Y-37666666D01*
X50095238Y-37761904D01*
X50190476Y-37809523D01*
X50380952Y-37857142D01*
X50523809Y-37857142D01*
X50714285Y-37809523D01*
X50809523Y-37761904D01*
X50904761Y-37666666D01*
X50952380Y-37523809D01*
X50952380Y-37285714D01*
X50047619Y-38238095D02*
X50000000Y-38285714D01*
X49952380Y-38380952D01*
X49952380Y-38619047D01*
X50000000Y-38714285D01*
X50047619Y-38761904D01*
X50142857Y-38809523D01*
X50238095Y-38809523D01*
X50380952Y-38761904D01*
X50952380Y-38190476D01*
X50952380Y-38809523D01*
X50380952Y-39380952D02*
X50333333Y-39285714D01*
X50285714Y-39238095D01*
X50190476Y-39190476D01*
X50142857Y-39190476D01*
X50047619Y-39238095D01*
X50000000Y-39285714D01*
X49952380Y-39380952D01*
X49952380Y-39571428D01*
X50000000Y-39666666D01*
X50047619Y-39714285D01*
X50142857Y-39761904D01*
X50190476Y-39761904D01*
X50285714Y-39714285D01*
X50333333Y-39666666D01*
X50380952Y-39571428D01*
X50380952Y-39380952D01*
X50428571Y-39285714D01*
X50476190Y-39238095D01*
X50571428Y-39190476D01*
X50761904Y-39190476D01*
X50857142Y-39238095D01*
X50904761Y-39285714D01*
X50952380Y-39380952D01*
X50952380Y-39571428D01*
X50904761Y-39666666D01*
X50857142Y-39714285D01*
X50761904Y-39761904D01*
X50571428Y-39761904D01*
X50476190Y-39714285D01*
X50428571Y-39666666D01*
X50380952Y-39571428D01*
X30952380Y-37285714D02*
X29952380Y-37285714D01*
X29952380Y-37523809D01*
X30000000Y-37666666D01*
X30095238Y-37761904D01*
X30190476Y-37809523D01*
X30380952Y-37857142D01*
X30523809Y-37857142D01*
X30714285Y-37809523D01*
X30809523Y-37761904D01*
X30904761Y-37666666D01*
X30952380Y-37523809D01*
X30952380Y-37285714D01*
X30047619Y-38238095D02*
X30000000Y-38285714D01*
X29952380Y-38380952D01*
X29952380Y-38619047D01*
X30000000Y-38714285D01*
X30047619Y-38761904D01*
X30142857Y-38809523D01*
X30238095Y-38809523D01*
X30380952Y-38761904D01*
X30952380Y-38190476D01*
X30952380Y-38809523D01*
X29952380Y-39142857D02*
X29952380Y-39809523D01*
X30952380Y-39380952D01*
X34052380Y-21738095D02*
X34861904Y-21738095D01*
X34957142Y-21785714D01*
X35004761Y-21833333D01*
X35052380Y-21928571D01*
X35052380Y-22119047D01*
X35004761Y-22214285D01*
X34957142Y-22261904D01*
X34861904Y-22309523D01*
X34052380Y-22309523D01*
X34480952Y-22928571D02*
X34433333Y-22833333D01*
X34385714Y-22785714D01*
X34290476Y-22738095D01*
X34242857Y-22738095D01*
X34147619Y-22785714D01*
X34100000Y-22833333D01*
X34052380Y-22928571D01*
X34052380Y-23119047D01*
X34100000Y-23214285D01*
X34147619Y-23261904D01*
X34242857Y-23309523D01*
X34290476Y-23309523D01*
X34385714Y-23261904D01*
X34433333Y-23214285D01*
X34480952Y-23119047D01*
X34480952Y-22928571D01*
X34528571Y-22833333D01*
X34576190Y-22785714D01*
X34671428Y-22738095D01*
X34861904Y-22738095D01*
X34957142Y-22785714D01*
X35004761Y-22833333D01*
X35052380Y-22928571D01*
X35052380Y-23119047D01*
X35004761Y-23214285D01*
X34957142Y-23261904D01*
X34861904Y-23309523D01*
X34671428Y-23309523D01*
X34576190Y-23261904D01*
X34528571Y-23214285D01*
X34480952Y-23119047D01*
X34357142Y-28857142D02*
X34404761Y-28809523D01*
X34452380Y-28666666D01*
X34452380Y-28571428D01*
X34404761Y-28428571D01*
X34309523Y-28333333D01*
X34214285Y-28285714D01*
X34023809Y-28238095D01*
X33880952Y-28238095D01*
X33690476Y-28285714D01*
X33595238Y-28333333D01*
X33500000Y-28428571D01*
X33452380Y-28571428D01*
X33452380Y-28666666D01*
X33500000Y-28809523D01*
X33547619Y-28857142D01*
X33452380Y-29190476D02*
X33452380Y-29809523D01*
X33833333Y-29476190D01*
X33833333Y-29619047D01*
X33880952Y-29714285D01*
X33928571Y-29761904D01*
X34023809Y-29809523D01*
X34261904Y-29809523D01*
X34357142Y-29761904D01*
X34404761Y-29714285D01*
X34452380Y-29619047D01*
X34452380Y-29333333D01*
X34404761Y-29238095D01*
X34357142Y-29190476D01*
X33880952Y-30380952D02*
X33833333Y-30285714D01*
X33785714Y-30238095D01*
X33690476Y-30190476D01*
X33642857Y-30190476D01*
X33547619Y-30238095D01*
X33500000Y-30285714D01*
X33452380Y-30380952D01*
X33452380Y-30571428D01*
X33500000Y-30666666D01*
X33547619Y-30714285D01*
X33642857Y-30761904D01*
X33690476Y-30761904D01*
X33785714Y-30714285D01*
X33833333Y-30666666D01*
X33880952Y-30571428D01*
X33880952Y-30380952D01*
X33928571Y-30285714D01*
X33976190Y-30238095D01*
X34071428Y-30190476D01*
X34261904Y-30190476D01*
X34357142Y-30238095D01*
X34404761Y-30285714D01*
X34452380Y-30380952D01*
X34452380Y-30571428D01*
X34404761Y-30666666D01*
X34357142Y-30714285D01*
X34261904Y-30761904D01*
X34071428Y-30761904D01*
X33976190Y-30714285D01*
X33928571Y-30666666D01*
X33880952Y-30571428D01*
X52117857Y-107332380D02*
X52451190Y-106856190D01*
X52689285Y-107332380D02*
X52689285Y-106332380D01*
X52308333Y-106332380D01*
X52213095Y-106380000D01*
X52165476Y-106427619D01*
X52117857Y-106522857D01*
X52117857Y-106665714D01*
X52165476Y-106760952D01*
X52213095Y-106808571D01*
X52308333Y-106856190D01*
X52689285Y-106856190D01*
X51784523Y-106332380D02*
X51165476Y-106332380D01*
X51498809Y-106713333D01*
X51355952Y-106713333D01*
X51260714Y-106760952D01*
X51213095Y-106808571D01*
X51165476Y-106903809D01*
X51165476Y-107141904D01*
X51213095Y-107237142D01*
X51260714Y-107284761D01*
X51355952Y-107332380D01*
X51641666Y-107332380D01*
X51736904Y-107284761D01*
X51784523Y-107237142D01*
X50546428Y-106332380D02*
X50451190Y-106332380D01*
X50355952Y-106380000D01*
X50308333Y-106427619D01*
X50260714Y-106522857D01*
X50213095Y-106713333D01*
X50213095Y-106951428D01*
X50260714Y-107141904D01*
X50308333Y-107237142D01*
X50355952Y-107284761D01*
X50451190Y-107332380D01*
X50546428Y-107332380D01*
X50641666Y-107284761D01*
X50689285Y-107237142D01*
X50736904Y-107141904D01*
X50784523Y-106951428D01*
X50784523Y-106713333D01*
X50736904Y-106522857D01*
X50689285Y-106427619D01*
X50641666Y-106380000D01*
X50546428Y-106332380D01*
X56492857Y-106202380D02*
X56826190Y-105726190D01*
X57064285Y-106202380D02*
X57064285Y-105202380D01*
X56683333Y-105202380D01*
X56588095Y-105250000D01*
X56540476Y-105297619D01*
X56492857Y-105392857D01*
X56492857Y-105535714D01*
X56540476Y-105630952D01*
X56588095Y-105678571D01*
X56683333Y-105726190D01*
X57064285Y-105726190D01*
X56111904Y-105297619D02*
X56064285Y-105250000D01*
X55969047Y-105202380D01*
X55730952Y-105202380D01*
X55635714Y-105250000D01*
X55588095Y-105297619D01*
X55540476Y-105392857D01*
X55540476Y-105488095D01*
X55588095Y-105630952D01*
X56159523Y-106202380D01*
X55540476Y-106202380D01*
X55064285Y-106202380D02*
X54873809Y-106202380D01*
X54778571Y-106154761D01*
X54730952Y-106107142D01*
X54635714Y-105964285D01*
X54588095Y-105773809D01*
X54588095Y-105392857D01*
X54635714Y-105297619D01*
X54683333Y-105250000D01*
X54778571Y-105202380D01*
X54969047Y-105202380D01*
X55064285Y-105250000D01*
X55111904Y-105297619D01*
X55159523Y-105392857D01*
X55159523Y-105630952D01*
X55111904Y-105726190D01*
X55064285Y-105773809D01*
X54969047Y-105821428D01*
X54778571Y-105821428D01*
X54683333Y-105773809D01*
X54635714Y-105726190D01*
X54588095Y-105630952D01*
X56542857Y-103602380D02*
X56876190Y-103126190D01*
X57114285Y-103602380D02*
X57114285Y-102602380D01*
X56733333Y-102602380D01*
X56638095Y-102650000D01*
X56590476Y-102697619D01*
X56542857Y-102792857D01*
X56542857Y-102935714D01*
X56590476Y-103030952D01*
X56638095Y-103078571D01*
X56733333Y-103126190D01*
X57114285Y-103126190D01*
X56161904Y-102697619D02*
X56114285Y-102650000D01*
X56019047Y-102602380D01*
X55780952Y-102602380D01*
X55685714Y-102650000D01*
X55638095Y-102697619D01*
X55590476Y-102792857D01*
X55590476Y-102888095D01*
X55638095Y-103030952D01*
X56209523Y-103602380D01*
X55590476Y-103602380D01*
X55019047Y-103030952D02*
X55114285Y-102983333D01*
X55161904Y-102935714D01*
X55209523Y-102840476D01*
X55209523Y-102792857D01*
X55161904Y-102697619D01*
X55114285Y-102650000D01*
X55019047Y-102602380D01*
X54828571Y-102602380D01*
X54733333Y-102650000D01*
X54685714Y-102697619D01*
X54638095Y-102792857D01*
X54638095Y-102840476D01*
X54685714Y-102935714D01*
X54733333Y-102983333D01*
X54828571Y-103030952D01*
X55019047Y-103030952D01*
X55114285Y-103078571D01*
X55161904Y-103126190D01*
X55209523Y-103221428D01*
X55209523Y-103411904D01*
X55161904Y-103507142D01*
X55114285Y-103554761D01*
X55019047Y-103602380D01*
X54828571Y-103602380D01*
X54733333Y-103554761D01*
X54685714Y-103507142D01*
X54638095Y-103411904D01*
X54638095Y-103221428D01*
X54685714Y-103126190D01*
X54733333Y-103078571D01*
X54828571Y-103030952D01*
X52117857Y-102752142D02*
X52165476Y-102799761D01*
X52308333Y-102847380D01*
X52403571Y-102847380D01*
X52546428Y-102799761D01*
X52641666Y-102704523D01*
X52689285Y-102609285D01*
X52736904Y-102418809D01*
X52736904Y-102275952D01*
X52689285Y-102085476D01*
X52641666Y-101990238D01*
X52546428Y-101895000D01*
X52403571Y-101847380D01*
X52308333Y-101847380D01*
X52165476Y-101895000D01*
X52117857Y-101942619D01*
X51260714Y-102180714D02*
X51260714Y-102847380D01*
X51498809Y-101799761D02*
X51736904Y-102514047D01*
X51117857Y-102514047D01*
X50213095Y-102847380D02*
X50784523Y-102847380D01*
X50498809Y-102847380D02*
X50498809Y-101847380D01*
X50594047Y-101990238D01*
X50689285Y-102085476D01*
X50784523Y-102133095D01*
X56492857Y-108257142D02*
X56540476Y-108304761D01*
X56683333Y-108352380D01*
X56778571Y-108352380D01*
X56921428Y-108304761D01*
X57016666Y-108209523D01*
X57064285Y-108114285D01*
X57111904Y-107923809D01*
X57111904Y-107780952D01*
X57064285Y-107590476D01*
X57016666Y-107495238D01*
X56921428Y-107400000D01*
X56778571Y-107352380D01*
X56683333Y-107352380D01*
X56540476Y-107400000D01*
X56492857Y-107447619D01*
X55635714Y-107685714D02*
X55635714Y-108352380D01*
X55873809Y-107304761D02*
X56111904Y-108019047D01*
X55492857Y-108019047D01*
X54921428Y-107352380D02*
X54826190Y-107352380D01*
X54730952Y-107400000D01*
X54683333Y-107447619D01*
X54635714Y-107542857D01*
X54588095Y-107733333D01*
X54588095Y-107971428D01*
X54635714Y-108161904D01*
X54683333Y-108257142D01*
X54730952Y-108304761D01*
X54826190Y-108352380D01*
X54921428Y-108352380D01*
X55016666Y-108304761D01*
X55064285Y-108257142D01*
X55111904Y-108161904D01*
X55159523Y-107971428D01*
X55159523Y-107733333D01*
X55111904Y-107542857D01*
X55064285Y-107447619D01*
X55016666Y-107400000D01*
X54921428Y-107352380D01*
X56542857Y-101807142D02*
X56590476Y-101854761D01*
X56733333Y-101902380D01*
X56828571Y-101902380D01*
X56971428Y-101854761D01*
X57066666Y-101759523D01*
X57114285Y-101664285D01*
X57161904Y-101473809D01*
X57161904Y-101330952D01*
X57114285Y-101140476D01*
X57066666Y-101045238D01*
X56971428Y-100950000D01*
X56828571Y-100902380D01*
X56733333Y-100902380D01*
X56590476Y-100950000D01*
X56542857Y-100997619D01*
X56209523Y-100902380D02*
X55590476Y-100902380D01*
X55923809Y-101283333D01*
X55780952Y-101283333D01*
X55685714Y-101330952D01*
X55638095Y-101378571D01*
X55590476Y-101473809D01*
X55590476Y-101711904D01*
X55638095Y-101807142D01*
X55685714Y-101854761D01*
X55780952Y-101902380D01*
X56066666Y-101902380D01*
X56161904Y-101854761D01*
X56209523Y-101807142D01*
X55114285Y-101902380D02*
X54923809Y-101902380D01*
X54828571Y-101854761D01*
X54780952Y-101807142D01*
X54685714Y-101664285D01*
X54638095Y-101473809D01*
X54638095Y-101092857D01*
X54685714Y-100997619D01*
X54733333Y-100950000D01*
X54828571Y-100902380D01*
X55019047Y-100902380D01*
X55114285Y-100950000D01*
X55161904Y-100997619D01*
X55209523Y-101092857D01*
X55209523Y-101330952D01*
X55161904Y-101426190D01*
X55114285Y-101473809D01*
X55019047Y-101521428D01*
X54828571Y-101521428D01*
X54733333Y-101473809D01*
X54685714Y-101426190D01*
X54638095Y-101330952D01*
X33942857Y-107707380D02*
X34276190Y-107231190D01*
X34514285Y-107707380D02*
X34514285Y-106707380D01*
X34133333Y-106707380D01*
X34038095Y-106755000D01*
X33990476Y-106802619D01*
X33942857Y-106897857D01*
X33942857Y-107040714D01*
X33990476Y-107135952D01*
X34038095Y-107183571D01*
X34133333Y-107231190D01*
X34514285Y-107231190D01*
X32990476Y-107707380D02*
X33561904Y-107707380D01*
X33276190Y-107707380D02*
X33276190Y-106707380D01*
X33371428Y-106850238D01*
X33466666Y-106945476D01*
X33561904Y-106993095D01*
X32419047Y-107135952D02*
X32514285Y-107088333D01*
X32561904Y-107040714D01*
X32609523Y-106945476D01*
X32609523Y-106897857D01*
X32561904Y-106802619D01*
X32514285Y-106755000D01*
X32419047Y-106707380D01*
X32228571Y-106707380D01*
X32133333Y-106755000D01*
X32085714Y-106802619D01*
X32038095Y-106897857D01*
X32038095Y-106945476D01*
X32085714Y-107040714D01*
X32133333Y-107088333D01*
X32228571Y-107135952D01*
X32419047Y-107135952D01*
X32514285Y-107183571D01*
X32561904Y-107231190D01*
X32609523Y-107326428D01*
X32609523Y-107516904D01*
X32561904Y-107612142D01*
X32514285Y-107659761D01*
X32419047Y-107707380D01*
X32228571Y-107707380D01*
X32133333Y-107659761D01*
X32085714Y-107612142D01*
X32038095Y-107516904D01*
X32038095Y-107326428D01*
X32085714Y-107231190D01*
X32133333Y-107183571D01*
X32228571Y-107135952D01*
X38142857Y-107952380D02*
X38476190Y-107476190D01*
X38714285Y-107952380D02*
X38714285Y-106952380D01*
X38333333Y-106952380D01*
X38238095Y-107000000D01*
X38190476Y-107047619D01*
X38142857Y-107142857D01*
X38142857Y-107285714D01*
X38190476Y-107380952D01*
X38238095Y-107428571D01*
X38333333Y-107476190D01*
X38714285Y-107476190D01*
X37190476Y-107952380D02*
X37761904Y-107952380D01*
X37476190Y-107952380D02*
X37476190Y-106952380D01*
X37571428Y-107095238D01*
X37666666Y-107190476D01*
X37761904Y-107238095D01*
X36857142Y-106952380D02*
X36190476Y-106952380D01*
X36619047Y-107952380D01*
X38142857Y-101952380D02*
X38476190Y-101476190D01*
X38714285Y-101952380D02*
X38714285Y-100952380D01*
X38333333Y-100952380D01*
X38238095Y-101000000D01*
X38190476Y-101047619D01*
X38142857Y-101142857D01*
X38142857Y-101285714D01*
X38190476Y-101380952D01*
X38238095Y-101428571D01*
X38333333Y-101476190D01*
X38714285Y-101476190D01*
X37190476Y-101952380D02*
X37761904Y-101952380D01*
X37476190Y-101952380D02*
X37476190Y-100952380D01*
X37571428Y-101095238D01*
X37666666Y-101190476D01*
X37761904Y-101238095D01*
X36333333Y-100952380D02*
X36523809Y-100952380D01*
X36619047Y-101000000D01*
X36666666Y-101047619D01*
X36761904Y-101190476D01*
X36809523Y-101380952D01*
X36809523Y-101761904D01*
X36761904Y-101857142D01*
X36714285Y-101904761D01*
X36619047Y-101952380D01*
X36428571Y-101952380D01*
X36333333Y-101904761D01*
X36285714Y-101857142D01*
X36238095Y-101761904D01*
X36238095Y-101523809D01*
X36285714Y-101428571D01*
X36333333Y-101380952D01*
X36428571Y-101333333D01*
X36619047Y-101333333D01*
X36714285Y-101380952D01*
X36761904Y-101428571D01*
X36809523Y-101523809D01*
X33942857Y-103227142D02*
X33990476Y-103274761D01*
X34133333Y-103322380D01*
X34228571Y-103322380D01*
X34371428Y-103274761D01*
X34466666Y-103179523D01*
X34514285Y-103084285D01*
X34561904Y-102893809D01*
X34561904Y-102750952D01*
X34514285Y-102560476D01*
X34466666Y-102465238D01*
X34371428Y-102370000D01*
X34228571Y-102322380D01*
X34133333Y-102322380D01*
X33990476Y-102370000D01*
X33942857Y-102417619D01*
X33561904Y-102417619D02*
X33514285Y-102370000D01*
X33419047Y-102322380D01*
X33180952Y-102322380D01*
X33085714Y-102370000D01*
X33038095Y-102417619D01*
X32990476Y-102512857D01*
X32990476Y-102608095D01*
X33038095Y-102750952D01*
X33609523Y-103322380D01*
X32990476Y-103322380D01*
X32419047Y-102750952D02*
X32514285Y-102703333D01*
X32561904Y-102655714D01*
X32609523Y-102560476D01*
X32609523Y-102512857D01*
X32561904Y-102417619D01*
X32514285Y-102370000D01*
X32419047Y-102322380D01*
X32228571Y-102322380D01*
X32133333Y-102370000D01*
X32085714Y-102417619D01*
X32038095Y-102512857D01*
X32038095Y-102560476D01*
X32085714Y-102655714D01*
X32133333Y-102703333D01*
X32228571Y-102750952D01*
X32419047Y-102750952D01*
X32514285Y-102798571D01*
X32561904Y-102846190D01*
X32609523Y-102941428D01*
X32609523Y-103131904D01*
X32561904Y-103227142D01*
X32514285Y-103274761D01*
X32419047Y-103322380D01*
X32228571Y-103322380D01*
X32133333Y-103274761D01*
X32085714Y-103227142D01*
X32038095Y-103131904D01*
X32038095Y-102941428D01*
X32085714Y-102846190D01*
X32133333Y-102798571D01*
X32228571Y-102750952D01*
X38142857Y-105857142D02*
X38190476Y-105904761D01*
X38333333Y-105952380D01*
X38428571Y-105952380D01*
X38571428Y-105904761D01*
X38666666Y-105809523D01*
X38714285Y-105714285D01*
X38761904Y-105523809D01*
X38761904Y-105380952D01*
X38714285Y-105190476D01*
X38666666Y-105095238D01*
X38571428Y-105000000D01*
X38428571Y-104952380D01*
X38333333Y-104952380D01*
X38190476Y-105000000D01*
X38142857Y-105047619D01*
X37761904Y-105047619D02*
X37714285Y-105000000D01*
X37619047Y-104952380D01*
X37380952Y-104952380D01*
X37285714Y-105000000D01*
X37238095Y-105047619D01*
X37190476Y-105142857D01*
X37190476Y-105238095D01*
X37238095Y-105380952D01*
X37809523Y-105952380D01*
X37190476Y-105952380D01*
X36857142Y-104952380D02*
X36190476Y-104952380D01*
X36619047Y-105952380D01*
X38142857Y-103857142D02*
X38190476Y-103904761D01*
X38333333Y-103952380D01*
X38428571Y-103952380D01*
X38571428Y-103904761D01*
X38666666Y-103809523D01*
X38714285Y-103714285D01*
X38761904Y-103523809D01*
X38761904Y-103380952D01*
X38714285Y-103190476D01*
X38666666Y-103095238D01*
X38571428Y-103000000D01*
X38428571Y-102952380D01*
X38333333Y-102952380D01*
X38190476Y-103000000D01*
X38142857Y-103047619D01*
X37761904Y-103047619D02*
X37714285Y-103000000D01*
X37619047Y-102952380D01*
X37380952Y-102952380D01*
X37285714Y-103000000D01*
X37238095Y-103047619D01*
X37190476Y-103142857D01*
X37190476Y-103238095D01*
X37238095Y-103380952D01*
X37809523Y-103952380D01*
X37190476Y-103952380D01*
X36333333Y-102952380D02*
X36523809Y-102952380D01*
X36619047Y-103000000D01*
X36666666Y-103047619D01*
X36761904Y-103190476D01*
X36809523Y-103380952D01*
X36809523Y-103761904D01*
X36761904Y-103857142D01*
X36714285Y-103904761D01*
X36619047Y-103952380D01*
X36428571Y-103952380D01*
X36333333Y-103904761D01*
X36285714Y-103857142D01*
X36238095Y-103761904D01*
X36238095Y-103523809D01*
X36285714Y-103428571D01*
X36333333Y-103380952D01*
X36428571Y-103333333D01*
X36619047Y-103333333D01*
X36714285Y-103380952D01*
X36761904Y-103428571D01*
X36809523Y-103523809D01*
X24882380Y-52357142D02*
X24406190Y-52023809D01*
X24882380Y-51785714D02*
X23882380Y-51785714D01*
X23882380Y-52166666D01*
X23930000Y-52261904D01*
X23977619Y-52309523D01*
X24072857Y-52357142D01*
X24215714Y-52357142D01*
X24310952Y-52309523D01*
X24358571Y-52261904D01*
X24406190Y-52166666D01*
X24406190Y-51785714D01*
X24215714Y-53214285D02*
X24882380Y-53214285D01*
X23834761Y-52976190D02*
X24549047Y-52738095D01*
X24549047Y-53357142D01*
X23882380Y-53928571D02*
X23882380Y-54023809D01*
X23930000Y-54119047D01*
X23977619Y-54166666D01*
X24072857Y-54214285D01*
X24263333Y-54261904D01*
X24501428Y-54261904D01*
X24691904Y-54214285D01*
X24787142Y-54166666D01*
X24834761Y-54119047D01*
X24882380Y-54023809D01*
X24882380Y-53928571D01*
X24834761Y-53833333D01*
X24787142Y-53785714D01*
X24691904Y-53738095D01*
X24501428Y-53690476D01*
X24263333Y-53690476D01*
X24072857Y-53738095D01*
X23977619Y-53785714D01*
X23930000Y-53833333D01*
X23882380Y-53928571D01*
X27882380Y-52357142D02*
X27406190Y-52023809D01*
X27882380Y-51785714D02*
X26882380Y-51785714D01*
X26882380Y-52166666D01*
X26930000Y-52261904D01*
X26977619Y-52309523D01*
X27072857Y-52357142D01*
X27215714Y-52357142D01*
X27310952Y-52309523D01*
X27358571Y-52261904D01*
X27406190Y-52166666D01*
X27406190Y-51785714D01*
X26882380Y-52690476D02*
X26882380Y-53309523D01*
X27263333Y-52976190D01*
X27263333Y-53119047D01*
X27310952Y-53214285D01*
X27358571Y-53261904D01*
X27453809Y-53309523D01*
X27691904Y-53309523D01*
X27787142Y-53261904D01*
X27834761Y-53214285D01*
X27882380Y-53119047D01*
X27882380Y-52833333D01*
X27834761Y-52738095D01*
X27787142Y-52690476D01*
X27882380Y-53785714D02*
X27882380Y-53976190D01*
X27834761Y-54071428D01*
X27787142Y-54119047D01*
X27644285Y-54214285D01*
X27453809Y-54261904D01*
X27072857Y-54261904D01*
X26977619Y-54214285D01*
X26930000Y-54166666D01*
X26882380Y-54071428D01*
X26882380Y-53880952D01*
X26930000Y-53785714D01*
X26977619Y-53738095D01*
X27072857Y-53690476D01*
X27310952Y-53690476D01*
X27406190Y-53738095D01*
X27453809Y-53785714D01*
X27501428Y-53880952D01*
X27501428Y-54071428D01*
X27453809Y-54166666D01*
X27406190Y-54214285D01*
X27310952Y-54261904D01*
X25882380Y-76357142D02*
X25406190Y-76023809D01*
X25882380Y-75785714D02*
X24882380Y-75785714D01*
X24882380Y-76166666D01*
X24930000Y-76261904D01*
X24977619Y-76309523D01*
X25072857Y-76357142D01*
X25215714Y-76357142D01*
X25310952Y-76309523D01*
X25358571Y-76261904D01*
X25406190Y-76166666D01*
X25406190Y-75785714D01*
X24882380Y-76690476D02*
X24882380Y-77309523D01*
X25263333Y-76976190D01*
X25263333Y-77119047D01*
X25310952Y-77214285D01*
X25358571Y-77261904D01*
X25453809Y-77309523D01*
X25691904Y-77309523D01*
X25787142Y-77261904D01*
X25834761Y-77214285D01*
X25882380Y-77119047D01*
X25882380Y-76833333D01*
X25834761Y-76738095D01*
X25787142Y-76690476D01*
X25310952Y-77880952D02*
X25263333Y-77785714D01*
X25215714Y-77738095D01*
X25120476Y-77690476D01*
X25072857Y-77690476D01*
X24977619Y-77738095D01*
X24930000Y-77785714D01*
X24882380Y-77880952D01*
X24882380Y-78071428D01*
X24930000Y-78166666D01*
X24977619Y-78214285D01*
X25072857Y-78261904D01*
X25120476Y-78261904D01*
X25215714Y-78214285D01*
X25263333Y-78166666D01*
X25310952Y-78071428D01*
X25310952Y-77880952D01*
X25358571Y-77785714D01*
X25406190Y-77738095D01*
X25501428Y-77690476D01*
X25691904Y-77690476D01*
X25787142Y-77738095D01*
X25834761Y-77785714D01*
X25882380Y-77880952D01*
X25882380Y-78071428D01*
X25834761Y-78166666D01*
X25787142Y-78214285D01*
X25691904Y-78261904D01*
X25501428Y-78261904D01*
X25406190Y-78214285D01*
X25358571Y-78166666D01*
X25310952Y-78071428D01*
X28882380Y-76357142D02*
X28406190Y-76023809D01*
X28882380Y-75785714D02*
X27882380Y-75785714D01*
X27882380Y-76166666D01*
X27930000Y-76261904D01*
X27977619Y-76309523D01*
X28072857Y-76357142D01*
X28215714Y-76357142D01*
X28310952Y-76309523D01*
X28358571Y-76261904D01*
X28406190Y-76166666D01*
X28406190Y-75785714D01*
X27882380Y-76690476D02*
X27882380Y-77309523D01*
X28263333Y-76976190D01*
X28263333Y-77119047D01*
X28310952Y-77214285D01*
X28358571Y-77261904D01*
X28453809Y-77309523D01*
X28691904Y-77309523D01*
X28787142Y-77261904D01*
X28834761Y-77214285D01*
X28882380Y-77119047D01*
X28882380Y-76833333D01*
X28834761Y-76738095D01*
X28787142Y-76690476D01*
X27882380Y-77642857D02*
X27882380Y-78309523D01*
X28882380Y-77880952D01*
X24787142Y-56357142D02*
X24834761Y-56309523D01*
X24882380Y-56166666D01*
X24882380Y-56071428D01*
X24834761Y-55928571D01*
X24739523Y-55833333D01*
X24644285Y-55785714D01*
X24453809Y-55738095D01*
X24310952Y-55738095D01*
X24120476Y-55785714D01*
X24025238Y-55833333D01*
X23930000Y-55928571D01*
X23882380Y-56071428D01*
X23882380Y-56166666D01*
X23930000Y-56309523D01*
X23977619Y-56357142D01*
X23882380Y-57261904D02*
X23882380Y-56785714D01*
X24358571Y-56738095D01*
X24310952Y-56785714D01*
X24263333Y-56880952D01*
X24263333Y-57119047D01*
X24310952Y-57214285D01*
X24358571Y-57261904D01*
X24453809Y-57309523D01*
X24691904Y-57309523D01*
X24787142Y-57261904D01*
X24834761Y-57214285D01*
X24882380Y-57119047D01*
X24882380Y-56880952D01*
X24834761Y-56785714D01*
X24787142Y-56738095D01*
X24882380Y-57785714D02*
X24882380Y-57976190D01*
X24834761Y-58071428D01*
X24787142Y-58119047D01*
X24644285Y-58214285D01*
X24453809Y-58261904D01*
X24072857Y-58261904D01*
X23977619Y-58214285D01*
X23930000Y-58166666D01*
X23882380Y-58071428D01*
X23882380Y-57880952D01*
X23930000Y-57785714D01*
X23977619Y-57738095D01*
X24072857Y-57690476D01*
X24310952Y-57690476D01*
X24406190Y-57738095D01*
X24453809Y-57785714D01*
X24501428Y-57880952D01*
X24501428Y-58071428D01*
X24453809Y-58166666D01*
X24406190Y-58214285D01*
X24310952Y-58261904D01*
X27787142Y-56357142D02*
X27834761Y-56309523D01*
X27882380Y-56166666D01*
X27882380Y-56071428D01*
X27834761Y-55928571D01*
X27739523Y-55833333D01*
X27644285Y-55785714D01*
X27453809Y-55738095D01*
X27310952Y-55738095D01*
X27120476Y-55785714D01*
X27025238Y-55833333D01*
X26930000Y-55928571D01*
X26882380Y-56071428D01*
X26882380Y-56166666D01*
X26930000Y-56309523D01*
X26977619Y-56357142D01*
X26882380Y-57261904D02*
X26882380Y-56785714D01*
X27358571Y-56738095D01*
X27310952Y-56785714D01*
X27263333Y-56880952D01*
X27263333Y-57119047D01*
X27310952Y-57214285D01*
X27358571Y-57261904D01*
X27453809Y-57309523D01*
X27691904Y-57309523D01*
X27787142Y-57261904D01*
X27834761Y-57214285D01*
X27882380Y-57119047D01*
X27882380Y-56880952D01*
X27834761Y-56785714D01*
X27787142Y-56738095D01*
X27310952Y-57880952D02*
X27263333Y-57785714D01*
X27215714Y-57738095D01*
X27120476Y-57690476D01*
X27072857Y-57690476D01*
X26977619Y-57738095D01*
X26930000Y-57785714D01*
X26882380Y-57880952D01*
X26882380Y-58071428D01*
X26930000Y-58166666D01*
X26977619Y-58214285D01*
X27072857Y-58261904D01*
X27120476Y-58261904D01*
X27215714Y-58214285D01*
X27263333Y-58166666D01*
X27310952Y-58071428D01*
X27310952Y-57880952D01*
X27358571Y-57785714D01*
X27406190Y-57738095D01*
X27501428Y-57690476D01*
X27691904Y-57690476D01*
X27787142Y-57738095D01*
X27834761Y-57785714D01*
X27882380Y-57880952D01*
X27882380Y-58071428D01*
X27834761Y-58166666D01*
X27787142Y-58214285D01*
X27691904Y-58261904D01*
X27501428Y-58261904D01*
X27406190Y-58214285D01*
X27358571Y-58166666D01*
X27310952Y-58071428D01*
X25787142Y-81357142D02*
X25834761Y-81309523D01*
X25882380Y-81166666D01*
X25882380Y-81071428D01*
X25834761Y-80928571D01*
X25739523Y-80833333D01*
X25644285Y-80785714D01*
X25453809Y-80738095D01*
X25310952Y-80738095D01*
X25120476Y-80785714D01*
X25025238Y-80833333D01*
X24930000Y-80928571D01*
X24882380Y-81071428D01*
X24882380Y-81166666D01*
X24930000Y-81309523D01*
X24977619Y-81357142D01*
X24882380Y-82261904D02*
X24882380Y-81785714D01*
X25358571Y-81738095D01*
X25310952Y-81785714D01*
X25263333Y-81880952D01*
X25263333Y-82119047D01*
X25310952Y-82214285D01*
X25358571Y-82261904D01*
X25453809Y-82309523D01*
X25691904Y-82309523D01*
X25787142Y-82261904D01*
X25834761Y-82214285D01*
X25882380Y-82119047D01*
X25882380Y-81880952D01*
X25834761Y-81785714D01*
X25787142Y-81738095D01*
X24882380Y-82642857D02*
X24882380Y-83309523D01*
X25882380Y-82880952D01*
X28787142Y-81357142D02*
X28834761Y-81309523D01*
X28882380Y-81166666D01*
X28882380Y-81071428D01*
X28834761Y-80928571D01*
X28739523Y-80833333D01*
X28644285Y-80785714D01*
X28453809Y-80738095D01*
X28310952Y-80738095D01*
X28120476Y-80785714D01*
X28025238Y-80833333D01*
X27930000Y-80928571D01*
X27882380Y-81071428D01*
X27882380Y-81166666D01*
X27930000Y-81309523D01*
X27977619Y-81357142D01*
X27882380Y-82261904D02*
X27882380Y-81785714D01*
X28358571Y-81738095D01*
X28310952Y-81785714D01*
X28263333Y-81880952D01*
X28263333Y-82119047D01*
X28310952Y-82214285D01*
X28358571Y-82261904D01*
X28453809Y-82309523D01*
X28691904Y-82309523D01*
X28787142Y-82261904D01*
X28834761Y-82214285D01*
X28882380Y-82119047D01*
X28882380Y-81880952D01*
X28834761Y-81785714D01*
X28787142Y-81738095D01*
X27882380Y-83166666D02*
X27882380Y-82976190D01*
X27930000Y-82880952D01*
X27977619Y-82833333D01*
X28120476Y-82738095D01*
X28310952Y-82690476D01*
X28691904Y-82690476D01*
X28787142Y-82738095D01*
X28834761Y-82785714D01*
X28882380Y-82880952D01*
X28882380Y-83071428D01*
X28834761Y-83166666D01*
X28787142Y-83214285D01*
X28691904Y-83261904D01*
X28453809Y-83261904D01*
X28358571Y-83214285D01*
X28310952Y-83166666D01*
X28263333Y-83071428D01*
X28263333Y-82880952D01*
X28310952Y-82785714D01*
X28358571Y-82738095D01*
X28453809Y-82690476D01*
X24787142Y-60357142D02*
X24834761Y-60309523D01*
X24882380Y-60166666D01*
X24882380Y-60071428D01*
X24834761Y-59928571D01*
X24739523Y-59833333D01*
X24644285Y-59785714D01*
X24453809Y-59738095D01*
X24310952Y-59738095D01*
X24120476Y-59785714D01*
X24025238Y-59833333D01*
X23930000Y-59928571D01*
X23882380Y-60071428D01*
X23882380Y-60166666D01*
X23930000Y-60309523D01*
X23977619Y-60357142D01*
X23882380Y-61261904D02*
X23882380Y-60785714D01*
X24358571Y-60738095D01*
X24310952Y-60785714D01*
X24263333Y-60880952D01*
X24263333Y-61119047D01*
X24310952Y-61214285D01*
X24358571Y-61261904D01*
X24453809Y-61309523D01*
X24691904Y-61309523D01*
X24787142Y-61261904D01*
X24834761Y-61214285D01*
X24882380Y-61119047D01*
X24882380Y-60880952D01*
X24834761Y-60785714D01*
X24787142Y-60738095D01*
X23882380Y-62214285D02*
X23882380Y-61738095D01*
X24358571Y-61690476D01*
X24310952Y-61738095D01*
X24263333Y-61833333D01*
X24263333Y-62071428D01*
X24310952Y-62166666D01*
X24358571Y-62214285D01*
X24453809Y-62261904D01*
X24691904Y-62261904D01*
X24787142Y-62214285D01*
X24834761Y-62166666D01*
X24882380Y-62071428D01*
X24882380Y-61833333D01*
X24834761Y-61738095D01*
X24787142Y-61690476D01*
X27787142Y-60357142D02*
X27834761Y-60309523D01*
X27882380Y-60166666D01*
X27882380Y-60071428D01*
X27834761Y-59928571D01*
X27739523Y-59833333D01*
X27644285Y-59785714D01*
X27453809Y-59738095D01*
X27310952Y-59738095D01*
X27120476Y-59785714D01*
X27025238Y-59833333D01*
X26930000Y-59928571D01*
X26882380Y-60071428D01*
X26882380Y-60166666D01*
X26930000Y-60309523D01*
X26977619Y-60357142D01*
X26882380Y-61261904D02*
X26882380Y-60785714D01*
X27358571Y-60738095D01*
X27310952Y-60785714D01*
X27263333Y-60880952D01*
X27263333Y-61119047D01*
X27310952Y-61214285D01*
X27358571Y-61261904D01*
X27453809Y-61309523D01*
X27691904Y-61309523D01*
X27787142Y-61261904D01*
X27834761Y-61214285D01*
X27882380Y-61119047D01*
X27882380Y-60880952D01*
X27834761Y-60785714D01*
X27787142Y-60738095D01*
X27215714Y-62166666D02*
X27882380Y-62166666D01*
X26834761Y-61928571D02*
X27549047Y-61690476D01*
X27549047Y-62309523D01*
X25787142Y-86357142D02*
X25834761Y-86309523D01*
X25882380Y-86166666D01*
X25882380Y-86071428D01*
X25834761Y-85928571D01*
X25739523Y-85833333D01*
X25644285Y-85785714D01*
X25453809Y-85738095D01*
X25310952Y-85738095D01*
X25120476Y-85785714D01*
X25025238Y-85833333D01*
X24930000Y-85928571D01*
X24882380Y-86071428D01*
X24882380Y-86166666D01*
X24930000Y-86309523D01*
X24977619Y-86357142D01*
X24882380Y-87261904D02*
X24882380Y-86785714D01*
X25358571Y-86738095D01*
X25310952Y-86785714D01*
X25263333Y-86880952D01*
X25263333Y-87119047D01*
X25310952Y-87214285D01*
X25358571Y-87261904D01*
X25453809Y-87309523D01*
X25691904Y-87309523D01*
X25787142Y-87261904D01*
X25834761Y-87214285D01*
X25882380Y-87119047D01*
X25882380Y-86880952D01*
X25834761Y-86785714D01*
X25787142Y-86738095D01*
X24882380Y-87642857D02*
X24882380Y-88261904D01*
X25263333Y-87928571D01*
X25263333Y-88071428D01*
X25310952Y-88166666D01*
X25358571Y-88214285D01*
X25453809Y-88261904D01*
X25691904Y-88261904D01*
X25787142Y-88214285D01*
X25834761Y-88166666D01*
X25882380Y-88071428D01*
X25882380Y-87785714D01*
X25834761Y-87690476D01*
X25787142Y-87642857D01*
X28787142Y-86357142D02*
X28834761Y-86309523D01*
X28882380Y-86166666D01*
X28882380Y-86071428D01*
X28834761Y-85928571D01*
X28739523Y-85833333D01*
X28644285Y-85785714D01*
X28453809Y-85738095D01*
X28310952Y-85738095D01*
X28120476Y-85785714D01*
X28025238Y-85833333D01*
X27930000Y-85928571D01*
X27882380Y-86071428D01*
X27882380Y-86166666D01*
X27930000Y-86309523D01*
X27977619Y-86357142D01*
X27882380Y-87261904D02*
X27882380Y-86785714D01*
X28358571Y-86738095D01*
X28310952Y-86785714D01*
X28263333Y-86880952D01*
X28263333Y-87119047D01*
X28310952Y-87214285D01*
X28358571Y-87261904D01*
X28453809Y-87309523D01*
X28691904Y-87309523D01*
X28787142Y-87261904D01*
X28834761Y-87214285D01*
X28882380Y-87119047D01*
X28882380Y-86880952D01*
X28834761Y-86785714D01*
X28787142Y-86738095D01*
X27977619Y-87690476D02*
X27930000Y-87738095D01*
X27882380Y-87833333D01*
X27882380Y-88071428D01*
X27930000Y-88166666D01*
X27977619Y-88214285D01*
X28072857Y-88261904D01*
X28168095Y-88261904D01*
X28310952Y-88214285D01*
X28882380Y-87642857D01*
X28882380Y-88261904D01*
M02*
