M48
; DRILL file {KiCad 5.1.2-f72e74a~84~ubuntu18.04.1} date Thursday, June 06, 2019 PM05:17:48 HKT
; FORMAT={-:-/ absolute / inch / decimal}
; #@! TF.CreationDate,2019-06-06T17:17:48+08:00
; #@! TF.GenerationSoftware,Kicad,Pcbnew,5.1.2-f72e74a~84~ubuntu18.04.1
; #@! TF.FileFunction,NonPlated,1,2,NPTH
FMAT,2
INCH
T1C0.0709
T2C0.1063
T3C0.1570
%
G90
G05
T1
X2.0638Y-2.4803
X2.4638Y-2.4803
X2.8512Y-2.4803
X3.2512Y-2.4803
X1.2764Y-3.248
X1.6764Y-3.248
X2.8512Y-3.248
X3.2512Y-3.248
X2.8512Y-1.7126
X3.2512Y-1.7126
X2.0638Y-3.248
X2.4638Y-3.248
X1.2764Y-2.4803
X1.6764Y-2.4803
X2.0638Y-1.7126
X2.4638Y-1.7126
X1.2764Y-1.7126
X1.6764Y-1.7126
T2
X2.6575Y-2.8543
X1.8701Y-2.0669
X0.9843Y-0.9843
X4.3307Y-2.6575
X4.3307Y-0.9843
X4.3307Y-4.3307
X0.9843Y-4.3307
X0.9843Y-2.6575
T3
X2.2638Y-3.248
X2.2638Y-1.7126
X1.4764Y-1.7126
X1.4764Y-3.248
X3.0512Y-3.248
X3.0512Y-1.7126
X1.4764Y-2.4803
X2.2638Y-2.4803
X3.0512Y-2.4803
T0
M30
