M48
; DRILL file {KiCad 5.1.2-f72e74a~84~ubuntu18.04.1} date Thursday, June 06, 2019 PM04:00:10 HKT
; FORMAT={-:-/ absolute / inch / decimal}
; #@! TF.CreationDate,2019-06-06T16:00:10+08:00
; #@! TF.GenerationSoftware,Kicad,Pcbnew,5.1.2-f72e74a~84~ubuntu18.04.1
; #@! TF.FileFunction,Plated,1,2,PTH
FMAT,2
INCH
T1C0.0157
T2C0.0236
T3C0.0256
T4C0.0315
T5C0.0315
T6C0.0335
T7C0.0394
T8C0.0472
T9C0.0590
T10C0.0591
%
G90
G05
T1
X0.9096Y-1.9728
X0.9419Y-1.5738
X0.9739Y-1.7713
X0.9781Y-1.6201
X0.9802Y-1.8953
X0.9974Y-1.5075
X1.028Y-1.3362
X1.0305Y-1.9459
X1.0697Y-1.4656
X1.0739Y-2.1899
X1.0748Y-1.8528
X1.1176Y-2.3794
X1.1398Y-2.3002
X1.1831Y-2.1919
X1.2224Y-2.9242
X1.2333Y-2.125
X1.2406Y-1.2436
X1.2953Y-2.5807
X1.3091Y-2.8169
X1.3799Y-2.1417
X1.4346Y-2.9245
X1.4734Y-2.7638
X1.4783Y-4.0581
X1.5965Y-2.7923
X1.6265Y-3.0248
X1.6299Y-0.9598
X1.6703Y-3.028
X1.7234Y-1.2667
X1.7776Y-2.9055
X1.9409Y-2.6644
X1.9715Y-2.9085
X2.0079Y-3.8514
X2.0893Y-2.8793
X2.1171Y-4.0344
X2.1447Y-4.2205
X2.3344Y-2.3117
X2.3687Y-4.3636
X2.3701Y-3.8425
X2.3711Y-4.248
X2.373Y-3.9941
X2.4435Y-0.8848
X2.4498Y-3.7411
X2.5541Y-1.9951
X2.5704Y-1.046
X2.5915Y-2.3366
X2.5974Y-4.0207
X2.6112Y-1.4675
X2.6594Y-2.6289
X2.6831Y-3.9234
X2.6831Y-4.1181
X2.6831Y-4.315
X2.7215Y-2.5079
X2.7293Y-4.315
X2.7811Y-1.3142
X2.8332Y-3.0403
X2.8642Y-3.8465
X2.8694Y-1.3726
X2.886Y-1.0344
X2.9009Y-2.9094
X2.9372Y-1.2328
X2.9852Y-2.0335
X2.9988Y-2.9928
X3.003Y-1.1831
X3.0433Y-3.1447
X3.0567Y-2.7071
X3.0709Y-4.0748
X3.0755Y-2.3006
X3.0994Y-1.2677
X3.1053Y-2.5925
X3.1502Y-1.1317
X3.1549Y-1.0685
X3.1673Y-4.0778
X3.1683Y-4.1329
X3.1762Y-2.4252
X3.2146Y-3.5551
X3.2247Y-3.0181
X3.2309Y-1.0278
X3.2549Y-3.501
X3.2702Y-1.5802
X3.2846Y-2.9877
X3.2874Y-1.2746
X3.3114Y-4.1524
X3.339Y-1.0118
X3.3484Y-3.8159
X3.3563Y-2.8504
X3.3622Y-2.7224
X3.3836Y-2.9219
X3.3841Y-2.4212
X3.3868Y-3.9911
X3.4135Y-2.4618
X3.4197Y-3.0679
X3.4212Y-1.4448
X3.4358Y-1.9382
X3.44Y-1.8172
X3.4439Y-2.1024
X3.4459Y-2.0581
X3.4498Y-3.75
X3.4528Y-1.3258
X3.4587Y-2.8848
X3.4614Y-3.0405
X3.4656Y-1.4441
X3.478Y-3.0019
X3.4852Y-1.0335
X3.5138Y-1.1614
X3.5228Y-2.7974
X3.5276Y-2.6398
X3.5374Y-4.1752
X3.5375Y-3.3178
X3.5443Y-1.249
X3.5443Y-1.4291
X3.5482Y-1.3248
X3.563Y-2.4961
X3.5697Y-3.9689
X3.5778Y-2.6831
X3.6063Y-1.8593
X3.6132Y-2.562
X3.6142Y-1.5098
X3.6308Y-2.9278
X3.6644Y-3.4961
X3.6808Y-2.9304
X3.6891Y-1.1231
X3.7028Y-1.0807
X3.7096Y-1.7018
X3.7146Y-1.6476
X3.7156Y-2.3593
X3.7174Y-1.2258
X3.7322Y-2.7519
X3.735Y-1.8257
X3.7385Y-1.7855
X3.7451Y-2.9246
X3.748Y-1.5285
X3.7583Y-4.3705
X3.7626Y-3.9689
X3.7663Y-2.4866
X3.7812Y-3.2995
X3.7933Y-3.1644
X3.8002Y-2.0541
X3.8168Y-3.2639
X3.8233Y-2.5029
X3.8343Y-2.9364
X3.8509Y-3.6959
X3.8577Y-3.0988
X3.8837Y-3.4814
X3.9156Y-2.5342
X3.9252Y-3.812
X3.9334Y-1.5394
X3.9338Y-3.059
X3.9405Y-2.7131
X3.9616Y-2.6442
X3.999Y-2.9665
X4.003Y-2.8565
X4.0285Y-2.5118
X4.0372Y-1.5394
X4.0439Y-2.844
X4.0525Y-1.6953
X4.065Y-2.8107
X4.065Y-2.9175
X4.0817Y-1.7613
X4.0896Y-3.5522
X4.1083Y-4.1732
X4.1191Y-2.0728
X4.127Y-2.7185
X4.1305Y-1.9016
X4.1457Y-1.3278
X4.1535Y-2.7659
X4.1593Y-1.975
X4.2047Y-1.796
X4.2303Y-1.2067
X4.2579Y-3.1594
X4.3081Y-1.3238
X1.4921Y-1.1457
X1.5394Y-1.1457
X1.5866Y-1.1457
X2.2362Y-1.1437
X2.2835Y-1.1437
X2.3307Y-1.1437
X3.9823Y-1.7642
T3
X3.189Y-3.9567
X3.239Y-3.9567
X3.9232Y-4.2657
X3.9232Y-4.3157
X1.1992Y-3.7795
X1.2492Y-3.7795
X1.2992Y-3.7795
X1.9079Y-3.7795
X1.9579Y-3.7795
X2.0079Y-3.7795
T4
X3.5575Y-1.615
X3.5575Y-1.8071
T5
X3.6024Y-3.3646
X3.6024Y-3.5646
T6
X2.8543Y-0.9572
X3.0512Y-0.9572
X3.2661Y-0.9572
X3.463Y-0.9572
T7
X4.09Y-3.9206
X4.19Y-3.9206
X4.29Y-3.9206
X4.39Y-3.9206
X3.7795Y-0.9055
X3.8795Y-0.9055
X3.9795Y-0.9055
X4.0795Y-0.9055
X3.378Y-1.2795
X3.9055Y-3.9134
X3.9055Y-4.0134
X3.878Y-2.2047
X3.978Y-2.2047
X4.065Y-3.3071
X4.065Y-3.0709
X4.065Y-3.189
X4.3701Y-3.0413
X4.3701Y-3.2776
X4.3701Y-3.1594
X3.7795Y-1.063
X3.8795Y-1.063
X3.9795Y-1.063
X4.0795Y-1.063
X4.3701Y-2.9232
T8
X1.189Y-4.0268
X1.189Y-4.2236
X1.7598Y-4.0268
X1.7598Y-4.1252
X1.7598Y-4.2236
X1.8976Y-4.0268
X1.8976Y-4.2236
X2.4685Y-4.0268
X2.4685Y-4.1252
X2.4685Y-4.2236
T9
X1.3764Y-3.448
X1.6264Y-3.348
X2.9512Y-3.448
X3.2012Y-3.348
X2.1638Y-3.448
X2.4138Y-3.348
X2.9512Y-1.9126
X3.2012Y-1.8126
X1.3764Y-2.6803
X1.6264Y-2.5803
X2.9512Y-2.6803
X3.2012Y-2.5803
X1.3764Y-1.9126
X1.6264Y-1.8126
X2.1638Y-1.9126
X2.4138Y-1.8126
X2.1638Y-2.6803
X2.4138Y-2.5803
T2
G00X2.815Y-0.8647
M15
G01X2.815Y-0.8371
M16
G05
G00X3.0906Y-0.8371
M15
G01X3.0906Y-0.8647
M16
G05
G00X3.2268Y-0.8647
M15
G01X3.2268Y-0.8371
M16
G05
G00X3.5024Y-0.8371
M15
G01X3.5024Y-0.8647
M16
G05
T10
G00X1.4902Y-3.9047
M15
G01X1.439Y-3.9047
M16
G05
G00X1.4902Y-4.3457
M15
G01X1.439Y-4.3457
M16
G05
G00X2.1988Y-3.9047
M15
G01X2.1476Y-3.9047
M16
G05
G00X2.1988Y-4.3457
M15
G01X2.1476Y-4.3457
M16
G05
T0
M30
