G04 #@! TF.GenerationSoftware,KiCad,Pcbnew,5.1.2-f72e74a~84~ubuntu18.04.1*
G04 #@! TF.CreationDate,2019-06-06T17:17:49+08:00*
G04 #@! TF.ProjectId,stm32_aux_keyboard,73746d33-325f-4617-9578-5f6b6579626f,rev?*
G04 #@! TF.SameCoordinates,Original*
G04 #@! TF.FileFunction,Legend,Top*
G04 #@! TF.FilePolarity,Positive*
%FSLAX46Y46*%
G04 Gerber Fmt 4.6, Leading zero omitted, Abs format (unit mm)*
G04 Created by KiCad (PCBNEW 5.1.2-f72e74a~84~ubuntu18.04.1) date 2019-06-06 17:17:49*
%MOMM*%
%LPD*%
G04 APERTURE LIST*
%ADD10C,0.120000*%
%ADD11C,0.200000*%
%ADD12C,0.100000*%
%ADD13C,0.203200*%
%ADD14C,0.381000*%
%ADD15C,0.127000*%
%ADD16C,0.150000*%
%ADD17C,0.250000*%
%ADD18C,0.152400*%
G04 APERTURE END LIST*
D10*
X107336248Y-106810000D02*
X107700000Y-106810000D01*
X104163752Y-106810000D02*
X103800000Y-106810000D01*
X107336248Y-101690000D02*
X107700000Y-101690000D01*
X104163752Y-101690000D02*
X102300000Y-101690000D01*
X112940000Y-55155000D02*
X112940000Y-51630000D01*
X112940000Y-55155000D02*
X112940000Y-57035000D01*
X107760000Y-55155000D02*
X107760000Y-53275000D01*
X107760000Y-55155000D02*
X107760000Y-57035000D01*
X106165000Y-55753733D02*
X106165000Y-56096267D01*
X107185000Y-55753733D02*
X107185000Y-56096267D01*
D11*
X105050000Y-55850000D02*
X105050000Y-56050000D01*
D12*
X105150000Y-56000000D02*
X104950000Y-56000000D01*
X104750000Y-56150000D02*
X105350000Y-56150000D01*
X105050000Y-55750000D02*
X104750000Y-56150000D01*
X104850000Y-56050000D02*
X105250000Y-56050000D01*
X105350000Y-56150000D02*
X105050000Y-55750000D01*
D10*
X104315000Y-55150000D02*
X104315000Y-57435000D01*
X104315000Y-57435000D02*
X105785000Y-57435000D01*
X105785000Y-57435000D02*
X105785000Y-55150000D01*
X111886252Y-101890000D02*
X111363748Y-101890000D01*
X111886252Y-103310000D02*
X111363748Y-103310000D01*
X107185000Y-52596267D02*
X107185000Y-52253733D01*
X106165000Y-52596267D02*
X106165000Y-52253733D01*
D13*
X100000000Y-84200000D02*
G75*
G02X99000000Y-84200000I-500000J0D01*
G01*
X98000000Y-89400000D02*
X98000000Y-86600000D01*
X101000000Y-86600000D02*
X101000000Y-89400000D01*
D14*
X82389000Y-110048000D02*
X84543500Y-107893500D01*
D15*
X79500000Y-102750000D02*
X83500000Y-102750000D01*
X77250000Y-109000000D02*
X77250000Y-105000000D01*
X79500000Y-111250000D02*
X83500000Y-111250000D01*
X85750000Y-105000000D02*
X85750000Y-109000000D01*
D14*
X83850000Y-88850000D02*
X82072000Y-88850000D01*
X72928000Y-88850000D02*
X71150000Y-88850000D01*
X71150000Y-88850000D02*
X71150000Y-87072000D01*
X71150000Y-77928000D02*
X71150000Y-76150000D01*
X71150000Y-76150000D02*
X72928000Y-76150000D01*
X82072000Y-76150000D02*
X83850000Y-76150000D01*
X83850000Y-76150000D02*
X83850000Y-77928000D01*
X83850000Y-87072000D02*
X83850000Y-88850000D01*
X63850000Y-88850000D02*
X62072000Y-88850000D01*
X52928000Y-88850000D02*
X51150000Y-88850000D01*
X51150000Y-88850000D02*
X51150000Y-87072000D01*
X51150000Y-77928000D02*
X51150000Y-76150000D01*
X51150000Y-76150000D02*
X52928000Y-76150000D01*
X62072000Y-76150000D02*
X63850000Y-76150000D01*
X63850000Y-76150000D02*
X63850000Y-77928000D01*
X63850000Y-87072000D02*
X63850000Y-88850000D01*
X43850000Y-88850000D02*
X42072000Y-88850000D01*
X32928000Y-88850000D02*
X31150000Y-88850000D01*
X31150000Y-88850000D02*
X31150000Y-87072000D01*
X31150000Y-77928000D02*
X31150000Y-76150000D01*
X31150000Y-76150000D02*
X32928000Y-76150000D01*
X42072000Y-76150000D02*
X43850000Y-76150000D01*
X43850000Y-76150000D02*
X43850000Y-77928000D01*
X43850000Y-87072000D02*
X43850000Y-88850000D01*
X83850000Y-69350000D02*
X82072000Y-69350000D01*
X72928000Y-69350000D02*
X71150000Y-69350000D01*
X71150000Y-69350000D02*
X71150000Y-67572000D01*
X71150000Y-58428000D02*
X71150000Y-56650000D01*
X71150000Y-56650000D02*
X72928000Y-56650000D01*
X82072000Y-56650000D02*
X83850000Y-56650000D01*
X83850000Y-56650000D02*
X83850000Y-58428000D01*
X83850000Y-67572000D02*
X83850000Y-69350000D01*
X63850000Y-69350000D02*
X62072000Y-69350000D01*
X52928000Y-69350000D02*
X51150000Y-69350000D01*
X51150000Y-69350000D02*
X51150000Y-67572000D01*
X51150000Y-58428000D02*
X51150000Y-56650000D01*
X51150000Y-56650000D02*
X52928000Y-56650000D01*
X62072000Y-56650000D02*
X63850000Y-56650000D01*
X63850000Y-56650000D02*
X63850000Y-58428000D01*
X63850000Y-67572000D02*
X63850000Y-69350000D01*
X43850000Y-69350000D02*
X42072000Y-69350000D01*
X32928000Y-69350000D02*
X31150000Y-69350000D01*
X31150000Y-69350000D02*
X31150000Y-67572000D01*
X31150000Y-58428000D02*
X31150000Y-56650000D01*
X31150000Y-56650000D02*
X32928000Y-56650000D01*
X42072000Y-56650000D02*
X43850000Y-56650000D01*
X43850000Y-56650000D02*
X43850000Y-58428000D01*
X43850000Y-67572000D02*
X43850000Y-69350000D01*
X83850000Y-49850000D02*
X82072000Y-49850000D01*
X72928000Y-49850000D02*
X71150000Y-49850000D01*
X71150000Y-49850000D02*
X71150000Y-48072000D01*
X71150000Y-38928000D02*
X71150000Y-37150000D01*
X71150000Y-37150000D02*
X72928000Y-37150000D01*
X82072000Y-37150000D02*
X83850000Y-37150000D01*
X83850000Y-37150000D02*
X83850000Y-38928000D01*
X83850000Y-48072000D02*
X83850000Y-49850000D01*
X63850000Y-49850000D02*
X62072000Y-49850000D01*
X52928000Y-49850000D02*
X51150000Y-49850000D01*
X51150000Y-49850000D02*
X51150000Y-48072000D01*
X51150000Y-38928000D02*
X51150000Y-37150000D01*
X51150000Y-37150000D02*
X52928000Y-37150000D01*
X62072000Y-37150000D02*
X63850000Y-37150000D01*
X63850000Y-37150000D02*
X63850000Y-38928000D01*
X63850000Y-48072000D02*
X63850000Y-49850000D01*
X43850000Y-49850000D02*
X42072000Y-49850000D01*
X32928000Y-49850000D02*
X31150000Y-49850000D01*
X31150000Y-49850000D02*
X31150000Y-48072000D01*
X31150000Y-38928000D02*
X31150000Y-37150000D01*
X31150000Y-37150000D02*
X32928000Y-37150000D01*
X42072000Y-37150000D02*
X43850000Y-37150000D01*
X43850000Y-37150000D02*
X43850000Y-38928000D01*
X43850000Y-48072000D02*
X43850000Y-49850000D01*
D10*
X87160000Y-25162500D02*
X87160000Y-24712500D01*
X87160000Y-25162500D02*
X86710000Y-25162500D01*
X81560000Y-24612500D02*
X82010000Y-24612500D01*
X81560000Y-22762500D02*
X81560000Y-24612500D01*
X89360000Y-20212500D02*
X89360000Y-20462500D01*
X81560000Y-20212500D02*
X81560000Y-20462500D01*
X89360000Y-22762500D02*
X89360000Y-24612500D01*
X89360000Y-24612500D02*
X88910000Y-24612500D01*
X76700000Y-25162500D02*
X76700000Y-24712500D01*
X76700000Y-25162500D02*
X76250000Y-25162500D01*
X71100000Y-24612500D02*
X71550000Y-24612500D01*
X71100000Y-22762500D02*
X71100000Y-24612500D01*
X78900000Y-20212500D02*
X78900000Y-20462500D01*
X71100000Y-20212500D02*
X71100000Y-20462500D01*
X78900000Y-22762500D02*
X78900000Y-24612500D01*
X78900000Y-24612500D02*
X78450000Y-24612500D01*
X104710000Y-41250000D02*
X104710000Y-41670000D01*
X104710000Y-48370000D02*
X104710000Y-47950000D01*
X97590000Y-48370000D02*
X97590000Y-47950000D01*
X97590000Y-41250000D02*
X98010000Y-41250000D01*
X104710000Y-48370000D02*
X104290000Y-48370000D01*
X104710000Y-41250000D02*
X104290000Y-41250000D01*
X97590000Y-41670000D02*
X96210000Y-41670000D01*
X97590000Y-41250000D02*
X97590000Y-41670000D01*
X97590000Y-48370000D02*
X98010000Y-48370000D01*
D16*
X82900000Y-29200000D02*
G75*
G03X82900000Y-29200000I-300000J0D01*
G01*
X82800000Y-29200000D02*
G75*
G03X82800000Y-29200000I-200000J0D01*
G01*
X82700000Y-29200000D02*
G75*
G03X82700000Y-29200000I-100000J0D01*
G01*
D15*
X81601500Y-29598600D02*
X81601500Y-26601400D01*
X81601500Y-26601400D02*
X82998500Y-26601400D01*
X82998500Y-26601400D02*
X82998500Y-29598600D01*
X82998500Y-29598600D02*
X81601500Y-29598600D01*
D10*
X25660000Y-33280000D02*
X23210000Y-33280000D01*
X23860000Y-36500000D02*
X25660000Y-36500000D01*
X98540000Y-107590000D02*
X99650000Y-107590000D01*
X98540000Y-108350000D02*
X98540000Y-107590000D01*
X100213471Y-109110000D02*
X100760000Y-109110000D01*
X98540000Y-109110000D02*
X99086529Y-109110000D01*
X100760000Y-109110000D02*
X100760000Y-110315000D01*
X98540000Y-109110000D02*
X98540000Y-110315000D01*
X99957530Y-110315000D02*
X100760000Y-110315000D01*
X98540000Y-110315000D02*
X99342470Y-110315000D01*
X96660000Y-112160000D02*
X96660000Y-111010000D01*
X89360000Y-112160000D02*
X96660000Y-112160000D01*
X89360000Y-106660000D02*
X96660000Y-106660000D01*
X96770000Y-105160000D02*
X96770000Y-104010000D01*
X89470000Y-105160000D02*
X96770000Y-105160000D01*
X89470000Y-99660000D02*
X96770000Y-99660000D01*
X81150000Y-78250000D02*
X81150000Y-77100000D01*
X73850000Y-78250000D02*
X81150000Y-78250000D01*
X73850000Y-72750000D02*
X81150000Y-72750000D01*
X61150000Y-78250000D02*
X61150000Y-77100000D01*
X53850000Y-78250000D02*
X61150000Y-78250000D01*
X53850000Y-72750000D02*
X61150000Y-72750000D01*
X41150000Y-78250000D02*
X41150000Y-77100000D01*
X33850000Y-78250000D02*
X41150000Y-78250000D01*
X33850000Y-72750000D02*
X41150000Y-72750000D01*
X81150000Y-58750000D02*
X81150000Y-57600000D01*
X73850000Y-58750000D02*
X81150000Y-58750000D01*
X73850000Y-53250000D02*
X81150000Y-53250000D01*
X61150000Y-58750000D02*
X61150000Y-57600000D01*
X53850000Y-58750000D02*
X61150000Y-58750000D01*
X53850000Y-53250000D02*
X61150000Y-53250000D01*
X41150000Y-58750000D02*
X41150000Y-57600000D01*
X33850000Y-58750000D02*
X41150000Y-58750000D01*
X33850000Y-53250000D02*
X41150000Y-53250000D01*
X81150000Y-39250000D02*
X81150000Y-38100000D01*
X73850000Y-39250000D02*
X81150000Y-39250000D01*
X73850000Y-33750000D02*
X81150000Y-33750000D01*
X61150000Y-39250000D02*
X61150000Y-38100000D01*
X53850000Y-39250000D02*
X61150000Y-39250000D01*
X53850000Y-33750000D02*
X61150000Y-33750000D01*
X41150000Y-39250000D02*
X41150000Y-38100000D01*
X33850000Y-39250000D02*
X41150000Y-39250000D01*
X33850000Y-33750000D02*
X41150000Y-33750000D01*
D11*
X24210000Y-48140000D02*
X24010000Y-48140000D01*
D12*
X24060000Y-48240000D02*
X24060000Y-48040000D01*
X23910000Y-47840000D02*
X23910000Y-48440000D01*
X24310000Y-48140000D02*
X23910000Y-47840000D01*
X24010000Y-47940000D02*
X24010000Y-48340000D01*
X23910000Y-48440000D02*
X24310000Y-48140000D01*
D10*
X24910000Y-47405000D02*
X22625000Y-47405000D01*
X22625000Y-47405000D02*
X22625000Y-48875000D01*
X22625000Y-48875000D02*
X24910000Y-48875000D01*
D11*
X24050000Y-44990000D02*
X23850000Y-44990000D01*
D12*
X23900000Y-45090000D02*
X23900000Y-44890000D01*
X23750000Y-44690000D02*
X23750000Y-45290000D01*
X24150000Y-44990000D02*
X23750000Y-44690000D01*
X23850000Y-44790000D02*
X23850000Y-45190000D01*
X23750000Y-45290000D02*
X24150000Y-44990000D01*
D10*
X24750000Y-44255000D02*
X22465000Y-44255000D01*
X22465000Y-44255000D02*
X22465000Y-45725000D01*
X22465000Y-45725000D02*
X24750000Y-45725000D01*
D11*
X24130000Y-42270000D02*
X23930000Y-42270000D01*
D12*
X23980000Y-42370000D02*
X23980000Y-42170000D01*
X23830000Y-41970000D02*
X23830000Y-42570000D01*
X24230000Y-42270000D02*
X23830000Y-41970000D01*
X23930000Y-42070000D02*
X23930000Y-42470000D01*
X23830000Y-42570000D02*
X24230000Y-42270000D01*
D10*
X24830000Y-41535000D02*
X22545000Y-41535000D01*
X22545000Y-41535000D02*
X22545000Y-43005000D01*
X22545000Y-43005000D02*
X24830000Y-43005000D01*
X24288733Y-38800000D02*
X24631267Y-38800000D01*
X24288733Y-37780000D02*
X24631267Y-37780000D01*
X23808733Y-50620000D02*
X24151267Y-50620000D01*
X23808733Y-49600000D02*
X24151267Y-49600000D01*
X92885000Y-40260000D02*
G75*
G03X87835000Y-40260000I-2525000J0D01*
G01*
X92885000Y-46660000D02*
G75*
G02X87835000Y-46660000I-2525000J0D01*
G01*
X92885000Y-46660000D02*
X92885000Y-40260000D01*
X87835000Y-46660000D02*
X87835000Y-40260000D01*
D11*
X93700000Y-32100000D02*
X93500000Y-32100000D01*
D12*
X93550000Y-32200000D02*
X93550000Y-32000000D01*
X93400000Y-31800000D02*
X93400000Y-32400000D01*
X93800000Y-32100000D02*
X93400000Y-31800000D01*
X93500000Y-31900000D02*
X93500000Y-32300000D01*
X93400000Y-32400000D02*
X93800000Y-32100000D01*
D10*
X94400000Y-31365000D02*
X92115000Y-31365000D01*
X92115000Y-31365000D02*
X92115000Y-32835000D01*
X92115000Y-32835000D02*
X94400000Y-32835000D01*
X96280000Y-34400000D02*
X96280000Y-35200000D01*
X99720000Y-34400000D02*
X99720000Y-35200000D01*
X91180000Y-50800000D02*
X91180000Y-51600000D01*
X94620000Y-50800000D02*
X94620000Y-51600000D01*
X94670000Y-24330000D02*
X94670000Y-23000000D01*
X96000000Y-24330000D02*
X94670000Y-24330000D01*
X97270000Y-24330000D02*
X97270000Y-21670000D01*
X97270000Y-21670000D02*
X104950000Y-21670000D01*
X97270000Y-24330000D02*
X104950000Y-24330000D01*
X104950000Y-24330000D02*
X104950000Y-21670000D01*
X94670000Y-28330000D02*
X94670000Y-27000000D01*
X96000000Y-28330000D02*
X94670000Y-28330000D01*
X97270000Y-28330000D02*
X97270000Y-25670000D01*
X97270000Y-25670000D02*
X104950000Y-25670000D01*
X97270000Y-28330000D02*
X104950000Y-28330000D01*
X104950000Y-28330000D02*
X104950000Y-25670000D01*
D11*
X93700000Y-33800000D02*
X93500000Y-33800000D01*
D12*
X93550000Y-33900000D02*
X93550000Y-33700000D01*
X93400000Y-33500000D02*
X93400000Y-34100000D01*
X93800000Y-33800000D02*
X93400000Y-33500000D01*
X93500000Y-33600000D02*
X93500000Y-34000000D01*
X93400000Y-34100000D02*
X93800000Y-33800000D01*
D10*
X94400000Y-33065000D02*
X92115000Y-33065000D01*
X92115000Y-33065000D02*
X92115000Y-34535000D01*
X92115000Y-34535000D02*
X94400000Y-34535000D01*
D11*
X93500000Y-35400000D02*
X93700000Y-35400000D01*
D12*
X93650000Y-35300000D02*
X93650000Y-35500000D01*
X93800000Y-35700000D02*
X93800000Y-35100000D01*
X93400000Y-35400000D02*
X93800000Y-35700000D01*
X93700000Y-35600000D02*
X93700000Y-35200000D01*
X93800000Y-35100000D02*
X93400000Y-35400000D01*
D10*
X92800000Y-36135000D02*
X95085000Y-36135000D01*
X95085000Y-36135000D02*
X95085000Y-34665000D01*
X95085000Y-34665000D02*
X92800000Y-34665000D01*
X91400000Y-69420000D02*
X90110000Y-69420000D01*
X91400000Y-68970000D02*
X91400000Y-69420000D01*
X91850000Y-68970000D02*
X91400000Y-68970000D01*
X98620000Y-68970000D02*
X98620000Y-69420000D01*
X98170000Y-68970000D02*
X98620000Y-68970000D01*
X91400000Y-76190000D02*
X91400000Y-75740000D01*
X91850000Y-76190000D02*
X91400000Y-76190000D01*
X98620000Y-76190000D02*
X98620000Y-75740000D01*
X98170000Y-76190000D02*
X98620000Y-76190000D01*
X88650000Y-56440000D02*
X92350000Y-56440000D01*
X88650000Y-62560000D02*
X88650000Y-56440000D01*
X92350000Y-62560000D02*
X88650000Y-62560000D01*
X92350000Y-56440000D02*
X92350000Y-62560000D01*
X101828733Y-59510000D02*
X102171267Y-59510000D01*
X101828733Y-58490000D02*
X102171267Y-58490000D01*
X101828733Y-61510000D02*
X102171267Y-61510000D01*
X101828733Y-60490000D02*
X102171267Y-60490000D01*
X97328733Y-59510000D02*
X97671267Y-59510000D01*
X97328733Y-58490000D02*
X97671267Y-58490000D01*
X97671267Y-60490000D02*
X97328733Y-60490000D01*
X97671267Y-61510000D02*
X97328733Y-61510000D01*
X97170000Y-57330000D02*
X97170000Y-56000000D01*
X98500000Y-57330000D02*
X97170000Y-57330000D01*
X99770000Y-57330000D02*
X99770000Y-54670000D01*
X99770000Y-54670000D02*
X102370000Y-54670000D01*
X99770000Y-57330000D02*
X102370000Y-57330000D01*
X102370000Y-57330000D02*
X102370000Y-54670000D01*
D14*
X101886000Y-104664500D02*
X101886000Y-59584500D01*
X101886000Y-59584500D02*
X113886000Y-59584500D01*
X113886000Y-104684500D02*
X113886000Y-59584500D01*
X113886000Y-104664500D02*
X101886000Y-104664500D01*
D10*
X105156000Y-100914500D02*
X105156000Y-98254500D01*
X105156000Y-100914500D02*
X112836000Y-100914500D01*
X112836000Y-100914500D02*
X112836000Y-98254500D01*
X105156000Y-98254500D02*
X112836000Y-98254500D01*
X102556000Y-98254500D02*
X103886000Y-98254500D01*
X102556000Y-99584500D02*
X102556000Y-98254500D01*
X103440000Y-95478733D02*
X103440000Y-95821267D01*
X104460000Y-95478733D02*
X104460000Y-95821267D01*
X105440000Y-95478733D02*
X105440000Y-95821267D01*
X106460000Y-95478733D02*
X106460000Y-95821267D01*
X97870000Y-98070000D02*
X99200000Y-98070000D01*
X97870000Y-99400000D02*
X97870000Y-98070000D01*
X97870000Y-100670000D02*
X100530000Y-100670000D01*
X100530000Y-100670000D02*
X100530000Y-103270000D01*
X97870000Y-100670000D02*
X97870000Y-103270000D01*
X97870000Y-103270000D02*
X100530000Y-103270000D01*
X107000000Y-87690000D02*
X107000000Y-88190000D01*
X106750000Y-87940000D02*
X107250000Y-87940000D01*
X107490000Y-90695563D02*
X108554437Y-91760000D01*
X107490000Y-88304437D02*
X108554437Y-87240000D01*
X107490000Y-88304437D02*
X107490000Y-88440000D01*
X107490000Y-90695563D02*
X107490000Y-90560000D01*
X108554437Y-91760000D02*
X112010000Y-91760000D01*
X108554437Y-87240000D02*
X112010000Y-87240000D01*
X112010000Y-87240000D02*
X112010000Y-88440000D01*
X112010000Y-91760000D02*
X112010000Y-90560000D01*
D11*
X76290000Y-30950000D02*
X76290000Y-30750000D01*
D12*
X76190000Y-30800000D02*
X76390000Y-30800000D01*
X76590000Y-30650000D02*
X75990000Y-30650000D01*
X76290000Y-31050000D02*
X76590000Y-30650000D01*
X76490000Y-30750000D02*
X76090000Y-30750000D01*
X75990000Y-30650000D02*
X76290000Y-31050000D01*
D10*
X77025000Y-31650000D02*
X77025000Y-29365000D01*
X77025000Y-29365000D02*
X75555000Y-29365000D01*
X75555000Y-29365000D02*
X75555000Y-31650000D01*
D11*
X73290000Y-30950000D02*
X73290000Y-31150000D01*
D12*
X73390000Y-31100000D02*
X73190000Y-31100000D01*
X72990000Y-31250000D02*
X73590000Y-31250000D01*
X73290000Y-30850000D02*
X72990000Y-31250000D01*
X73090000Y-31150000D02*
X73490000Y-31150000D01*
X73590000Y-31250000D02*
X73290000Y-30850000D01*
D10*
X72555000Y-30250000D02*
X72555000Y-32535000D01*
X72555000Y-32535000D02*
X74025000Y-32535000D01*
X74025000Y-32535000D02*
X74025000Y-30250000D01*
X104450000Y-78000000D02*
G75*
G03X104450000Y-78000000I-1200000J0D01*
G01*
X104450000Y-81000000D02*
G75*
G03X104450000Y-81000000I-1200000J0D01*
G01*
X104450000Y-84000000D02*
G75*
G03X104450000Y-84000000I-1200000J0D01*
G01*
X112200000Y-80250000D02*
G75*
G03X112200000Y-80250000I-1200000J0D01*
G01*
X112200000Y-77250000D02*
G75*
G03X112200000Y-77250000I-1200000J0D01*
G01*
X112200000Y-74250000D02*
G75*
G03X112200000Y-74250000I-1200000J0D01*
G01*
X112200000Y-83250000D02*
G75*
G03X112200000Y-83250000I-1200000J0D01*
G01*
X108200000Y-81250000D02*
X106800000Y-81250000D01*
X106100000Y-80550000D02*
X106100000Y-79950000D01*
X106800000Y-79250000D02*
X108200000Y-79250000D01*
X108900000Y-79950000D02*
X108900000Y-80550000D01*
X108900000Y-80550000D02*
G75*
G02X108200000Y-81250000I-700000J0D01*
G01*
X108200000Y-79250000D02*
G75*
G02X108900000Y-79950000I0J-700000D01*
G01*
X106100000Y-79950000D02*
G75*
G02X106800000Y-79250000I700000J0D01*
G01*
X106800000Y-81250000D02*
G75*
G02X106100000Y-80550000I0J700000D01*
G01*
X108200000Y-78250000D02*
X106800000Y-78250000D01*
X106100000Y-77550000D02*
X106100000Y-76950000D01*
X106800000Y-76250000D02*
X108200000Y-76250000D01*
X108900000Y-76950000D02*
X108900000Y-77550000D01*
X108900000Y-77550000D02*
G75*
G02X108200000Y-78250000I-700000J0D01*
G01*
X108200000Y-76250000D02*
G75*
G02X108900000Y-76950000I0J-700000D01*
G01*
X106100000Y-76950000D02*
G75*
G02X106800000Y-76250000I700000J0D01*
G01*
X106800000Y-78250000D02*
G75*
G02X106100000Y-77550000I0J700000D01*
G01*
X108200000Y-75250000D02*
X106800000Y-75250000D01*
X106100000Y-74550000D02*
X106100000Y-73950000D01*
X106800000Y-73250000D02*
X108200000Y-73250000D01*
X108900000Y-73950000D02*
X108900000Y-74550000D01*
X108900000Y-74550000D02*
G75*
G02X108200000Y-75250000I-700000J0D01*
G01*
X108200000Y-73250000D02*
G75*
G02X108900000Y-73950000I0J-700000D01*
G01*
X106100000Y-73950000D02*
G75*
G02X106800000Y-73250000I700000J0D01*
G01*
X106800000Y-75250000D02*
G75*
G02X106100000Y-74550000I0J700000D01*
G01*
X108200000Y-84250000D02*
X106800000Y-84250000D01*
X106100000Y-83550000D02*
X106100000Y-82950000D01*
X106800000Y-82250000D02*
X108200000Y-82250000D01*
X108900000Y-82950000D02*
X108900000Y-83550000D01*
X108900000Y-83550000D02*
G75*
G02X108200000Y-84250000I-700000J0D01*
G01*
X108200000Y-82250000D02*
G75*
G02X108900000Y-82950000I0J-700000D01*
G01*
X106100000Y-82950000D02*
G75*
G02X106800000Y-82250000I700000J0D01*
G01*
X106800000Y-84250000D02*
G75*
G02X106100000Y-83550000I0J700000D01*
G01*
X61010000Y-23521267D02*
X61010000Y-23178733D01*
X59990000Y-23521267D02*
X59990000Y-23178733D01*
X50258750Y-29893750D02*
X51046250Y-29893750D01*
X50652500Y-30287500D02*
X50652500Y-29500000D01*
X54845563Y-29260000D02*
X55910000Y-28195563D01*
X50154437Y-29260000D02*
X49090000Y-28195563D01*
X50154437Y-29260000D02*
X51440000Y-29260000D01*
X54845563Y-29260000D02*
X53560000Y-29260000D01*
X55910000Y-28195563D02*
X55910000Y-22440000D01*
X49090000Y-28195563D02*
X49090000Y-22440000D01*
X49090000Y-22440000D02*
X51440000Y-22440000D01*
X55910000Y-22440000D02*
X53560000Y-22440000D01*
X67741250Y-22306250D02*
X66953750Y-22306250D01*
X67347500Y-21912500D02*
X67347500Y-22700000D01*
X63154437Y-22940000D02*
X62090000Y-24004437D01*
X67845563Y-22940000D02*
X68910000Y-24004437D01*
X67845563Y-22940000D02*
X66560000Y-22940000D01*
X63154437Y-22940000D02*
X64440000Y-22940000D01*
X62090000Y-24004437D02*
X62090000Y-29760000D01*
X68910000Y-24004437D02*
X68910000Y-29760000D01*
X68910000Y-29760000D02*
X66560000Y-29760000D01*
X62090000Y-29760000D02*
X64440000Y-29760000D01*
X67140000Y-111450000D02*
X67140000Y-107750000D01*
X73260000Y-111450000D02*
X67140000Y-111450000D01*
X73260000Y-107750000D02*
X73260000Y-111450000D01*
X67140000Y-107750000D02*
X73260000Y-107750000D01*
D16*
X88200000Y-28400000D02*
G75*
G03X88200000Y-28400000I-300000J0D01*
G01*
X88100000Y-28400000D02*
G75*
G03X88100000Y-28400000I-200000J0D01*
G01*
X88000000Y-28400000D02*
G75*
G03X88000000Y-28400000I-100000J0D01*
G01*
D15*
X88898500Y-28001400D02*
X88898500Y-30998600D01*
X88898500Y-30998600D02*
X87501500Y-30998600D01*
X87501500Y-30998600D02*
X87501500Y-28001400D01*
X87501500Y-28001400D02*
X88898500Y-28001400D01*
D10*
X67140000Y-106450000D02*
X67140000Y-102750000D01*
X73260000Y-106450000D02*
X67140000Y-106450000D01*
X73260000Y-102750000D02*
X73260000Y-106450000D01*
X67140000Y-102750000D02*
X73260000Y-102750000D01*
X67140000Y-101450000D02*
X67140000Y-97750000D01*
X73260000Y-101450000D02*
X67140000Y-101450000D01*
X73260000Y-97750000D02*
X73260000Y-101450000D01*
X67140000Y-97750000D02*
X73260000Y-97750000D01*
X92300000Y-27380000D02*
X91500000Y-27380000D01*
X92300000Y-30820000D02*
X91500000Y-30820000D01*
X80240000Y-101610000D02*
X80240000Y-100500000D01*
X81000000Y-101610000D02*
X80240000Y-101610000D01*
X81760000Y-99936529D02*
X81760000Y-99390000D01*
X81760000Y-101610000D02*
X81760000Y-101063471D01*
X81760000Y-99390000D02*
X82965000Y-99390000D01*
X81760000Y-101610000D02*
X82965000Y-101610000D01*
X82965000Y-100192470D02*
X82965000Y-99390000D01*
X82965000Y-101610000D02*
X82965000Y-100807530D01*
X87000000Y-32500000D02*
G75*
G03X87000000Y-32500000I-1200000J0D01*
G01*
X31858750Y-29943750D02*
X32646250Y-29943750D01*
X32252500Y-30337500D02*
X32252500Y-29550000D01*
X36445563Y-29310000D02*
X37510000Y-28245563D01*
X31754437Y-29310000D02*
X30690000Y-28245563D01*
X31754437Y-29310000D02*
X33040000Y-29310000D01*
X36445563Y-29310000D02*
X35160000Y-29310000D01*
X37510000Y-28245563D02*
X37510000Y-22490000D01*
X30690000Y-28245563D02*
X30690000Y-22490000D01*
X30690000Y-22490000D02*
X33040000Y-22490000D01*
X37510000Y-22490000D02*
X35160000Y-22490000D01*
X41608750Y-29943750D02*
X42396250Y-29943750D01*
X42002500Y-30337500D02*
X42002500Y-29550000D01*
X46195563Y-29310000D02*
X47260000Y-28245563D01*
X41504437Y-29310000D02*
X40440000Y-28245563D01*
X41504437Y-29310000D02*
X42790000Y-29310000D01*
X46195563Y-29310000D02*
X44910000Y-29310000D01*
X47260000Y-28245563D02*
X47260000Y-22490000D01*
X40440000Y-28245563D02*
X40440000Y-22490000D01*
X40440000Y-22490000D02*
X42790000Y-22490000D01*
X47260000Y-22490000D02*
X44910000Y-22490000D01*
X58200000Y-104780000D02*
G75*
G03X58200000Y-104780000I-3000000J0D01*
G01*
X53200000Y-110680000D02*
X49100000Y-110680000D01*
X49100000Y-98880000D02*
X53200000Y-98880000D01*
X57200000Y-98880000D02*
X61300000Y-98880000D01*
X57200000Y-110580000D02*
X61300000Y-110580000D01*
X61300000Y-110580000D02*
X61300000Y-98880000D01*
X62700000Y-108580000D02*
X63000000Y-108880000D01*
X63000000Y-108880000D02*
X62400000Y-108880000D01*
X62400000Y-108880000D02*
X62700000Y-108580000D01*
X49100000Y-110680000D02*
X49100000Y-108080000D01*
X49100000Y-106080000D02*
X49100000Y-103480000D01*
X49100000Y-101480000D02*
X49100000Y-98880000D01*
X55200000Y-105280000D02*
X55200000Y-104280000D01*
X55700000Y-104780000D02*
X54700000Y-104780000D01*
X51760000Y-94890000D02*
X51760000Y-96000000D01*
X51000000Y-94890000D02*
X51760000Y-94890000D01*
X50240000Y-96563471D02*
X50240000Y-97110000D01*
X50240000Y-94890000D02*
X50240000Y-95436529D01*
X50240000Y-97110000D02*
X47765000Y-97110000D01*
X50240000Y-94890000D02*
X47765000Y-94890000D01*
X47765000Y-96307530D02*
X47765000Y-97110000D01*
X47765000Y-94890000D02*
X47765000Y-95692470D01*
X40200000Y-104780000D02*
G75*
G03X40200000Y-104780000I-3000000J0D01*
G01*
X35200000Y-110680000D02*
X31100000Y-110680000D01*
X31100000Y-98880000D02*
X35200000Y-98880000D01*
X39200000Y-98880000D02*
X43300000Y-98880000D01*
X39200000Y-110580000D02*
X43300000Y-110580000D01*
X43300000Y-110580000D02*
X43300000Y-98880000D01*
X44700000Y-108580000D02*
X45000000Y-108880000D01*
X45000000Y-108880000D02*
X44400000Y-108880000D01*
X44400000Y-108880000D02*
X44700000Y-108580000D01*
X31100000Y-110680000D02*
X31100000Y-108080000D01*
X31100000Y-106080000D02*
X31100000Y-103480000D01*
X31100000Y-101480000D02*
X31100000Y-98880000D01*
X37200000Y-105280000D02*
X37200000Y-104280000D01*
X37700000Y-104780000D02*
X36700000Y-104780000D01*
X33760000Y-94890000D02*
X33760000Y-96000000D01*
X33000000Y-94890000D02*
X33760000Y-94890000D01*
X32240000Y-96563471D02*
X32240000Y-97110000D01*
X32240000Y-94890000D02*
X32240000Y-95436529D01*
X32240000Y-97110000D02*
X29765000Y-97110000D01*
X32240000Y-94890000D02*
X29765000Y-94890000D01*
X29765000Y-96307530D02*
X29765000Y-97110000D01*
X29765000Y-94890000D02*
X29765000Y-95692470D01*
D16*
X104511904Y-100302380D02*
X104511904Y-101111904D01*
X104559523Y-101207142D01*
X104607142Y-101254761D01*
X104702380Y-101302380D01*
X104892857Y-101302380D01*
X104988095Y-101254761D01*
X105035714Y-101207142D01*
X105083333Y-101111904D01*
X105083333Y-100302380D01*
X106083333Y-101302380D02*
X105511904Y-101302380D01*
X105797619Y-101302380D02*
X105797619Y-100302380D01*
X105702380Y-100445238D01*
X105607142Y-100540476D01*
X105511904Y-100588095D01*
X106464285Y-100397619D02*
X106511904Y-100350000D01*
X106607142Y-100302380D01*
X106845238Y-100302380D01*
X106940476Y-100350000D01*
X106988095Y-100397619D01*
X107035714Y-100492857D01*
X107035714Y-100588095D01*
X106988095Y-100730952D01*
X106416666Y-101302380D01*
X107035714Y-101302380D01*
X113232380Y-56393095D02*
X114041904Y-56393095D01*
X114137142Y-56345476D01*
X114184761Y-56297857D01*
X114232380Y-56202619D01*
X114232380Y-56012142D01*
X114184761Y-55916904D01*
X114137142Y-55869285D01*
X114041904Y-55821666D01*
X113232380Y-55821666D01*
X114232380Y-54821666D02*
X114232380Y-55393095D01*
X114232380Y-55107380D02*
X113232380Y-55107380D01*
X113375238Y-55202619D01*
X113470476Y-55297857D01*
X113518095Y-55393095D01*
X114232380Y-53869285D02*
X114232380Y-54440714D01*
X114232380Y-54155000D02*
X113232380Y-54155000D01*
X113375238Y-54250238D01*
X113470476Y-54345476D01*
X113518095Y-54440714D01*
X108557380Y-56567857D02*
X108081190Y-56901190D01*
X108557380Y-57139285D02*
X107557380Y-57139285D01*
X107557380Y-56758333D01*
X107605000Y-56663095D01*
X107652619Y-56615476D01*
X107747857Y-56567857D01*
X107890714Y-56567857D01*
X107985952Y-56615476D01*
X108033571Y-56663095D01*
X108081190Y-56758333D01*
X108081190Y-57139285D01*
X108557380Y-55615476D02*
X108557380Y-56186904D01*
X108557380Y-55901190D02*
X107557380Y-55901190D01*
X107700238Y-55996428D01*
X107795476Y-56091666D01*
X107843095Y-56186904D01*
X107557380Y-55282142D02*
X107557380Y-54663095D01*
X107938333Y-54996428D01*
X107938333Y-54853571D01*
X107985952Y-54758333D01*
X108033571Y-54710714D01*
X108128809Y-54663095D01*
X108366904Y-54663095D01*
X108462142Y-54710714D01*
X108509761Y-54758333D01*
X108557380Y-54853571D01*
X108557380Y-55139285D01*
X108509761Y-55234523D01*
X108462142Y-55282142D01*
X104072380Y-57164285D02*
X103072380Y-57164285D01*
X103072380Y-56926190D01*
X103120000Y-56783333D01*
X103215238Y-56688095D01*
X103310476Y-56640476D01*
X103500952Y-56592857D01*
X103643809Y-56592857D01*
X103834285Y-56640476D01*
X103929523Y-56688095D01*
X104024761Y-56783333D01*
X104072380Y-56926190D01*
X104072380Y-57164285D01*
X104072380Y-55640476D02*
X104072380Y-56211904D01*
X104072380Y-55926190D02*
X103072380Y-55926190D01*
X103215238Y-56021428D01*
X103310476Y-56116666D01*
X103358095Y-56211904D01*
X103072380Y-55307142D02*
X103072380Y-54640476D01*
X104072380Y-55069047D01*
X110982142Y-104607142D02*
X110934523Y-104654761D01*
X110791666Y-104702380D01*
X110696428Y-104702380D01*
X110553571Y-104654761D01*
X110458333Y-104559523D01*
X110410714Y-104464285D01*
X110363095Y-104273809D01*
X110363095Y-104130952D01*
X110410714Y-103940476D01*
X110458333Y-103845238D01*
X110553571Y-103750000D01*
X110696428Y-103702380D01*
X110791666Y-103702380D01*
X110934523Y-103750000D01*
X110982142Y-103797619D01*
X111934523Y-104702380D02*
X111363095Y-104702380D01*
X111648809Y-104702380D02*
X111648809Y-103702380D01*
X111553571Y-103845238D01*
X111458333Y-103940476D01*
X111363095Y-103988095D01*
X112410714Y-104702380D02*
X112601190Y-104702380D01*
X112696428Y-104654761D01*
X112744047Y-104607142D01*
X112839285Y-104464285D01*
X112886904Y-104273809D01*
X112886904Y-103892857D01*
X112839285Y-103797619D01*
X112791666Y-103750000D01*
X112696428Y-103702380D01*
X112505952Y-103702380D01*
X112410714Y-103750000D01*
X112363095Y-103797619D01*
X112315476Y-103892857D01*
X112315476Y-104130952D01*
X112363095Y-104226190D01*
X112410714Y-104273809D01*
X112505952Y-104321428D01*
X112696428Y-104321428D01*
X112791666Y-104273809D01*
X112839285Y-104226190D01*
X112886904Y-104130952D01*
X105602142Y-53067857D02*
X105649761Y-53115476D01*
X105697380Y-53258333D01*
X105697380Y-53353571D01*
X105649761Y-53496428D01*
X105554523Y-53591666D01*
X105459285Y-53639285D01*
X105268809Y-53686904D01*
X105125952Y-53686904D01*
X104935476Y-53639285D01*
X104840238Y-53591666D01*
X104745000Y-53496428D01*
X104697380Y-53353571D01*
X104697380Y-53258333D01*
X104745000Y-53115476D01*
X104792619Y-53067857D01*
X105697380Y-52115476D02*
X105697380Y-52686904D01*
X105697380Y-52401190D02*
X104697380Y-52401190D01*
X104840238Y-52496428D01*
X104935476Y-52591666D01*
X104983095Y-52686904D01*
X105125952Y-51544047D02*
X105078333Y-51639285D01*
X105030714Y-51686904D01*
X104935476Y-51734523D01*
X104887857Y-51734523D01*
X104792619Y-51686904D01*
X104745000Y-51639285D01*
X104697380Y-51544047D01*
X104697380Y-51353571D01*
X104745000Y-51258333D01*
X104792619Y-51210714D01*
X104887857Y-51163095D01*
X104935476Y-51163095D01*
X105030714Y-51210714D01*
X105078333Y-51258333D01*
X105125952Y-51353571D01*
X105125952Y-51544047D01*
X105173571Y-51639285D01*
X105221190Y-51686904D01*
X105316428Y-51734523D01*
X105506904Y-51734523D01*
X105602142Y-51686904D01*
X105649761Y-51639285D01*
X105697380Y-51544047D01*
X105697380Y-51353571D01*
X105649761Y-51258333D01*
X105602142Y-51210714D01*
X105506904Y-51163095D01*
X105316428Y-51163095D01*
X105221190Y-51210714D01*
X105173571Y-51258333D01*
X105125952Y-51353571D01*
X99476190Y-88476190D02*
X99952380Y-88476190D01*
X98952380Y-88809523D02*
X99476190Y-88476190D01*
X98952380Y-88142857D01*
X98952380Y-87904761D02*
X98952380Y-87285714D01*
X99333333Y-87619047D01*
X99333333Y-87476190D01*
X99380952Y-87380952D01*
X99428571Y-87333333D01*
X99523809Y-87285714D01*
X99761904Y-87285714D01*
X99857142Y-87333333D01*
X99904761Y-87380952D01*
X99952380Y-87476190D01*
X99952380Y-87761904D01*
X99904761Y-87857142D01*
X99857142Y-87904761D01*
X80618668Y-112428540D02*
X80761587Y-112476180D01*
X80809226Y-112523819D01*
X80856866Y-112619098D01*
X80856866Y-112762017D01*
X80809226Y-112857296D01*
X80761587Y-112904935D01*
X80666308Y-112952575D01*
X80285192Y-112952575D01*
X80285192Y-111952145D01*
X80618668Y-111952145D01*
X80713947Y-111999785D01*
X80761587Y-112047424D01*
X80809226Y-112142703D01*
X80809226Y-112237982D01*
X80761587Y-112333261D01*
X80713947Y-112380901D01*
X80618668Y-112428540D01*
X80285192Y-112428540D01*
X81190343Y-111952145D02*
X81857296Y-111952145D01*
X81190343Y-112952575D01*
X81857296Y-112952575D01*
X82762447Y-112952575D02*
X82190773Y-112952575D01*
X82476610Y-112952575D02*
X82476610Y-111952145D01*
X82381331Y-112095064D01*
X82286052Y-112190343D01*
X82190773Y-112237982D01*
D17*
X78848857Y-106999904D02*
X78848857Y-105476095D01*
X84182857Y-106745904D02*
X84182857Y-105222095D01*
X84944761Y-105984000D02*
X83420952Y-105984000D01*
D18*
X91472785Y-88604761D02*
X92017071Y-88604761D01*
X90874071Y-89028095D02*
X91472785Y-88604761D01*
X90874071Y-88181428D01*
X90982928Y-87818571D02*
X90928500Y-87758095D01*
X90874071Y-87637142D01*
X90874071Y-87334761D01*
X90928500Y-87213809D01*
X90982928Y-87153333D01*
X91091785Y-87092857D01*
X91200642Y-87092857D01*
X91363928Y-87153333D01*
X92017071Y-87879047D01*
X92017071Y-87092857D01*
D16*
X87178571Y-94714285D02*
X87178571Y-94428571D01*
X87250000Y-94285714D01*
X87392857Y-94142857D01*
X87678571Y-94071428D01*
X88178571Y-94071428D01*
X88464285Y-94142857D01*
X88607142Y-94285714D01*
X88678571Y-94428571D01*
X88678571Y-94714285D01*
X88607142Y-94857142D01*
X88464285Y-95000000D01*
X88178571Y-95071428D01*
X87678571Y-95071428D01*
X87392857Y-95000000D01*
X87250000Y-94857142D01*
X87178571Y-94714285D01*
X87821428Y-93214285D02*
X87750000Y-93357142D01*
X87678571Y-93428571D01*
X87535714Y-93500000D01*
X87464285Y-93500000D01*
X87321428Y-93428571D01*
X87250000Y-93357142D01*
X87178571Y-93214285D01*
X87178571Y-92928571D01*
X87250000Y-92785714D01*
X87321428Y-92714285D01*
X87464285Y-92642857D01*
X87535714Y-92642857D01*
X87678571Y-92714285D01*
X87750000Y-92785714D01*
X87821428Y-92928571D01*
X87821428Y-93214285D01*
X87892857Y-93357142D01*
X87964285Y-93428571D01*
X88107142Y-93500000D01*
X88392857Y-93500000D01*
X88535714Y-93428571D01*
X88607142Y-93357142D01*
X88678571Y-93214285D01*
X88678571Y-92928571D01*
X88607142Y-92785714D01*
X88535714Y-92714285D01*
X88392857Y-92642857D01*
X88107142Y-92642857D01*
X87964285Y-92714285D01*
X87892857Y-92785714D01*
X87821428Y-92928571D01*
X88678571Y-92000000D02*
X87178571Y-92000000D01*
X88250000Y-91500000D01*
X87178571Y-91000000D01*
X88678571Y-91000000D01*
D13*
X74742285Y-79839047D02*
X74960000Y-79899523D01*
X75322857Y-79899523D01*
X75468000Y-79839047D01*
X75540571Y-79778571D01*
X75613142Y-79657619D01*
X75613142Y-79536666D01*
X75540571Y-79415714D01*
X75468000Y-79355238D01*
X75322857Y-79294761D01*
X75032571Y-79234285D01*
X74887428Y-79173809D01*
X74814857Y-79113333D01*
X74742285Y-78992380D01*
X74742285Y-78871428D01*
X74814857Y-78750476D01*
X74887428Y-78690000D01*
X75032571Y-78629523D01*
X75395428Y-78629523D01*
X75613142Y-78690000D01*
X76121142Y-78629523D02*
X76484000Y-79899523D01*
X76774285Y-78992380D01*
X77064571Y-79899523D01*
X77427428Y-78629523D01*
X78806285Y-79899523D02*
X77935428Y-79899523D01*
X78370857Y-79899523D02*
X78370857Y-78629523D01*
X78225714Y-78810952D01*
X78080571Y-78931904D01*
X77935428Y-78992380D01*
X80112571Y-79052857D02*
X80112571Y-79899523D01*
X79749714Y-78569047D02*
X79386857Y-79476190D01*
X80330285Y-79476190D01*
X54742285Y-79839047D02*
X54960000Y-79899523D01*
X55322857Y-79899523D01*
X55468000Y-79839047D01*
X55540571Y-79778571D01*
X55613142Y-79657619D01*
X55613142Y-79536666D01*
X55540571Y-79415714D01*
X55468000Y-79355238D01*
X55322857Y-79294761D01*
X55032571Y-79234285D01*
X54887428Y-79173809D01*
X54814857Y-79113333D01*
X54742285Y-78992380D01*
X54742285Y-78871428D01*
X54814857Y-78750476D01*
X54887428Y-78690000D01*
X55032571Y-78629523D01*
X55395428Y-78629523D01*
X55613142Y-78690000D01*
X56121142Y-78629523D02*
X56484000Y-79899523D01*
X56774285Y-78992380D01*
X57064571Y-79899523D01*
X57427428Y-78629523D01*
X58806285Y-79899523D02*
X57935428Y-79899523D01*
X58370857Y-79899523D02*
X58370857Y-78629523D01*
X58225714Y-78810952D01*
X58080571Y-78931904D01*
X57935428Y-78992380D01*
X59314285Y-78629523D02*
X60257714Y-78629523D01*
X59749714Y-79113333D01*
X59967428Y-79113333D01*
X60112571Y-79173809D01*
X60185142Y-79234285D01*
X60257714Y-79355238D01*
X60257714Y-79657619D01*
X60185142Y-79778571D01*
X60112571Y-79839047D01*
X59967428Y-79899523D01*
X59532000Y-79899523D01*
X59386857Y-79839047D01*
X59314285Y-79778571D01*
X34742285Y-79839047D02*
X34960000Y-79899523D01*
X35322857Y-79899523D01*
X35468000Y-79839047D01*
X35540571Y-79778571D01*
X35613142Y-79657619D01*
X35613142Y-79536666D01*
X35540571Y-79415714D01*
X35468000Y-79355238D01*
X35322857Y-79294761D01*
X35032571Y-79234285D01*
X34887428Y-79173809D01*
X34814857Y-79113333D01*
X34742285Y-78992380D01*
X34742285Y-78871428D01*
X34814857Y-78750476D01*
X34887428Y-78690000D01*
X35032571Y-78629523D01*
X35395428Y-78629523D01*
X35613142Y-78690000D01*
X36121142Y-78629523D02*
X36484000Y-79899523D01*
X36774285Y-78992380D01*
X37064571Y-79899523D01*
X37427428Y-78629523D01*
X38806285Y-79899523D02*
X37935428Y-79899523D01*
X38370857Y-79899523D02*
X38370857Y-78629523D01*
X38225714Y-78810952D01*
X38080571Y-78931904D01*
X37935428Y-78992380D01*
X39386857Y-78750476D02*
X39459428Y-78690000D01*
X39604571Y-78629523D01*
X39967428Y-78629523D01*
X40112571Y-78690000D01*
X40185142Y-78750476D01*
X40257714Y-78871428D01*
X40257714Y-78992380D01*
X40185142Y-79173809D01*
X39314285Y-79899523D01*
X40257714Y-79899523D01*
X74742285Y-60339047D02*
X74960000Y-60399523D01*
X75322857Y-60399523D01*
X75468000Y-60339047D01*
X75540571Y-60278571D01*
X75613142Y-60157619D01*
X75613142Y-60036666D01*
X75540571Y-59915714D01*
X75468000Y-59855238D01*
X75322857Y-59794761D01*
X75032571Y-59734285D01*
X74887428Y-59673809D01*
X74814857Y-59613333D01*
X74742285Y-59492380D01*
X74742285Y-59371428D01*
X74814857Y-59250476D01*
X74887428Y-59190000D01*
X75032571Y-59129523D01*
X75395428Y-59129523D01*
X75613142Y-59190000D01*
X76121142Y-59129523D02*
X76484000Y-60399523D01*
X76774285Y-59492380D01*
X77064571Y-60399523D01*
X77427428Y-59129523D01*
X78806285Y-60399523D02*
X77935428Y-60399523D01*
X78370857Y-60399523D02*
X78370857Y-59129523D01*
X78225714Y-59310952D01*
X78080571Y-59431904D01*
X77935428Y-59492380D01*
X80257714Y-60399523D02*
X79386857Y-60399523D01*
X79822285Y-60399523D02*
X79822285Y-59129523D01*
X79677142Y-59310952D01*
X79532000Y-59431904D01*
X79386857Y-59492380D01*
X54742285Y-60339047D02*
X54960000Y-60399523D01*
X55322857Y-60399523D01*
X55468000Y-60339047D01*
X55540571Y-60278571D01*
X55613142Y-60157619D01*
X55613142Y-60036666D01*
X55540571Y-59915714D01*
X55468000Y-59855238D01*
X55322857Y-59794761D01*
X55032571Y-59734285D01*
X54887428Y-59673809D01*
X54814857Y-59613333D01*
X54742285Y-59492380D01*
X54742285Y-59371428D01*
X54814857Y-59250476D01*
X54887428Y-59190000D01*
X55032571Y-59129523D01*
X55395428Y-59129523D01*
X55613142Y-59190000D01*
X56121142Y-59129523D02*
X56484000Y-60399523D01*
X56774285Y-59492380D01*
X57064571Y-60399523D01*
X57427428Y-59129523D01*
X58806285Y-60399523D02*
X57935428Y-60399523D01*
X58370857Y-60399523D02*
X58370857Y-59129523D01*
X58225714Y-59310952D01*
X58080571Y-59431904D01*
X57935428Y-59492380D01*
X59749714Y-59129523D02*
X59894857Y-59129523D01*
X60040000Y-59190000D01*
X60112571Y-59250476D01*
X60185142Y-59371428D01*
X60257714Y-59613333D01*
X60257714Y-59915714D01*
X60185142Y-60157619D01*
X60112571Y-60278571D01*
X60040000Y-60339047D01*
X59894857Y-60399523D01*
X59749714Y-60399523D01*
X59604571Y-60339047D01*
X59532000Y-60278571D01*
X59459428Y-60157619D01*
X59386857Y-59915714D01*
X59386857Y-59613333D01*
X59459428Y-59371428D01*
X59532000Y-59250476D01*
X59604571Y-59190000D01*
X59749714Y-59129523D01*
X35468000Y-60339047D02*
X35685714Y-60399523D01*
X36048571Y-60399523D01*
X36193714Y-60339047D01*
X36266285Y-60278571D01*
X36338857Y-60157619D01*
X36338857Y-60036666D01*
X36266285Y-59915714D01*
X36193714Y-59855238D01*
X36048571Y-59794761D01*
X35758285Y-59734285D01*
X35613142Y-59673809D01*
X35540571Y-59613333D01*
X35468000Y-59492380D01*
X35468000Y-59371428D01*
X35540571Y-59250476D01*
X35613142Y-59190000D01*
X35758285Y-59129523D01*
X36121142Y-59129523D01*
X36338857Y-59190000D01*
X36846857Y-59129523D02*
X37209714Y-60399523D01*
X37500000Y-59492380D01*
X37790285Y-60399523D01*
X38153142Y-59129523D01*
X38806285Y-60399523D02*
X39096571Y-60399523D01*
X39241714Y-60339047D01*
X39314285Y-60278571D01*
X39459428Y-60097142D01*
X39532000Y-59855238D01*
X39532000Y-59371428D01*
X39459428Y-59250476D01*
X39386857Y-59190000D01*
X39241714Y-59129523D01*
X38951428Y-59129523D01*
X38806285Y-59190000D01*
X38733714Y-59250476D01*
X38661142Y-59371428D01*
X38661142Y-59673809D01*
X38733714Y-59794761D01*
X38806285Y-59855238D01*
X38951428Y-59915714D01*
X39241714Y-59915714D01*
X39386857Y-59855238D01*
X39459428Y-59794761D01*
X39532000Y-59673809D01*
X75468000Y-40839047D02*
X75685714Y-40899523D01*
X76048571Y-40899523D01*
X76193714Y-40839047D01*
X76266285Y-40778571D01*
X76338857Y-40657619D01*
X76338857Y-40536666D01*
X76266285Y-40415714D01*
X76193714Y-40355238D01*
X76048571Y-40294761D01*
X75758285Y-40234285D01*
X75613142Y-40173809D01*
X75540571Y-40113333D01*
X75468000Y-39992380D01*
X75468000Y-39871428D01*
X75540571Y-39750476D01*
X75613142Y-39690000D01*
X75758285Y-39629523D01*
X76121142Y-39629523D01*
X76338857Y-39690000D01*
X76846857Y-39629523D02*
X77209714Y-40899523D01*
X77500000Y-39992380D01*
X77790285Y-40899523D01*
X78153142Y-39629523D01*
X78951428Y-40173809D02*
X78806285Y-40113333D01*
X78733714Y-40052857D01*
X78661142Y-39931904D01*
X78661142Y-39871428D01*
X78733714Y-39750476D01*
X78806285Y-39690000D01*
X78951428Y-39629523D01*
X79241714Y-39629523D01*
X79386857Y-39690000D01*
X79459428Y-39750476D01*
X79532000Y-39871428D01*
X79532000Y-39931904D01*
X79459428Y-40052857D01*
X79386857Y-40113333D01*
X79241714Y-40173809D01*
X78951428Y-40173809D01*
X78806285Y-40234285D01*
X78733714Y-40294761D01*
X78661142Y-40415714D01*
X78661142Y-40657619D01*
X78733714Y-40778571D01*
X78806285Y-40839047D01*
X78951428Y-40899523D01*
X79241714Y-40899523D01*
X79386857Y-40839047D01*
X79459428Y-40778571D01*
X79532000Y-40657619D01*
X79532000Y-40415714D01*
X79459428Y-40294761D01*
X79386857Y-40234285D01*
X79241714Y-40173809D01*
X55468000Y-40839047D02*
X55685714Y-40899523D01*
X56048571Y-40899523D01*
X56193714Y-40839047D01*
X56266285Y-40778571D01*
X56338857Y-40657619D01*
X56338857Y-40536666D01*
X56266285Y-40415714D01*
X56193714Y-40355238D01*
X56048571Y-40294761D01*
X55758285Y-40234285D01*
X55613142Y-40173809D01*
X55540571Y-40113333D01*
X55468000Y-39992380D01*
X55468000Y-39871428D01*
X55540571Y-39750476D01*
X55613142Y-39690000D01*
X55758285Y-39629523D01*
X56121142Y-39629523D01*
X56338857Y-39690000D01*
X56846857Y-39629523D02*
X57209714Y-40899523D01*
X57500000Y-39992380D01*
X57790285Y-40899523D01*
X58153142Y-39629523D01*
X58588571Y-39629523D02*
X59604571Y-39629523D01*
X58951428Y-40899523D01*
X35468000Y-40839047D02*
X35685714Y-40899523D01*
X36048571Y-40899523D01*
X36193714Y-40839047D01*
X36266285Y-40778571D01*
X36338857Y-40657619D01*
X36338857Y-40536666D01*
X36266285Y-40415714D01*
X36193714Y-40355238D01*
X36048571Y-40294761D01*
X35758285Y-40234285D01*
X35613142Y-40173809D01*
X35540571Y-40113333D01*
X35468000Y-39992380D01*
X35468000Y-39871428D01*
X35540571Y-39750476D01*
X35613142Y-39690000D01*
X35758285Y-39629523D01*
X36121142Y-39629523D01*
X36338857Y-39690000D01*
X36846857Y-39629523D02*
X37209714Y-40899523D01*
X37500000Y-39992380D01*
X37790285Y-40899523D01*
X38153142Y-39629523D01*
X39386857Y-39629523D02*
X39096571Y-39629523D01*
X38951428Y-39690000D01*
X38878857Y-39750476D01*
X38733714Y-39931904D01*
X38661142Y-40173809D01*
X38661142Y-40657619D01*
X38733714Y-40778571D01*
X38806285Y-40839047D01*
X38951428Y-40899523D01*
X39241714Y-40899523D01*
X39386857Y-40839047D01*
X39459428Y-40778571D01*
X39532000Y-40657619D01*
X39532000Y-40355238D01*
X39459428Y-40234285D01*
X39386857Y-40173809D01*
X39241714Y-40113333D01*
X38951428Y-40113333D01*
X38806285Y-40173809D01*
X38733714Y-40234285D01*
X38661142Y-40355238D01*
D16*
X87238095Y-25452380D02*
X87238095Y-26261904D01*
X87285714Y-26357142D01*
X87333333Y-26404761D01*
X87428571Y-26452380D01*
X87619047Y-26452380D01*
X87714285Y-26404761D01*
X87761904Y-26357142D01*
X87809523Y-26261904D01*
X87809523Y-25452380D01*
X88238095Y-26404761D02*
X88380952Y-26452380D01*
X88619047Y-26452380D01*
X88714285Y-26404761D01*
X88761904Y-26357142D01*
X88809523Y-26261904D01*
X88809523Y-26166666D01*
X88761904Y-26071428D01*
X88714285Y-26023809D01*
X88619047Y-25976190D01*
X88428571Y-25928571D01*
X88333333Y-25880952D01*
X88285714Y-25833333D01*
X88238095Y-25738095D01*
X88238095Y-25642857D01*
X88285714Y-25547619D01*
X88333333Y-25500000D01*
X88428571Y-25452380D01*
X88666666Y-25452380D01*
X88809523Y-25500000D01*
X89571428Y-25928571D02*
X89714285Y-25976190D01*
X89761904Y-26023809D01*
X89809523Y-26119047D01*
X89809523Y-26261904D01*
X89761904Y-26357142D01*
X89714285Y-26404761D01*
X89619047Y-26452380D01*
X89238095Y-26452380D01*
X89238095Y-25452380D01*
X89571428Y-25452380D01*
X89666666Y-25500000D01*
X89714285Y-25547619D01*
X89761904Y-25642857D01*
X89761904Y-25738095D01*
X89714285Y-25833333D01*
X89666666Y-25880952D01*
X89571428Y-25928571D01*
X89238095Y-25928571D01*
X77142857Y-26404761D02*
X77285714Y-26452380D01*
X77523809Y-26452380D01*
X77619047Y-26404761D01*
X77666666Y-26357142D01*
X77714285Y-26261904D01*
X77714285Y-26166666D01*
X77666666Y-26071428D01*
X77619047Y-26023809D01*
X77523809Y-25976190D01*
X77333333Y-25928571D01*
X77238095Y-25880952D01*
X77190476Y-25833333D01*
X77142857Y-25738095D01*
X77142857Y-25642857D01*
X77190476Y-25547619D01*
X77238095Y-25500000D01*
X77333333Y-25452380D01*
X77571428Y-25452380D01*
X77714285Y-25500000D01*
X78047619Y-25452380D02*
X78285714Y-26452380D01*
X78476190Y-25738095D01*
X78666666Y-26452380D01*
X78904761Y-25452380D01*
X79285714Y-26452380D02*
X79285714Y-25452380D01*
X79523809Y-25452380D01*
X79666666Y-25500000D01*
X79761904Y-25595238D01*
X79809523Y-25690476D01*
X79857142Y-25880952D01*
X79857142Y-26023809D01*
X79809523Y-26214285D01*
X79761904Y-26309523D01*
X79666666Y-26404761D01*
X79523809Y-26452380D01*
X79285714Y-26452380D01*
X100138095Y-46452380D02*
X100138095Y-47261904D01*
X100185714Y-47357142D01*
X100233333Y-47404761D01*
X100328571Y-47452380D01*
X100519047Y-47452380D01*
X100614285Y-47404761D01*
X100661904Y-47357142D01*
X100709523Y-47261904D01*
X100709523Y-46452380D01*
X101614285Y-46452380D02*
X101423809Y-46452380D01*
X101328571Y-46500000D01*
X101280952Y-46547619D01*
X101185714Y-46690476D01*
X101138095Y-46880952D01*
X101138095Y-47261904D01*
X101185714Y-47357142D01*
X101233333Y-47404761D01*
X101328571Y-47452380D01*
X101519047Y-47452380D01*
X101614285Y-47404761D01*
X101661904Y-47357142D01*
X101709523Y-47261904D01*
X101709523Y-47023809D01*
X101661904Y-46928571D01*
X101614285Y-46880952D01*
X101519047Y-46833333D01*
X101328571Y-46833333D01*
X101233333Y-46880952D01*
X101185714Y-46928571D01*
X101138095Y-47023809D01*
X84242380Y-28771904D02*
X85051904Y-28771904D01*
X85147142Y-28724285D01*
X85194761Y-28676666D01*
X85242380Y-28581428D01*
X85242380Y-28390952D01*
X85194761Y-28295714D01*
X85147142Y-28248095D01*
X85051904Y-28200476D01*
X84242380Y-28200476D01*
X85242380Y-27676666D02*
X85242380Y-27486190D01*
X85194761Y-27390952D01*
X85147142Y-27343333D01*
X85004285Y-27248095D01*
X84813809Y-27200476D01*
X84432857Y-27200476D01*
X84337619Y-27248095D01*
X84290000Y-27295714D01*
X84242380Y-27390952D01*
X84242380Y-27581428D01*
X84290000Y-27676666D01*
X84337619Y-27724285D01*
X84432857Y-27771904D01*
X84670952Y-27771904D01*
X84766190Y-27724285D01*
X84813809Y-27676666D01*
X84861428Y-27581428D01*
X84861428Y-27390952D01*
X84813809Y-27295714D01*
X84766190Y-27248095D01*
X84670952Y-27200476D01*
X23998095Y-31442380D02*
X23998095Y-32251904D01*
X24045714Y-32347142D01*
X24093333Y-32394761D01*
X24188571Y-32442380D01*
X24379047Y-32442380D01*
X24474285Y-32394761D01*
X24521904Y-32347142D01*
X24569523Y-32251904D01*
X24569523Y-31442380D01*
X24950476Y-31442380D02*
X25569523Y-31442380D01*
X25236190Y-31823333D01*
X25379047Y-31823333D01*
X25474285Y-31870952D01*
X25521904Y-31918571D01*
X25569523Y-32013809D01*
X25569523Y-32251904D01*
X25521904Y-32347142D01*
X25474285Y-32394761D01*
X25379047Y-32442380D01*
X25093333Y-32442380D01*
X24998095Y-32394761D01*
X24950476Y-32347142D01*
X99316666Y-106107380D02*
X99316666Y-106821666D01*
X99269047Y-106964523D01*
X99173809Y-107059761D01*
X99030952Y-107107380D01*
X98935714Y-107107380D01*
X99745238Y-106202619D02*
X99792857Y-106155000D01*
X99888095Y-106107380D01*
X100126190Y-106107380D01*
X100221428Y-106155000D01*
X100269047Y-106202619D01*
X100316666Y-106297857D01*
X100316666Y-106393095D01*
X100269047Y-106535952D01*
X99697619Y-107107380D01*
X100316666Y-107107380D01*
X91795714Y-106362380D02*
X91795714Y-105362380D01*
X92033809Y-105362380D01*
X92176666Y-105410000D01*
X92271904Y-105505238D01*
X92319523Y-105600476D01*
X92367142Y-105790952D01*
X92367142Y-105933809D01*
X92319523Y-106124285D01*
X92271904Y-106219523D01*
X92176666Y-106314761D01*
X92033809Y-106362380D01*
X91795714Y-106362380D01*
X93319523Y-106362380D02*
X92748095Y-106362380D01*
X93033809Y-106362380D02*
X93033809Y-105362380D01*
X92938571Y-105505238D01*
X92843333Y-105600476D01*
X92748095Y-105648095D01*
X94176666Y-105362380D02*
X93986190Y-105362380D01*
X93890952Y-105410000D01*
X93843333Y-105457619D01*
X93748095Y-105600476D01*
X93700476Y-105790952D01*
X93700476Y-106171904D01*
X93748095Y-106267142D01*
X93795714Y-106314761D01*
X93890952Y-106362380D01*
X94081428Y-106362380D01*
X94176666Y-106314761D01*
X94224285Y-106267142D01*
X94271904Y-106171904D01*
X94271904Y-105933809D01*
X94224285Y-105838571D01*
X94176666Y-105790952D01*
X94081428Y-105743333D01*
X93890952Y-105743333D01*
X93795714Y-105790952D01*
X93748095Y-105838571D01*
X93700476Y-105933809D01*
X89145714Y-108262380D02*
X88574285Y-108262380D01*
X88860000Y-108262380D02*
X88860000Y-107262380D01*
X88764761Y-107405238D01*
X88669523Y-107500476D01*
X88574285Y-107548095D01*
X91905714Y-99362380D02*
X91905714Y-98362380D01*
X92143809Y-98362380D01*
X92286666Y-98410000D01*
X92381904Y-98505238D01*
X92429523Y-98600476D01*
X92477142Y-98790952D01*
X92477142Y-98933809D01*
X92429523Y-99124285D01*
X92381904Y-99219523D01*
X92286666Y-99314761D01*
X92143809Y-99362380D01*
X91905714Y-99362380D01*
X93429523Y-99362380D02*
X92858095Y-99362380D01*
X93143809Y-99362380D02*
X93143809Y-98362380D01*
X93048571Y-98505238D01*
X92953333Y-98600476D01*
X92858095Y-98648095D01*
X94334285Y-98362380D02*
X93858095Y-98362380D01*
X93810476Y-98838571D01*
X93858095Y-98790952D01*
X93953333Y-98743333D01*
X94191428Y-98743333D01*
X94286666Y-98790952D01*
X94334285Y-98838571D01*
X94381904Y-98933809D01*
X94381904Y-99171904D01*
X94334285Y-99267142D01*
X94286666Y-99314761D01*
X94191428Y-99362380D01*
X93953333Y-99362380D01*
X93858095Y-99314761D01*
X93810476Y-99267142D01*
X89255714Y-101262380D02*
X88684285Y-101262380D01*
X88970000Y-101262380D02*
X88970000Y-100262380D01*
X88874761Y-100405238D01*
X88779523Y-100500476D01*
X88684285Y-100548095D01*
X76285714Y-72452380D02*
X76285714Y-71452380D01*
X76523809Y-71452380D01*
X76666666Y-71500000D01*
X76761904Y-71595238D01*
X76809523Y-71690476D01*
X76857142Y-71880952D01*
X76857142Y-72023809D01*
X76809523Y-72214285D01*
X76761904Y-72309523D01*
X76666666Y-72404761D01*
X76523809Y-72452380D01*
X76285714Y-72452380D01*
X77809523Y-72452380D02*
X77238095Y-72452380D01*
X77523809Y-72452380D02*
X77523809Y-71452380D01*
X77428571Y-71595238D01*
X77333333Y-71690476D01*
X77238095Y-71738095D01*
X78666666Y-71785714D02*
X78666666Y-72452380D01*
X78428571Y-71404761D02*
X78190476Y-72119047D01*
X78809523Y-72119047D01*
X73635714Y-74352380D02*
X73064285Y-74352380D01*
X73350000Y-74352380D02*
X73350000Y-73352380D01*
X73254761Y-73495238D01*
X73159523Y-73590476D01*
X73064285Y-73638095D01*
X56285714Y-72452380D02*
X56285714Y-71452380D01*
X56523809Y-71452380D01*
X56666666Y-71500000D01*
X56761904Y-71595238D01*
X56809523Y-71690476D01*
X56857142Y-71880952D01*
X56857142Y-72023809D01*
X56809523Y-72214285D01*
X56761904Y-72309523D01*
X56666666Y-72404761D01*
X56523809Y-72452380D01*
X56285714Y-72452380D01*
X57809523Y-72452380D02*
X57238095Y-72452380D01*
X57523809Y-72452380D02*
X57523809Y-71452380D01*
X57428571Y-71595238D01*
X57333333Y-71690476D01*
X57238095Y-71738095D01*
X58142857Y-71452380D02*
X58761904Y-71452380D01*
X58428571Y-71833333D01*
X58571428Y-71833333D01*
X58666666Y-71880952D01*
X58714285Y-71928571D01*
X58761904Y-72023809D01*
X58761904Y-72261904D01*
X58714285Y-72357142D01*
X58666666Y-72404761D01*
X58571428Y-72452380D01*
X58285714Y-72452380D01*
X58190476Y-72404761D01*
X58142857Y-72357142D01*
X53635714Y-74352380D02*
X53064285Y-74352380D01*
X53350000Y-74352380D02*
X53350000Y-73352380D01*
X53254761Y-73495238D01*
X53159523Y-73590476D01*
X53064285Y-73638095D01*
X36285714Y-72452380D02*
X36285714Y-71452380D01*
X36523809Y-71452380D01*
X36666666Y-71500000D01*
X36761904Y-71595238D01*
X36809523Y-71690476D01*
X36857142Y-71880952D01*
X36857142Y-72023809D01*
X36809523Y-72214285D01*
X36761904Y-72309523D01*
X36666666Y-72404761D01*
X36523809Y-72452380D01*
X36285714Y-72452380D01*
X37809523Y-72452380D02*
X37238095Y-72452380D01*
X37523809Y-72452380D02*
X37523809Y-71452380D01*
X37428571Y-71595238D01*
X37333333Y-71690476D01*
X37238095Y-71738095D01*
X38190476Y-71547619D02*
X38238095Y-71500000D01*
X38333333Y-71452380D01*
X38571428Y-71452380D01*
X38666666Y-71500000D01*
X38714285Y-71547619D01*
X38761904Y-71642857D01*
X38761904Y-71738095D01*
X38714285Y-71880952D01*
X38142857Y-72452380D01*
X38761904Y-72452380D01*
X33635714Y-74352380D02*
X33064285Y-74352380D01*
X33350000Y-74352380D02*
X33350000Y-73352380D01*
X33254761Y-73495238D01*
X33159523Y-73590476D01*
X33064285Y-73638095D01*
X76285714Y-52952380D02*
X76285714Y-51952380D01*
X76523809Y-51952380D01*
X76666666Y-52000000D01*
X76761904Y-52095238D01*
X76809523Y-52190476D01*
X76857142Y-52380952D01*
X76857142Y-52523809D01*
X76809523Y-52714285D01*
X76761904Y-52809523D01*
X76666666Y-52904761D01*
X76523809Y-52952380D01*
X76285714Y-52952380D01*
X77809523Y-52952380D02*
X77238095Y-52952380D01*
X77523809Y-52952380D02*
X77523809Y-51952380D01*
X77428571Y-52095238D01*
X77333333Y-52190476D01*
X77238095Y-52238095D01*
X78761904Y-52952380D02*
X78190476Y-52952380D01*
X78476190Y-52952380D02*
X78476190Y-51952380D01*
X78380952Y-52095238D01*
X78285714Y-52190476D01*
X78190476Y-52238095D01*
X73635714Y-54852380D02*
X73064285Y-54852380D01*
X73350000Y-54852380D02*
X73350000Y-53852380D01*
X73254761Y-53995238D01*
X73159523Y-54090476D01*
X73064285Y-54138095D01*
X56285714Y-52952380D02*
X56285714Y-51952380D01*
X56523809Y-51952380D01*
X56666666Y-52000000D01*
X56761904Y-52095238D01*
X56809523Y-52190476D01*
X56857142Y-52380952D01*
X56857142Y-52523809D01*
X56809523Y-52714285D01*
X56761904Y-52809523D01*
X56666666Y-52904761D01*
X56523809Y-52952380D01*
X56285714Y-52952380D01*
X57809523Y-52952380D02*
X57238095Y-52952380D01*
X57523809Y-52952380D02*
X57523809Y-51952380D01*
X57428571Y-52095238D01*
X57333333Y-52190476D01*
X57238095Y-52238095D01*
X58428571Y-51952380D02*
X58523809Y-51952380D01*
X58619047Y-52000000D01*
X58666666Y-52047619D01*
X58714285Y-52142857D01*
X58761904Y-52333333D01*
X58761904Y-52571428D01*
X58714285Y-52761904D01*
X58666666Y-52857142D01*
X58619047Y-52904761D01*
X58523809Y-52952380D01*
X58428571Y-52952380D01*
X58333333Y-52904761D01*
X58285714Y-52857142D01*
X58238095Y-52761904D01*
X58190476Y-52571428D01*
X58190476Y-52333333D01*
X58238095Y-52142857D01*
X58285714Y-52047619D01*
X58333333Y-52000000D01*
X58428571Y-51952380D01*
X53635714Y-54852380D02*
X53064285Y-54852380D01*
X53350000Y-54852380D02*
X53350000Y-53852380D01*
X53254761Y-53995238D01*
X53159523Y-54090476D01*
X53064285Y-54138095D01*
X36761904Y-52952380D02*
X36761904Y-51952380D01*
X37000000Y-51952380D01*
X37142857Y-52000000D01*
X37238095Y-52095238D01*
X37285714Y-52190476D01*
X37333333Y-52380952D01*
X37333333Y-52523809D01*
X37285714Y-52714285D01*
X37238095Y-52809523D01*
X37142857Y-52904761D01*
X37000000Y-52952380D01*
X36761904Y-52952380D01*
X37809523Y-52952380D02*
X38000000Y-52952380D01*
X38095238Y-52904761D01*
X38142857Y-52857142D01*
X38238095Y-52714285D01*
X38285714Y-52523809D01*
X38285714Y-52142857D01*
X38238095Y-52047619D01*
X38190476Y-52000000D01*
X38095238Y-51952380D01*
X37904761Y-51952380D01*
X37809523Y-52000000D01*
X37761904Y-52047619D01*
X37714285Y-52142857D01*
X37714285Y-52380952D01*
X37761904Y-52476190D01*
X37809523Y-52523809D01*
X37904761Y-52571428D01*
X38095238Y-52571428D01*
X38190476Y-52523809D01*
X38238095Y-52476190D01*
X38285714Y-52380952D01*
X33635714Y-54852380D02*
X33064285Y-54852380D01*
X33350000Y-54852380D02*
X33350000Y-53852380D01*
X33254761Y-53995238D01*
X33159523Y-54090476D01*
X33064285Y-54138095D01*
X76761904Y-33452380D02*
X76761904Y-32452380D01*
X77000000Y-32452380D01*
X77142857Y-32500000D01*
X77238095Y-32595238D01*
X77285714Y-32690476D01*
X77333333Y-32880952D01*
X77333333Y-33023809D01*
X77285714Y-33214285D01*
X77238095Y-33309523D01*
X77142857Y-33404761D01*
X77000000Y-33452380D01*
X76761904Y-33452380D01*
X77904761Y-32880952D02*
X77809523Y-32833333D01*
X77761904Y-32785714D01*
X77714285Y-32690476D01*
X77714285Y-32642857D01*
X77761904Y-32547619D01*
X77809523Y-32500000D01*
X77904761Y-32452380D01*
X78095238Y-32452380D01*
X78190476Y-32500000D01*
X78238095Y-32547619D01*
X78285714Y-32642857D01*
X78285714Y-32690476D01*
X78238095Y-32785714D01*
X78190476Y-32833333D01*
X78095238Y-32880952D01*
X77904761Y-32880952D01*
X77809523Y-32928571D01*
X77761904Y-32976190D01*
X77714285Y-33071428D01*
X77714285Y-33261904D01*
X77761904Y-33357142D01*
X77809523Y-33404761D01*
X77904761Y-33452380D01*
X78095238Y-33452380D01*
X78190476Y-33404761D01*
X78238095Y-33357142D01*
X78285714Y-33261904D01*
X78285714Y-33071428D01*
X78238095Y-32976190D01*
X78190476Y-32928571D01*
X78095238Y-32880952D01*
X73635714Y-35352380D02*
X73064285Y-35352380D01*
X73350000Y-35352380D02*
X73350000Y-34352380D01*
X73254761Y-34495238D01*
X73159523Y-34590476D01*
X73064285Y-34638095D01*
X56761904Y-33452380D02*
X56761904Y-32452380D01*
X57000000Y-32452380D01*
X57142857Y-32500000D01*
X57238095Y-32595238D01*
X57285714Y-32690476D01*
X57333333Y-32880952D01*
X57333333Y-33023809D01*
X57285714Y-33214285D01*
X57238095Y-33309523D01*
X57142857Y-33404761D01*
X57000000Y-33452380D01*
X56761904Y-33452380D01*
X57666666Y-32452380D02*
X58333333Y-32452380D01*
X57904761Y-33452380D01*
X53635714Y-35352380D02*
X53064285Y-35352380D01*
X53350000Y-35352380D02*
X53350000Y-34352380D01*
X53254761Y-34495238D01*
X53159523Y-34590476D01*
X53064285Y-34638095D01*
X36761904Y-33452380D02*
X36761904Y-32452380D01*
X37000000Y-32452380D01*
X37142857Y-32500000D01*
X37238095Y-32595238D01*
X37285714Y-32690476D01*
X37333333Y-32880952D01*
X37333333Y-33023809D01*
X37285714Y-33214285D01*
X37238095Y-33309523D01*
X37142857Y-33404761D01*
X37000000Y-33452380D01*
X36761904Y-33452380D01*
X38190476Y-32452380D02*
X38000000Y-32452380D01*
X37904761Y-32500000D01*
X37857142Y-32547619D01*
X37761904Y-32690476D01*
X37714285Y-32880952D01*
X37714285Y-33261904D01*
X37761904Y-33357142D01*
X37809523Y-33404761D01*
X37904761Y-33452380D01*
X38095238Y-33452380D01*
X38190476Y-33404761D01*
X38238095Y-33357142D01*
X38285714Y-33261904D01*
X38285714Y-33023809D01*
X38238095Y-32928571D01*
X38190476Y-32880952D01*
X38095238Y-32833333D01*
X37904761Y-32833333D01*
X37809523Y-32880952D01*
X37761904Y-32928571D01*
X37714285Y-33023809D01*
X33635714Y-35352380D02*
X33064285Y-35352380D01*
X33350000Y-35352380D02*
X33350000Y-34352380D01*
X33254761Y-34495238D01*
X33159523Y-34590476D01*
X33064285Y-34638095D01*
X26261904Y-48452380D02*
X26261904Y-47452380D01*
X26500000Y-47452380D01*
X26642857Y-47500000D01*
X26738095Y-47595238D01*
X26785714Y-47690476D01*
X26833333Y-47880952D01*
X26833333Y-48023809D01*
X26785714Y-48214285D01*
X26738095Y-48309523D01*
X26642857Y-48404761D01*
X26500000Y-48452380D01*
X26261904Y-48452380D01*
X27738095Y-47452380D02*
X27261904Y-47452380D01*
X27214285Y-47928571D01*
X27261904Y-47880952D01*
X27357142Y-47833333D01*
X27595238Y-47833333D01*
X27690476Y-47880952D01*
X27738095Y-47928571D01*
X27785714Y-48023809D01*
X27785714Y-48261904D01*
X27738095Y-48357142D01*
X27690476Y-48404761D01*
X27595238Y-48452380D01*
X27357142Y-48452380D01*
X27261904Y-48404761D01*
X27214285Y-48357142D01*
X26261904Y-45452380D02*
X26261904Y-44452380D01*
X26500000Y-44452380D01*
X26642857Y-44500000D01*
X26738095Y-44595238D01*
X26785714Y-44690476D01*
X26833333Y-44880952D01*
X26833333Y-45023809D01*
X26785714Y-45214285D01*
X26738095Y-45309523D01*
X26642857Y-45404761D01*
X26500000Y-45452380D01*
X26261904Y-45452380D01*
X27690476Y-44785714D02*
X27690476Y-45452380D01*
X27452380Y-44404761D02*
X27214285Y-45119047D01*
X27833333Y-45119047D01*
X26261904Y-42952380D02*
X26261904Y-41952380D01*
X26500000Y-41952380D01*
X26642857Y-42000000D01*
X26738095Y-42095238D01*
X26785714Y-42190476D01*
X26833333Y-42380952D01*
X26833333Y-42523809D01*
X26785714Y-42714285D01*
X26738095Y-42809523D01*
X26642857Y-42904761D01*
X26500000Y-42952380D01*
X26261904Y-42952380D01*
X27166666Y-41952380D02*
X27785714Y-41952380D01*
X27452380Y-42333333D01*
X27595238Y-42333333D01*
X27690476Y-42380952D01*
X27738095Y-42428571D01*
X27785714Y-42523809D01*
X27785714Y-42761904D01*
X27738095Y-42857142D01*
X27690476Y-42904761D01*
X27595238Y-42952380D01*
X27309523Y-42952380D01*
X27214285Y-42904761D01*
X27166666Y-42857142D01*
X26833333Y-38857142D02*
X26785714Y-38904761D01*
X26642857Y-38952380D01*
X26547619Y-38952380D01*
X26404761Y-38904761D01*
X26309523Y-38809523D01*
X26261904Y-38714285D01*
X26214285Y-38523809D01*
X26214285Y-38380952D01*
X26261904Y-38190476D01*
X26309523Y-38095238D01*
X26404761Y-38000000D01*
X26547619Y-37952380D01*
X26642857Y-37952380D01*
X26785714Y-38000000D01*
X26833333Y-38047619D01*
X27690476Y-37952380D02*
X27500000Y-37952380D01*
X27404761Y-38000000D01*
X27357142Y-38047619D01*
X27261904Y-38190476D01*
X27214285Y-38380952D01*
X27214285Y-38761904D01*
X27261904Y-38857142D01*
X27309523Y-38904761D01*
X27404761Y-38952380D01*
X27595238Y-38952380D01*
X27690476Y-38904761D01*
X27738095Y-38857142D01*
X27785714Y-38761904D01*
X27785714Y-38523809D01*
X27738095Y-38428571D01*
X27690476Y-38380952D01*
X27595238Y-38333333D01*
X27404761Y-38333333D01*
X27309523Y-38380952D01*
X27261904Y-38428571D01*
X27214285Y-38523809D01*
X26833333Y-50357142D02*
X26785714Y-50404761D01*
X26642857Y-50452380D01*
X26547619Y-50452380D01*
X26404761Y-50404761D01*
X26309523Y-50309523D01*
X26261904Y-50214285D01*
X26214285Y-50023809D01*
X26214285Y-49880952D01*
X26261904Y-49690476D01*
X26309523Y-49595238D01*
X26404761Y-49500000D01*
X26547619Y-49452380D01*
X26642857Y-49452380D01*
X26785714Y-49500000D01*
X26833333Y-49547619D01*
X27738095Y-49452380D02*
X27261904Y-49452380D01*
X27214285Y-49928571D01*
X27261904Y-49880952D01*
X27357142Y-49833333D01*
X27595238Y-49833333D01*
X27690476Y-49880952D01*
X27738095Y-49928571D01*
X27785714Y-50023809D01*
X27785714Y-50261904D01*
X27738095Y-50357142D01*
X27690476Y-50404761D01*
X27595238Y-50452380D01*
X27357142Y-50452380D01*
X27261904Y-50404761D01*
X27214285Y-50357142D01*
X86811190Y-43936190D02*
X87287380Y-43936190D01*
X86287380Y-44269523D02*
X86811190Y-43936190D01*
X86287380Y-43602857D01*
X87287380Y-42745714D02*
X87287380Y-43317142D01*
X87287380Y-43031428D02*
X86287380Y-43031428D01*
X86430238Y-43126666D01*
X86525476Y-43221904D01*
X86573095Y-43317142D01*
X95865476Y-30427380D02*
X96198809Y-31427380D01*
X96532142Y-30427380D01*
X96865476Y-30427380D02*
X96865476Y-31236904D01*
X96913095Y-31332142D01*
X96960714Y-31379761D01*
X97055952Y-31427380D01*
X97246428Y-31427380D01*
X97341666Y-31379761D01*
X97389285Y-31332142D01*
X97436904Y-31236904D01*
X97436904Y-30427380D01*
X97865476Y-31379761D02*
X98008333Y-31427380D01*
X98246428Y-31427380D01*
X98341666Y-31379761D01*
X98389285Y-31332142D01*
X98436904Y-31236904D01*
X98436904Y-31141666D01*
X98389285Y-31046428D01*
X98341666Y-30998809D01*
X98246428Y-30951190D01*
X98055952Y-30903571D01*
X97960714Y-30855952D01*
X97913095Y-30808333D01*
X97865476Y-30713095D01*
X97865476Y-30617857D01*
X97913095Y-30522619D01*
X97960714Y-30475000D01*
X98055952Y-30427380D01*
X98294047Y-30427380D01*
X98436904Y-30475000D01*
X99198809Y-30903571D02*
X99341666Y-30951190D01*
X99389285Y-30998809D01*
X99436904Y-31094047D01*
X99436904Y-31236904D01*
X99389285Y-31332142D01*
X99341666Y-31379761D01*
X99246428Y-31427380D01*
X98865476Y-31427380D01*
X98865476Y-30427380D01*
X99198809Y-30427380D01*
X99294047Y-30475000D01*
X99341666Y-30522619D01*
X99389285Y-30617857D01*
X99389285Y-30713095D01*
X99341666Y-30808333D01*
X99294047Y-30855952D01*
X99198809Y-30903571D01*
X98865476Y-30903571D01*
X100389285Y-31427380D02*
X99817857Y-31427380D01*
X100103571Y-31427380D02*
X100103571Y-30427380D01*
X100008333Y-30570238D01*
X99913095Y-30665476D01*
X99817857Y-30713095D01*
X100579761Y-31522619D02*
X101341666Y-31522619D01*
X101579761Y-31427380D02*
X101579761Y-30427380D01*
X101579761Y-30903571D02*
X102151190Y-30903571D01*
X102151190Y-31427380D02*
X102151190Y-30427380D01*
X102627380Y-30903571D02*
X102960714Y-30903571D01*
X103103571Y-31427380D02*
X102627380Y-31427380D01*
X102627380Y-30427380D01*
X103103571Y-30427380D01*
X103484523Y-31141666D02*
X103960714Y-31141666D01*
X103389285Y-31427380D02*
X103722619Y-30427380D01*
X104055952Y-31427380D01*
X104865476Y-31427380D02*
X104389285Y-31427380D01*
X104389285Y-30427380D01*
X105055952Y-30427380D02*
X105627380Y-30427380D01*
X105341666Y-31427380D02*
X105341666Y-30427380D01*
X105960714Y-31427380D02*
X105960714Y-30427380D01*
X105960714Y-30903571D02*
X106532142Y-30903571D01*
X106532142Y-31427380D02*
X106532142Y-30427380D01*
X107198809Y-30951190D02*
X107198809Y-31427380D01*
X106865476Y-30427380D02*
X107198809Y-30951190D01*
X107532142Y-30427380D01*
X108389285Y-31427380D02*
X107817857Y-31427380D01*
X108103571Y-31427380D02*
X108103571Y-30427380D01*
X108008333Y-30570238D01*
X107913095Y-30665476D01*
X107817857Y-30713095D01*
X101852380Y-35390476D02*
X101376190Y-35723809D01*
X101852380Y-35961904D02*
X100852380Y-35961904D01*
X100852380Y-35580952D01*
X100900000Y-35485714D01*
X100947619Y-35438095D01*
X101042857Y-35390476D01*
X101185714Y-35390476D01*
X101280952Y-35438095D01*
X101328571Y-35485714D01*
X101376190Y-35580952D01*
X101376190Y-35961904D01*
X101852380Y-34961904D02*
X100852380Y-34961904D01*
X101852380Y-34390476D01*
X100852380Y-34390476D01*
X100852380Y-34009523D02*
X100852380Y-33390476D01*
X101233333Y-33723809D01*
X101233333Y-33580952D01*
X101280952Y-33485714D01*
X101328571Y-33438095D01*
X101423809Y-33390476D01*
X101661904Y-33390476D01*
X101757142Y-33438095D01*
X101804761Y-33485714D01*
X101852380Y-33580952D01*
X101852380Y-33866666D01*
X101804761Y-33961904D01*
X101757142Y-34009523D01*
X90752380Y-52690476D02*
X90276190Y-53023809D01*
X90752380Y-53261904D02*
X89752380Y-53261904D01*
X89752380Y-52880952D01*
X89800000Y-52785714D01*
X89847619Y-52738095D01*
X89942857Y-52690476D01*
X90085714Y-52690476D01*
X90180952Y-52738095D01*
X90228571Y-52785714D01*
X90276190Y-52880952D01*
X90276190Y-53261904D01*
X90752380Y-52261904D02*
X89752380Y-52261904D01*
X90752380Y-51690476D01*
X89752380Y-51690476D01*
X89847619Y-51261904D02*
X89800000Y-51214285D01*
X89752380Y-51119047D01*
X89752380Y-50880952D01*
X89800000Y-50785714D01*
X89847619Y-50738095D01*
X89942857Y-50690476D01*
X90038095Y-50690476D01*
X90180952Y-50738095D01*
X90752380Y-51309523D01*
X90752380Y-50690476D01*
X105566666Y-22402380D02*
X105566666Y-23116666D01*
X105519047Y-23259523D01*
X105423809Y-23354761D01*
X105280952Y-23402380D01*
X105185714Y-23402380D01*
X106471428Y-22402380D02*
X106280952Y-22402380D01*
X106185714Y-22450000D01*
X106138095Y-22497619D01*
X106042857Y-22640476D01*
X105995238Y-22830952D01*
X105995238Y-23211904D01*
X106042857Y-23307142D01*
X106090476Y-23354761D01*
X106185714Y-23402380D01*
X106376190Y-23402380D01*
X106471428Y-23354761D01*
X106519047Y-23307142D01*
X106566666Y-23211904D01*
X106566666Y-22973809D01*
X106519047Y-22878571D01*
X106471428Y-22830952D01*
X106376190Y-22783333D01*
X106185714Y-22783333D01*
X106090476Y-22830952D01*
X106042857Y-22878571D01*
X105995238Y-22973809D01*
X105741666Y-26177380D02*
X105741666Y-26891666D01*
X105694047Y-27034523D01*
X105598809Y-27129761D01*
X105455952Y-27177380D01*
X105360714Y-27177380D01*
X106694047Y-26177380D02*
X106217857Y-26177380D01*
X106170238Y-26653571D01*
X106217857Y-26605952D01*
X106313095Y-26558333D01*
X106551190Y-26558333D01*
X106646428Y-26605952D01*
X106694047Y-26653571D01*
X106741666Y-26748809D01*
X106741666Y-26986904D01*
X106694047Y-27082142D01*
X106646428Y-27129761D01*
X106551190Y-27177380D01*
X106313095Y-27177380D01*
X106217857Y-27129761D01*
X106170238Y-27082142D01*
X88785714Y-34652380D02*
X88785714Y-33652380D01*
X89023809Y-33652380D01*
X89166666Y-33700000D01*
X89261904Y-33795238D01*
X89309523Y-33890476D01*
X89357142Y-34080952D01*
X89357142Y-34223809D01*
X89309523Y-34414285D01*
X89261904Y-34509523D01*
X89166666Y-34604761D01*
X89023809Y-34652380D01*
X88785714Y-34652380D01*
X89738095Y-33747619D02*
X89785714Y-33700000D01*
X89880952Y-33652380D01*
X90119047Y-33652380D01*
X90214285Y-33700000D01*
X90261904Y-33747619D01*
X90309523Y-33842857D01*
X90309523Y-33938095D01*
X90261904Y-34080952D01*
X89690476Y-34652380D01*
X90309523Y-34652380D01*
X91166666Y-33652380D02*
X90976190Y-33652380D01*
X90880952Y-33700000D01*
X90833333Y-33747619D01*
X90738095Y-33890476D01*
X90690476Y-34080952D01*
X90690476Y-34461904D01*
X90738095Y-34557142D01*
X90785714Y-34604761D01*
X90880952Y-34652380D01*
X91071428Y-34652380D01*
X91166666Y-34604761D01*
X91214285Y-34557142D01*
X91261904Y-34461904D01*
X91261904Y-34223809D01*
X91214285Y-34128571D01*
X91166666Y-34080952D01*
X91071428Y-34033333D01*
X90880952Y-34033333D01*
X90785714Y-34080952D01*
X90738095Y-34128571D01*
X90690476Y-34223809D01*
X92635714Y-37652380D02*
X92635714Y-36652380D01*
X92873809Y-36652380D01*
X93016666Y-36700000D01*
X93111904Y-36795238D01*
X93159523Y-36890476D01*
X93207142Y-37080952D01*
X93207142Y-37223809D01*
X93159523Y-37414285D01*
X93111904Y-37509523D01*
X93016666Y-37604761D01*
X92873809Y-37652380D01*
X92635714Y-37652380D01*
X93588095Y-36747619D02*
X93635714Y-36700000D01*
X93730952Y-36652380D01*
X93969047Y-36652380D01*
X94064285Y-36700000D01*
X94111904Y-36747619D01*
X94159523Y-36842857D01*
X94159523Y-36938095D01*
X94111904Y-37080952D01*
X93540476Y-37652380D01*
X94159523Y-37652380D01*
X95064285Y-36652380D02*
X94588095Y-36652380D01*
X94540476Y-37128571D01*
X94588095Y-37080952D01*
X94683333Y-37033333D01*
X94921428Y-37033333D01*
X95016666Y-37080952D01*
X95064285Y-37128571D01*
X95111904Y-37223809D01*
X95111904Y-37461904D01*
X95064285Y-37557142D01*
X95016666Y-37604761D01*
X94921428Y-37652380D01*
X94683333Y-37652380D01*
X94588095Y-37604761D01*
X94540476Y-37557142D01*
X93771904Y-66182380D02*
X93771904Y-66991904D01*
X93819523Y-67087142D01*
X93867142Y-67134761D01*
X93962380Y-67182380D01*
X94152857Y-67182380D01*
X94248095Y-67134761D01*
X94295714Y-67087142D01*
X94343333Y-66991904D01*
X94343333Y-66182380D01*
X95343333Y-67182380D02*
X94771904Y-67182380D01*
X95057619Y-67182380D02*
X95057619Y-66182380D01*
X94962380Y-66325238D01*
X94867142Y-66420476D01*
X94771904Y-66468095D01*
X95962380Y-66182380D02*
X96057619Y-66182380D01*
X96152857Y-66230000D01*
X96200476Y-66277619D01*
X96248095Y-66372857D01*
X96295714Y-66563333D01*
X96295714Y-66801428D01*
X96248095Y-66991904D01*
X96200476Y-67087142D01*
X96152857Y-67134761D01*
X96057619Y-67182380D01*
X95962380Y-67182380D01*
X95867142Y-67134761D01*
X95819523Y-67087142D01*
X95771904Y-66991904D01*
X95724285Y-66801428D01*
X95724285Y-66563333D01*
X95771904Y-66372857D01*
X95819523Y-66277619D01*
X95867142Y-66230000D01*
X95962380Y-66182380D01*
X89404761Y-66809523D02*
X89452380Y-66666666D01*
X89452380Y-66428571D01*
X89404761Y-66333333D01*
X89357142Y-66285714D01*
X89261904Y-66238095D01*
X89166666Y-66238095D01*
X89071428Y-66285714D01*
X89023809Y-66333333D01*
X88976190Y-66428571D01*
X88928571Y-66619047D01*
X88880952Y-66714285D01*
X88833333Y-66761904D01*
X88738095Y-66809523D01*
X88642857Y-66809523D01*
X88547619Y-66761904D01*
X88500000Y-66714285D01*
X88452380Y-66619047D01*
X88452380Y-66380952D01*
X88500000Y-66238095D01*
X88452380Y-65904761D02*
X89452380Y-65666666D01*
X88738095Y-65476190D01*
X89452380Y-65285714D01*
X88452380Y-65047619D01*
X89452380Y-64142857D02*
X89452380Y-64714285D01*
X89452380Y-64428571D02*
X88452380Y-64428571D01*
X88595238Y-64523809D01*
X88690476Y-64619047D01*
X88738095Y-64714285D01*
X89452380Y-63666666D02*
X89452380Y-63476190D01*
X89404761Y-63380952D01*
X89357142Y-63333333D01*
X89214285Y-63238095D01*
X89023809Y-63190476D01*
X88642857Y-63190476D01*
X88547619Y-63238095D01*
X88500000Y-63285714D01*
X88452380Y-63380952D01*
X88452380Y-63571428D01*
X88500000Y-63666666D01*
X88547619Y-63714285D01*
X88642857Y-63761904D01*
X88880952Y-63761904D01*
X88976190Y-63714285D01*
X89023809Y-63666666D01*
X89071428Y-63571428D01*
X89071428Y-63380952D01*
X89023809Y-63285714D01*
X88976190Y-63238095D01*
X88880952Y-63190476D01*
X108357142Y-58952380D02*
X108023809Y-58476190D01*
X107785714Y-58952380D02*
X107785714Y-57952380D01*
X108166666Y-57952380D01*
X108261904Y-58000000D01*
X108309523Y-58047619D01*
X108357142Y-58142857D01*
X108357142Y-58285714D01*
X108309523Y-58380952D01*
X108261904Y-58428571D01*
X108166666Y-58476190D01*
X107785714Y-58476190D01*
X108690476Y-57952380D02*
X109309523Y-57952380D01*
X108976190Y-58333333D01*
X109119047Y-58333333D01*
X109214285Y-58380952D01*
X109261904Y-58428571D01*
X109309523Y-58523809D01*
X109309523Y-58761904D01*
X109261904Y-58857142D01*
X109214285Y-58904761D01*
X109119047Y-58952380D01*
X108833333Y-58952380D01*
X108738095Y-58904761D01*
X108690476Y-58857142D01*
X110166666Y-57952380D02*
X109976190Y-57952380D01*
X109880952Y-58000000D01*
X109833333Y-58047619D01*
X109738095Y-58190476D01*
X109690476Y-58380952D01*
X109690476Y-58761904D01*
X109738095Y-58857142D01*
X109785714Y-58904761D01*
X109880952Y-58952380D01*
X110071428Y-58952380D01*
X110166666Y-58904761D01*
X110214285Y-58857142D01*
X110261904Y-58761904D01*
X110261904Y-58523809D01*
X110214285Y-58428571D01*
X110166666Y-58380952D01*
X110071428Y-58333333D01*
X109880952Y-58333333D01*
X109785714Y-58380952D01*
X109738095Y-58428571D01*
X109690476Y-58523809D01*
X101357142Y-63452380D02*
X101023809Y-62976190D01*
X100785714Y-63452380D02*
X100785714Y-62452380D01*
X101166666Y-62452380D01*
X101261904Y-62500000D01*
X101309523Y-62547619D01*
X101357142Y-62642857D01*
X101357142Y-62785714D01*
X101309523Y-62880952D01*
X101261904Y-62928571D01*
X101166666Y-62976190D01*
X100785714Y-62976190D01*
X101690476Y-62452380D02*
X102309523Y-62452380D01*
X101976190Y-62833333D01*
X102119047Y-62833333D01*
X102214285Y-62880952D01*
X102261904Y-62928571D01*
X102309523Y-63023809D01*
X102309523Y-63261904D01*
X102261904Y-63357142D01*
X102214285Y-63404761D01*
X102119047Y-63452380D01*
X101833333Y-63452380D01*
X101738095Y-63404761D01*
X101690476Y-63357142D01*
X103214285Y-62452380D02*
X102738095Y-62452380D01*
X102690476Y-62928571D01*
X102738095Y-62880952D01*
X102833333Y-62833333D01*
X103071428Y-62833333D01*
X103166666Y-62880952D01*
X103214285Y-62928571D01*
X103261904Y-63023809D01*
X103261904Y-63261904D01*
X103214285Y-63357142D01*
X103166666Y-63404761D01*
X103071428Y-63452380D01*
X102833333Y-63452380D01*
X102738095Y-63404761D01*
X102690476Y-63357142D01*
X105357142Y-58952380D02*
X105023809Y-58476190D01*
X104785714Y-58952380D02*
X104785714Y-57952380D01*
X105166666Y-57952380D01*
X105261904Y-58000000D01*
X105309523Y-58047619D01*
X105357142Y-58142857D01*
X105357142Y-58285714D01*
X105309523Y-58380952D01*
X105261904Y-58428571D01*
X105166666Y-58476190D01*
X104785714Y-58476190D01*
X105690476Y-57952380D02*
X106309523Y-57952380D01*
X105976190Y-58333333D01*
X106119047Y-58333333D01*
X106214285Y-58380952D01*
X106261904Y-58428571D01*
X106309523Y-58523809D01*
X106309523Y-58761904D01*
X106261904Y-58857142D01*
X106214285Y-58904761D01*
X106119047Y-58952380D01*
X105833333Y-58952380D01*
X105738095Y-58904761D01*
X105690476Y-58857142D01*
X106690476Y-58047619D02*
X106738095Y-58000000D01*
X106833333Y-57952380D01*
X107071428Y-57952380D01*
X107166666Y-58000000D01*
X107214285Y-58047619D01*
X107261904Y-58142857D01*
X107261904Y-58238095D01*
X107214285Y-58380952D01*
X106642857Y-58952380D01*
X107261904Y-58952380D01*
X96857142Y-63452380D02*
X96523809Y-62976190D01*
X96285714Y-63452380D02*
X96285714Y-62452380D01*
X96666666Y-62452380D01*
X96761904Y-62500000D01*
X96809523Y-62547619D01*
X96857142Y-62642857D01*
X96857142Y-62785714D01*
X96809523Y-62880952D01*
X96761904Y-62928571D01*
X96666666Y-62976190D01*
X96285714Y-62976190D01*
X97190476Y-62452380D02*
X97809523Y-62452380D01*
X97476190Y-62833333D01*
X97619047Y-62833333D01*
X97714285Y-62880952D01*
X97761904Y-62928571D01*
X97809523Y-63023809D01*
X97809523Y-63261904D01*
X97761904Y-63357142D01*
X97714285Y-63404761D01*
X97619047Y-63452380D01*
X97333333Y-63452380D01*
X97238095Y-63404761D01*
X97190476Y-63357142D01*
X98761904Y-63452380D02*
X98190476Y-63452380D01*
X98476190Y-63452380D02*
X98476190Y-62452380D01*
X98380952Y-62595238D01*
X98285714Y-62690476D01*
X98190476Y-62738095D01*
X102952380Y-55833333D02*
X103666666Y-55833333D01*
X103809523Y-55880952D01*
X103904761Y-55976190D01*
X103952380Y-56119047D01*
X103952380Y-56214285D01*
X103380952Y-55214285D02*
X103333333Y-55309523D01*
X103285714Y-55357142D01*
X103190476Y-55404761D01*
X103142857Y-55404761D01*
X103047619Y-55357142D01*
X103000000Y-55309523D01*
X102952380Y-55214285D01*
X102952380Y-55023809D01*
X103000000Y-54928571D01*
X103047619Y-54880952D01*
X103142857Y-54833333D01*
X103190476Y-54833333D01*
X103285714Y-54880952D01*
X103333333Y-54928571D01*
X103380952Y-55023809D01*
X103380952Y-55214285D01*
X103428571Y-55309523D01*
X103476190Y-55357142D01*
X103571428Y-55404761D01*
X103761904Y-55404761D01*
X103857142Y-55357142D01*
X103904761Y-55309523D01*
X103952380Y-55214285D01*
X103952380Y-55023809D01*
X103904761Y-54928571D01*
X103857142Y-54880952D01*
X103761904Y-54833333D01*
X103571428Y-54833333D01*
X103476190Y-54880952D01*
X103428571Y-54928571D01*
X103380952Y-55023809D01*
X101454761Y-54340476D02*
X101502380Y-54197619D01*
X101502380Y-53959523D01*
X101454761Y-53864285D01*
X101407142Y-53816666D01*
X101311904Y-53769047D01*
X101216666Y-53769047D01*
X101121428Y-53816666D01*
X101073809Y-53864285D01*
X101026190Y-53959523D01*
X100978571Y-54150000D01*
X100930952Y-54245238D01*
X100883333Y-54292857D01*
X100788095Y-54340476D01*
X100692857Y-54340476D01*
X100597619Y-54292857D01*
X100550000Y-54245238D01*
X100502380Y-54150000D01*
X100502380Y-53911904D01*
X100550000Y-53769047D01*
X101407142Y-52769047D02*
X101454761Y-52816666D01*
X101502380Y-52959523D01*
X101502380Y-53054761D01*
X101454761Y-53197619D01*
X101359523Y-53292857D01*
X101264285Y-53340476D01*
X101073809Y-53388095D01*
X100930952Y-53388095D01*
X100740476Y-53340476D01*
X100645238Y-53292857D01*
X100550000Y-53197619D01*
X100502380Y-53054761D01*
X100502380Y-52959523D01*
X100550000Y-52816666D01*
X100597619Y-52769047D01*
X101502380Y-51864285D02*
X101502380Y-52340476D01*
X100502380Y-52340476D01*
X98904761Y-54339285D02*
X98952380Y-54196428D01*
X98952380Y-53958333D01*
X98904761Y-53863095D01*
X98857142Y-53815476D01*
X98761904Y-53767857D01*
X98666666Y-53767857D01*
X98571428Y-53815476D01*
X98523809Y-53863095D01*
X98476190Y-53958333D01*
X98428571Y-54148809D01*
X98380952Y-54244047D01*
X98333333Y-54291666D01*
X98238095Y-54339285D01*
X98142857Y-54339285D01*
X98047619Y-54291666D01*
X98000000Y-54244047D01*
X97952380Y-54148809D01*
X97952380Y-53910714D01*
X98000000Y-53767857D01*
X98952380Y-53339285D02*
X97952380Y-53339285D01*
X97952380Y-53101190D01*
X98000000Y-52958333D01*
X98095238Y-52863095D01*
X98190476Y-52815476D01*
X98380952Y-52767857D01*
X98523809Y-52767857D01*
X98714285Y-52815476D01*
X98809523Y-52863095D01*
X98904761Y-52958333D01*
X98952380Y-53101190D01*
X98952380Y-53339285D01*
X98666666Y-52386904D02*
X98666666Y-51910714D01*
X98952380Y-52482142D02*
X97952380Y-52148809D01*
X98952380Y-51815476D01*
X107338380Y-87646404D02*
X108147904Y-87646404D01*
X108243142Y-87598785D01*
X108290761Y-87551166D01*
X108338380Y-87455928D01*
X108338380Y-87265452D01*
X108290761Y-87170214D01*
X108243142Y-87122595D01*
X108147904Y-87074976D01*
X107338380Y-87074976D01*
X108338380Y-86074976D02*
X108338380Y-86646404D01*
X108338380Y-86360690D02*
X107338380Y-86360690D01*
X107481238Y-86455928D01*
X107576476Y-86551166D01*
X107624095Y-86646404D01*
X106479761Y-93589285D02*
X106527380Y-93446428D01*
X106527380Y-93208333D01*
X106479761Y-93113095D01*
X106432142Y-93065476D01*
X106336904Y-93017857D01*
X106241666Y-93017857D01*
X106146428Y-93065476D01*
X106098809Y-93113095D01*
X106051190Y-93208333D01*
X106003571Y-93398809D01*
X105955952Y-93494047D01*
X105908333Y-93541666D01*
X105813095Y-93589285D01*
X105717857Y-93589285D01*
X105622619Y-93541666D01*
X105575000Y-93494047D01*
X105527380Y-93398809D01*
X105527380Y-93160714D01*
X105575000Y-93017857D01*
X106527380Y-92589285D02*
X105527380Y-92589285D01*
X105527380Y-92351190D01*
X105575000Y-92208333D01*
X105670238Y-92113095D01*
X105765476Y-92065476D01*
X105955952Y-92017857D01*
X106098809Y-92017857D01*
X106289285Y-92065476D01*
X106384523Y-92113095D01*
X106479761Y-92208333D01*
X106527380Y-92351190D01*
X106527380Y-92589285D01*
X106241666Y-91636904D02*
X106241666Y-91160714D01*
X106527380Y-91732142D02*
X105527380Y-91398809D01*
X106527380Y-91065476D01*
X107854761Y-93515476D02*
X107902380Y-93372619D01*
X107902380Y-93134523D01*
X107854761Y-93039285D01*
X107807142Y-92991666D01*
X107711904Y-92944047D01*
X107616666Y-92944047D01*
X107521428Y-92991666D01*
X107473809Y-93039285D01*
X107426190Y-93134523D01*
X107378571Y-93325000D01*
X107330952Y-93420238D01*
X107283333Y-93467857D01*
X107188095Y-93515476D01*
X107092857Y-93515476D01*
X106997619Y-93467857D01*
X106950000Y-93420238D01*
X106902380Y-93325000D01*
X106902380Y-93086904D01*
X106950000Y-92944047D01*
X107807142Y-91944047D02*
X107854761Y-91991666D01*
X107902380Y-92134523D01*
X107902380Y-92229761D01*
X107854761Y-92372619D01*
X107759523Y-92467857D01*
X107664285Y-92515476D01*
X107473809Y-92563095D01*
X107330952Y-92563095D01*
X107140476Y-92515476D01*
X107045238Y-92467857D01*
X106950000Y-92372619D01*
X106902380Y-92229761D01*
X106902380Y-92134523D01*
X106950000Y-91991666D01*
X106997619Y-91944047D01*
X107902380Y-91039285D02*
X107902380Y-91515476D01*
X106902380Y-91515476D01*
X107252380Y-97483333D02*
X108252380Y-97150000D01*
X107252380Y-96816666D01*
X108157142Y-95911904D02*
X108204761Y-95959523D01*
X108252380Y-96102380D01*
X108252380Y-96197619D01*
X108204761Y-96340476D01*
X108109523Y-96435714D01*
X108014285Y-96483333D01*
X107823809Y-96530952D01*
X107680952Y-96530952D01*
X107490476Y-96483333D01*
X107395238Y-96435714D01*
X107300000Y-96340476D01*
X107252380Y-96197619D01*
X107252380Y-96102380D01*
X107300000Y-95959523D01*
X107347619Y-95911904D01*
X108157142Y-94911904D02*
X108204761Y-94959523D01*
X108252380Y-95102380D01*
X108252380Y-95197619D01*
X108204761Y-95340476D01*
X108109523Y-95435714D01*
X108014285Y-95483333D01*
X107823809Y-95530952D01*
X107680952Y-95530952D01*
X107490476Y-95483333D01*
X107395238Y-95435714D01*
X107300000Y-95340476D01*
X107252380Y-95197619D01*
X107252380Y-95102380D01*
X107300000Y-94959523D01*
X107347619Y-94911904D01*
X108600000Y-96786904D02*
X108552380Y-96882142D01*
X108552380Y-97025000D01*
X108600000Y-97167857D01*
X108695238Y-97263095D01*
X108790476Y-97310714D01*
X108980952Y-97358333D01*
X109123809Y-97358333D01*
X109314285Y-97310714D01*
X109409523Y-97263095D01*
X109504761Y-97167857D01*
X109552380Y-97025000D01*
X109552380Y-96929761D01*
X109504761Y-96786904D01*
X109457142Y-96739285D01*
X109123809Y-96739285D01*
X109123809Y-96929761D01*
X109552380Y-96310714D02*
X108552380Y-96310714D01*
X109552380Y-95739285D01*
X108552380Y-95739285D01*
X109552380Y-95263095D02*
X108552380Y-95263095D01*
X108552380Y-95025000D01*
X108600000Y-94882142D01*
X108695238Y-94786904D01*
X108790476Y-94739285D01*
X108980952Y-94691666D01*
X109123809Y-94691666D01*
X109314285Y-94739285D01*
X109409523Y-94786904D01*
X109504761Y-94882142D01*
X109552380Y-95025000D01*
X109552380Y-95263095D01*
X103277380Y-93091666D02*
X102801190Y-93425000D01*
X103277380Y-93663095D02*
X102277380Y-93663095D01*
X102277380Y-93282142D01*
X102325000Y-93186904D01*
X102372619Y-93139285D01*
X102467857Y-93091666D01*
X102610714Y-93091666D01*
X102705952Y-93139285D01*
X102753571Y-93186904D01*
X102801190Y-93282142D01*
X102801190Y-93663095D01*
X102372619Y-92710714D02*
X102325000Y-92663095D01*
X102277380Y-92567857D01*
X102277380Y-92329761D01*
X102325000Y-92234523D01*
X102372619Y-92186904D01*
X102467857Y-92139285D01*
X102563095Y-92139285D01*
X102705952Y-92186904D01*
X103277380Y-92758333D01*
X103277380Y-92139285D01*
X104502380Y-92966666D02*
X104026190Y-93300000D01*
X104502380Y-93538095D02*
X103502380Y-93538095D01*
X103502380Y-93157142D01*
X103550000Y-93061904D01*
X103597619Y-93014285D01*
X103692857Y-92966666D01*
X103835714Y-92966666D01*
X103930952Y-93014285D01*
X103978571Y-93061904D01*
X104026190Y-93157142D01*
X104026190Y-93538095D01*
X104502380Y-92014285D02*
X104502380Y-92585714D01*
X104502380Y-92300000D02*
X103502380Y-92300000D01*
X103645238Y-92395238D01*
X103740476Y-92490476D01*
X103788095Y-92585714D01*
X99166666Y-103402380D02*
X99166666Y-104116666D01*
X99119047Y-104259523D01*
X99023809Y-104354761D01*
X98880952Y-104402380D01*
X98785714Y-104402380D01*
X100166666Y-104402380D02*
X99595238Y-104402380D01*
X99880952Y-104402380D02*
X99880952Y-103402380D01*
X99785714Y-103545238D01*
X99690476Y-103640476D01*
X99595238Y-103688095D01*
X97984523Y-97504761D02*
X98127380Y-97552380D01*
X98365476Y-97552380D01*
X98460714Y-97504761D01*
X98508333Y-97457142D01*
X98555952Y-97361904D01*
X98555952Y-97266666D01*
X98508333Y-97171428D01*
X98460714Y-97123809D01*
X98365476Y-97076190D01*
X98175000Y-97028571D01*
X98079761Y-96980952D01*
X98032142Y-96933333D01*
X97984523Y-96838095D01*
X97984523Y-96742857D01*
X98032142Y-96647619D01*
X98079761Y-96600000D01*
X98175000Y-96552380D01*
X98413095Y-96552380D01*
X98555952Y-96600000D01*
X99555952Y-97457142D02*
X99508333Y-97504761D01*
X99365476Y-97552380D01*
X99270238Y-97552380D01*
X99127380Y-97504761D01*
X99032142Y-97409523D01*
X98984523Y-97314285D01*
X98936904Y-97123809D01*
X98936904Y-96980952D01*
X98984523Y-96790476D01*
X99032142Y-96695238D01*
X99127380Y-96600000D01*
X99270238Y-96552380D01*
X99365476Y-96552380D01*
X99508333Y-96600000D01*
X99555952Y-96647619D01*
X100460714Y-97552380D02*
X99984523Y-97552380D01*
X99984523Y-96552380D01*
X97960714Y-96054761D02*
X98103571Y-96102380D01*
X98341666Y-96102380D01*
X98436904Y-96054761D01*
X98484523Y-96007142D01*
X98532142Y-95911904D01*
X98532142Y-95816666D01*
X98484523Y-95721428D01*
X98436904Y-95673809D01*
X98341666Y-95626190D01*
X98151190Y-95578571D01*
X98055952Y-95530952D01*
X98008333Y-95483333D01*
X97960714Y-95388095D01*
X97960714Y-95292857D01*
X98008333Y-95197619D01*
X98055952Y-95150000D01*
X98151190Y-95102380D01*
X98389285Y-95102380D01*
X98532142Y-95150000D01*
X98960714Y-96102380D02*
X98960714Y-95102380D01*
X99198809Y-95102380D01*
X99341666Y-95150000D01*
X99436904Y-95245238D01*
X99484523Y-95340476D01*
X99532142Y-95530952D01*
X99532142Y-95673809D01*
X99484523Y-95864285D01*
X99436904Y-95959523D01*
X99341666Y-96054761D01*
X99198809Y-96102380D01*
X98960714Y-96102380D01*
X99913095Y-95816666D02*
X100389285Y-95816666D01*
X99817857Y-96102380D02*
X100151190Y-95102380D01*
X100484523Y-96102380D01*
X109583333Y-86657142D02*
X109535714Y-86704761D01*
X109392857Y-86752380D01*
X109297619Y-86752380D01*
X109154761Y-86704761D01*
X109059523Y-86609523D01*
X109011904Y-86514285D01*
X108964285Y-86323809D01*
X108964285Y-86180952D01*
X109011904Y-85990476D01*
X109059523Y-85895238D01*
X109154761Y-85800000D01*
X109297619Y-85752380D01*
X109392857Y-85752380D01*
X109535714Y-85800000D01*
X109583333Y-85847619D01*
X110535714Y-86752380D02*
X109964285Y-86752380D01*
X110250000Y-86752380D02*
X110250000Y-85752380D01*
X110154761Y-85895238D01*
X110059523Y-85990476D01*
X109964285Y-86038095D01*
X76232380Y-28938096D02*
X75232380Y-28938096D01*
X75232380Y-28700001D01*
X75280000Y-28557143D01*
X75375238Y-28461905D01*
X75470476Y-28414286D01*
X75660952Y-28366667D01*
X75803809Y-28366667D01*
X75994285Y-28414286D01*
X76089523Y-28461905D01*
X76184761Y-28557143D01*
X76232380Y-28700001D01*
X76232380Y-28938096D01*
X75327619Y-27985715D02*
X75280000Y-27938096D01*
X75232380Y-27842858D01*
X75232380Y-27604762D01*
X75280000Y-27509524D01*
X75327619Y-27461905D01*
X75422857Y-27414286D01*
X75518095Y-27414286D01*
X75660952Y-27461905D01*
X76232380Y-28033334D01*
X76232380Y-27414286D01*
X73652380Y-28888095D02*
X72652380Y-28888095D01*
X72652380Y-28650000D01*
X72700000Y-28507142D01*
X72795238Y-28411904D01*
X72890476Y-28364285D01*
X73080952Y-28316666D01*
X73223809Y-28316666D01*
X73414285Y-28364285D01*
X73509523Y-28411904D01*
X73604761Y-28507142D01*
X73652380Y-28650000D01*
X73652380Y-28888095D01*
X73652380Y-27364285D02*
X73652380Y-27935714D01*
X73652380Y-27650000D02*
X72652380Y-27650000D01*
X72795238Y-27745238D01*
X72890476Y-27840476D01*
X72938095Y-27935714D01*
X102413095Y-86202380D02*
X102984523Y-86202380D01*
X102698809Y-87202380D02*
X102698809Y-86202380D01*
X103317857Y-87202380D02*
X103317857Y-86202380D01*
X103698809Y-86202380D01*
X103794047Y-86250000D01*
X103841666Y-86297619D01*
X103889285Y-86392857D01*
X103889285Y-86535714D01*
X103841666Y-86630952D01*
X103794047Y-86678571D01*
X103698809Y-86726190D01*
X103317857Y-86726190D01*
X104222619Y-86202380D02*
X104889285Y-86202380D01*
X104460714Y-87202380D01*
X102413095Y-87552380D02*
X102984523Y-87552380D01*
X102698809Y-88552380D02*
X102698809Y-87552380D01*
X103317857Y-88552380D02*
X103317857Y-87552380D01*
X103698809Y-87552380D01*
X103794047Y-87600000D01*
X103841666Y-87647619D01*
X103889285Y-87742857D01*
X103889285Y-87885714D01*
X103841666Y-87980952D01*
X103794047Y-88028571D01*
X103698809Y-88076190D01*
X103317857Y-88076190D01*
X104746428Y-87552380D02*
X104555952Y-87552380D01*
X104460714Y-87600000D01*
X104413095Y-87647619D01*
X104317857Y-87790476D01*
X104270238Y-87980952D01*
X104270238Y-88361904D01*
X104317857Y-88457142D01*
X104365476Y-88504761D01*
X104460714Y-88552380D01*
X104651190Y-88552380D01*
X104746428Y-88504761D01*
X104794047Y-88457142D01*
X104841666Y-88361904D01*
X104841666Y-88123809D01*
X104794047Y-88028571D01*
X104746428Y-87980952D01*
X104651190Y-87933333D01*
X104460714Y-87933333D01*
X104365476Y-87980952D01*
X104317857Y-88028571D01*
X104270238Y-88123809D01*
X102513095Y-89227380D02*
X103084523Y-89227380D01*
X102798809Y-90227380D02*
X102798809Y-89227380D01*
X103417857Y-90227380D02*
X103417857Y-89227380D01*
X103798809Y-89227380D01*
X103894047Y-89275000D01*
X103941666Y-89322619D01*
X103989285Y-89417857D01*
X103989285Y-89560714D01*
X103941666Y-89655952D01*
X103894047Y-89703571D01*
X103798809Y-89751190D01*
X103417857Y-89751190D01*
X104894047Y-89227380D02*
X104417857Y-89227380D01*
X104370238Y-89703571D01*
X104417857Y-89655952D01*
X104513095Y-89608333D01*
X104751190Y-89608333D01*
X104846428Y-89655952D01*
X104894047Y-89703571D01*
X104941666Y-89798809D01*
X104941666Y-90036904D01*
X104894047Y-90132142D01*
X104846428Y-90179761D01*
X104751190Y-90227380D01*
X104513095Y-90227380D01*
X104417857Y-90179761D01*
X104370238Y-90132142D01*
X110163095Y-95077380D02*
X110734523Y-95077380D01*
X110448809Y-96077380D02*
X110448809Y-95077380D01*
X111067857Y-96077380D02*
X111067857Y-95077380D01*
X111448809Y-95077380D01*
X111544047Y-95125000D01*
X111591666Y-95172619D01*
X111639285Y-95267857D01*
X111639285Y-95410714D01*
X111591666Y-95505952D01*
X111544047Y-95553571D01*
X111448809Y-95601190D01*
X111067857Y-95601190D01*
X112496428Y-95410714D02*
X112496428Y-96077380D01*
X112258333Y-95029761D02*
X112020238Y-95744047D01*
X112639285Y-95744047D01*
X110163095Y-93577380D02*
X110734523Y-93577380D01*
X110448809Y-94577380D02*
X110448809Y-93577380D01*
X111067857Y-94577380D02*
X111067857Y-93577380D01*
X111448809Y-93577380D01*
X111544047Y-93625000D01*
X111591666Y-93672619D01*
X111639285Y-93767857D01*
X111639285Y-93910714D01*
X111591666Y-94005952D01*
X111544047Y-94053571D01*
X111448809Y-94101190D01*
X111067857Y-94101190D01*
X111972619Y-93577380D02*
X112591666Y-93577380D01*
X112258333Y-93958333D01*
X112401190Y-93958333D01*
X112496428Y-94005952D01*
X112544047Y-94053571D01*
X112591666Y-94148809D01*
X112591666Y-94386904D01*
X112544047Y-94482142D01*
X112496428Y-94529761D01*
X112401190Y-94577380D01*
X112115476Y-94577380D01*
X112020238Y-94529761D01*
X111972619Y-94482142D01*
X110163095Y-92077380D02*
X110734523Y-92077380D01*
X110448809Y-93077380D02*
X110448809Y-92077380D01*
X111067857Y-93077380D02*
X111067857Y-92077380D01*
X111448809Y-92077380D01*
X111544047Y-92125000D01*
X111591666Y-92172619D01*
X111639285Y-92267857D01*
X111639285Y-92410714D01*
X111591666Y-92505952D01*
X111544047Y-92553571D01*
X111448809Y-92601190D01*
X111067857Y-92601190D01*
X112020238Y-92172619D02*
X112067857Y-92125000D01*
X112163095Y-92077380D01*
X112401190Y-92077380D01*
X112496428Y-92125000D01*
X112544047Y-92172619D01*
X112591666Y-92267857D01*
X112591666Y-92363095D01*
X112544047Y-92505952D01*
X111972619Y-93077380D01*
X112591666Y-93077380D01*
X110163095Y-96577380D02*
X110734523Y-96577380D01*
X110448809Y-97577380D02*
X110448809Y-96577380D01*
X111067857Y-97577380D02*
X111067857Y-96577380D01*
X111448809Y-96577380D01*
X111544047Y-96625000D01*
X111591666Y-96672619D01*
X111639285Y-96767857D01*
X111639285Y-96910714D01*
X111591666Y-97005952D01*
X111544047Y-97053571D01*
X111448809Y-97101190D01*
X111067857Y-97101190D01*
X112591666Y-97577380D02*
X112020238Y-97577380D01*
X112305952Y-97577380D02*
X112305952Y-96577380D01*
X112210714Y-96720238D01*
X112115476Y-96815476D01*
X112020238Y-96863095D01*
X102666666Y-71952380D02*
X102666666Y-72666666D01*
X102619047Y-72809523D01*
X102523809Y-72904761D01*
X102380952Y-72952380D01*
X102285714Y-72952380D01*
X103142857Y-72952380D02*
X103142857Y-71952380D01*
X103523809Y-71952380D01*
X103619047Y-72000000D01*
X103666666Y-72047619D01*
X103714285Y-72142857D01*
X103714285Y-72285714D01*
X103666666Y-72380952D01*
X103619047Y-72428571D01*
X103523809Y-72476190D01*
X103142857Y-72476190D01*
X104571428Y-72285714D02*
X104571428Y-72952380D01*
X104333333Y-71904761D02*
X104095238Y-72619047D01*
X104714285Y-72619047D01*
X102666666Y-70452380D02*
X102666666Y-71166666D01*
X102619047Y-71309523D01*
X102523809Y-71404761D01*
X102380952Y-71452380D01*
X102285714Y-71452380D01*
X103142857Y-71452380D02*
X103142857Y-70452380D01*
X103523809Y-70452380D01*
X103619047Y-70500000D01*
X103666666Y-70547619D01*
X103714285Y-70642857D01*
X103714285Y-70785714D01*
X103666666Y-70880952D01*
X103619047Y-70928571D01*
X103523809Y-70976190D01*
X103142857Y-70976190D01*
X104047619Y-70452380D02*
X104666666Y-70452380D01*
X104333333Y-70833333D01*
X104476190Y-70833333D01*
X104571428Y-70880952D01*
X104619047Y-70928571D01*
X104666666Y-71023809D01*
X104666666Y-71261904D01*
X104619047Y-71357142D01*
X104571428Y-71404761D01*
X104476190Y-71452380D01*
X104190476Y-71452380D01*
X104095238Y-71404761D01*
X104047619Y-71357142D01*
X102666666Y-68952380D02*
X102666666Y-69666666D01*
X102619047Y-69809523D01*
X102523809Y-69904761D01*
X102380952Y-69952380D01*
X102285714Y-69952380D01*
X103142857Y-69952380D02*
X103142857Y-68952380D01*
X103523809Y-68952380D01*
X103619047Y-69000000D01*
X103666666Y-69047619D01*
X103714285Y-69142857D01*
X103714285Y-69285714D01*
X103666666Y-69380952D01*
X103619047Y-69428571D01*
X103523809Y-69476190D01*
X103142857Y-69476190D01*
X104095238Y-69047619D02*
X104142857Y-69000000D01*
X104238095Y-68952380D01*
X104476190Y-68952380D01*
X104571428Y-69000000D01*
X104619047Y-69047619D01*
X104666666Y-69142857D01*
X104666666Y-69238095D01*
X104619047Y-69380952D01*
X104047619Y-69952380D01*
X104666666Y-69952380D01*
X102666666Y-73452380D02*
X102666666Y-74166666D01*
X102619047Y-74309523D01*
X102523809Y-74404761D01*
X102380952Y-74452380D01*
X102285714Y-74452380D01*
X103142857Y-74452380D02*
X103142857Y-73452380D01*
X103523809Y-73452380D01*
X103619047Y-73500000D01*
X103666666Y-73547619D01*
X103714285Y-73642857D01*
X103714285Y-73785714D01*
X103666666Y-73880952D01*
X103619047Y-73928571D01*
X103523809Y-73976190D01*
X103142857Y-73976190D01*
X104666666Y-74452380D02*
X104095238Y-74452380D01*
X104380952Y-74452380D02*
X104380952Y-73452380D01*
X104285714Y-73595238D01*
X104190476Y-73690476D01*
X104095238Y-73738095D01*
X58998571Y-23683333D02*
X58998571Y-24016666D01*
X59522380Y-24016666D02*
X58522380Y-24016666D01*
X58522380Y-23540476D01*
X59522380Y-22635714D02*
X59522380Y-23207142D01*
X59522380Y-22921428D02*
X58522380Y-22921428D01*
X58665238Y-23016666D01*
X58760476Y-23111904D01*
X58808095Y-23207142D01*
X48507142Y-26016666D02*
X48554761Y-26064285D01*
X48602380Y-26207142D01*
X48602380Y-26302380D01*
X48554761Y-26445238D01*
X48459523Y-26540476D01*
X48364285Y-26588095D01*
X48173809Y-26635714D01*
X48030952Y-26635714D01*
X47840476Y-26588095D01*
X47745238Y-26540476D01*
X47650000Y-26445238D01*
X47602380Y-26302380D01*
X47602380Y-26207142D01*
X47650000Y-26064285D01*
X47697619Y-26016666D01*
X47602380Y-25683333D02*
X47602380Y-25064285D01*
X47983333Y-25397619D01*
X47983333Y-25254761D01*
X48030952Y-25159523D01*
X48078571Y-25111904D01*
X48173809Y-25064285D01*
X48411904Y-25064285D01*
X48507142Y-25111904D01*
X48554761Y-25159523D01*
X48602380Y-25254761D01*
X48602380Y-25540476D01*
X48554761Y-25635714D01*
X48507142Y-25683333D01*
X69357142Y-22166666D02*
X69404761Y-22214285D01*
X69452380Y-22357142D01*
X69452380Y-22452380D01*
X69404761Y-22595238D01*
X69309523Y-22690476D01*
X69214285Y-22738095D01*
X69023809Y-22785714D01*
X68880952Y-22785714D01*
X68690476Y-22738095D01*
X68595238Y-22690476D01*
X68500000Y-22595238D01*
X68452380Y-22452380D01*
X68452380Y-22357142D01*
X68500000Y-22214285D01*
X68547619Y-22166666D01*
X68547619Y-21785714D02*
X68500000Y-21738095D01*
X68452380Y-21642857D01*
X68452380Y-21404761D01*
X68500000Y-21309523D01*
X68547619Y-21261904D01*
X68642857Y-21214285D01*
X68738095Y-21214285D01*
X68880952Y-21261904D01*
X69452380Y-21833333D01*
X69452380Y-21214285D01*
X76404761Y-111333333D02*
X76452380Y-111190476D01*
X76452380Y-110952380D01*
X76404761Y-110857142D01*
X76357142Y-110809523D01*
X76261904Y-110761904D01*
X76166666Y-110761904D01*
X76071428Y-110809523D01*
X76023809Y-110857142D01*
X75976190Y-110952380D01*
X75928571Y-111142857D01*
X75880952Y-111238095D01*
X75833333Y-111285714D01*
X75738095Y-111333333D01*
X75642857Y-111333333D01*
X75547619Y-111285714D01*
X75500000Y-111238095D01*
X75452380Y-111142857D01*
X75452380Y-110904761D01*
X75500000Y-110761904D01*
X75452380Y-110428571D02*
X76452380Y-110190476D01*
X75738095Y-110000000D01*
X76452380Y-109809523D01*
X75452380Y-109571428D01*
X75452380Y-109285714D02*
X75452380Y-108666666D01*
X75833333Y-109000000D01*
X75833333Y-108857142D01*
X75880952Y-108761904D01*
X75928571Y-108714285D01*
X76023809Y-108666666D01*
X76261904Y-108666666D01*
X76357142Y-108714285D01*
X76404761Y-108761904D01*
X76452380Y-108857142D01*
X76452380Y-109142857D01*
X76404761Y-109238095D01*
X76357142Y-109285714D01*
X88077380Y-33036904D02*
X88886904Y-33036904D01*
X88982142Y-32989285D01*
X89029761Y-32941666D01*
X89077380Y-32846428D01*
X89077380Y-32655952D01*
X89029761Y-32560714D01*
X88982142Y-32513095D01*
X88886904Y-32465476D01*
X88077380Y-32465476D01*
X88077380Y-31513095D02*
X88077380Y-31989285D01*
X88553571Y-32036904D01*
X88505952Y-31989285D01*
X88458333Y-31894047D01*
X88458333Y-31655952D01*
X88505952Y-31560714D01*
X88553571Y-31513095D01*
X88648809Y-31465476D01*
X88886904Y-31465476D01*
X88982142Y-31513095D01*
X89029761Y-31560714D01*
X89077380Y-31655952D01*
X89077380Y-31894047D01*
X89029761Y-31989285D01*
X88982142Y-32036904D01*
X76404761Y-105833333D02*
X76452380Y-105690476D01*
X76452380Y-105452380D01*
X76404761Y-105357142D01*
X76357142Y-105309523D01*
X76261904Y-105261904D01*
X76166666Y-105261904D01*
X76071428Y-105309523D01*
X76023809Y-105357142D01*
X75976190Y-105452380D01*
X75928571Y-105642857D01*
X75880952Y-105738095D01*
X75833333Y-105785714D01*
X75738095Y-105833333D01*
X75642857Y-105833333D01*
X75547619Y-105785714D01*
X75500000Y-105738095D01*
X75452380Y-105642857D01*
X75452380Y-105404761D01*
X75500000Y-105261904D01*
X75452380Y-104928571D02*
X76452380Y-104690476D01*
X75738095Y-104500000D01*
X76452380Y-104309523D01*
X75452380Y-104071428D01*
X75547619Y-103738095D02*
X75500000Y-103690476D01*
X75452380Y-103595238D01*
X75452380Y-103357142D01*
X75500000Y-103261904D01*
X75547619Y-103214285D01*
X75642857Y-103166666D01*
X75738095Y-103166666D01*
X75880952Y-103214285D01*
X76452380Y-103785714D01*
X76452380Y-103166666D01*
X76404761Y-100833333D02*
X76452380Y-100690476D01*
X76452380Y-100452380D01*
X76404761Y-100357142D01*
X76357142Y-100309523D01*
X76261904Y-100261904D01*
X76166666Y-100261904D01*
X76071428Y-100309523D01*
X76023809Y-100357142D01*
X75976190Y-100452380D01*
X75928571Y-100642857D01*
X75880952Y-100738095D01*
X75833333Y-100785714D01*
X75738095Y-100833333D01*
X75642857Y-100833333D01*
X75547619Y-100785714D01*
X75500000Y-100738095D01*
X75452380Y-100642857D01*
X75452380Y-100404761D01*
X75500000Y-100261904D01*
X75452380Y-99928571D02*
X76452380Y-99690476D01*
X75738095Y-99500000D01*
X76452380Y-99309523D01*
X75452380Y-99071428D01*
X76452380Y-98166666D02*
X76452380Y-98738095D01*
X76452380Y-98452380D02*
X75452380Y-98452380D01*
X75595238Y-98547619D01*
X75690476Y-98642857D01*
X75738095Y-98738095D01*
X91209523Y-26652380D02*
X90876190Y-26176190D01*
X90638095Y-26652380D02*
X90638095Y-25652380D01*
X91019047Y-25652380D01*
X91114285Y-25700000D01*
X91161904Y-25747619D01*
X91209523Y-25842857D01*
X91209523Y-25985714D01*
X91161904Y-26080952D01*
X91114285Y-26128571D01*
X91019047Y-26176190D01*
X90638095Y-26176190D01*
X91638095Y-26652380D02*
X91638095Y-25652380D01*
X92209523Y-26652380D01*
X92209523Y-25652380D01*
X93209523Y-26652380D02*
X92638095Y-26652380D01*
X92923809Y-26652380D02*
X92923809Y-25652380D01*
X92828571Y-25795238D01*
X92733333Y-25890476D01*
X92638095Y-25938095D01*
X78757380Y-100833333D02*
X79471666Y-100833333D01*
X79614523Y-100880952D01*
X79709761Y-100976190D01*
X79757380Y-101119047D01*
X79757380Y-101214285D01*
X78757380Y-100452380D02*
X78757380Y-99833333D01*
X79138333Y-100166666D01*
X79138333Y-100023809D01*
X79185952Y-99928571D01*
X79233571Y-99880952D01*
X79328809Y-99833333D01*
X79566904Y-99833333D01*
X79662142Y-99880952D01*
X79709761Y-99928571D01*
X79757380Y-100023809D01*
X79757380Y-100309523D01*
X79709761Y-100404761D01*
X79662142Y-100452380D01*
X84538095Y-33950380D02*
X85109523Y-33950380D01*
X84823809Y-34950380D02*
X84823809Y-33950380D01*
X85442857Y-34950380D02*
X85442857Y-33950380D01*
X85823809Y-33950380D01*
X85919047Y-33998000D01*
X85966666Y-34045619D01*
X86014285Y-34140857D01*
X86014285Y-34283714D01*
X85966666Y-34378952D01*
X85919047Y-34426571D01*
X85823809Y-34474190D01*
X85442857Y-34474190D01*
X86585714Y-34378952D02*
X86490476Y-34331333D01*
X86442857Y-34283714D01*
X86395238Y-34188476D01*
X86395238Y-34140857D01*
X86442857Y-34045619D01*
X86490476Y-33998000D01*
X86585714Y-33950380D01*
X86776190Y-33950380D01*
X86871428Y-33998000D01*
X86919047Y-34045619D01*
X86966666Y-34140857D01*
X86966666Y-34188476D01*
X86919047Y-34283714D01*
X86871428Y-34331333D01*
X86776190Y-34378952D01*
X86585714Y-34378952D01*
X86490476Y-34426571D01*
X86442857Y-34474190D01*
X86395238Y-34569428D01*
X86395238Y-34759904D01*
X86442857Y-34855142D01*
X86490476Y-34902761D01*
X86585714Y-34950380D01*
X86776190Y-34950380D01*
X86871428Y-34902761D01*
X86919047Y-34855142D01*
X86966666Y-34759904D01*
X86966666Y-34569428D01*
X86919047Y-34474190D01*
X86871428Y-34426571D01*
X86776190Y-34378952D01*
X30107142Y-26542857D02*
X30154761Y-26590476D01*
X30202380Y-26733333D01*
X30202380Y-26828571D01*
X30154761Y-26971428D01*
X30059523Y-27066666D01*
X29964285Y-27114285D01*
X29773809Y-27161904D01*
X29630952Y-27161904D01*
X29440476Y-27114285D01*
X29345238Y-27066666D01*
X29250000Y-26971428D01*
X29202380Y-26828571D01*
X29202380Y-26733333D01*
X29250000Y-26590476D01*
X29297619Y-26542857D01*
X29202380Y-26209523D02*
X29202380Y-25590476D01*
X29583333Y-25923809D01*
X29583333Y-25780952D01*
X29630952Y-25685714D01*
X29678571Y-25638095D01*
X29773809Y-25590476D01*
X30011904Y-25590476D01*
X30107142Y-25638095D01*
X30154761Y-25685714D01*
X30202380Y-25780952D01*
X30202380Y-26066666D01*
X30154761Y-26161904D01*
X30107142Y-26209523D01*
X29202380Y-25257142D02*
X29202380Y-24590476D01*
X30202380Y-25019047D01*
X39857142Y-26542857D02*
X39904761Y-26590476D01*
X39952380Y-26733333D01*
X39952380Y-26828571D01*
X39904761Y-26971428D01*
X39809523Y-27066666D01*
X39714285Y-27114285D01*
X39523809Y-27161904D01*
X39380952Y-27161904D01*
X39190476Y-27114285D01*
X39095238Y-27066666D01*
X39000000Y-26971428D01*
X38952380Y-26828571D01*
X38952380Y-26733333D01*
X39000000Y-26590476D01*
X39047619Y-26542857D01*
X38952380Y-26209523D02*
X38952380Y-25590476D01*
X39333333Y-25923809D01*
X39333333Y-25780952D01*
X39380952Y-25685714D01*
X39428571Y-25638095D01*
X39523809Y-25590476D01*
X39761904Y-25590476D01*
X39857142Y-25638095D01*
X39904761Y-25685714D01*
X39952380Y-25780952D01*
X39952380Y-26066666D01*
X39904761Y-26161904D01*
X39857142Y-26209523D01*
X38952380Y-24733333D02*
X38952380Y-24923809D01*
X39000000Y-25019047D01*
X39047619Y-25066666D01*
X39190476Y-25161904D01*
X39380952Y-25209523D01*
X39761904Y-25209523D01*
X39857142Y-25161904D01*
X39904761Y-25114285D01*
X39952380Y-25019047D01*
X39952380Y-24828571D01*
X39904761Y-24733333D01*
X39857142Y-24685714D01*
X39761904Y-24638095D01*
X39523809Y-24638095D01*
X39428571Y-24685714D01*
X39380952Y-24733333D01*
X39333333Y-24828571D01*
X39333333Y-25019047D01*
X39380952Y-25114285D01*
X39428571Y-25161904D01*
X39523809Y-25209523D01*
X58090476Y-112384761D02*
X58233333Y-112432380D01*
X58471428Y-112432380D01*
X58566666Y-112384761D01*
X58614285Y-112337142D01*
X58661904Y-112241904D01*
X58661904Y-112146666D01*
X58614285Y-112051428D01*
X58566666Y-112003809D01*
X58471428Y-111956190D01*
X58280952Y-111908571D01*
X58185714Y-111860952D01*
X58138095Y-111813333D01*
X58090476Y-111718095D01*
X58090476Y-111622857D01*
X58138095Y-111527619D01*
X58185714Y-111480000D01*
X58280952Y-111432380D01*
X58519047Y-111432380D01*
X58661904Y-111480000D01*
X58995238Y-111432380D02*
X59233333Y-112432380D01*
X59423809Y-111718095D01*
X59614285Y-112432380D01*
X59852380Y-111432380D01*
X60757142Y-112432380D02*
X60185714Y-112432380D01*
X60471428Y-112432380D02*
X60471428Y-111432380D01*
X60376190Y-111575238D01*
X60280952Y-111670476D01*
X60185714Y-111718095D01*
X61328571Y-111860952D02*
X61233333Y-111813333D01*
X61185714Y-111765714D01*
X61138095Y-111670476D01*
X61138095Y-111622857D01*
X61185714Y-111527619D01*
X61233333Y-111480000D01*
X61328571Y-111432380D01*
X61519047Y-111432380D01*
X61614285Y-111480000D01*
X61661904Y-111527619D01*
X61709523Y-111622857D01*
X61709523Y-111670476D01*
X61661904Y-111765714D01*
X61614285Y-111813333D01*
X61519047Y-111860952D01*
X61328571Y-111860952D01*
X61233333Y-111908571D01*
X61185714Y-111956190D01*
X61138095Y-112051428D01*
X61138095Y-112241904D01*
X61185714Y-112337142D01*
X61233333Y-112384761D01*
X61328571Y-112432380D01*
X61519047Y-112432380D01*
X61614285Y-112384761D01*
X61661904Y-112337142D01*
X61709523Y-112241904D01*
X61709523Y-112051428D01*
X61661904Y-111956190D01*
X61614285Y-111908571D01*
X61519047Y-111860952D01*
X52147380Y-96333333D02*
X52861666Y-96333333D01*
X53004523Y-96380952D01*
X53099761Y-96476190D01*
X53147380Y-96619047D01*
X53147380Y-96714285D01*
X52147380Y-95952380D02*
X52147380Y-95285714D01*
X53147380Y-95714285D01*
X40566666Y-112384761D02*
X40709523Y-112432380D01*
X40947619Y-112432380D01*
X41042857Y-112384761D01*
X41090476Y-112337142D01*
X41138095Y-112241904D01*
X41138095Y-112146666D01*
X41090476Y-112051428D01*
X41042857Y-112003809D01*
X40947619Y-111956190D01*
X40757142Y-111908571D01*
X40661904Y-111860952D01*
X40614285Y-111813333D01*
X40566666Y-111718095D01*
X40566666Y-111622857D01*
X40614285Y-111527619D01*
X40661904Y-111480000D01*
X40757142Y-111432380D01*
X40995238Y-111432380D01*
X41138095Y-111480000D01*
X41471428Y-111432380D02*
X41709523Y-112432380D01*
X41900000Y-111718095D01*
X42090476Y-112432380D01*
X42328571Y-111432380D01*
X43185714Y-111432380D02*
X42709523Y-111432380D01*
X42661904Y-111908571D01*
X42709523Y-111860952D01*
X42804761Y-111813333D01*
X43042857Y-111813333D01*
X43138095Y-111860952D01*
X43185714Y-111908571D01*
X43233333Y-112003809D01*
X43233333Y-112241904D01*
X43185714Y-112337142D01*
X43138095Y-112384761D01*
X43042857Y-112432380D01*
X42804761Y-112432380D01*
X42709523Y-112384761D01*
X42661904Y-112337142D01*
X34147380Y-96333333D02*
X34861666Y-96333333D01*
X35004523Y-96380952D01*
X35099761Y-96476190D01*
X35147380Y-96619047D01*
X35147380Y-96714285D01*
X34480714Y-95428571D02*
X35147380Y-95428571D01*
X34099761Y-95666666D02*
X34814047Y-95904761D01*
X34814047Y-95285714D01*
M02*
